<?xml version="1.0" encoding="utf-8"?>
<!-- Generator: Adobe Illustrator 25.2.1, SVG Export Plug-In . SVG Version: 6.00 Build 0)  -->
<svg version="1.1" id="Capa_1" xmlns="http://www.w3.org/2000/svg" xmlns:xlink="http://www.w3.org/1999/xlink" x="0px" y="0px"
	 viewBox="0 0 498 546" style="enable-background:new 0 0 498 546;" xml:space="preserve">
<style type="text/css">
	.st0{fill:#C1C8D2;}
	.st1{fill:#AAB2B9;}
	.st2{fill:#DFDFDF;}
	.st3{fill:#737373;}
	.st4{fill:#FFFFFF;}
	.st5{fill:#E2EBF9;}
	.st6{fill:#545D69;}
	.st7{fill:#00C395;}
	.st8{fill-rule:evenodd;clip-rule:evenodd;fill:#ED1C2E;}
	.st9{fill:#C2C7D0;}
	.st10{fill:#E4EAF8;}
	.st11{fill:#474D54;}
</style>
<g>
	<path class="st0" d="M211.5,530.4H17.3c-3.4,0-6.2-2.8-6.2-6.2s2.8-6.2,6.2-6.2h194.3c3.4,0,6.2,2.8,6.2,6.2
		C217.7,527.6,215,530.4,211.5,530.4z"/>
	<path class="st1" d="M211.5,517.9H199c3.4,0,6.2,2.8,6.2,6.2s-2.8,6.2-6.2,6.2h12.5c3.4,0,6.2-2.8,6.2-6.2S215,517.9,211.5,517.9z"
		/>
	<path class="st2" d="M179.9,492.9h-131V458c0-4.6,3.7-8.3,8.3-8.3h114.4c4.6,0,8.3,3.7,8.3,8.3V492.9L179.9,492.9z"/>
	<path class="st1" d="M171.6,449.7h-12.5c4.6,0,8.3,3.7,8.3,8.3v34.9h12.5V458C179.9,453.4,176.2,449.7,171.6,449.7z"/>
	<path class="st3" d="M69.7,482.4c-4.6,0-8.3-3.7-8.3-8.3c0-4.6,3.7-8.3,8.3-8.3s8.3,3.7,8.3,8.3C78,478.7,74.3,482.4,69.7,482.4z"
		/>
	<path class="st3" d="M159.1,482.4c-4.6,0-8.3-3.7-8.3-8.3c0-4.6,3.7-8.3,8.3-8.3s8.3,3.7,8.3,8.3
		C167.4,478.7,163.7,482.4,159.1,482.4z"/>
	<path class="st4" d="M43.7,492.9h141.4v12.5H43.7V492.9z"/>
	<path class="st5" d="M172.6,492.9h12.5v12.5h-12.5V492.9z"/>
	<path class="st1" d="M53,505.4h16.6v12.5H53V505.4z"/>
	<path class="st6" d="M159.1,505.4h16.6v12.5h-16.6V505.4z"/>
	<path class="st2" d="M169.7,449.7H59.1v-34.9c0-2.3,1.9-4.2,4.2-4.2h102.3c2.3,0,4.2,1.9,4.2,4.2v34.9H169.7z"/>
	<path class="st1" d="M165.5,410.6H153c2.3,0,4.2,1.9,4.2,4.2v34.9h12.5v-34.9C169.7,412.4,167.8,410.6,165.5,410.6z"/>
	<path class="st2" d="M165.5,410.6H63.2v-6.3c0-3.4,2.8-6.2,6.2-6.2h90c3.4,0,6.2,2.8,6.2,6.2L165.5,410.6L165.5,410.6z"/>
	<path class="st1" d="M159.4,398.1h-12.5c3.4,0,6.2,2.8,6.2,6.2v6.3h12.5v-6.3C165.5,400.8,162.8,398.1,159.4,398.1z"/>
	<path class="st2" d="M59.1,449.7H43.6c-3.9,0-7-3.1-7-7v-0.1c0-3.9,3.1-7,7-7h2.5c7.1,0,12.9,5.8,12.9,12.9L59.1,449.7L59.1,449.7z
		"/>
	<path class="st2" d="M169.7,449.7h15.4c3.9,0,7-3.1,7-7v-0.1c0-3.9-3.1-7-7-7h-2.5c-7.1,0-12.9,5.8-12.9,12.9V449.7z"/>
	<path class="st2" d="M86.5,465.5h55.7V493H86.5V465.5z"/>
	<path class="st1" d="M146.4,465.5h-64c-8.7,0-15.8-7.1-15.8-15.8h95.7C162.2,458.4,155.1,465.5,146.4,465.5z"/>
	<path class="st7" d="M108.1,403.3c2.1,1.8,3.9,3.2,5,4c0.7,0.5,1.7,0.5,2.5,0"/>
	<path class="st1" d="M159.1,505.4h16.6v12.5h-16.6V505.4z"/>
	<g>
		<path class="st3" d="M96.1,488.5c-1.7,0-3.1-1.4-3.1-3.1V473c0-1.7,1.4-3.1,3.1-3.1s3.1,1.4,3.1,3.1v12.5
			C99.2,487.2,97.8,488.5,96.1,488.5z"/>
		<path class="st3" d="M105.2,488.5c-1.7,0-3.1-1.4-3.1-3.1V473c0-1.7,1.4-3.1,3.1-3.1s3.1,1.4,3.1,3.1v12.5
			C108.4,487.2,107,488.5,105.2,488.5z"/>
		<path class="st3" d="M114.4,488.5c-1.7,0-3.1-1.4-3.1-3.1V473c0-1.7,1.4-3.1,3.1-3.1s3.1,1.4,3.1,3.1v12.5
			C117.5,487.2,116.1,488.5,114.4,488.5z"/>
		<path class="st3" d="M123.5,488.5c-1.7,0-3.1-1.4-3.1-3.1V473c0-1.7,1.4-3.1,3.1-3.1s3.1,1.4,3.1,3.1v12.5
			C126.7,487.2,125.3,488.5,123.5,488.5z"/>
		<path class="st3" d="M132.7,488.5c-1.7,0-3.1-1.4-3.1-3.1V473c0-1.7,1.4-3.1,3.1-3.1c1.7,0,3.1,1.4,3.1,3.1v12.5
			C135.8,487.2,134.4,488.5,132.7,488.5z"/>
	</g>
	<path d="M92.7,391.9c0.8,1.1,1.7,2.1,2.6,3H69.4c-5.1,0-9.3,4.2-9.3,9.3v3.9c-2.5,1.2-4.2,3.7-4.2,6.6v5.5c0,1.7,1.4,3.1,3.1,3.1
		s3.1-1.4,3.1-3.1v-5.5c0-0.6,0.5-1,1-1h102.3c0.6,0,1,0.5,1,1v31.8h-12.3c-1.7,0-3.1,1.4-3.1,3.1s1.4,3.1,3.1,3.1h17.3
		c2.9,0,5.2,2.3,5.2,5.2v31.8h-31.4v-24.3c0-1.7-1.4-3.1-3.1-3.1H86.4c-1.7,0-3.1,1.4-3.1,3.1v24.3H52V458c0-2.9,2.3-5.2,5.2-5.2
		H141c1.7,0,3.1-1.4,3.1-3.1s-1.4-3.1-3.1-3.1H62.2v-13.1c0-1.7-1.4-3.1-3.1-3.1s-3.1,1.4-3.1,3.1v2.3c-2.7-2.1-6.1-3.3-9.8-3.3
		h-2.5c-5.6,0-10.1,4.5-10.1,10.1v0.1c0,5.6,4.5,10.1,10.1,10.1H47c-0.8,1.6-1.3,3.3-1.3,5.2v31.8h-2.1c-1.7,0-3.1,1.4-3.1,3.1v12.5
		c0,1.7,1.4,3.1,3.1,3.1h6.2v6.2H17.3c-5.2,0-9.4,4.2-9.4,9.4s4.2,9.4,9.4,9.4h194.3c5.2,0,9.4-4.2,9.4-9.4s-4.2-9.4-9.4-9.4h-32.7
		v-6.2h6.2c1.7,0,3.1-1.4,3.1-3.1v-12.5c0-1.7-1.4-3.1-3.1-3.1H183V458c0-1.9-0.5-3.6-1.3-5.2h3.4c5.6,0,10.1-4.5,10.1-10.1v-0.1
		c0-5.6-4.5-10.1-10.1-10.1h-2.5c-3.7,0-7.1,1.3-9.8,3.3v-21c0-2.9-1.7-5.4-4.2-6.6v-3.9c0-5.1-4.2-9.3-9.3-9.3h-25.8
		c0.9-1,1.7-2,2.6-3 M182.6,438.6h2.5c2.1,0,3.9,1.7,3.9,3.9v0.1c0,2.1-1.7,3.9-3.9,3.9H173C173.9,442,177.9,438.6,182.6,438.6z
		 M66.3,404.2c0-1.7,1.4-3,3-3h31.8c2.7,2.6,5.1,4.7,7.1,6.2h-42L66.3,404.2L66.3,404.2z M120.5,407.4c2-1.6,4.4-3.7,7.1-6.2h31.8
		c1.7,0,3,1.4,3,3v3.2H120.5z M39.7,442.6v-0.1c0-2.1,1.7-3.9,3.9-3.9h2.5c4.8,0,8.7,3.4,9.6,7.9H43.6
		C41.5,446.5,39.7,444.8,39.7,442.6z M172.6,514.8h-10.4v-6.2h10.4V514.8z M89.6,468.6h49.5v21.2H89.6
		C89.6,489.8,89.6,468.6,89.6,468.6z M46.8,496H182v6.2H87.8c-1.7,0-3.1,1.4-3.1,3.1s1.4,3.1,3.1,3.1H156v6.2H72.8v-6.2h1.6
		c1.7,0,3.1-1.4,3.1-3.1s-1.4-3.1-3.1-3.1H46.8V496z M56.1,508.5h10.4v6.2H56.1V508.5z M211.5,527.2H17.3c-1.7,0-3.1-1.4-3.1-3.1
		c0-1.7,1.4-3.1,3.1-3.1h194.3c1.7,0,3.1,1.4,3.1,3.1C214.6,525.8,213.2,527.2,211.5,527.2z"/>
	<g>
		<path class="st2" d="M89.5,375.9c0,24.9,25,33.2,25,33.2s24.9-8.2,24.9-33.3v-12c0-2-1.7-3.7-3.7-3.7h-7.8
			c-5.8,0-10.8-3.6-13.4-8.3c-2.6,4.7-7.6,8.3-13.4,8.3h-7.8c-2,0-3.7,1.7-3.7,3.7L89.5,375.9z"/>
		<path class="st4" d="M135.6,375.8c0,9.2-3.7,16.9-10.9,23c-4.1,3.5-8.3,5.5-10.3,6.3c-2-0.8-6.2-2.8-10.3-6.3
			c-7.3-6.1-11-13.8-11-23v-12h7.8c5.1,0,9.9-2.4,13.4-5.9c3.5,3.5,8.3,5.9,13.4,5.9h7.8L135.6,375.8z"/>
		<path d="M140.2,363.8c0-2.5-2.1-4.6-4.6-4.6h-7.8l0,0c-5.1,0-10-3.1-12.6-7.8c-0.2-0.3-0.4-0.5-0.8-0.5l0,0
			c-0.3,0-0.6,0.2-0.8,0.5c-2.6,4.8-7.5,7.9-12.6,7.9h-7.8c-2.5,0-4.6,2.1-4.6,4.6v12c0,5.8,1.4,11.3,4,16.1
			c2.1,3.9,5.1,7.4,8.8,10.5c6.3,5.2,12.5,7.3,12.8,7.4c0.1,0,0.2,0,0.3,0s0.2,0,0.3,0c0.3-0.1,6.5-2.2,12.7-7.4
			c3.7-3.1,6.6-6.6,8.8-10.5c2.6-4.9,4-10.3,4-16.2L140.2,363.8z M126.4,401.1c-5.3,4.4-10.7,6.6-11.9,7c-1.3-0.5-6.6-2.6-11.9-7
			c-8.1-6.7-12.2-15.2-12.2-25.3v-12c0-1.6,1.3-2.8,2.8-2.8h7.8c2.9,0,5.8-0.9,8.4-2.5c2-1.3,3.7-3,5-5c1.3,2,3,3.7,5,5
			c2.5,1.6,5.4,2.5,8.3,2.5h7.9c1.6,0,2.8,1.3,2.8,2.8v12C138.5,385.9,134.4,394.4,126.4,401.1z"/>
		<path class="st3" d="M123.1,371.5l-10.2,10.2l-7.2-7.2c-1.1-1.1-2.9-1.1-4.1,0c-1.1,1.1-1.1,2.9,0,4.1l9.2,9.2
			c0.6,0.6,1.3,0.8,2,0.8s1.5-0.3,2-0.8l12.3-12.3c1.1-1.1,1.1-2.9,0-4.1C126,370.4,124.2,370.4,123.1,371.5z"/>
	</g>
</g>
<path class="st8" d="M117.5,51.1c40.8,0,73.8,33,73.8,73.8s-33,73.8-73.8,73.8s-73.8-33-73.8-73.8C43.7,84.2,76.7,51.1,117.5,51.1
	L117.5,51.1z M117.5,58.1c-36.9,0-66.8,29.9-66.8,66.8s29.9,66.8,66.8,66.8s66.8-29.9,66.8-66.8S154.4,58.1,117.5,58.1z"/>
<path class="st8" d="M121.1,139.2v22.6h-7.2v-22.6c-3.5,0-8,0-9.7-0.1l-24,0.1c-2,0.1-4.1-0.4-6-1.4c-3.6-2.1-5.6-6-5.5-9.9
	c0-0.6,0.1-1.1,0.1-1.5c0.9-4.8,2.5-9.5,5.1-13.9c2.6-4.5,5.8-8.3,9.6-11.4c2.5-1.9,6-2.8,9.3-2.2c0.9-3.1,3.1-5.6,5.9-7.1
	c0.5-0.3,1-0.5,1.4-0.7c5.4-2,11.3-3,17.4-3s12,1.1,17.5,3.1c3.1,1.4,6,4.2,7.1,7.6c3.1-0.7,6.3,0,8.8,1.9
	c3.7,3.1,7.5,7.4,10.1,11.8s4.2,9.1,5.1,13.9c0.1,0.4,0.1,0.9,0.1,1.5c0.2,3.9-1.8,7.8-5.5,9.9c-1.9,1.1-4,1.6-6,1.4l-24-0.1
	C129.1,139.2,124.6,139.2,121.1,139.2L121.1,139.2z M146.7,106.5c-1.1-0.9-2.7-1-4.1-0.3c-0.7,0.4-1.2,1-1.5,1.7l-12.2,21.2
	c-0.4,0.6-0.4,1.3-0.1,1.9c0.4,0.6,1.1,1,1.7,0.9l24.4,0.1c0.7,0.1,1.5-0.1,2.1-0.5c1.3-0.7,1.9-2.1,1.8-3.5c0-0.1,0-0.2,0-0.4
	c-0.7-4-2.1-7.9-4.2-11.6s-4.9-6.9-8-9.5C146.8,106.5,146.7,106.5,146.7,106.5L146.7,106.5z M88.3,106.5L88.3,106.5
	c-3.2,2.7-5.9,5.9-8.1,9.6c-2.1,3.7-3.5,7.6-4.2,11.6c0,0.1,0,0.3,0,0.4c-0.1,1.4,0.6,2.8,1.8,3.5c0.7,0.4,1.4,0.5,2.1,0.5l24.4-0.1
	c0.7,0.1,1.4-0.3,1.7-0.9c0.4-0.6,0.3-1.4-0.1-1.9L93.7,108c-0.3-0.7-0.8-1.3-1.5-1.7C91.1,105.4,89.5,105.6,88.3,106.5L88.3,106.5z
	 M132.7,97.9c-0.1,0-0.1,0-0.2-0.1c-4.7-1.7-9.7-2.6-15-2.6c-5.2,0-10.3,0.9-14.9,2.6c-0.2,0.1-0.3,0.1-0.4,0.2
	c-1.5,0.7-2.6,2.3-2.6,4.1c0,1,0.3,1.9,0.8,2.6l15.1,26c0.4,0.8,1.1,1.3,2,1.3s1.6-0.5,2-1.2l15.1-26c0.5-0.7,0.9-1.7,0.9-2.6
	C135.5,100.2,134.3,98.6,132.7,97.9z"/>
<g>
	<g>
		<path class="st2" d="M432.7,46.9c-1.9-36.8-54.1-42.5-63.9-7c-1.4,5-1.2,7.2-1.2,21.1h65.1C432.8,49.6,432.8,47.9,432.7,46.9z"/>
		<path class="st9" d="M383.4,46c0.2-2.3,0.5-4.1,1.1-6.1c3.6-13,12.9-20.5,23.3-22.9c-15.6-3.6-33.6,3.5-38.9,22.9
			c-1.4,5-1.2,7.2-1.2,21.1h15.6C383.2,56.6,383.2,47.4,383.4,46z"/>
		<g>
			<path class="st10" d="M374.9,58.6c-5.3-1.9-11.4,1.6-11.4,6.8c0,5.2,6.1,8.7,11.4,6.8V58.6z"/>
			<path class="st10" d="M425.6,58.6c5.3-1.9,11.4,1.6,11.4,6.8c0,5.2-6.1,8.7-11.4,6.8V58.6z"/>
		</g>
		<g>
			<path class="st9" d="M364.3,62.2c-3.4,6,3.6,12.5,10.5,10v-6.4C370.7,67.3,366.2,65.5,364.3,62.2z"/>
			<path class="st9" d="M425.6,65.8v6.4c6.9,2.5,13.9-4,10.5-10C434.2,65.5,429.7,67.3,425.6,65.8z"/>
		</g>
		<path class="st2" d="M444.5,158.9c3.3,0,5.9-3,5.3-6.3l-5.1-31.7c-0.7-3.6-1.1-9.6-8-12.5l0,0l-19-6.2l-5.5-4.1v-7.4
			c-7.2,3.6-16,3.9-23.3,0.5v6.9l-5.7,4.2l-18.3,5.9l0,0l0,0l0,0c0,0-0.1,0,0,0c-3.8,1.4-7,4.5-7.5,8.9l-6.3,35
			c-0.6,3.5,2.1,6.7,5.6,6.7L444.5,158.9L444.5,158.9z"/>
		<path class="st9" d="M359.7,152.1c7-41.2,6.2-39.6,7.7-42c1.2-1.9,3-3.3,5-4.3l-7.4,2.4c-3.8,1.4-7,4.6-7.5,8.9l-6.3,35
			c-0.6,3.5,2.1,6.7,5.6,6.7h8.5C361.7,158.9,359,155.6,359.7,152.1z M364.9,108.3L364.9,108.3L364.9,108.3z"/>
		<path class="st10" d="M414.1,99.5l-1.9-1.4v-7.4c-7.2,3.6-16,3.9-23.3,0.5v6.9l-1.9,1.4l0,0l13.1,9.6L414.1,99.5z"/>
		<path class="st9" d="M397.6,93.5c-3-0.3-5.9-1-8.7-2.3v6.9l-1.9,1.4l0,0l10.5,7.7L397.6,93.5L397.6,93.5L397.6,93.5z"/>
		<path class="st4" d="M424.7,49.5c0.7,0.1,1.2,0.6,1.2,1.3c0,21.6,0,18.4,0,19.4c-1.5,28.9-42.6,33.4-50.3,5.5
			c-0.4-1.5-0.7-3-0.8-4.8c-0.1-1.8-0.1-11.7-0.1-11.6c0-5,4.5-8.9,9.4-8.1c7.8,1.1,19.3,0.7,29.3-7.8c1-0.9,2.6-0.6,3.2,0.6
			C417.7,46.1,420.2,49,424.7,49.5z"/>
		<path class="st10" d="M383.4,70.2c0-1,0,2.1,0-19.1c-4.7-0.3-8.8,3.4-8.8,8.2c0,0-0.1,9.8,0.1,11.6c1.2,15,14.3,25.8,29.9,23.1
			C393.8,92.2,384.1,84,383.4,70.2z"/>
		<g>
			<path class="st2" d="M389,98.1l11.2,11l-10,7c-1.5,1-3.5,0.3-4.1-1.4l-2.9-12.4L389,98.1z"/>
			<path class="st2" d="M412.2,98.1l-12,11l10,7c1.5,1,3.5,0.3,4.1-1.4l3.5-12.4L412.2,98.1z"/>
		</g>
		<path class="st2" d="M404.2,122.8h-4h-4l-5.9,36.1c5.4,0,16.7,0,19.8,0L404.2,122.8z"/>
		<polygon class="st2" points="400.2,109.1 392.7,114.2 396.2,122.8 400.2,122.8 404.2,122.8 407.7,114.2 		"/>
		<polygon class="st9" points="400.2,122.8 396.2,122.8 390.3,158.9 398.3,158.9 404.2,122.8 		"/>
		<polygon class="st9" points="392.7,114.2 396.2,122.8 400.2,122.8 404.2,122.8 399,109.9 		"/>
		<path class="st11" d="M403.7,108.9L403.7,108.9L403.7,108.9z"/>
		<path class="st11" d="M403.9,109L403.9,109L403.9,109z"/>
		<path class="st11" d="M403.7,108.9L403.7,108.9C403.8,108.9,403.7,108.9,403.7,108.9z"/>
		<path class="st11" d="M403.9,109L403.9,109L403.9,109z"/>
		<path d="M450.6,143.7c-0.2-1.2-1.3-2-2.5-1.8s-2,1.3-1.8,2.5l1.4,8.6c0.3,2-1.2,3.8-3.2,3.8h-12.6v-19.5c0-1.2-1-2.2-2.2-2.2
			s-2.2,1-2.2,2.2v19.5h-15.6l-5.5-33.7l2.2-5.5c0.1,0,2,1.8,4.6,0.9c1.6-0.5,2.7-1.8,3.1-3.2l2.9-10.3l16.7,5.5
			c6.4,2.7,5.9,7.1,8.7,24c0.2,1.2,1.3,2,2.5,1.8s2-1.3,1.8-2.5c-2.7-16.8-2-12.5-2.1-13.3c-0.9-4.5-1.6-10.8-9.3-14
			c-0.1,0-0.1,0-0.2-0.1l-18.6-6.1l-4.4-3.3v-4.2c6.2-3.5,11.3-9.5,13-18c10.5,1.4,16.1-11.2,7.5-17c0-10.2,0-10-0.1-11
			c-2-39.2-57.7-45.3-68.1-7.5c-1.5,5.6-1.3,8.9-1.3,18.5c-8.1,5.5-3.6,17.1,6.1,17.1c0.5,0,1,0,1.5-0.1c0.1,0.5,0.2,1,0.4,1.5
			c2.3,8.4,7.4,14,13.4,17.1V97l-4.6,3.4c-19.3,6.3-18,5.8-18,5.9c-3,1.1-5.5,3.1-7.1,5.6c-1.8,2.8-1,1.8-8,39.9
			c-0.9,4.8,2.8,9.3,7.7,9.3h19.4c1.2,0,2.2-1,2.2-2.2s-1-2.2-2.2-2.2h-3.3v-19.5c0-1.2-1-2.2-2.2-2.2s-2.2,1-2.2,2.2v19.5h-11.6
			c-2.2,0-3.9-2-3.5-4.2c6.6-36.5,6.3-35,6.3-35.1c0.4-3.5,3-5.9,6.1-7.1l16-5.2c1.7,7.2,2.4,10.1,2.4,10.3c1,3.1,4.7,4.3,7.3,2.5
			l0.4-0.2l2.2,5.5l-5.5,33.7h-2.4c-1.2,0-2.2,1-2.2,2.2s1,2.2,2.2,2.2c3.5,0,55.4,0,58.4,0c4.6,0,8.2-4.2,7.5-8.7L450.6,143.7z
			 M415.3,103.1c-3.3,11.1-2.9,11.1-3.4,11.3c-0.5,0.2-0.6-0.3-3-1.9c-3.3-2.3-4.6-3.2-5-3.5l0,0l0,0l0,0l0,0l0,0l0,0l0,0l0,0l0,0
			l0,0l0,0l0,0l0,0c0,0-0.1,0-0.1-0.1l0,0l0,0l0,0l0,0l8.7-7.9L415.3,103.1z M405,115l-2.3,5.6h-5.1l-2.3-5.6l4.8-3.4L405,115z
			 M391.1,97.2v-2c5.9,1.9,12.7,1.9,19-0.4v2.3l-9.8,8.9L391.1,97.2z M403.7,108.8L403.7,108.8L403.7,108.8z M432.6,69.4
			c-1.3,0.9-3,1.3-4.6,1.1V60.3C433.9,59.6,437.3,66.1,432.6,69.4z M367.8,69.4c-4.7-3.3-1.3-9.8,4.6-9.1c0,9.6,0,3.6,0,10.2
			C370.8,70.7,369.1,70.3,367.8,69.4z M372.9,56.1c-1.1-0.1-2.1-0.1-3.1,0.1c0-7.8-0.2-10.7,1.1-15.6c9.2-33.2,57.9-27.7,59.7,6.5
			c0,0.8,0,0.5,0,9.1c-0.9-0.1-1.7-0.2-2.6-0.1v-5.3c0-1.8-1.3-3.2-3.1-3.4l0,0c-3.5-0.3-5.5-2.6-6.5-4.5c-0.6-1.1-1.7-1.9-3-2.1
			c-1.3-0.2-2.6,0.1-3.5,1c-9.4,8-20.1,8.4-27.5,7.3C379.3,48.3,374.5,51.3,372.9,56.1z M377.6,75.1c-0.4-1.5-0.7-2.8-0.8-4.4
			c-0.1-1.5-0.1-8-0.1-11.5c0-3.7,3.3-6.5,7-6c8.3,1.2,20.3,0.7,30.9-8.3c2,3.6,5.2,5.9,9.1,6.6c0,20.4,0,17.7,0,18.5
			C422.3,96.4,384.6,100.8,377.6,75.1z M388.9,114.3c-0.3,0.2-0.6,0.1-0.8-0.2l-2.5-10.9l3.1-2.3l8.1,7.9
			C392.2,112,390.8,113,388.9,114.3z M392.8,156.7l5.2-31.8h4.4l5.2,31.8H392.8z"/>
		<path class="st11" d="M403.8,108.9L403.8,108.9L403.8,108.9L403.8,108.9z"/>
		<path class="st11" d="M403.8,108.9L403.8,108.9L403.8,108.9L403.8,108.9z"/>
		<path class="st11" d="M403.8,108.9L403.8,108.9L403.8,108.9z"/>
	</g>
	<g>
		<path class="st2" d="M418.7,145.5c0,24.9,25,33.2,25,33.2s24.9-8.2,24.9-33.3v-12c0-2-1.7-3.7-3.7-3.7h-7.8
			c-5.8,0-10.8-3.6-13.4-8.3c-2.6,4.7-7.6,8.3-13.4,8.3h-7.8c-2,0-3.7,1.7-3.7,3.7L418.7,145.5z"/>
		<path class="st4" d="M464.8,145.4c0,9.2-3.7,16.9-10.9,23c-4.1,3.5-8.3,5.5-10.3,6.3c-2-0.8-6.2-2.8-10.3-6.3
			c-7.3-6.1-11-13.8-11-23v-12h7.8c5.1,0,9.9-2.4,13.4-5.9c3.5,3.5,8.3,5.9,13.4,5.9h7.8L464.8,145.4z"/>
		<path d="M469.4,133.4c0-2.5-2.1-4.6-4.6-4.6H457l0,0c-5.1,0-10-3.1-12.6-7.8c-0.2-0.3-0.4-0.5-0.8-0.5l0,0c-0.3,0-0.6,0.2-0.8,0.5
			c-2.6,4.8-7.5,7.9-12.6,7.9h-7.8c-2.5,0-4.6,2.1-4.6,4.6v12c0,5.8,1.4,11.3,4,16.1c2.1,3.9,5.1,7.4,8.8,10.5
			c6.3,5.2,12.5,7.3,12.8,7.4c0.1,0,0.2,0,0.3,0c0.1,0,0.2,0,0.3,0c0.3-0.1,6.5-2.2,12.7-7.4c3.7-3.1,6.6-6.6,8.8-10.5
			c2.6-4.9,4-10.3,4-16.2L469.4,133.4z M455.6,170.8c-5.3,4.4-10.7,6.6-11.9,7c-1.3-0.5-6.6-2.6-11.9-7
			c-8.1-6.7-12.2-15.2-12.2-25.3v-12c0-1.6,1.3-2.8,2.8-2.8h7.8c2.9,0,5.8-0.9,8.4-2.5c2-1.3,3.7-3,5-5c1.3,2,3,3.7,5,5
			c2.5,1.6,5.4,2.5,8.3,2.5h7.9c1.6,0,2.8,1.3,2.8,2.8v12C467.7,155.5,463.6,164.1,455.6,170.8z"/>
		<path class="st3" d="M452.3,141.2l-10.2,10.2l-7.2-7.2c-1.1-1.1-2.9-1.1-4.1,0c-1.1,1.1-1.1,2.9,0,4.1l9.2,9.2
			c0.6,0.6,1.3,0.8,2,0.8s1.5-0.3,2-0.8l12.3-12.3c1.1-1.1,1.1-2.9,0-4.1C455.2,140.1,453.4,140.1,452.3,141.2z"/>
	</g>
</g>
<path d="M419.4,214.4c6.4,19.9,9.4,40.7,8.8,61.8c0,0.1,0,0.2,0,0.4c-2.5,87-65.5,159.8-149.4,176l15.9-21.7c2.5-3.3,1.7-8-1.6-10.5
	c-3.3-2.5-8-1.7-10.5,1.6l-26.8,36.5c-0.9,1.2-1.4,2.7-1.5,4.2c0,0.5,0,0.9,0.1,1.4c0.3,2,1.4,3.7,3,4.9l36.5,26.8
	c3.3,2.5,8,1.7,10.5-1.6c2.5-3.3,1.7-8-1.6-10.5l-22.1-16.2c91.2-17.1,159.8-96.1,162.5-190.5c0-0.1,0-0.3,0-0.4
	c0.6-22.8-2.6-45.3-9.6-66.8c-1.3-3.9-5.5-6.1-9.5-4.8C420.3,206.2,418.2,210.4,419.4,214.4z"/>
<path class="st3" d="M135.8,239.3l-18-18c-1.9-1.9-4.9-1.9-6.7,0l-18,18c-1.9,1.9-1.9,4.9,0,6.7s4.9,1.9,6.7,0l9.7-9.7v84.8
	c0,2.8,2.2,5,5,5s5-2.2,5-5v-84.8l9.7,9.7c0.9,0.9,2.1,1.4,3.4,1.4s2.4-0.5,3.4-1.4C137.7,244.2,137.7,241.2,135.8,239.3z"/>
<path class="st3" d="M305.3,135l18-18c1.9-1.9,1.9-4.9,0-6.7l-18-18c-1.9-1.9-4.9-1.9-6.7,0s-1.9,4.9,0,6.7l9.7,9.7h-84.8
	c-2.8,0-5,2.2-5,5s2.2,5,5,5h84.8l-9.7,9.7c-0.9,0.9-1.4,2.1-1.4,3.4s0.5,2.4,1.4,3.4C300.4,136.8,303.4,136.8,305.3,135z"/>
</svg>
