<?xml version="1.0" encoding="utf-8"?>
<!-- Generator: Adobe Illustrator 25.2.1, SVG Export Plug-In . SVG Version: 6.00 Build 0)  -->
<svg version="1.1" id="Capa_1" xmlns="http://www.w3.org/2000/svg" xmlns:xlink="http://www.w3.org/1999/xlink" x="0px" y="0px"
	 viewBox="0 0 481 481.9" style="enable-background:new 0 0 481 481.9;" xml:space="preserve">
<style type="text/css">
	.st0{fill:#FFFFFF;}
	.st1{fill:#DFDFDF;}
	.st2{fill:#434C54;}
	.st3{fill:#C2C7D0;}
	.st4{fill:#DDDDDD;}
	.st5{fill:#CCCCCC;}
	.st6{fill:#E4EAF8;}
</style>
<g>
	<circle class="st0" cx="258.1" cy="227" r="208.2"/>
	<path class="st1" d="M106.5,170.4c0-43,13.1-83,35.4-116.2C86.4,91.6,49.9,155,49.9,227c0,115,93.2,208.2,208.2,208.2
		c71.9,0,135.4-36.5,172.8-92c-33.2,22.4-73.2,35.4-116.2,35.4C199.7,378.6,106.5,285.4,106.5,170.4z"/>
	<g>
		<path class="st2" d="M410.4,74.2c-40.7-40.6-94.8-62.9-152.2-62.9c-0.1,0-0.1,0-0.2,0s-0.1,0-0.2,0c0,0,0,0-0.1,0
			C200.1,11.4,146,33.9,105.3,74.7s-63,95-62.9,152.6c0,11.1,0.9,22.3,2.6,33.1c0.6,4.1,4.5,6.9,8.6,6.3s6.9-4.5,6.3-8.6
			c-1.2-7.7-2-15.5-2.3-23.3H66c4.1,0,7.5-3.4,7.5-7.5s-3.4-7.5-7.5-7.5l0,0h-8.4c1.2-34.8,11.2-68,29-97.1l31.7-0.1
			c-9,22.2-15.2,46.4-18,71.8c-0.5,4.1,2.5,7.8,6.6,8.3s7.8-2.5,8.3-6.6c2.9-26.2,9.5-51.1,19.4-73.4l60.4-0.1
			c-2.8,15.9-4.8,32.2-6.1,47.9c-0.3,4.1,2.7,7.8,6.9,8.1c4.1,0.3,7.8-2.7,8.1-6.9c1.5-18,3.7-34.4,6.3-49.2l95.6-0.2
			c5.4,29.2,8.5,62.3,8.9,97.1h-24.5c-4.1,0-7.5,3.4-7.5,7.5s3.4,7.5,7.5,7.5l0,0h24.5c-0.5,52.1-6.9,100.7-18.1,137.5
			c-10.7,34.9-24.9,55.7-38,55.8c-13,0-26-1.2-38.6-3.6c-4.1-0.8-8,1.9-8.8,6s1.9,8,5.9,8.8c13.4,2.6,27.3,3.9,41.1,3.9
			c0.1,0,0.3,0,0.4,0l0,0c57.6-0.1,111.7-22.6,152.4-63.5c40.7-40.8,63-95,62.9-152.6C473.7,169,451.2,114.8,410.4,74.2z
			 M429.7,331.3l-31.6,0.1c12.1-29.5,18.8-62.6,19.6-97.1l41-0.1C457.5,268.9,447.4,302.1,429.7,331.3z M458.6,219.1l-41,0.1
			c-0.9-34.5-7.8-67.6-20-97.1l31.5-0.1C446.7,150.5,457.3,183.6,458.6,219.1z M418.9,107.1l-28.1,0.1c-5.6-11.4-12.1-22.1-19.4-32
			c-8-11-16.8-20.6-26.2-28.9C374.5,60.4,399.7,81.3,418.9,107.1z M359.4,84c5.3,7.3,10.2,15,14.6,23.1l-56,0.1
			c-6.8-32-16.5-59.1-28.9-76.3C315.4,39,339.7,57.1,359.4,84z M96.7,107.7c5.8-7.8,12.2-15.3,19.2-22.3
			c16.2-16.3,34.7-29.4,54.8-39.1c-6.3,5.6-12.4,11.8-18.1,18.6c-10.6,12.5-19.9,27-27.6,42.7L96.7,107.7z M141.8,107.6
			c6.4-12.1,13.9-23.2,22.2-33.1c18-21.4,39.5-36.2,62.3-43.3c-12.7,17.8-22.1,45.7-28.5,76.3L141.8,107.6z M213.1,107.4
			c11.6-53.1,29.6-81.1,44.7-81.2l0,0c13.1,0,27.4,20.8,38.2,55.6c2.5,7.9,4.7,16.4,6.7,25.4L213.1,107.4z M320.9,122.3l60.5-0.1
			c12.9,29.1,20.3,62.3,21.3,97.1l-73,0.1C329.2,186.1,326.2,152.5,320.9,122.3z M402.7,234.2c-0.9,35.5-8.4,68.6-21,97.1l-60.4,0.1
			c5.1-29.4,8-62.6,8.3-97.1L402.7,234.2z M310.9,376.3c2.8-9.3,5.4-19.3,7.6-29.8l55.9-0.1c-20.4,38.1-50.2,65.9-84.7,76.5
			C297.7,411.8,304.8,396.2,310.9,376.3z M400.3,368.6c-16.2,16.2-34.6,29.3-54.6,39c9.4-8.4,18.3-18.1,26.4-29.2
			c7.2-9.9,13.7-20.7,19.3-32.1l28.2-0.1C413.7,354.1,407.3,361.6,400.3,368.6z"/>
	</g>
</g>
<g>
	<path class="st0" d="M141.8,296.3c0,22.3,0,84.6,0,107.2h15.3c0-6.2,0-101.1,0-107.3C152.9,300.5,146.1,300.6,141.8,296.3z"/>
	<path class="st3" d="M149.5,299.5c-3,0-5.7-1.2-7.7-3.2c0,22.3,0,84.6,0,107.2h7.7C149.5,397.5,149.5,306,149.5,299.5z"/>
	<g>
		<path class="st4" d="M43.8,380.8c0,2,0,5.9,0,7.9c0,4.6,3.8,8.4,8.4,8.4s8.4-3.8,8.4-8.4c0-2,0-5.9,0-7.9H43.8L43.8,380.8z"/>
		<path class="st4" d="M238.3,380.8c0,2,0,5.9,0,7.9c0,4.6,3.8,8.4,8.4,8.4c4.6,0,8.4-3.8,8.4-8.4c0-2,0-5.9,0-7.9H238.3
			L238.3,380.8z"/>
	</g>
	<g>
		<path class="st5" d="M52.1,388.6c0-2,0-5.9,0-7.9h-8.2c0,2,0,5.9,0,7.9c0,6.4,7,10.5,12.5,7.3C53.8,394.5,52.1,391.8,52.1,388.6z"
			/>
		<path class="st5" d="M246.6,388.6c0-2,0-5.9,0-7.9h-8.2c0,2,0,5.9,0,7.9c0,6.4,7,10.5,12.5,7.3
			C248.3,394.5,246.6,391.8,246.6,388.6z"/>
	</g>
	<g>
		<path class="st0" d="M268.1,249.8c0-4.3-3.6-7.7-7.9-7.5c-27.7,1.3-46.7-10.6-56.4-18.9c-17-14.5-35.7-10.6-40.9-11.2
			c0,0.8,0,14.6,0,15.3c5.8,0.6,18.8-2.7,30.7,7.5c17.7,15.1,41,23.8,66.9,22.7C264.7,257.5,268.1,254,268.1,249.8L268.1,249.8z"/>
		<path class="st0" d="M30.9,249.8c0-4.3,3.6-7.7,7.9-7.5c27.7,1.3,46.7-10.6,56.4-18.9c17-14.5,35.7-10.6,40.9-11.2
			c0,0.8,0,14.6,0,15.3c-5.8,0.6-18.8-2.7-30.7,7.5c-17.7,15.1-41,23.8-66.9,22.7C34.2,257.5,30.9,254,30.9,249.8L30.9,249.8z"/>
	</g>
	<path class="st5" d="M162.8,219.6c0-11.4,0-5.8,0-7.4l0,0C162.9,212.8,162.8,217.3,162.8,219.6z"/>
	<path class="st6" d="M264.8,249.8c-27.1,1.1-51.4-7.6-69.9-22.7c-12.4-10.1-26-6.9-32.1-7.5c0,0.1,0,7.9,0,7.9
		c5.8,0.6,18.8-2.7,30.7,7.5c17.8,15.1,41,23.8,66.9,22.7c4.6-0.2,8-4.3,7.6-8.7C267,249.4,266,249.7,264.8,249.8z"/>
	<path class="st5" d="M136.1,219.6c0-3,0-6.7,0-7.4l0,0C136.1,213.8,136.1,208.2,136.1,219.6z"/>
	<path class="st6" d="M136.1,219.6c-5.8,0.6-19.1-2.7-31.3,7.5c-18.1,15.1-41.9,23.8-68.3,22.7c-2-0.1-3.9-0.9-5.2-2.2
		c-1.5,4.8,2,9.9,7.3,10.1c25.9,1.1,49.2-7.5,66.9-22.7c11.9-10.2,24.9-6.9,30.7-7.5C136.1,227.5,136.1,219.7,136.1,219.6z"/>
	<path class="st1" d="M196,441.7c-0.8-4.8-3.9-9.2-8.8-11.5c-3.9-1.8-7.2-4.9-9.4-8.8c-3-5.3-2.7-10.7-2.7-10.3c0-1.1-0.5-2-1.4-2.6
		c-5-3-10.6-5.1-16.6-6.1h-15.3c-6,1-11.6,3.1-16.6,6.1c-1.6,1-1.4,2.6-1.5,4c-0.5,7.7-5.1,14.4-12,17.7c-5,2.4-8.2,6.8-8.9,12
		c-0.4,2.9-0.5,5.2-0.5,7.8h94.2C196.6,447,196.5,444.8,196,441.7z"/>
	<path class="st3" d="M138.3,421.2c4-7.3,1.3-11.1,4-12.8c4.8-2.9,10.1-4.9,15.7-5.9c-2-0.4,1.3,0-16.2-0.2c-6,1-11.6,3.1-16.6,6.1
		c-1.9,1.1-1.2,2.7-1.6,5.7c-0.9,6.7-5.3,13-11.9,16.1c-4.6,2.2-8,6.5-8.8,12c-0.4,2.9-0.5,5.2-0.5,7.8h17.1
		C119.4,426.6,130.9,434.5,138.3,421.2z"/>
	<g>
		<path class="st1" d="M212.8,359.8c0,8.4,0.7,14.9,8.4,18.5c4.3,2,4.7,4.1,8.1,4.1H264c3.1,0,3.8-1.8,7-3.6c1.5-0.8,7.7-3.3,9-10.9
			c0.2-1.1,0.3-1.9,0.3-2.8c0.1-1.6,0.2-2.8,0.2-5.3L212.8,359.8L212.8,359.8z"/>
		<path class="st1" d="M86.1,359.8c0,7.2-0.2,14.7-8.4,18.5c-4.3,2.1-4.8,4.2-8.1,4.2H35c-3.3,0-3.8-2.1-8.1-4.2
			c-4.1-2-7.3-5.8-8-11.2c-0.4-2.7-0.4-4.6-0.4-7.3H86.1z"/>
	</g>
	<g>
		<path class="st3" d="M238.3,378.3c-8-3.8-8.4-10.8-8.4-18.5h-17.1c0,8.3,0.7,14.9,8.4,18.5c4.3,2,4.7,4.1,8.1,4.1h17.1
			C243.1,382.5,242.6,380.3,238.3,378.3z"/>
		<path class="st6" d="M43.9,378.3c-8.1-3.8-8.4-11.2-8.4-18.5h-17c0,7.2,0.2,14.7,8.4,18.5c4.3,2.1,4.7,4.1,8.1,4.1h17.1
			C48.7,382.5,48.3,380.3,43.9,378.3z"/>
	</g>
	<path class="st6" d="M141.9,233.3c-1.2,0-2.4-0.3-3.4-0.8v58.1c0,6,4.9,10.9,10.9,10.9s10.9-4.9,10.9-10.9v-58
		C157.7,233.9,156.7,233.1,141.9,233.3z"/>
	<path class="st3" d="M149.4,290.5v-57.2c-6.6-0.2-8.3,0.5-10.9-0.8v58.1c0,8.5,9.2,13.6,16.4,9.5
		C151.6,298.1,149.4,294.6,149.4,290.5z"/>
	<path class="st6" d="M157.2,206.6c0-5.6,0-10.8,0-15.7c0-4.2-3.4-7.7-7.7-7.7c-4.2,0-7.7,3.4-7.7,7.7c0,5.3,0,9.7,0,15.7
		C141.9,206.6,156.6,206.6,157.2,206.6z"/>
	<path class="st4" d="M157.1,206.6L157.1,206.6L157.1,206.6L157.1,206.6z"/>
	<path class="st3" d="M149.5,190.8c0-2.8,1.5-5.3,3.8-6.6c-5.1-2.9-11.5,0.7-11.5,6.6c0,5.3,0,9.7,0,15.7c0.8,0,5.6,0,7.7,0
		C149.5,200.8,149.5,196.2,149.5,190.8z"/>
	<path class="st6" d="M207.1,465.6H91.9c-4.6,0-8.4-3.8-8.4-8.4l0,0c0-4.6,3.8-8.4,8.4-8.4h115.2c4.6,0,8.4,3.8,8.4,8.4l0,0
		C215.5,461.9,211.7,465.6,207.1,465.6z"/>
	<path class="st3" d="M110.5,457.2L110.5,457.2c0-4.6,3.8-8.4,8.4-8.4h-27c-4.6,0-8.4,3.8-8.4,8.4l0,0c0,4.6,3.8,8.4,8.4,8.4h27
		C114.2,465.6,110.5,461.9,110.5,457.2z"/>
	<g>
		<path class="st1" d="M282.3,344.7c-7.9,0-63.2,0-71.1,0c-4.6,0-8.4,3.8-8.4,8.4s3.8,8.4,8.4,8.4c8,0,63.3,0,71.1,0
			c4.6,0,8.4-3.8,8.4-8.4C290.7,348.4,287,344.7,282.3,344.7z"/>
		<path class="st1" d="M16.6,344.7c7.9,0,63.2,0,71.1,0c4.6,0,8.4,3.8,8.4,8.4s-3.8,8.4-8.4,8.4c-8,0-63.3,0-71.1,0
			c-4.6,0-8.4-3.8-8.4-8.4C8.2,348.4,12,344.7,16.6,344.7z"/>
	</g>
	<g>
		<path class="st3" d="M222.5,353.1c0-4.6,3.8-8.4,8.4-8.4c-4.8,0-15,0-19.7,0c-4.6,0-8.4,3.8-8.4,8.4s3.8,8.4,8.4,8.4
			c4.7,0,15,0,19.7,0C226.2,361.5,222.5,357.7,222.5,353.1z"/>
		<path class="st6" d="M27.9,353.1c0-4.6,3.8-8.4,8.4-8.4c-4.8,0-15,0-19.7,0c-4.6,0-8.4,3.8-8.4,8.4s3.8,8.4,8.4,8.4
			c4.7,0,15,0,19.7,0C31.7,361.5,27.9,357.7,27.9,353.1z"/>
	</g>
	<path class="st1" d="M157.1,235h-15.2c-4.1,0-7.5-3.4-7.5-7.5v-15.2c0-4.1,3.4-7.5,7.5-7.5h15.2c4.1,0,7.5,3.4,7.5,7.5v15.2
		C164.6,231.6,161.2,235,157.1,235z"/>
	<path class="st3" d="M149.5,227.5v-15.2c0-4.1,3.4-7.5,7.5-7.5h-15.1c-4.1,0-7.5,3.4-7.5,7.5v15.2c0,4.1,3.4,7.5,7.5,7.5H157
		C152.9,235,149.5,231.6,149.5,227.5z"/>
	<path d="M282.3,340.4h-0.2L251.8,262c2.9,0.1,5.6,0.1,8.9,0c6.5-0.3,11.7-5.6,11.7-12.2c0-6.8-5.8-12-12.3-11.7
		c-3.2,0.1-6.2,0.1-9.1-0.1v-0.8c0-2.4-1.9-4.3-4.3-4.3c-2.3,0-4.2,1.8-4.3,4.1c-17.3-3-29.4-11.3-35.9-16.8
		c-17.3-14.7-36.3-11.9-38.6-12.2c-1.2-3-3.6-5.3-6.5-6.5v-10.6c0-6.6-5.4-11.9-11.9-11.9s-11.9,5.4-11.9,11.9v10.6
		c-3,1.2-5.3,3.5-6.5,6.5c-2.3,0.3-21.2-2.5-38.6,12.2c-6.5,5.5-18.6,13.7-35.9,16.8c-0.1-2.3-2-4.1-4.3-4.1c-2.4,0-4.3,1.9-4.3,4.3
		v0.8c-2.9,0.2-5.9,0.2-9.1,0.1c-3.2-0.1-6.4,1-8.7,3.2c-7.5,7.1-2.7,20.2,8,20.7c3.4,0.1,6,0.1,8.9,0l-30.4,78.4h-0.2
		c-7,0-12.7,5.7-12.7,12.7c0,6.2,4.5,11.4,10.5,12.5c1.2,14.2,10.2,15.4,14.1,18.9c3.8,3.3,8.9,2.1,11,2.3v1.9
		c0,7,5.7,12.7,12.7,12.7s12.7-5.7,12.7-12.7v-1.9c2.2-0.2,7.5,1,11.2-2.3c0.9-0.8,2.1-1.6,3.4-2.2c5.8-2.7,9.5-8,10.3-13.6
		c0.1-0.7,0.3-1.8,0.4-3.1c5.8-1.1,10.3-6.3,10.3-12.4c0-7-5.7-12.6-12.6-12.7l-30.7-79.3c23.4-3.2,40.4-13.7,51.1-22.8
		c9.7-8.2,20.3-6.1,22.8-6.5c0.7,1.8,1.8,3.3,3.2,4.5v54.1c0,3.6,1.3,6.9,3.3,9.5v64.7c0,2.4,1.9,4.3,4.3,4.3s4.3-1.9,4.3-4.3v-59.4
		c2.2,0.5,4.6,0.5,6.8,0V398h-6.8v-13.4c0-2.4-1.9-4.3-4.3-4.3s-4.3,1.9-4.3,4.3v14.2c-5.1,1.2-10,3.2-14.5,5.9
		c-2.1,1.3-3.5,3.6-3.5,6.3c0,6.2-3.1,11.8-9.8,15.3c-5.8,2.8-10.3,8.4-11.2,15.7c-0.2,1.2-0.2,1.8-0.3,2.5h-6.4
		c-7,0-12.7,5.7-12.7,12.7s5.7,12.7,12.7,12.7h76.6c2.4,0,4.3-1.9,4.3-4.3s-1.9-4.3-4.3-4.3H91.9c-2.3,0-4.1-1.9-4.1-4.1
		s1.9-4.1,4.1-4.1c4.2,0,107.7,0,115.2,0c2.3,0,4.1,1.9,4.1,4.1c0,2.3-1.9,4.1-4.1,4.1h-18.7c-2.4,0-4.3,1.9-4.3,4.3
		s1.9,4.3,4.3,4.3h18.7c7,0,12.7-5.7,12.7-12.7s-5.7-12.7-12.7-12.7h-6.4c-0.1-1.1-0.2-2.5-0.4-3.6c-1-6.2-5-11.7-11.2-14.6
		c-5.3-2.5-9.1-7.7-9.6-13.9c-0.1-1.6,0.2-5.4-3.6-7.6c-4.5-2.7-9.4-4.7-14.5-5.9v-99c2-2.6,3.2-5.8,3.2-9.3v-22.8
		c0-2.4-1.9-4.3-4.3-4.3s-4.3,1.9-4.3,4.3v22.8c0,4.1-3.7,7-7.3,6.6c-3.4-0.3-6-3.2-6-6.6v-51.3h13.4v8.6c0,2.4,1.9,4.3,4.3,4.3
		s4.3-1.9,4.3-4.3v-11.3c1.5-1.2,2.6-2.8,3.4-4.7c2.5,0.3,13.1-1.8,22.8,6.5c10.7,9.1,27.7,19.7,51.1,22.8l-30.7,79.3
		c-7,0-12.6,5.7-12.6,12.7c0,6.2,4.4,11.3,10.3,12.4c0.1,0.8,0.2,2.3,0.4,3.2c1,5.7,4.6,10.8,10.3,13.5c1.1,0.5,2.3,1.3,3.4,2.2
		c3.9,3.4,9.6,2,11.2,2.3v1.9c0,7,5.7,12.7,12.7,12.7s12.7-5.7,12.7-12.7v-1.9c1.9-0.3,6.9,1.1,10.9-2.2c1.2-1,2-1.6,3.5-2.3
		c6.4-3.1,10-8.6,10.7-16.6c5.9-1.1,10.5-6.2,10.5-12.5C295,346.1,289.3,340.4,282.3,340.4z M38.7,253.4c-2-0.1-3.5-1.7-3.5-3.6
		c0-1.9,1.6-3.3,3.4-3.2c3.3,0.2,6.4,0.1,9.5-0.1v6.9C45,253.6,41.9,253.6,38.7,253.4z M56.4,388.6c0,2.3-1.9,4.1-4.1,4.1
		c-2.3,0-4.1-1.9-4.1-4.1v-1.9h8.3v1.9H56.4z M71.9,376.9l-0.3,0.2c-0.8,0.6-1.2,1.1-2,1.1c-46.2,0-30.9,1-40.9-3.8
		c-3.6-1.7-5.3-4.7-5.7-8.7h58.6C80.8,373.5,76.4,373.5,71.9,376.9z M91.9,353.1c0,2.3-1.9,4.1-4.1,4.1c-8.3,0-63,0-71.1,0
		c-2.3,0-4.1-1.9-4.1-4.1c0-2.3,1.9-4.1,4.1-4.1c20.7,0,37.4,0,71.1,0C90.1,348.9,91.9,350.8,91.9,353.1z M78.7,340.4H26l26.4-68.1
		L78.7,340.4z M130.2,223.3c-2.1,0.3-15.2-1.9-27.5,8.5c-9.7,8.2-25,17.8-46.1,20.8v-7c20-3.2,34-12.6,41.4-18.9
		c14.5-12.3,30.4-9.9,32.2-10.2V223.3L130.2,223.3z M156.8,406.6c5,0.9,9.7,2.6,14.1,5.1c0.3,8.7,4.7,16.6,13.1,21.6
		c1.6,0.9,6.7,2.8,7.8,9.1c0,0.3,0.2,1,0.3,2.2h-85.3c0-0.1,0.3-2.3,0.3-2.2c1.4-8.4,8.2-7.2,14.7-14.6c1-1.1,1.3-1.6,1.2-1.5
		c3-4.1,4.8-9,5-14.5c4.4-2.6,9.2-4.3,14.1-5.1L156.8,406.6L156.8,406.6z M146.1,190.8c0-1.9,1.5-3.4,3.4-3.4s3.4,1.5,3.4,3.4v9.8
		h-6.8L146.1,190.8L146.1,190.8z M160.3,227.6c-0.1,0.2,0.1,1.9-1.8,2.8c-0.6,0.3-1.1,0.3-1,0.3c-0.3,0,0.6,0-15.5,0
		c-1.6,0-3.1-1.2-3.2-3.3c0-3.4,0-13.7,0-15.2c0.1-3,3.4-3.2,3.1-3.1c0.1,0,14.8,0,15.3,0c1.7,0,3.1,1.2,3.2,3.3
		C160.3,212.5,160.3,227.5,160.3,227.6z M250.9,246.5c9.6,0.6,10.2-0.7,11.9,1c2.1,2,0.6,5.8-2.5,6c-3.1,0.1-6.2,0.1-9.4,0V246.5
		L250.9,246.5z M196.3,231.8c-12.2-10.4-25.5-8.2-27.5-8.5v-6.8c1.9,0.3,17.7-2.1,32.2,10.2c7.4,6.3,21.4,15.7,41.4,18.9v7
		C221.3,249.6,206,240,196.3,231.8z M246.6,272.3l26.4,68.1h-52.7L246.6,272.3z M250.9,388.6c0,2.3-1.9,4.1-4.1,4.1
		c-2.3,0-4.1-1.9-4.1-4.1v-1.9h8.3L250.9,388.6L250.9,388.6z M267.4,376c-2.2,1.4-2.4,2.2-3.4,2.2c-46.1,0-30.5,1.1-40.9-3.8
		c-3.6-1.7-5.3-4.7-5.7-8.7H276C275.2,372.8,271.5,373.4,267.4,376z M282.3,357.2c-8.6,0-63.5,0-71.1,0c-2.3,0-4.1-1.9-4.1-4.1
		c0-2.3,1.9-4.1,4.1-4.1c51.5,0,38.3,0,71.1,0c2.3,0,4.1,1.9,4.1,4.1C286.5,355.4,284.6,357.2,282.3,357.2z"/>
</g>
</svg>
