<?xml version="1.0" encoding="utf-8"?>
<!-- Generator: Adobe Illustrator 25.2.1, SVG Export Plug-In . SVG Version: 6.00 Build 0)  -->
<svg version="1.1" id="Capa_1" xmlns="http://www.w3.org/2000/svg" xmlns:xlink="http://www.w3.org/1999/xlink" x="0px" y="0px"
	 viewBox="0 0 229.2 204.5" style="enable-background:new 0 0 229.2 204.5;" xml:space="preserve">
<style type="text/css">
	.st0{fill:#C1C8D2;}
	.st1{fill:#AAB2B9;}
	.st2{fill:#DFDFDF;}
	.st3{fill:#737373;}
	.st4{fill:#FFFFFF;}
	.st5{fill:#E2EBF9;}
	.st6{fill:#545D69;}
	.st7{fill:#00C395;}
	.st8{fill:#D81E05;}
</style>
<g>
	<path class="st0" d="M211.5,188.9H17.3c-3.4,0-6.2-2.8-6.2-6.2s2.8-6.2,6.2-6.2h194.3c3.4,0,6.2,2.8,6.2,6.2
		C217.7,186.1,215,188.9,211.5,188.9z"/>
	<path class="st1" d="M211.5,176.4H199c3.4,0,6.2,2.8,6.2,6.2s-2.8,6.2-6.2,6.2h12.5c3.4,0,6.2-2.8,6.2-6.2S215,176.4,211.5,176.4z"
		/>
	<path class="st2" d="M179.9,151.4h-131v-34.9c0-4.6,3.7-8.3,8.3-8.3h114.4c4.6,0,8.3,3.7,8.3,8.3V151.4L179.9,151.4z"/>
	<path class="st1" d="M171.6,108.2h-12.5c4.6,0,8.3,3.7,8.3,8.3v34.9h12.5v-34.9C179.9,111.9,176.2,108.2,171.6,108.2z"/>
	<path class="st3" d="M69.7,140.9c-4.6,0-8.3-3.7-8.3-8.3c0-4.6,3.7-8.3,8.3-8.3s8.3,3.7,8.3,8.3C78,137.2,74.3,140.9,69.7,140.9z"
		/>
	<path class="st3" d="M159.1,140.9c-4.6,0-8.3-3.7-8.3-8.3c0-4.6,3.7-8.3,8.3-8.3s8.3,3.7,8.3,8.3
		C167.4,137.2,163.7,140.9,159.1,140.9z"/>
	<path class="st4" d="M43.7,151.4h141.4v12.5H43.7V151.4z"/>
	<path class="st5" d="M172.6,151.4h12.5v12.5h-12.5V151.4z"/>
	<path class="st1" d="M53,163.9h16.6v12.5H53V163.9z"/>
	<path class="st6" d="M159.1,163.9h16.6v12.5h-16.6V163.9z"/>
	<path class="st2" d="M169.7,108.2H59.1V73.3c0-2.3,1.9-4.2,4.2-4.2h102.3c2.3,0,4.2,1.9,4.2,4.2v34.9H169.7z"/>
	<path class="st1" d="M165.5,69.1H153c2.3,0,4.2,1.9,4.2,4.2v34.9h12.5V73.3C169.7,70.9,167.8,69.1,165.5,69.1z"/>
	<path class="st2" d="M165.5,69.1H63.2v-6.3c0-3.4,2.8-6.2,6.2-6.2h90c3.4,0,6.2,2.8,6.2,6.2L165.5,69.1L165.5,69.1z"/>
	<path class="st1" d="M159.4,56.6h-12.5c3.4,0,6.2,2.8,6.2,6.2v6.3h12.5v-6.3C165.5,59.3,162.8,56.6,159.4,56.6z"/>
	<path class="st2" d="M59.1,108.2H43.6c-3.9,0-7-3.1-7-7v-0.1c0-3.9,3.1-7,7-7h2.5c7.1,0,12.9,5.8,12.9,12.9L59.1,108.2L59.1,108.2z
		"/>
	<path class="st2" d="M169.7,108.2h15.4c3.9,0,7-3.1,7-7v-0.1c0-3.9-3.1-7-7-7h-2.5c-7.1,0-12.9,5.8-12.9,12.9V108.2z"/>
	<path class="st2" d="M86.5,124h55.7v27.5H86.5V124z"/>
	<path class="st1" d="M146.4,124h-64c-8.7,0-15.8-7.1-15.8-15.8h95.7C162.2,116.9,155.1,124,146.4,124z"/>
	<path class="st7" d="M108.1,61.8c2.1,1.8,3.9,3.2,5,4c0.7,0.5,1.7,0.5,2.5,0"/>
	<path class="st1" d="M159.1,163.9h16.6v12.5h-16.6V163.9z"/>
	<g>
		<path class="st3" d="M96.1,147c-1.7,0-3.1-1.4-3.1-3.1v-12.4c0-1.7,1.4-3.1,3.1-3.1s3.1,1.4,3.1,3.1V144
			C99.2,145.7,97.8,147,96.1,147z"/>
		<path class="st3" d="M105.2,147c-1.7,0-3.1-1.4-3.1-3.1v-12.4c0-1.7,1.4-3.1,3.1-3.1s3.1,1.4,3.1,3.1V144
			C108.4,145.7,107,147,105.2,147z"/>
		<path class="st3" d="M114.4,147c-1.7,0-3.1-1.4-3.1-3.1v-12.4c0-1.7,1.4-3.1,3.1-3.1s3.1,1.4,3.1,3.1V144
			C117.5,145.7,116.1,147,114.4,147z"/>
		<path class="st3" d="M123.5,147c-1.7,0-3.1-1.4-3.1-3.1v-12.4c0-1.7,1.4-3.1,3.1-3.1s3.1,1.4,3.1,3.1V144
			C126.7,145.7,125.3,147,123.5,147z"/>
		<path class="st3" d="M132.7,147c-1.7,0-3.1-1.4-3.1-3.1v-12.4c0-1.7,1.4-3.1,3.1-3.1c1.7,0,3.1,1.4,3.1,3.1V144
			C135.8,145.7,134.4,147,132.7,147z"/>
	</g>
	<path d="M92.7,50.4c0.8,1.1,1.7,2.1,2.6,3H69.4c-5.1,0-9.3,4.2-9.3,9.3v3.9c-2.5,1.2-4.2,3.7-4.2,6.6v5.5c0,1.7,1.4,3.1,3.1,3.1
		s3.1-1.4,3.1-3.1v-5.5c0-0.6,0.5-1,1-1h102.3c0.6,0,1,0.5,1,1V105h-12.3c-1.7,0-3.1,1.4-3.1,3.1s1.4,3.1,3.1,3.1h17.3
		c2.9,0,5.2,2.3,5.2,5.2v31.8h-31.4v-24.3c0-1.7-1.4-3.1-3.1-3.1H86.4c-1.7,0-3.1,1.4-3.1,3.1v24.3H52v-31.7c0-2.9,2.3-5.2,5.2-5.2
		H141c1.7,0,3.1-1.4,3.1-3.1s-1.4-3.1-3.1-3.1H62.2V92c0-1.7-1.4-3.1-3.1-3.1S56,90.3,56,92v2.3c-2.7-2.1-6.1-3.3-9.8-3.3h-2.5
		c-5.6,0-10.1,4.5-10.1,10.1v0.1c0,5.6,4.5,10.1,10.1,10.1H47c-0.8,1.6-1.3,3.3-1.3,5.2v31.8h-2.1c-1.7,0-3.1,1.4-3.1,3.1v12.5
		c0,1.7,1.4,3.1,3.1,3.1h6.2v6.2H17.3c-5.2,0-9.4,4.2-9.4,9.4s4.2,9.4,9.4,9.4h194.3c5.2,0,9.4-4.2,9.4-9.4s-4.2-9.4-9.4-9.4h-32.7
		V167h6.2c1.7,0,3.1-1.4,3.1-3.1v-12.5c0-1.7-1.4-3.1-3.1-3.1H183v-31.8c0-1.9-0.5-3.6-1.3-5.2h3.4c5.6,0,10.1-4.5,10.1-10.1v-0.1
		c0-5.6-4.5-10.1-10.1-10.1h-2.5c-3.7,0-7.1,1.3-9.8,3.3v-21c0-2.9-1.7-5.4-4.2-6.6v-3.9c0-5.1-4.2-9.3-9.3-9.3h-25.8
		c0.9-1,1.7-2,2.6-3 M182.6,97.1h2.5c2.1,0,3.9,1.7,3.9,3.9v0.1c0,2.1-1.7,3.9-3.9,3.9H173C173.9,100.5,177.9,97.1,182.6,97.1z
		 M66.3,62.7c0-1.7,1.4-3,3-3h31.8c2.7,2.6,5.1,4.7,7.1,6.2h-42L66.3,62.7L66.3,62.7z M120.5,65.9c2-1.6,4.4-3.7,7.1-6.2h31.8
		c1.7,0,3,1.4,3,3v3.2H120.5z M39.7,101.1V101c0-2.1,1.7-3.9,3.9-3.9h2.5c4.8,0,8.7,3.4,9.6,7.9H43.6
		C41.5,105,39.7,103.3,39.7,101.1z M172.6,173.3h-10.4v-6.2h10.4V173.3z M89.6,127.1h49.5v21.2H89.6
		C89.6,148.3,89.6,127.1,89.6,127.1z M46.8,154.5H182v6.2H87.8c-1.7,0-3.1,1.4-3.1,3.1s1.4,3.1,3.1,3.1H156v6.2H72.8v-6.2h1.6
		c1.7,0,3.1-1.4,3.1-3.1s-1.4-3.1-3.1-3.1H46.8V154.5z M56.1,167h10.4v6.2H56.1V167z M211.5,185.7H17.3c-1.7,0-3.1-1.4-3.1-3.1
		c0-1.7,1.4-3.1,3.1-3.1h194.3c1.7,0,3.1,1.4,3.1,3.1C214.6,184.3,213.2,185.7,211.5,185.7z"/>
	<g>
		<path class="st2" d="M89.5,34.4c0,24.9,25,33.2,25,33.2s24.9-8.2,24.9-33.3v-12c0-2-1.7-3.7-3.7-3.7h-7.8
			c-5.8,0-10.8-3.6-13.4-8.3c-2.6,4.7-7.6,8.3-13.4,8.3h-7.8c-2,0-3.7,1.7-3.7,3.7L89.5,34.4z"/>
		<path class="st4" d="M135.6,34.3c0,9.2-3.7,16.9-10.9,23c-4.1,3.5-8.3,5.5-10.3,6.3c-2-0.8-6.2-2.8-10.3-6.3
			c-7.3-6.1-11-13.8-11-23v-12h7.8c5.1,0,9.9-2.4,13.4-5.9c3.5,3.5,8.3,5.9,13.4,5.9h7.8L135.6,34.3z"/>
		<path d="M140.2,22.3c0-2.5-2.1-4.6-4.6-4.6h-7.8l0,0c-5.1,0-10-3.1-12.6-7.8c-0.2-0.3-0.4-0.5-0.8-0.5l0,0c-0.3,0-0.6,0.2-0.8,0.5
			c-2.6,4.8-7.5,7.9-12.6,7.9h-7.8c-2.5,0-4.6,2.1-4.6,4.6v12c0,5.8,1.4,11.3,4,16.1c2.1,3.9,5.1,7.4,8.8,10.5
			c6.3,5.2,12.5,7.3,12.8,7.4c0.1,0,0.2,0,0.3,0s0.2,0,0.3,0c0.3-0.1,6.5-2.2,12.7-7.4c3.7-3.1,6.6-6.6,8.8-10.5
			c2.6-4.9,4-10.3,4-16.2L140.2,22.3z M126.4,59.6c-5.3,4.4-10.7,6.6-11.9,7c-1.3-0.5-6.6-2.6-11.9-7c-8.1-6.7-12.2-15.2-12.2-25.3
			v-12c0-1.6,1.3-2.8,2.8-2.8h7.8c2.9,0,5.8-0.9,8.4-2.5c2-1.3,3.7-3,5-5c1.3,2,3,3.7,5,5c2.5,1.6,5.4,2.5,8.3,2.5h7.9
			c1.6,0,2.8,1.3,2.8,2.8v12C138.5,44.4,134.4,52.9,126.4,59.6z"/>
		<path class="st8" d="M123.1,30l-10.2,10.2l-7.2-7.2c-1.1-1.1-2.9-1.1-4.1,0c-1.1,1.1-1.1,2.9,0,4.1l9.2,9.2c0.6,0.6,1.3,0.8,2,0.8
			s1.5-0.3,2-0.8L127.1,34c1.1-1.1,1.1-2.9,0-4.1C126,28.9,124.2,28.9,123.1,30z"/>
	</g>
</g>
</svg>
