<?xml version="1.0" encoding="utf-8"?>
<!-- Generator: Adobe Illustrator 25.2.1, SVG Export Plug-In . SVG Version: 6.00 Build 0)  -->
<svg version="1.1" id="Capa_1" xmlns="http://www.w3.org/2000/svg" xmlns:xlink="http://www.w3.org/1999/xlink" x="0px" y="0px"
	 viewBox="0 0 257 312.2" style="enable-background:new 0 0 257 312.2;" xml:space="preserve">
<style type="text/css">
	.st0{fill:#FFFFFF;}
	.st1{fill:#DFDFDF;}
	.st2{fill:#E4EAF8;}
	.st3{fill:#D81E05;}
	.st4{fill:#969BA1;}
	.st5{fill:#DFDFDE;}
</style>
<g id="Capa_2_1_">
	<g id="Capa_1-2">
		<rect x="11.9" y="13.1" class="st0" width="184.8" height="286.2"/>
		<rect x="11.9" y="13.1" class="st1" width="9.3" height="286.2"/>
		<rect x="187.5" y="13.1" class="st2" width="9.3" height="286.2"/>
		<rect x="42.1" y="41.8" class="st3" width="124.6" height="19.7"/>
		<rect x="42.1" y="139.4" class="st1" width="27.4" height="27.4"/>
		<rect x="42.1" y="184.2" class="st1" width="27.4" height="27.4"/>
		<rect x="42.1" y="229" class="st1" width="27.4" height="27.4"/>
		<path d="M196.7,277.5c-2.4,0-4.3,1.9-4.3,4.3l0,0v13.1H16.3v-212c-0.1-2.4-2.1-4.3-4.5-4.2c-2.3,0.1-4.1,1.9-4.2,4.2v216.4
			c0,2.4,1.9,4.3,4.3,4.3h184.9c2.4,0,4.3-1.9,4.3-4.3v-17.4C201.1,279.5,199.2,277.5,196.7,277.5
			C196.8,277.5,196.8,277.5,196.7,277.5z"/>
		<path d="M196.7,8.8H11.9c-2.4,0-4.3,1.9-4.3,4.3v53.6c-0.1,2.4,1.8,4.4,4.2,4.5s4.4-1.8,4.5-4.2c0-0.1,0-0.2,0-0.3V17.5h176.2
			v248.3c0,2.4,1.9,4.3,4.3,4.3s4.3-1.9,4.3-4.3l0,0V13.1C201.1,10.7,199.2,8.8,196.7,8.8C196.8,8.8,196.8,8.8,196.7,8.8z"/>
		<path class="st1" d="M42.1,79.5h85.1c2.4-0.1,4.3-2.1,4.2-4.5c-0.1-2.3-1.9-4.1-4.2-4.2H42.1c-2.4,0.1-4.3,2.1-4.2,4.5
			C38,77.6,39.8,79.4,42.1,79.5z"/>
		<path class="st1" d="M166.6,70.8H144c-2.4-0.1-4.4,1.8-4.5,4.2c-0.1,2.4,1.8,4.4,4.2,4.5c0.1,0,0.2,0,0.3,0h22.6
			c2.4-0.1,4.3-2.1,4.2-4.5C170.7,72.7,168.9,70.9,166.6,70.8z"/>
		<path class="st1" d="M166.6,84.7H81.5c-2.4-0.1-4.4,1.8-4.5,4.2c-0.1,2.4,1.8,4.4,4.2,4.5c0.1,0,0.2,0,0.3,0h85.1
			c2.4-0.1,4.3-2.1,4.2-4.5C170.7,86.6,168.9,84.8,166.6,84.7z"/>
		<path class="st1" d="M42.1,93.4h22.6c2.4-0.1,4.3-2.1,4.2-4.5c-0.1-2.3-1.9-4.1-4.2-4.2H42.1c-2.4,0.1-4.3,2.1-4.2,4.5
			C38,91.5,39.8,93.3,42.1,93.4z"/>
		<path class="st1" d="M93,150.5h50.3c2.4,0,4.3-1.9,4.3-4.3c0-2.4-1.9-4.3-4.3-4.3H93c-2.4,0-4.3,1.9-4.3,4.3
			C88.7,148.5,90.6,150.5,93,150.5z"/>
		<path class="st4" d="M166.6,141.8h-9.9c-2.4,0-4.3,1.9-4.3,4.3c0,2.4,1.9,4.3,4.3,4.3h9.9c2.4,0,4.3-1.9,4.3-4.3
			C171,143.8,169,141.8,166.6,141.8L166.6,141.8z"/>
		<path class="st1" d="M166.6,155.7h-50.3c-2.4,0.1-4.3,2.1-4.2,4.5c0.1,2.3,1.9,4.1,4.2,4.2h50.3c2.4-0.1,4.3-2.1,4.2-4.5
			C170.7,157.6,168.9,155.8,166.6,155.7z"/>
		<path class="st1" d="M93,164.4h9.9c2.4,0.1,4.4-1.8,4.5-4.2s-1.8-4.4-4.2-4.5c-0.1,0-0.2,0-0.3,0H93c-2.4-0.1-4.4,1.8-4.5,4.2
			s1.8,4.4,4.2,4.5C92.8,164.4,92.9,164.4,93,164.4z"/>
		<path class="st1" d="M93,195.3h50.3c2.4,0,4.3-1.9,4.3-4.3c0-2.4-1.9-4.3-4.3-4.3l0,0H93c-2.4,0-4.3,1.9-4.3,4.3
			C88.7,193.3,90.6,195.3,93,195.3L93,195.3z"/>
		<path class="st1" d="M166.6,186.6h-9.9c-2.4,0-4.3,1.9-4.3,4.3c0,2.4,1.9,4.3,4.3,4.3h9.9c2.4,0,4.3-1.9,4.3-4.3
			C170.9,188.6,169,186.6,166.6,186.6L166.6,186.6z"/>
		<path class="st1" d="M166.6,200.5h-50.3c-2.4,0.1-4.3,2.1-4.2,4.5c0.1,2.3,1.9,4.1,4.2,4.2h50.3c2.4-0.1,4.3-2.1,4.2-4.5
			C170.7,202.4,168.9,200.6,166.6,200.5z"/>
		<path class="st1" d="M93,209.2h9.9c2.4,0,4.3-1.9,4.3-4.3c0-2.4-1.9-4.3-4.3-4.3l0,0H93c-2.4,0-4.3,1.9-4.3,4.3
			S90.6,209.2,93,209.2L93,209.2z"/>
		<path class="st1" d="M147.7,235.7c0-2.4-1.9-4.3-4.3-4.3H93.1c-2.4,0.1-4.3,2.1-4.2,4.5c0.1,2.3,1.9,4.1,4.2,4.2h50.3
			C145.7,240.1,147.7,238.2,147.7,235.7C147.7,235.8,147.7,235.8,147.7,235.7z"/>
		<path class="st1" d="M166.6,231.4h-9.9c-2.4,0.1-4.3,2.1-4.2,4.5c0.1,2.3,1.9,4.1,4.2,4.2h9.9c2.4-0.1,4.3-2.1,4.2-4.5
			C170.7,233.3,168.9,231.5,166.6,231.4L166.6,231.4z"/>
		<path class="st1" d="M116.3,254h50.3c2.4,0,4.3-1.9,4.3-4.3c0-2.4-1.9-4.3-4.3-4.3h-50.3c-2.4,0-4.3,1.9-4.3,4.3
			C112,252.1,113.9,254,116.3,254z"/>
		<path class="st1" d="M93,245.3c-2.4,0-4.3,1.9-4.3,4.3c0,2.4,1.9,4.3,4.3,4.3l0,0h9.9c2.4,0,4.3-1.9,4.3-4.3
			c0-2.4-1.9-4.3-4.3-4.3l0,0H93z"/>
		<path class="st1" d="M20.9,109.3c0,2.4,1.9,4.3,4.3,4.3l0,0h158.1c2.4-0.1,4.3-2.1,4.2-4.5c-0.1-2.3-1.9-4.1-4.2-4.2h-158
			C22.9,104.9,20.9,106.9,20.9,109.3z"/>
	</g>
</g>
<g>
	<path class="st5" d="M149.4,158c0,48.5,48.7,64.7,48.7,64.7s48.5-16,48.5-64.9v-23.4c0-3.9-3.3-7.2-7.2-7.2h-15.2
		c-11.3,0-21.1-7-26.1-16.2c-5.1,9.2-14.8,16.2-26.1,16.2h-15.2c-3.9,0-7.2,3.3-7.2,7.2L149.4,158z"/>
	<path class="st0" d="M239.3,157.8c0,17.9-7.2,32.9-21.2,44.8c-8,6.8-16.2,10.7-20.1,12.3c-3.9-1.6-12.1-5.5-20.1-12.3
		c-14.2-11.9-21.4-26.9-21.4-44.8v-23.4h15.2c9.9,0,19.3-4.7,26.1-11.5c6.8,6.8,16.2,11.5,26.1,11.5h15.2L239.3,157.8z"/>
	<path d="M248.2,134.5c0-4.9-4.1-9-9-9h-15.2l0,0c-9.9,0-19.5-6-24.6-15.2c-0.4-0.6-0.8-1-1.6-1l0,0c-0.6,0-1.2,0.4-1.6,1
		c-5.1,9.4-14.6,15.4-24.6,15.4h-15.2c-4.9,0-9,4.1-9,9V158c0,11.3,2.7,22,7.8,31.4c4.1,7.6,9.9,14.4,17.2,20.5
		c12.3,10.1,24.4,14.2,24.9,14.4c0.2,0,0.4,0,0.6,0c0.2,0,0.4,0,0.6,0c0.6-0.2,12.7-4.3,24.8-14.4c7.2-6,12.9-12.9,17.2-20.5
		c5.1-9.6,7.8-20.1,7.8-31.6L248.2,134.5z M221.3,207.4c-10.3,8.6-20.9,12.9-23.2,13.6c-2.5-1-12.9-5.1-23.2-13.6
		c-15.8-13.1-23.8-29.6-23.8-49.3v-23.4c0-3.1,2.5-5.5,5.5-5.5h15.2c5.7,0,11.3-1.8,16.4-4.9c3.9-2.5,7.2-5.8,9.7-9.7
		c2.5,3.9,5.8,7.2,9.7,9.7c4.9,3.1,10.5,4.9,16.2,4.9h15.4c3.1,0,5.5,2.5,5.5,5.5V158C244.9,177.5,236.9,194.3,221.3,207.4z"/>
	<path class="st3" d="M214.9,149.7L195,169.5l-14-14c-2.1-2.1-5.7-2.1-8,0c-2.1,2.1-2.1,5.7,0,8l17.9,17.9c1.2,1.2,2.5,1.6,3.9,1.6
		c1.4,0,2.9-0.6,3.9-1.6l24-24c2.1-2.1,2.1-5.7,0-8C220.6,147.5,217.1,147.5,214.9,149.7z"/>
</g>
</svg>
