<?xml version="1.0" encoding="utf-8"?>
<!-- Generator: Adobe Illustrator 25.2.1, SVG Export Plug-In . SVG Version: 6.00 Build 0)  -->
<svg version="1.1" id="Capa_1" xmlns="http://www.w3.org/2000/svg" xmlns:xlink="http://www.w3.org/1999/xlink" x="0px" y="0px"
	 viewBox="0 0 574.9 574.9" style="enable-background:new 0 0 574.9 574.9;" xml:space="preserve">
<style type="text/css">
	.st0{fill:#FFC850;}
	.st1{fill:#FEA82F;}
	.st2{fill-rule:evenodd;clip-rule:evenodd;fill:#ED1C2E;}
	.st3{fill:#DFDFDF;}
	.st4{fill:#FFF4EB;}
	.st5{fill:#737373;}
	.st6{fill:#FFFFFF;}
	.st7{fill:#C3C8D1;}
	.st8{fill:#E4EAF8;}
	.st9{fill:#474D54;}
</style>
<g>
	<path d="M257.1,518.6c-0.4,0-0.7,0-1.1-0.1C152.7,504.4,70.8,422.2,56.9,318.8c-0.6-4.2,2.4-8.1,6.6-8.7s8.1,2.4,8.7,6.6
		c13,96.6,89.4,173.2,186,186.5c4.2,0.6,7.2,4.5,6.6,8.7C264.2,515.8,260.9,518.6,257.1,518.6z"/>
	<path d="M64.6,264.9c-0.3,0-0.7,0-1-0.1c-4.2-0.6-7.2-4.5-6.6-8.7C70.8,152.7,152.7,70.6,256.1,56.4c4.2-0.6,8.1,2.4,8.7,6.6
		s-2.4,8.1-6.6,8.7c-96.5,13.3-173,89.9-186,186.5C71.7,262.1,68.4,264.9,64.6,264.9z"/>
	<path d="M511.6,264.8c-3.8,0-7.1-2.8-7.6-6.7C490.9,161,414,84.3,316.9,71.5c-4.2-0.6-7.2-4.4-6.6-8.7c0.6-4.2,4.4-7.2,8.7-6.7
		C423,69.8,505.4,152,519.4,255.9c0.6,4.2-2.4,8.1-6.6,8.7C512.3,264.8,511.9,264.8,511.6,264.8z"/>
	<path d="M317.8,518.8c-3.8,0-7.1-2.8-7.7-6.7c-0.6-4.2,2.4-8.1,6.6-8.7c97.1-12.8,174-89.5,187.1-186.6c0.6-4.2,4.4-7.2,8.7-6.6
		c4.2,0.6,7.2,4.5,6.6,8.7c-14,103.9-96.4,186.1-200.4,199.8C318.5,518.8,318.2,518.8,317.8,518.8z"/>
</g>
<g>
	<ellipse class="st0" cx="287.5" cy="61.9" rx="30.4" ry="30.4"/>
	
		<ellipse transform="matrix(0.1602 -0.9871 0.9871 0.1602 -264.9558 714.5544)" class="st0" cx="287.5" cy="513" rx="30.4" ry="30.4"/>
	<circle class="st0" cx="61.9" cy="287.5" r="30.4"/>
	
		<ellipse transform="matrix(0.1602 -0.9871 0.9871 0.1602 147.0389 747.8235)" class="st0" cx="513" cy="287.5" rx="30.4" ry="30.4"/>
</g>
<g>
	<path class="st1" d="M277.6,61.9c0-13.2,8.4-24.4,20.1-28.6c-3.2-1.2-6.7-1.8-10.3-1.8c-16.8,0-30.4,13.6-30.4,30.4
		s13.6,30.4,30.4,30.4c3.6,0,7.1-0.6,10.3-1.8C286,86.3,277.6,75.1,277.6,61.9z"/>
	<path class="st1" d="M277.6,513c0-13.2,8.4-24.4,20.1-28.6c-3.2-1.2-6.7-1.8-10.3-1.8c-16.8,0-30.4,13.6-30.4,30.4
		s13.6,30.4,30.4,30.4c3.6,0,7.1-0.6,10.3-1.8C286,537.5,277.6,526.2,277.6,513z"/>
	<path class="st1" d="M52.1,287.5c0-13.2,8.4-24.4,20.1-28.6c-3.2-1.2-6.7-1.8-10.3-1.8c-16.8,0-30.4,13.6-30.4,30.4
		s13.6,30.4,30.4,30.4c3.6,0,7.1-0.6,10.3-1.8C60.5,311.9,52.1,300.7,52.1,287.5z"/>
	<path class="st1" d="M503.2,287.5c0-13.2,8.4-24.4,20.1-28.6c-3.2-1.2-6.7-1.8-10.3-1.8c-16.8,0-30.4,13.6-30.4,30.4
		s13.6,30.4,30.4,30.4c3.6,0,7.1-0.6,10.3-1.8C511.6,311.9,503.2,300.7,503.2,287.5z"/>
</g>
<path class="st2" d="M287.5,195c51.1,0,92.5,41.4,92.5,92.5S338.6,380,287.5,380S195,338.6,195,287.5S236.4,195,287.5,195L287.5,195
	z M287.5,203.8c-46.2,0-83.7,37.5-83.7,83.7s37.5,83.7,83.7,83.7s83.7-37.5,83.7-83.7C371.2,241.2,333.7,203.8,287.5,203.8z"/>
<path class="st2" d="M292,305.4v28.3h-9.1v-28.3c-4.3,0-10,0-12.1-0.1l-30.1,0.1c-2.5,0.1-5.2-0.5-7.5-1.8c-4.6-2.6-7-7.5-6.8-12.4
	c0-0.7,0.1-1.4,0.2-1.9c1.1-6,3.2-11.9,6.4-17.5s7.3-10.4,12-14.3c3.1-2.3,7.6-3.5,11.6-2.8c1.1-3.9,3.8-7.1,7.3-8.9
	c0.7-0.4,1.3-0.6,1.8-0.8c6.8-2.5,14.2-3.8,21.8-3.8c7.7,0,15.1,1.4,21.9,3.8c3.9,1.7,7.5,5.3,8.9,9.6c3.9-0.9,7.9,0,11,2.4
	c4.7,3.9,9.5,9.3,12.7,14.8c3.2,5.6,5.3,11.5,6.4,17.5c0.1,0.5,0.2,1.1,0.2,1.9c0.2,4.9-2.3,9.8-6.8,12.4c-2.4,1.4-5,1.9-7.5,1.8
	l-30.1-0.1C302,305.4,296.3,305.4,292,305.4L292,305.4z M324,264.3c-1.4-1.1-3.4-1.3-5.1-0.3c-0.9,0.5-1.5,1.2-1.9,2.1l-15.2,26.6
	c-0.5,0.7-0.5,1.6-0.1,2.4c0.5,0.8,1.3,1.2,2.2,1.1l30.6,0.1c0.9,0.1,1.8-0.1,2.7-0.6c1.6-0.9,2.4-2.7,2.3-4.4c0-0.1,0-0.3,0-0.4
	c-0.9-5-2.6-9.9-5.3-14.5c-2.7-4.7-6.1-8.6-10-11.9C324.1,264.4,324.1,264.4,324,264.3L324,264.3z M250.9,264.3l-0.1,0.1
	c-3.9,3.3-7.3,7.3-10,11.9s-4.4,9.5-5.3,14.5c0,0.2,0,0.3,0,0.4c-0.1,1.7,0.7,3.5,2.3,4.4c0.8,0.5,1.8,0.7,2.7,0.6l30.6-0.1
	c0.9,0.1,1.7-0.3,2.2-1.1c0.4-0.8,0.4-1.7-0.1-2.4L258,266c-0.4-0.9-1-1.6-1.9-2.1C254.3,263.1,252.3,263.2,250.9,264.3L250.9,264.3
	z M306.5,253.6c-0.1,0-0.1-0.1-0.2-0.1c-5.9-2.1-12.2-3.3-18.8-3.3c-6.6,0-12.9,1.2-18.7,3.3c-0.2,0.1-0.4,0.2-0.5,0.2
	c-1.9,0.9-3.3,2.9-3.3,5.1c0,1.2,0.4,2.3,1,3.2l18.9,32.6c0.4,1,1.4,1.6,2.6,1.6c1.1,0,2.1-0.6,2.5-1.6l18.9-32.6
	c0.7-0.9,1.1-2.1,1.1-3.3C310,256.5,308.5,254.5,306.5,253.6z"/>
<g>
	<path class="st3" d="M90.4,247.1v7.4h-7.5v-7.4c0-0.3-0.3-0.6-0.6-0.6H41.5c-0.3,0-0.6,0.3-0.6,0.6v7.4h-7.5v-7.4
		c0-4.4,3.6-8.1,8.1-8.1h40.9C86.8,239,90.4,242.7,90.4,247.1z"/>
	<g>
		<rect x="82.9" y="249.7" class="st3" width="7.5" height="4.7"/>
		<rect x="33.4" y="249.7" class="st3" width="7.5" height="4.7"/>
	</g>
	<rect x="30.7" y="253.5" class="st4" width="12.6" height="8.1"/>
	<rect x="30.7" y="256.3" class="st3" width="12.6" height="5.3"/>
	<rect x="80.5" y="253.5" class="st4" width="12.6" height="8.1"/>
	<rect x="80.5" y="256.3" class="st3" width="12.6" height="5.3"/>
	<rect x="16" y="259.3" class="st3" width="91.7" height="64.9"/>
	<g>
		<path class="st5" d="M61.9,303.3c-4.8,0-8.8-3.9-8.8-8.8v-5.7c0-4.8,3.9-8.8,8.8-8.8s8.8,3.9,8.8,8.8v5.7
			C70.7,299.4,66.8,303.3,61.9,303.3z"/>
		<path class="st5" d="M107.8,259.3v13.5l-1.9,5.3c-4,10.9-14.5,18.3-26.2,18.3H44.1c-11.6,0-22.2-7.3-26.2-18.3l-1.9-5.3v-13.5
			H107.8z"/>
	</g>
	<path class="st3" d="M107.8,259.3l-6.3,17.2c-3.3,9.1-12.1,15.2-21.8,15.2H44.1c-2.4,0-4.7-0.4-6.9-1.1
		c-6.8-2.1-12.4-7.3-14.9-14.2L16,259.3H107.8z"/>
	<path class="st5" d="M70.7,288.9v2.8H53.1v-2.8c0-4.8,3.9-8.8,8.8-8.8S70.7,284,70.7,288.9z"/>
	<path class="st4" d="M58.1,294.6v-5.7c0-2.1,1.7-3.8,3.8-3.8l0,0c2.1,0,3.8,1.7,3.8,3.8v5.7c0,2.1-1.7,3.8-3.8,3.8l0,0
		C59.8,298.3,58.1,296.6,58.1,294.6z"/>
	<g>
		<path class="st3" d="M54.7,263H50v-6c0-0.8,0.6-1.4,1.4-1.4h1.9c0.8,0,1.4,0.6,1.4,1.4L54.7,263L54.7,263z"/>
		<path class="st3" d="M64.2,263h-4.7v-6c0-0.8,0.6-1.4,1.4-1.4h1.9c0.8,0,1.4,0.6,1.4,1.4V263z"/>
		<path class="st3" d="M73.8,263h-4.7v-6c0-0.8,0.6-1.4,1.4-1.4h1.9c0.8,0,1.4,0.6,1.4,1.4C73.8,257,73.8,263,73.8,263z"/>
	</g>
	<path d="M107.8,294.8c0.8,0,1.4-0.6,1.4-1.4v-34.1c0-0.8-0.6-1.4-1.4-1.4H94.5v-4.4c0-0.8-0.6-1.4-1.4-1.4h-1.3v-5
		c0-5.2-4.2-9.4-9.4-9.4H50c-0.8,0-1.4,0.6-1.4,1.4c0,0.8,0.6,1.4,1.4,1.4h32.4c3.7,0,6.7,3,6.7,6.7v5h-4.7v-5c0-1.1-0.9-2-2-2H41.5
		c-1.1,0-2,0.9-2,2v5h-4.7v-5c0-3.7,3-6.7,6.7-6.7h3.4c0.8,0,1.4-0.6,1.4-1.4c0-0.8-0.6-1.4-1.4-1.4h-3.4c-5.2,0-9.4,4.2-9.4,9.4v5
		h-1.3c-0.8,0-1.4,0.6-1.4,1.4v4.4H16c-0.8,0-1.4,0.6-1.4,1.4v64.9c0,0.8,0.6,1.4,1.4,1.4h91.7c0.1,0,0.1,0,0.2,0
		c0.7-0.1,1.2-0.7,1.2-1.4v-25.6c0-0.8-0.6-1.4-1.4-1.4s-1.4,0.6-1.4,1.4v22.2v2h-2h-85h-2v-2v-40.1V279v-11.9v-6.4H18h7.3h23.3v2.4
		c0,0.8,0.6,1.4,1.4,1.4h4.7c0.8,0,1.4-0.6,1.4-1.4v-2.4h2.1v2.4c0,0.8,0.6,1.4,1.4,1.4h4.7c0.8,0,1.4-0.6,1.4-1.4v-2.4h2.1v2.4
		c0,0.8,0.6,1.4,1.4,1.4h4.7c0.8,0,1.4-0.6,1.4-1.4v-2.4h23.3l0,0h7.9v6.4V279v1.8v12.7C106.4,294.2,107,294.8,107.8,294.8z
		 M41.9,257.9H32v-3h9.9V257.9L41.9,257.9z M53.3,259.3L53.3,259.3L53.3,259.3v2.4h-1.9v-2.3l0,0l0,0V257l0,0h1.9l0,0V259.3
		L53.3,259.3z M62.9,261.6H61V257l0,0h1.9l0,0V261.6z M72.4,259.3L72.4,259.3L72.4,259.3v2.4h-1.9v-2.3l0,0l0,0V257l0,0h1.9l0,0
		V259.3z M81.6,252.1h-1c-0.8,0-1.4,0.6-1.4,1.4v4.4h-4v-1c0-1.5-1.2-2.8-2.8-2.8h-1.9c-1.5,0-2.8,1.2-2.8,2.8v1h-2.1v-1
		c0-1.5-1.2-2.8-2.8-2.8H61c-1.5,0-2.8,1.2-2.8,2.8v1h-2.1v-1c0-1.5-1.2-2.8-2.8-2.8h-1.9c-1.5,0-2.8,1.2-2.8,2.8v1h-4v-4.4
		c0-0.8-0.6-1.4-1.4-1.4h-1v-4.2h39.3L81.6,252.1L81.6,252.1z M91.8,257.9h-9.9v-3h9.9V257.9z"/>
</g>
<g>
	<path class="st6" d="M564,314.3c0,5.3-4.3,9.6-9.6,9.6l-80,0.2c-5.3,0-9.6-4.3-9.6-9.6l-0.1-51.2c0-5.3,4.3-9.6,9.6-9.6l80-0.2
		c5.3,0,9.6,4.3,9.6,9.6L564,314.3z"/>
	<g>
		<path class="st5" d="M501.5,293.4c-0.1,0-0.1,0-0.2,0c-15.1-1.8-28.5-6.8-37.6-14c-0.6-0.5-0.8-1.5-0.2-2.1
			c0.5-0.6,1.5-0.8,2.1-0.2c8.7,6.9,21.5,11.6,36.1,13.3c0.8,0.1,1.4,0.8,1.3,1.7C502.9,292.9,502.3,293.4,501.5,293.4z"/>
		<path class="st5" d="M527.1,293.4c-0.7,0-1.4-0.6-1.5-1.3c-0.1-0.8,0.5-1.6,1.3-1.7c14.6-1.8,27.4-6.6,36-13.5
			c0.6-0.5,1.6-0.4,2.1,0.2s0.4,1.6-0.2,2.1c-9.1,7.2-22.4,12.3-37.5,14.1C527.2,293.4,527.2,293.4,527.1,293.4z"/>
	</g>
	<path class="st5" d="M527.1,290.3c0,3.5-2.9,6.4-6.4,6.4h-12.8c-3.5,0-6.4-2.9-6.4-6.4l0,0c0-3.5,2.9-6.4,6.4-6.4h12.8
		C524.2,283.9,527.1,286.8,527.1,290.3L527.1,290.3z"/>
	<path d="M565.4,263.1c0-6.1-5-11.1-11.1-11.1l0,0H535v-3.3c0-3-1.2-5.7-3.3-7.8s-4.9-3.2-7.8-3.2l0,0h-19.2
		c-6.1,0-11.1,5-11.1,11.1v3.3h-19.3c-3,0-5.7,1.2-7.8,3.3c-2.1,2.1-3.2,4.9-3.2,7.8l0.1,51.2c0,6.1,5,11.1,11.1,11.1l0,0l80-0.2
		c6.1,0,11.1-5,11.1-11.1L565.4,263.1z M504.6,240.7h19.2l0,0c4.5,0,8.1,3.6,8.1,8.1v3.3l-35.4,0.1v-3.3
		C496.5,244.3,500.2,240.7,504.6,240.7z M554.4,322.4l-80,0.2v1.5v-1.5c-4.5,0-8.1-3.6-8.1-8.1l-0.1-51.2c0-2.2,0.8-4.2,2.4-5.7
		c1.5-1.5,3.6-2.4,5.7-2.4l80-0.2c4.5,0,8.1,3.6,8.1,8.1l0.1,51.2C562.5,318.7,558.8,322.4,554.4,322.4z"/>
	<g>
		<path class="st5" d="M551.1,261.4L551.1,261.4h3.2c0.8,0,1.5-0.7,1.5-1.5s-0.7-1.5-1.5-1.5l0,0h-3.2c-0.8,0-1.5,0.7-1.5,1.5
			C549.6,260.7,550.2,261.4,551.1,261.4z"/>
		<path class="st5" d="M527.1,261.4L527.1,261.4h17.6c0.8,0,1.5-0.7,1.5-1.5s-0.7-1.5-1.5-1.5l0,0h-17.6c-0.8,0-1.5,0.7-1.5,1.5
			C525.6,260.8,526.2,261.4,527.1,261.4z"/>
	</g>
</g>
<g>
	<g>
		<path class="st6" d="M311.2,38.7c-2.9-1.4-9.6-5.7-14.3-9.3c0,0-7.4-6-18.1-0.6l0,0c-6.4,3.2-10.8,8.8-16.4,14.8
			c-2,2.2-1.7,5.7,0.7,7.5c2.6,2,6.3,1.8,8.8-0.4l8.8-8c0.9-0.6,2.1-0.6,3,0.1c0,0,6.5,7.2,18.2,7.5c1.9,2.1,16.7,18.7,19.6,21.9
			c1.2,1.3,1.7,3,1.6,4.6h10.5V39.2C313.2,39.1,313.3,39.7,311.2,38.7z"/>
		<path class="st6" d="M321.4,72.1c-0.2-0.3,2.6,2.9-19.6-21.9c-11.7-0.2-18.2-7.5-18.2-7.5c-0.9-0.7-2.1-0.7-3-0.1l-8.8,8
			c-2.4,2.2-6.1,2.4-8.8,0.4c-2.4-1.8-2.7-5.3-0.7-7.5c4.8-4.8,9.2-11.2,16.4-14.8c-2.2-0.6-6.8-1.8-9.1-0.7
			c-5.6,2.6-11.9,9.4-14.6,10.6c-2,1-2.3,0.4-19.5,0.6v37.5h11.7c13.2,0,37.5,25.4,37.5,25.4l0,0l0,0l0.5,0.6c2.3,2.4,6,2.5,8.4,0.3
			c2.2-2.1,2.5-5.4,0.8-7.8l0.4,0.5c2.2,2.3,5.8,2.6,8.3,0.6c2.1-1.8,2.7-4.7,1.6-7c2.3,2.1,5.8,2.2,8.1,0c2.3-2.2,2.5-5.7,0.6-8.1
			c2.3,1.6,5.4,1.4,7.5-0.5C323.6,78.3,323.7,74.5,321.4,72.1z"/>
	</g>
	<path class="st3" d="M337.7,33.7c-2.7,0-4.9,2.2-4.9,4.9c0,0.1,0,2.5,0,2.4c0,0.1,0,0.9,0,0.9c0,0.1,0,1.5,0,1.5v1.4v0.5
		c0,0.2,0,0.8,0,0.8v0.6V48v1.4c0,0.1,0,2.2,0,2.1c0,16.2,0,9.6,0,25.8c0,2.7,2.2,4.9,4.9,4.9s4.9-2.2,4.9-4.9c0-0.1,0-2.5,0-2.4
		c0-0.7,0-37,0-36.2C342.6,35.9,340.4,33.7,337.7,33.7z"/>
	<path class="st3" d="M231.4,33.7c-2.7,0-4.9,2.2-4.9,4.9c0,27.7,0,10.7,0,38.7c0,2.7,2.2,4.9,4.9,4.9s4.9-2.2,4.9-4.9
		c0-3.8,0-33.4,0-38.7C236.3,35.9,234.1,33.7,231.4,33.7z"/>
	<path class="st7" d="M337.7,59.9c-2.7,0-4.9-2.2-4.9-4.9c0,0,0,1.7,0,1.6c0,3,0,18.6,0,20.7c0,2.7,2.2,4.9,4.9,4.9
		c2.7,0,4.9-2.2,4.9-4.9c0-0.1,0-2.5,0-2.4c0-4.8,0-14.8,0-19.8C342.6,57.7,340.4,59.9,337.7,59.9z"/>
	<path class="st7" d="M231.4,59.9c-2.7,0-4.9-2.2-4.9-4.9c0,4.5,0,17.8,0,22.3c0,2.7,2.2,4.9,4.9,4.9s4.9-2.2,4.9-4.9
		c0-1.3,0-21.5,0-20.2c0-0.1,0-2.1,0-2.1C236.3,57.7,234.1,59.9,231.4,59.9z"/>
	<g>
		<path class="st8" d="M243.8,55.2c0-5.7,1.1-11,3.1-16h-11.4v37.5h11.7c0-1,0.3-2,0.8-2.9C245.4,68.2,243.8,61.9,243.8,55.2z"/>
		<path class="st8" d="M269.6,77.3c-2.1-2.4-5.7-2.5-8.1-0.4c-0.4,0.4-3.4,3-3.7,3.3l-0.9,0.8c-2.4,2.1-2.5,5.7-0.4,8.1
			s5.7,2.5,8.1,0.4c1-0.9,3.6-3.3,4.6-4.1C271.5,83.3,271.7,79.7,269.6,77.3z"/>
		<path class="st8" d="M277.3,85.8c-2.1-2.4-5.7-2.5-8.1-0.4c-5.5,5-3.6,3.2-4.6,4.1c-2.4,2.1-2.5,5.7-0.4,8.1s5.7,2.5,8.1,0.4
			c1.1-1,3.6-3.2,4.6-4.1C279.2,91.8,279.4,88.2,277.3,85.8z"/>
		<path class="st8" d="M284.9,94.3c-2.1-2.4-5.7-2.5-8.1-0.4c-1.1,1-3.7,3.3-4.6,4.1c-2.4,2.1-2.5,5.7-0.4,8.1s5.7,2.5,8.1,0.4
			c1.6-1.5,3-2.7,4.6-4.1C286.9,100.3,287,96.7,284.9,94.3z"/>
		<path class="st8" d="M262,68.8c-2.1-2.4-5.7-2.5-8.1-0.4c-1.1,1-3.5,3.2-4.6,4.1c-2.4,2.1-2.5,5.7-0.4,8.1s5.7,2.5,8.1,0.4
			l0.9-0.8l1.6-1.5l2.1-1.9C263.9,74.8,264.1,71.1,262,68.8z"/>
	</g>
	<g>
		<path class="st7" d="M253.8,76.1c-2-2.3-1.9-5.7,0.2-7.8c-0.2,0.2,0.5-0.5-4.7,4.3c-2.4,2.1-2.5,5.7-0.4,8.1s5.7,2.5,8.1,0.4
			l0.9-0.8l1.6-1.5c2.2-2,2.1-1.9,2.4-2.2C259.4,78.6,255.9,78.4,253.8,76.1z"/>
		<path class="st7" d="M261.5,84.6c-2-2.3-1.9-5.7,0.2-7.8c-0.3,0.2,0.1-0.1-2.2,2c-0.2,0.2,0.8-0.8-2.5,2.3
			c-2.4,2.1-2.5,5.7-0.4,8.1s5.7,2.5,8.1,0.4c3.4-3.1,2.3-2,2.5-2.3c2.2-2,2.1-1.9,2.4-2.2C267.1,87.1,263.6,86.9,261.5,84.6z"/>
		<path class="st7" d="M269.2,93.1c-2-2.3-1.9-5.7,0.2-7.8c-0.2,0.2-4.6,4.1-4.7,4.3c-2.4,2.1-2.5,5.7-0.4,8.1s5.7,2.5,8.1,0.4
			c0.5-0.4,4.7-4.2,4.9-4.4C274.8,95.6,271.2,95.4,269.2,93.1z"/>
		<path class="st7" d="M276.8,101.6c-2-2.3-1.9-5.7,0.2-7.8c-0.2,0.2-4.6,4.1-4.7,4.3c-2.4,2.1-2.5,5.7-0.4,8.1s5.7,2.5,8.1,0.4
			c5-4.5,4.7-4.2,4.9-4.4C282.4,104.2,278.9,103.9,276.8,101.6z"/>
	</g>
	<g>
		<path d="M342.6,64.7c1,0,1.8-0.8,1.8-1.8V38.6c0-3.7-3-6.7-6.7-6.7c-3.3,0-6.1,2.4-6.6,5.6c-18.2-0.1-17.7,0.3-19.1-0.4
			c-1.5-0.7-4.1-2.3-6.9-4.1c-0.8-0.5-1.9-0.3-2.4,0.5s-0.3,1.9,0.5,2.4c6.4,4.1,8.2,5,10.5,5H331v34h-6.3c-0.2-1.5-0.9-2.9-2-4
			c-21.5-24.2-19.9-22.4-20.8-22.4c-10.8-0.2-16.9-6.8-16.9-6.9c-1.2-1.3-3.9-1.6-5.4-0.2l-8.8,8c-1,0.9-2.3,1.4-3.6,1.3
			c-3.8-0.1-5.4-3.8-3.3-5.9c5.1-5.5,6.2-6.7,6.4-7c-0.1,0.1-0.1,0.1,0,0c5.1-5.5,9.2-7.3,9.4-7.4c5.3-2.7,11.6-3,16.6,0.8
			c0.8,0.6,1.9,0.4,2.5-0.3c0.6-0.8,0.4-1.9-0.3-2.5c-5.2-4-12.4-4.9-19.7-1.4c-4.5-1.2-7.7-1.4-9.7-0.5
			c-5.8,2.7-12.3,9.6-14.6,10.7c-1.4,0.7-1.4,0.3-16.4,0.4c-0.5-3.2-3.3-5.6-6.6-5.6c-3.7,0-6.7,3-6.7,6.7V44c0,1,0.8,1.8,1.8,1.8
			s1.8-0.8,1.8-1.8v-5.5c0-1.7,1.4-3.2,3.2-3.2c1.7,0,3.2,1.4,3.2,3.2c0,1.7,0,33.6,0,38.7c0,1.7-1.4,3.2-3.2,3.2
			c-1.7,0-3.2-1.4-3.2-3.2V52.8c0-1-0.8-1.8-1.8-1.8s-1.8,0.8-1.8,1.8v24.4c0,3.7,3,6.7,6.7,6.7c3.3,0,6-2.4,6.6-5.5h7.8
			c0.8,3.4,3.9,5.9,7.5,5.8c-0.6,4.6,3,8.7,7.7,8.5c-0.6,4.6,3,8.7,7.7,8.5c-1,7,7.3,11.2,12.4,6.6l3.7-3.4c4.7,4,12.2,1,12.7-5.4
			c4.7,1.3,9.3-1.9,9.8-6.7c5.3,1.3,10.2-3.1,9.5-8.5c3.5,0.2,6.7-2.1,7.7-5.4h6.7c0.6,3.1,3.3,5.5,6.6,5.5c3.7,0,6.7-3,6.7-6.7
			v-5.9c0-1-0.8-1.8-1.8-1.8s-1.8,0.8-1.8,1.8v5.9c0,1.7-1.4,3.2-3.2,3.2s-3.2-1.4-3.2-3.2c0-2.8,0-32.2,0-38.7
			c0-1.7,1.4-3.2,3.2-3.2s3.2,1.4,3.2,3.2V63C340.9,63.9,341.7,64.7,342.6,64.7z M249.3,75.6c0.2-0.7,0.6-1.3,1.1-1.8
			c4.6-4.1,5-4.7,6.2-5c3.9-1.1,6.8,3.8,3.7,6.8l-4.6,4.1C252.8,82.4,248.1,79.5,249.3,75.6z M257.8,87.9c-1.5-1.6-1.3-4.1,0.3-5.6
			c0.2-0.2-0.6,0.6,4.6-4.1c1.6-1.5,4.2-1.3,5.6,0.3l0,0c1.2,1.4,1.5,3.5,0,5.3c-0.3,0.3,0,0.1-4.9,4.4
			C261.8,89.7,259.2,89.6,257.8,87.9z M265.4,96.5c-1.5-1.6-1.3-4.1,0.3-5.6c4.8-4.3,5.1-4.9,6.6-5.1c1.4-0.2,2.7,0.3,3.6,1.3l0,0
			c1.5,1.6,1.3,4.1-0.3,5.6l-4.6,4.1C269.4,98.2,266.9,98.1,265.4,96.5z M283.6,100.9c-0.3,0.3,0,0-4.9,4.4
			c-1.6,1.5-4.1,1.3-5.6-0.3c-1.5-1.6-1.3-4.1,0.3-5.6c4.7-4.2,5-4.8,6.5-5.1c0,0,2.1-0.5,3.7,1.3l0,0C285,97,285,99.4,283.6,100.9z
			 M314.7,79.6c-1.7-1.1-3.6,1-2.4,2.5c1.4,1.7,1.2,4.2-0.4,5.7s-4.1,1.5-5.7,0c-1.4-1.3-3.6,0.3-2.8,2c0.8,1.7,0.3,3.8-1.2,5
			c-1.7,1.4-4.3,1.2-5.9-0.5l-0.4-0.5c-0.6-0.7-1.7-0.7-2.4-0.2c-0.7,0.6-0.9,1.6-0.3,2.4c1.2,1.7,0.9,4.1-0.6,5.5s-3.9,1.5-5.5,0.2
			c3-5.1-0.9-11.4-6.7-11.2c0.6-4.5-3-8.7-7.7-8.5c0.6-4.6-3-8.7-7.7-8.5c0.3-2.2-0.4-4.4-1.8-6l0,0c-2.7-3.1-7.5-3.3-10.6-0.6
			c-4.8,4.3-4.7,4.2-5,4.6c-0.9,1-1.5,2.1-1.8,3.3h-7.7V41c14.2-0.2,15.3,0.5,17.9-0.7c3-1.4,9.2-8.2,14.5-10.6
			c0.4-0.2,1.5-0.5,3.8-0.1c-5.6,3.9-8.9,8.7-13.1,12.9c-4.1,4.5-0.9,11.9,6.1,11.8c2.1,0,4.2-0.8,5.8-2.2l8.7-7.9
			c0.2-0.1,0.5-0.1,0.7,0c3.9,4.1,10.9,7.5,18.6,7.9c20.7,23.2,19.1,21.4,19.4,21.7c0.6,0.8,0.8,2.9,0.8,2.9
			C321,79.8,317.3,81.4,314.7,79.6z"/>
		<path class="st9" d="M270.2,37.8C270.3,37.8,270.3,37.8,270.2,37.8L270.2,37.8z"/>
	</g>
</g>
<g>
	<g>
		<path class="st6" d="M311.2,490c-2.9-1.4-9.6-5.7-14.3-9.3c0,0-7.4-6-18.1-0.6l0,0c-6.4,3.2-10.8,8.8-16.4,14.8
			c-2,2.2-1.7,5.7,0.7,7.5c2.6,2,6.3,1.8,8.8-0.4l8.8-8c0.9-0.6,2.1-0.6,3,0.1c0,0,6.5,7.2,18.2,7.5c1.9,2.1,16.7,18.7,19.6,21.9
			c1.2,1.3,1.7,3,1.6,4.6h10.5v-37.5C313.2,490.4,313.3,491,311.2,490z"/>
		<path class="st6" d="M321.4,523.4c-0.2-0.3,2.6,2.9-19.6-21.9c-11.7-0.2-18.2-7.5-18.2-7.5c-0.9-0.7-2.1-0.7-3-0.1l-8.8,8
			c-2.4,2.2-6.1,2.4-8.8,0.4c-2.4-1.8-2.7-5.3-0.7-7.5c4.8-4.8,9.2-11.2,16.4-14.8c-2.2-0.6-6.8-1.8-9.1-0.7
			c-5.6,2.6-11.9,9.4-14.6,10.6c-2,1-2.3,0.4-19.5,0.6V528h11.7c13.2,0,37.5,25.4,37.5,25.4l0,0l0,0l0.5,0.6c2.3,2.4,6,2.5,8.4,0.3
			c2.2-2.1,2.5-5.4,0.8-7.8l0.4,0.5c2.2,2.3,5.8,2.6,8.3,0.6c2.1-1.8,2.7-4.7,1.6-7c2.3,2.1,5.8,2.2,8.1,0c2.3-2.2,2.5-5.7,0.6-8.1
			c2.3,1.6,5.4,1.4,7.5-0.5C323.6,529.6,323.7,525.9,321.4,523.4z"/>
	</g>
	<path class="st3" d="M337.7,485c-2.7,0-4.9,2.2-4.9,4.9c0,0.1,0,2.5,0,2.4c0,0.1,0,0.9,0,0.9c0,0.1,0,1.5,0,1.5v1.4v0.5
		c0,0.2,0,0.8,0,0.8v0.6v1.3v1.4c0,0.1,0,2.2,0,2.1c0,16.2,0,9.6,0,25.8c0,2.7,2.2,4.9,4.9,4.9s4.9-2.2,4.9-4.9c0-0.1,0-2.5,0-2.4
		c0-0.7,0-37,0-36.2C342.6,487.2,340.4,485,337.7,485z"/>
	<path class="st3" d="M231.4,485c-2.7,0-4.9,2.2-4.9,4.9c0,27.7,0,10.7,0,38.7c0,2.7,2.2,4.9,4.9,4.9s4.9-2.2,4.9-4.9
		c0-3.8,0-33.4,0-38.7C236.3,487.2,234.1,485,231.4,485z"/>
	<path class="st7" d="M337.7,511.2c-2.7,0-4.9-2.2-4.9-4.9c0,0,0,1.7,0,1.6c0,3,0,18.6,0,20.7c0,2.7,2.2,4.9,4.9,4.9
		c2.7,0,4.9-2.2,4.9-4.9c0-0.1,0-2.5,0-2.4c0-4.8,0-14.8,0-19.8C342.6,509,340.4,511.2,337.7,511.2z"/>
	<path class="st7" d="M231.4,511.2c-2.7,0-4.9-2.2-4.9-4.9c0,4.5,0,17.8,0,22.3c0,2.7,2.2,4.9,4.9,4.9s4.9-2.2,4.9-4.9
		c0-1.3,0-21.5,0-20.2c0-0.1,0-2.1,0-2.1C236.3,509,234.1,511.2,231.4,511.2z"/>
	<g>
		<path class="st8" d="M243.8,506.6c0-5.7,1.1-11,3.1-16h-11.4v37.5h11.7c0-1,0.3-2,0.8-2.9C245.4,519.6,243.8,513.2,243.8,506.6z"
			/>
		<path class="st8" d="M269.6,528.7c-2.1-2.4-5.7-2.5-8.1-0.4c-0.4,0.4-3.4,3-3.7,3.3l-0.9,0.8c-2.4,2.1-2.5,5.7-0.4,8.1
			c2.1,2.4,5.7,2.5,8.1,0.4c1-0.9,3.6-3.3,4.6-4.1C271.5,534.6,271.7,531,269.6,528.7z"/>
		<path class="st8" d="M277.3,537.2c-2.1-2.4-5.7-2.5-8.1-0.4c-5.5,5-3.6,3.2-4.6,4.1c-2.4,2.1-2.5,5.7-0.4,8.1
			c2.1,2.4,5.7,2.5,8.1,0.4c1.1-1,3.6-3.2,4.6-4.1C279.2,543.2,279.4,539.5,277.3,537.2z"/>
		<path class="st8" d="M284.9,545.7c-2.1-2.4-5.7-2.5-8.1-0.4c-1.1,1-3.7,3.3-4.6,4.1c-2.4,2.1-2.5,5.7-0.4,8.1
			c2.1,2.4,5.7,2.5,8.1,0.4c1.6-1.5,3-2.7,4.6-4.1C286.9,551.7,287,548,284.9,545.7z"/>
		<path class="st8" d="M262,520.1c-2.1-2.4-5.7-2.5-8.1-0.4c-1.1,1-3.5,3.2-4.6,4.1c-2.4,2.1-2.5,5.7-0.4,8.1
			c2.1,2.4,5.7,2.5,8.1,0.4l0.9-0.8l1.6-1.5l2.1-1.9C263.9,526.1,264.1,522.5,262,520.1z"/>
	</g>
	<g>
		<path class="st7" d="M253.8,527.4c-2-2.3-1.9-5.7,0.2-7.8c-0.2,0.2,0.5-0.5-4.7,4.3c-2.4,2.1-2.5,5.7-0.4,8.1
			c2.1,2.4,5.7,2.5,8.1,0.4l0.9-0.8l1.6-1.5c2.2-2,2.1-1.9,2.4-2.2C259.4,529.9,255.9,529.7,253.8,527.4z"/>
		<path class="st7" d="M261.5,535.9c-2-2.3-1.9-5.7,0.2-7.8c-0.3,0.2,0.1-0.1-2.2,2c-0.2,0.2,0.8-0.8-2.5,2.3
			c-2.4,2.1-2.5,5.7-0.4,8.1c2.1,2.4,5.7,2.5,8.1,0.4c3.4-3.1,2.3-2,2.5-2.3c2.2-2,2.1-1.9,2.4-2.2
			C267.1,538.5,263.6,538.2,261.5,535.9z"/>
		<path class="st7" d="M269.2,544.5c-2-2.3-1.9-5.7,0.2-7.8c-0.2,0.2-4.6,4.1-4.7,4.3c-2.4,2.1-2.5,5.7-0.4,8.1
			c2.1,2.4,5.7,2.5,8.1,0.4c0.5-0.4,4.7-4.2,4.9-4.4C274.8,547,271.2,546.8,269.2,544.5z"/>
		<path class="st7" d="M276.8,553c-2-2.3-1.9-5.7,0.2-7.8c-0.2,0.2-4.6,4.1-4.7,4.3c-2.4,2.1-2.5,5.7-0.4,8.1
			c2.1,2.4,5.7,2.5,8.1,0.4c5-4.5,4.7-4.2,4.9-4.4C282.4,555.5,278.9,555.3,276.8,553z"/>
	</g>
	<g>
		<path d="M342.6,516.1c1,0,1.8-0.8,1.8-1.8v-24.4c0-3.7-3-6.7-6.7-6.7c-3.3,0-6.1,2.4-6.6,5.6c-18.2-0.1-17.7,0.3-19.1-0.4
			c-1.5-0.7-4.1-2.3-6.9-4.1c-0.8-0.5-1.9-0.3-2.4,0.5s-0.3,1.9,0.5,2.4c6.4,4.1,8.2,5,10.5,5H331v34h-6.3c-0.2-1.5-0.9-2.9-2-4
			c-21.5-24.2-19.9-22.4-20.8-22.4c-10.8-0.2-16.9-6.8-16.9-6.9c-1.2-1.3-3.9-1.6-5.4-0.2l-8.8,8c-1,0.9-2.3,1.4-3.6,1.3
			c-3.8-0.1-5.4-3.8-3.3-5.9c5.1-5.5,6.2-6.7,6.4-7c-0.1,0.1-0.1,0.1,0,0c5.1-5.5,9.2-7.3,9.4-7.4c5.3-2.7,11.6-3,16.6,0.8
			c0.8,0.6,1.9,0.4,2.5-0.3c0.6-0.8,0.4-1.9-0.3-2.5c-5.2-4-12.4-4.9-19.7-1.4c-4.5-1.2-7.7-1.4-9.7-0.5
			c-5.8,2.7-12.3,9.6-14.6,10.7c-1.4,0.7-1.4,0.3-16.4,0.4c-0.5-3.2-3.3-5.6-6.6-5.6c-3.7,0-6.7,3-6.7,6.7v5.5c0,1,0.8,1.8,1.8,1.8
			s1.8-0.8,1.8-1.8V490c0-1.7,1.4-3.2,3.2-3.2c1.7,0,3.2,1.4,3.2,3.2c0,1.7,0,33.6,0,38.7c0,1.7-1.4,3.2-3.2,3.2
			c-1.7,0-3.2-1.4-3.2-3.2v-24.4c0-1-0.8-1.8-1.8-1.8s-1.8,0.8-1.8,1.8v24.4c0,3.7,3,6.7,6.7,6.7c3.3,0,6-2.4,6.6-5.5h7.8
			c0.8,3.4,3.9,5.9,7.5,5.8c-0.6,4.6,3,8.7,7.7,8.5c-0.6,4.6,3,8.7,7.7,8.5c-1,7,7.3,11.2,12.4,6.6l3.7-3.4c4.7,4,12.2,1,12.7-5.4
			c4.7,1.3,9.3-1.9,9.8-6.7c5.3,1.3,10.2-3.1,9.5-8.5c3.5,0.2,6.7-2.1,7.7-5.4h6.7c0.6,3.1,3.3,5.5,6.6,5.5c3.7,0,6.7-3,6.7-6.7
			v-5.9c0-1-0.8-1.8-1.8-1.8s-1.8,0.8-1.8,1.8v5.9c0,1.7-1.4,3.2-3.2,3.2s-3.2-1.4-3.2-3.2c0-2.8,0-32.2,0-38.7
			c0-1.7,1.4-3.2,3.2-3.2s3.2,1.4,3.2,3.2v24.4C340.9,515.3,341.7,516.1,342.6,516.1z M249.3,526.9c0.2-0.7,0.6-1.3,1.1-1.8
			c4.6-4.1,5-4.7,6.2-5c3.9-1.1,6.8,3.8,3.7,6.8l-4.6,4.1C252.8,533.7,248.1,530.9,249.3,526.9z M257.8,539.3
			c-1.5-1.6-1.3-4.1,0.3-5.6c0.2-0.2-0.6,0.6,4.6-4.1c1.6-1.5,4.2-1.3,5.6,0.3l0,0c1.2,1.4,1.5,3.5,0,5.3c-0.3,0.3,0,0.1-4.9,4.4
			C261.8,541.1,259.2,540.9,257.8,539.3z M265.4,547.8c-1.5-1.6-1.3-4.1,0.3-5.6c4.8-4.3,5.1-4.9,6.6-5.1c1.4-0.2,2.7,0.3,3.6,1.3
			l0,0c1.5,1.6,1.3,4.1-0.3,5.6l-4.6,4.1C269.4,549.6,266.9,549.4,265.4,547.8z M283.6,552.2c-0.3,0.3,0,0-4.9,4.4
			c-1.6,1.5-4.1,1.3-5.6-0.3s-1.3-4.1,0.3-5.6c4.7-4.2,5-4.8,6.5-5.1c0,0,2.1-0.5,3.7,1.3l0,0C285,548.4,285,550.7,283.6,552.2z
			 M314.7,531c-1.7-1.1-3.6,1-2.4,2.5c1.4,1.7,1.2,4.2-0.4,5.7s-4.1,1.5-5.7,0c-1.4-1.3-3.6,0.3-2.8,2c0.8,1.7,0.3,3.8-1.2,5
			c-1.7,1.4-4.3,1.2-5.9-0.5l-0.4-0.5c-0.6-0.7-1.7-0.7-2.4-0.2c-0.7,0.6-0.9,1.6-0.3,2.4c1.2,1.7,0.9,4.1-0.6,5.5s-3.9,1.5-5.5,0.2
			c3-5.1-0.9-11.4-6.7-11.2c0.6-4.5-3-8.7-7.7-8.5c0.6-4.6-3-8.7-7.7-8.5c0.3-2.2-0.4-4.4-1.8-6l0,0c-2.7-3.1-7.5-3.3-10.6-0.6
			c-4.8,4.3-4.7,4.2-5,4.6c-0.9,1-1.5,2.1-1.8,3.3h-7.7v-34c14.2-0.2,15.3,0.5,17.9-0.7c3-1.4,9.2-8.2,14.5-10.6
			c0.4-0.2,1.5-0.5,3.8-0.1c-5.6,3.9-8.9,8.7-13.1,12.9c-4.1,4.5-0.9,11.9,6.1,11.8c2.1,0,4.2-0.8,5.8-2.2l8.7-7.9
			c0.2-0.1,0.5-0.1,0.7,0c3.9,4.1,10.9,7.5,18.6,7.9c20.7,23.2,19.1,21.4,19.4,21.7c0.6,0.8,0.8,2.9,0.8,2.9
			C321,531.2,317.3,532.8,314.7,531z"/>
		<path class="st9" d="M270.2,489.2C270.3,489.1,270.3,489.1,270.2,489.2L270.2,489.2z"/>
	</g>
</g>
</svg>
