<?xml version="1.0" encoding="utf-8"?>
<!-- Generator: Adobe Illustrator 25.2.1, SVG Export Plug-In . SVG Version: 6.00 Build 0)  -->
<svg version="1.1" id="Capa_1" xmlns="http://www.w3.org/2000/svg" xmlns:xlink="http://www.w3.org/1999/xlink" x="0px" y="0px"
	 viewBox="0 0 429 481.9" style="enable-background:new 0 0 429 481.9;" xml:space="preserve">
<style type="text/css">
	.st0{fill:#D81E05;}
	.st1{fill:#FFFFFF;}
	.st2{fill:#C1C8D2;}
	.st3{fill:#AAB2B9;}
	.st4{fill:#DFDFDF;}
	.st5{fill:#737373;}
	.st6{fill:#E2EBF9;}
	.st7{fill:#545D69;}
	.st8{fill:#00C395;}
	.st9{opacity:7.000000e-02;}
	.st10{opacity:0.1;}
</style>
<g>
	<path class="st0" d="M13.1,203.9c0,198.9,199.7,265.2,199.7,265.2s198.9-65.5,198.9-266v-95.8c0-16-13.6-29.6-29.6-29.6h-62.3
		c-46.3,0-86.3-28.8-107-66.3C192,49,152,77.7,105.7,77.7H43.4c-16,0-29.6,13.6-29.6,29.6L13.1,203.9z"/>
	<path class="st1" d="M381.3,203.1c0,73.5-29.6,135-87.1,183.7c-32.7,28-66.3,43.9-82.3,50.3c-16-6.4-49.5-22.4-82.3-50.3
		c-58.3-48.7-87.9-110.2-87.9-183.7v-95.8H104c40.7,0,79.1-19.2,107-47.1c28,28,66.3,47.1,107,47.1h62.3L381.3,203.1z"/>
	<path d="M418,107.3c0-20-16.8-36.7-36.7-36.7H319l0,0c-40.7,0-79.9-24.8-100.6-62.3c-1.6-2.4-3.2-4-6.4-4l0,0c-2.4,0-4.8,1.6-6.4,4
		C184.8,46.6,145.7,71.4,105,71.4H42.6c-20,0-36.7,16.8-36.7,36.7v95.8c0,46.3,11.2,90.3,31.9,128.6c16.8,31.1,40.7,59.1,70.3,83.9
		c50.3,41.5,99.8,58.3,102.2,59.1c0.8,0,1.6,0,2.4,0c0.8,0,1.6,0,2.4,0c2.4-0.8,51.9-17.6,101.4-59.1c29.6-24.8,52.7-52.7,70.3-83.9
		c20.8-39.1,31.9-82.3,31.9-129.4L418,107.3z M307.8,406c-42.3,35.1-85.5,52.7-95,55.9c-10.4-4-52.7-20.8-95-55.9
		C53,352.5,20.3,284.6,20.3,203.9v-95.8c0-12.8,10.4-22.4,22.4-22.4H105c23.2,0,46.3-7.2,67.1-20c16-10.4,29.6-24,39.9-39.9
		c10.4,16,24,29.6,39.9,39.9c20,12.8,43.1,20,66.3,20h63.1c12.8,0,22.4,10.4,22.4,22.4v95.8C404.4,283.8,371.7,352.5,307.8,406z"/>
</g>
<g>
	<g>
		<path class="st2" d="M211.9,309.1H98.4c-2,0-3.6-1.6-3.6-3.6s1.6-3.6,3.6-3.6H212c2,0,3.6,1.6,3.6,3.6
			C215.5,307.5,214,309.1,211.9,309.1z"/>
		<path class="st3" d="M211.9,301.8h-7.3c2,0,3.6,1.6,3.6,3.6s-1.6,3.6-3.6,3.6h7.3c2,0,3.6-1.6,3.6-3.6S214,301.8,211.9,301.8z"/>
		<path class="st4" d="M193.4,287.2h-76.6v-20.4c0-2.7,2.2-4.9,4.9-4.9h66.9c2.7,0,4.9,2.2,4.9,4.9V287.2L193.4,287.2z"/>
		<path class="st3" d="M188.6,261.9h-7.3c2.7,0,4.9,2.2,4.9,4.9v20.4h7.3v-20.4C193.4,264.1,191.3,261.9,188.6,261.9z"/>
		<path class="st5" d="M129,281.1c-2.7,0-4.9-2.2-4.9-4.9s2.2-4.9,4.9-4.9s4.9,2.2,4.9,4.9C133.9,278.9,131.7,281.1,129,281.1z"/>
		<path class="st5" d="M181.3,281.1c-2.7,0-4.9-2.2-4.9-4.9s2.2-4.9,4.9-4.9c2.7,0,4.9,2.2,4.9,4.9
			C186.1,278.9,184,281.1,181.3,281.1z"/>
		<path class="st1" d="M113.8,287.2h82.7v7.3h-82.7V287.2z"/>
		<path class="st6" d="M189.2,287.2h7.3v7.3h-7.3V287.2z"/>
		<path class="st3" d="M119.3,294.5h9.7v7.3h-9.7V294.5z"/>
		<path class="st7" d="M181.3,294.5h9.7v7.3h-9.7V294.5z"/>
		<path class="st4" d="M187.5,261.9h-64.7v-20.4c0-1.3,1.1-2.5,2.5-2.5h59.8c1.3,0,2.5,1.1,2.5,2.5L187.5,261.9L187.5,261.9z"/>
		<path class="st3" d="M185,239.1h-7.3c1.3,0,2.5,1.1,2.5,2.5v20.4h7.3v-20.4C187.5,240.1,186.4,239.1,185,239.1z"/>
		<path class="st4" d="M185,239.1h-59.8v-3.7c0-2,1.6-3.6,3.6-3.6h52.6c2,0,3.6,1.6,3.6,3.6L185,239.1L185,239.1z"/>
		<path class="st3" d="M181.5,231.8h-7.3c2,0,3.6,1.6,3.6,3.6v3.7h7.3v-3.7C185,233.3,183.4,231.8,181.5,231.8z"/>
		<path class="st4" d="M122.8,261.9h-9.1c-2.3,0-4.1-1.8-4.1-4.1v-0.1c0-2.3,1.8-4.1,4.1-4.1h1.5c4.2,0,7.5,3.4,7.5,7.5L122.8,261.9
			L122.8,261.9z"/>
		<path class="st4" d="M187.5,261.9h9c2.3,0,4.1-1.8,4.1-4.1v-0.1c0-2.3-1.8-4.1-4.1-4.1H195c-4.2,0-7.5,3.4-7.5,7.5V261.9z"/>
		<path class="st4" d="M138.8,271.2h32.6v16.1h-32.6V271.2z"/>
		<path class="st3" d="M173.9,271.2h-37.4c-5.1,0-9.2-4.2-9.2-9.2h55.9C183.1,267,178.9,271.2,173.9,271.2z"/>
		<path class="st8" d="M151.5,234.8c1.2,1.1,2.3,1.9,2.9,2.3c0.4,0.3,1,0.3,1.5,0"/>
		<path class="st3" d="M181.3,294.5h9.7v7.3h-9.7V294.5z"/>
		<g>
			<path class="st5" d="M144.5,284.6c-1,0-1.8-0.8-1.8-1.8v-7.2c0-1,0.8-1.8,1.8-1.8c1,0,1.8,0.8,1.8,1.8v7.3
				C146.3,283.9,145.4,284.6,144.5,284.6z"/>
			<path class="st5" d="M149.8,284.6c-1,0-1.8-0.8-1.8-1.8v-7.2c0-1,0.8-1.8,1.8-1.8s1.8,0.8,1.8,1.8v7.3
				C151.6,283.9,150.8,284.6,149.8,284.6z"/>
			<path class="st5" d="M155.2,284.6c-1,0-1.8-0.8-1.8-1.8v-7.2c0-1,0.8-1.8,1.8-1.8c1,0,1.8,0.8,1.8,1.8v7.3
				C157,283.9,156.1,284.6,155.2,284.6z"/>
			<path class="st5" d="M160.5,284.6c-1,0-1.8-0.8-1.8-1.8v-7.2c0-1,0.8-1.8,1.8-1.8c1,0,1.8,0.8,1.8,1.8v7.3
				C162.3,283.9,161.5,284.6,160.5,284.6z"/>
			<path class="st5" d="M165.9,284.6c-1,0-1.8-0.8-1.8-1.8v-7.2c0-1,0.8-1.8,1.8-1.8c1,0,1.8,0.8,1.8,1.8v7.3
				C167.7,283.9,166.8,284.6,165.9,284.6z"/>
		</g>
		<path d="M142.5,228.1c0.5,0.6,1,1.2,1.5,1.8h-15.1c-3,0-5.4,2.5-5.4,5.4v2.3c-1.5,0.7-2.5,2.2-2.5,3.9v3.2c0,1,0.8,1.8,1.8,1.8
			c1,0,1.8-0.8,1.8-1.8v-3.2c0-0.4,0.3-0.6,0.6-0.6H185c0.4,0,0.6,0.3,0.6,0.6v18.6h-7.2c-1,0-1.8,0.8-1.8,1.8c0,1,0.8,1.8,1.8,1.8
			h10.1c1.7,0,3,1.3,3,3v18.6h-18.4v-14.2c0-1-0.8-1.8-1.8-1.8h-32.6c-1,0-1.8,0.8-1.8,1.8v14.2h-18.3v-18.5c0-1.7,1.3-3,3-3h49
			c1,0,1.8-0.8,1.8-1.8s-0.8-1.8-1.8-1.8h-46.1v-7.7c0-1-0.8-1.8-1.8-1.8c-1,0-1.8,0.8-1.8,1.8v1.3c-1.6-1.2-3.6-1.9-5.7-1.9h-1.5
			c-3.3,0-5.9,2.6-5.9,5.9v0.1c0,3.3,2.6,5.9,5.9,5.9h1.9c-0.5,0.9-0.8,1.9-0.8,3v18.6h-1.2c-1,0-1.8,0.8-1.8,1.8v7.3
			c0,1,0.8,1.8,1.8,1.8h3.6v3.6h-19c-3,0-5.5,2.5-5.5,5.5s2.5,5.5,5.5,5.5H212c3,0,5.5-2.5,5.5-5.5s-2.5-5.5-5.5-5.5h-19.1v-3.6h3.6
			c1,0,1.8-0.8,1.8-1.8v-7.3c0-1-0.8-1.8-1.8-1.8h-1.2v-18.6c0-1.1-0.3-2.1-0.8-3h2c3.3,0,5.9-2.6,5.9-5.9v-0.1
			c0-3.3-2.6-5.9-5.9-5.9H195c-2.2,0-4.2,0.8-5.7,1.9v-12.3c0-1.7-1-3.2-2.5-3.9v-2.3c0-3-2.5-5.4-5.4-5.4h-15.1
			c0.5-0.6,1-1.2,1.5-1.8 M195,255.4h1.5c1.2,0,2.3,1,2.3,2.3v0.1c0,1.2-1,2.3-2.3,2.3h-7.1C189.9,257.4,192.3,255.4,195,255.4z
			 M127,235.3c0-1,0.8-1.8,1.8-1.8h18.6c1.6,1.5,3,2.7,4.2,3.6H127L127,235.3L127,235.3z M158.7,237.2c1.2-0.9,2.6-2.2,4.2-3.6h18.6
			c1,0,1.8,0.8,1.8,1.8v1.9H158.7z M111.5,257.8L111.5,257.8c0-1.3,1-2.3,2.3-2.3h1.5c2.8,0,5.1,2,5.6,4.6h-7.1
			C112.5,260.1,111.5,259.1,111.5,257.8z M189.2,300h-6.1v-3.6h6.1V300z M140.7,273h28.9v12.4h-28.9
			C140.7,285.4,140.7,273,140.7,273z M115.6,289h79v3.6h-55.1c-1,0-1.8,0.8-1.8,1.8c0,1,0.8,1.8,1.8,1.8h39.9v3.6h-48.6v-3.6h0.9
			c1,0,1.8-0.8,1.8-1.8c0-1-0.8-1.8-1.8-1.8h-16.1V289z M121.1,296.3h6.1v3.6h-6.1V296.3z M211.9,307.2H98.4c-1,0-1.8-0.8-1.8-1.8
			c0-1,0.8-1.8,1.8-1.8H212c1,0,1.8,0.8,1.8,1.8C213.7,306.4,212.9,307.2,211.9,307.2z"/>
		<g>
			<path class="st4" d="M140.6,218.8c0,14.6,14.6,19.4,14.6,19.4s14.6-4.8,14.6-19.5v-7c0-1.2-1-2.2-2.2-2.2H163
				c-3.4,0-6.3-2.1-7.8-4.9c-1.5,2.7-4.4,4.9-7.8,4.9h-4.6c-1.2,0-2.2,1-2.2,2.2L140.6,218.8z"/>
			<path class="st1" d="M167.5,218.7c0,5.4-2.2,9.9-6.4,13.4c-2.4,2-4.9,3.2-6,3.7c-1.2-0.5-3.6-1.6-6-3.7
				c-4.3-3.6-6.4-8.1-6.4-13.4v-7h4.6c3,0,5.8-1.4,7.8-3.4c2,2,4.9,3.4,7.8,3.4h4.6L167.5,218.7z"/>
			<path d="M170.2,211.7c0-1.5-1.2-2.7-2.7-2.7H163l0,0c-3,0-5.8-1.8-7.4-4.6c-0.1-0.2-0.2-0.3-0.5-0.3l0,0c-0.2,0-0.4,0.1-0.5,0.3
				c-1.5,2.8-4.4,4.6-7.4,4.6h-4.6c-1.5,0-2.7,1.2-2.7,2.7v7c0,3.4,0.8,6.6,2.3,9.4c1.2,2.3,3,4.3,5.1,6.1c3.7,3,7.3,4.3,7.5,4.3
				c0.1,0,0.1,0,0.2,0c0.1,0,0.1,0,0.2,0c0.2-0.1,3.8-1.3,7.4-4.3c2.2-1.8,3.9-3.9,5.1-6.1c1.5-2.9,2.3-6,2.3-9.5L170.2,211.7z
				 M162.2,233.5c-3.1,2.6-6.3,3.9-7,4.1c-0.8-0.3-3.9-1.5-7-4.1c-4.7-3.9-7.1-8.9-7.1-14.8v-7c0-0.9,0.8-1.6,1.6-1.6h4.6
				c1.7,0,3.4-0.5,4.9-1.5c1.2-0.8,2.2-1.8,2.9-2.9c0.8,1.2,1.8,2.2,2.9,2.9c1.5,0.9,3.2,1.5,4.9,1.5h4.6c0.9,0,1.6,0.8,1.6,1.6v7
				C169.2,224.6,166.8,229.6,162.2,233.5z"/>
			<path class="st0" d="M160.2,216.2l-6,6l-4.2-4.2c-0.6-0.6-1.7-0.6-2.4,0c-0.6,0.6-0.6,1.7,0,2.4l5.4,5.4c0.4,0.4,0.8,0.5,1.2,0.5
				s0.9-0.2,1.2-0.5l7.2-7.2c0.6-0.6,0.6-1.7,0-2.4C161.9,215.6,160.9,215.6,160.2,216.2z"/>
		</g>
	</g>
	<g>
		<g>
			<polygon class="st4" points="225.5,130.5 225.5,139.2 212.6,148.6 212.6,130.5 			"/>
			<rect x="210.1" y="155.4" class="st1" width="70.8" height="61.4"/>
			<rect x="210.1" y="155.4" class="st9" width="70.8" height="5.8"/>
			<polygon class="st4" points="245.5,124.7 203.2,155.4 287.7,155.4 			"/>
			<polygon class="st10" points="225.5,133.2 225.5,139.2 212.6,148.6 212.6,142.5 			"/>
			<rect x="228.5" y="166.5" class="st10" width="34" height="31.4"/>
			<circle class="st1" cx="245.5" cy="143.3" r="5.9"/>
			<path class="st4" d="M262.5,166.5V198h-34c27.3-3.1,31.4-31.4,31.4-31.4H262.5z"/>
			<g>
				<path d="M280.9,159.4c-0.9,0-1.6,0.7-1.6,1.6v54.3h-56.2c-0.9,0-1.6,0.7-1.6,1.6c0,0.9,0.7,1.6,1.6,1.6h57.8
					c0.9,0,1.6-0.7,1.6-1.6v-55.9C282.4,160.1,281.7,159.4,280.9,159.4z"/>
				<path d="M288.6,154.1l-42.3-30.7c-0.5-0.4-1.3-0.4-1.8,0l-17.5,12.7v-5.7c0-0.9-0.7-1.6-1.6-1.6h-12.9c-0.9,0-1.6,0.7-1.6,1.6
					v17.3l-8.7,6.3c-0.5,0.4-0.8,1.1-0.6,1.7c0.2,0.6,0.8,1.1,1.5,1.1h5.3v59.9c0,0.9,0.7,1.6,1.6,1.6h7.8c0.9,0,1.6-0.7,1.6-1.6
					c0-0.9-0.7-1.6-1.6-1.6h-6.2v-58.3h76.1c0.7,0,1.3-0.4,1.5-1.1C289.4,155.2,289.2,154.5,288.6,154.1z M214.2,132h9.8v6.4
					l-9.8,7.1V132z M208,153.8l37.4-27.2l37.4,27.2H208L208,153.8z"/>
			</g>
			<g>
				<path d="M262.4,173.6c-0.9,0-1.5,0.8-1.5,1.6v24c0,0.9,0.7,1.6,1.6,1.6l0,0c0.9,0,1.6-0.7,1.6-1.6v-24.1
					C264,174.3,263.3,173.6,262.4,173.6z"/>
				<path d="M230,199.3v-20.1h13.9v20.1c0,0.9,0.7,1.6,1.6,1.6l0,0c0.9,0,1.6-0.7,1.6-1.6v-31.2h13.9v1.6c0,0.9,0.7,1.6,1.5,1.6
					c0.9,0,1.6-0.7,1.6-1.6v-3.2c0-0.9-0.7-1.6-1.6-1.6h-34c-0.9,0-1.6,0.7-1.6,1.6v32.7c0,0.9,0.7,1.6,1.6,1.6l0,0
					C229.3,200.8,230,200.1,230,199.3z M230,168.1h13.9v7.9H230V168.1L230,168.1z"/>
			</g>
			<rect x="224.7" y="198" class="st5" width="41.6" height="6.6"/>
		</g>
		<g>
			<path class="st4" d="M235.7,121.4c0,9.7,9.8,13,9.8,13s9.7-3.2,9.7-13v-4.7c0-0.8-0.7-1.4-1.4-1.4h-3.1c-2.3,0-4.2-1.4-5.2-3.2
				c-1,1.8-3,3.2-5.2,3.2h-3.1c-0.8,0-1.4,0.7-1.4,1.4L235.7,121.4z"/>
			<path class="st1" d="M253.7,121.4c0,3.6-1.4,6.6-4.3,9c-1.6,1.4-3.2,2.2-4,2.5c-0.8-0.3-2.4-1.1-4-2.5c-2.9-2.4-4.3-5.4-4.3-9
				v-4.7h3.1c2,0,3.9-0.9,5.2-2.3c1.4,1.4,3.2,2.3,5.2,2.3h3.1L253.7,121.4z"/>
			<path d="M255.5,116.7c0-1-0.8-1.8-1.8-1.8h-3.1l0,0c-2,0-3.9-1.2-4.9-3.1c-0.1-0.1-0.2-0.2-0.3-0.2l0,0c-0.1,0-0.2,0.1-0.3,0.2
				c-1,1.9-2.9,3.1-4.9,3.1h-3.1c-1,0-1.8,0.8-1.8,1.8v4.7c0,2.3,0.5,4.4,1.6,6.3c0.8,1.5,2,2.9,3.4,4.1c2.5,2,4.9,2.9,5,2.9
				c0,0,0.1,0,0.1,0s0.1,0,0.1,0c0.1,0,2.5-0.9,5-2.9c1.4-1.2,2.6-2.6,3.4-4.1c1-1.9,1.6-4,1.6-6.3L255.5,116.7z M250.1,131.3
				c-2.1,1.7-4.2,2.6-4.7,2.7c-0.5-0.2-2.6-1-4.7-2.7c-3.2-2.6-4.8-5.9-4.8-9.9v-4.7c0-0.6,0.5-1.1,1.1-1.1h3.1c1.1,0,2.3-0.4,3.3-1
				c0.8-0.5,1.4-1.2,2-2c0.5,0.8,1.2,1.4,2,2c1,0.6,2.1,1,3.2,1h3.1c0.6,0,1.1,0.5,1.1,1.1v4.7C254.9,125.3,253.3,128.6,250.1,131.3
				z"/>
			<path class="st0" d="M248.8,119.7l-4,4l-2.8-2.8c-0.4-0.4-1.1-0.4-1.6,0c-0.4,0.4-0.4,1.1,0,1.6l3.6,3.6c0.2,0.2,0.5,0.3,0.8,0.3
				s0.6-0.1,0.8-0.3l4.8-4.8c0.4-0.4,0.4-1.1,0-1.6C250,119.3,249.3,119.3,248.8,119.7z"/>
		</g>
	</g>
	<g>
		<path class="st4" d="M328.4,270.8c0,11.3-7.2,22.5-17.3,32.1c-5.1,4.9-11,9.5-17.1,13.4c-2,1.3-4,2.5-6,3.7
			c-2.1,1.2-4.2,2.4-6.3,3.4c-2.1-1.1-4.2-2.2-6.3-3.4c-1.4-0.8-2.9-1.7-4.3-2.6c-2.8-1.8-5.6-3.7-8.3-5.7c-1.5-1.1-3-2.3-4.4-3.5
			c-2.1-1.7-4.1-3.5-6.1-5.4c-10-9.6-17.3-20.8-17.3-32.1c0-16.8,11.6-30.5,25.9-30.5c11.4,0,20.7,10.9,20.7,24.4
			c0-13.5,9.3-24.4,20.7-24.4c8.4,0,15.8,4.7,20.5,11.9C326.4,257.3,328.4,263.8,328.4,270.8z"/>
		<path class="st0" d="M296.9,293.7c-0.7,0-1.5-0.3-2-0.8L286,284h-9.2c-0.8,0-1.5-0.3-2-0.8l-7.4-7.4v15c0,1.2-0.7,2.2-1.8,2.6
			c-1.1,0.4-2.3,0.2-3.1-0.6l-9.1-9.1h-14.4c-1.1,0-2-0.9-2-2c0-1.1,0.9-2,2-2h14.9c0.8,0,1.5,0.3,2,0.8l7.6,7.6v-15
			c0-1.2,0.7-2.2,1.8-2.6c1.1-0.4,2.3-0.2,3.1,0.6l8.9,8.9h9.2c0.8,0,1.5,0.3,2,0.8l7.4,7.4v-15.1c0-1.1,0.7-2.2,1.7-2.6
			c1-0.5,2.3-0.3,3.1,0.5l9.8,9h14.3c1.1,0,2,0.9,2,2c0,1.1-0.9,2-2,2H310c-0.7,0-1.4-0.3-1.9-0.8l-8.3-7.7v15.3
			c0,1.2-0.7,2.2-1.8,2.6C297.6,293.6,297.2,293.7,296.9,293.7z M253.8,283.7L253.8,283.7L253.8,283.7z"/>
		<path d="M250.8,299.1c-11.6-12.1-14.1-22-14.1-28.3c0-15.9,10.9-28.9,24.3-28.9c10.5,0,19.1,10.2,19.1,22.8c0,0.9,0.7,1.6,1.6,1.6
			c0.9,0,1.6-0.7,1.6-1.6c0-12.6,8.6-22.8,19.1-22.8c5.6,0,11.1,2.3,15.4,6.5c0.6,0.6,1.6,0.6,2.2,0c0.6-0.6,0.6-1.6,0-2.2
			c-4.9-4.8-11.2-7.4-17.6-7.4c-9.4,0-17.4,6.8-20.7,16.4c-3.3-9.6-11.3-16.4-20.7-16.4c-15.2,0-27.5,14.4-27.5,32.1
			c0,10.6,6.1,22.2,17.7,33.3c1.9,1.8,4,3.7,6.2,5.5c1.4,1.2,2.9,2.3,4.5,3.5c2.7,2,5.5,3.9,8.4,5.7c1.4,0.9,2.8,1.8,4.4,2.7
			c2.1,1.2,4.2,2.4,6.4,3.5c0.2,0.1,0.5,0.2,0.7,0.2c0.2,0,0.5-0.1,0.7-0.2c2.1-1.1,4.3-2.3,6.4-3.5c2-1.2,4.1-2.5,6.1-3.8
			c6.5-4.2,12.3-8.8,17.3-13.6c11.6-11.1,17.7-22.7,17.7-33.3c0-7.1-1.9-13.8-5.6-19.5c-0.5-0.7-1.5-0.9-2.2-0.5
			c-0.7,0.5-0.9,1.5-0.5,2.2c3.3,5.1,5.1,11.2,5.1,17.7c0,6.8-2.9,17.7-16.8,31c-2.7,2.6-5.7,5.2-8.9,7.6l-3.2,2.4
			c-0.7,0.5-1.5,1.1-2.3,1.6l-3.2,2.1c-1.7,1.1-3.5,2.2-5.2,3.2c-1.8,1.1-3.7,2.1-5.5,3c-1.8-1-3.7-2-5.5-3
			c-1.2-0.7-2.4-1.4-3.5-2.1l-3.2-2c-2-1.3-3.9-2.6-5.7-4c-1.5-1.1-3-2.3-4.4-3.4c-1.9-1.6-3.8-3.2-5.5-4.8L250.8,299.1z"/>
		<g>
			<path class="st4" d="M267.4,322.6c0,15.6,15.7,20.8,15.7,20.8s15.6-5.1,15.6-20.9V315c0-1.3-1.1-2.3-2.3-2.3h-4.9
				c-3.6,0-6.8-2.3-8.4-5.2c-1.6,3-4.8,5.2-8.4,5.2h-4.9c-1.3,0-2.3,1.1-2.3,2.3L267.4,322.6z"/>
			<path class="st1" d="M296.3,322.6c0,5.8-2.3,10.6-6.8,14.4c-2.6,2.2-5.2,3.5-6.5,4c-1.3-0.5-3.9-1.8-6.5-4
				c-4.6-3.8-6.9-8.7-6.9-14.4V315h4.9c3.2,0,6.2-1.5,8.4-3.7c2.2,2.2,5.2,3.7,8.4,3.7h4.9L296.3,322.6z"/>
			<path d="M299.2,315c0-1.6-1.3-2.9-2.9-2.9h-4.9l0,0c-3.2,0-6.3-1.9-7.9-4.9c-0.1-0.2-0.3-0.3-0.5-0.3l0,0c-0.2,0-0.4,0.1-0.5,0.3
				c-1.6,3-4.7,5-7.9,5h-4.9c-1.6,0-2.9,1.3-2.9,2.9v7.5c0,3.6,0.9,7.1,2.5,10.1c1.3,2.4,3.2,4.6,5.5,6.6c4,3.3,7.8,4.6,8,4.6
				c0.1,0,0.1,0,0.2,0s0.1,0,0.2,0c0.2-0.1,4.1-1.4,8-4.6c2.3-1.9,4.1-4.1,5.5-6.6c1.6-3.1,2.5-6.5,2.5-10.2L299.2,315z
				 M290.6,338.5c-3.3,2.8-6.7,4.1-7.5,4.4c-0.8-0.3-4.1-1.6-7.5-4.4c-5.1-4.2-7.7-9.5-7.7-15.9V315c0-1,0.8-1.8,1.8-1.8h4.9
				c1.8,0,3.6-0.6,5.3-1.6c1.3-0.8,2.3-1.9,3.1-3.1c0.8,1.3,1.9,2.3,3.1,3.1c1.6,1,3.4,1.6,5.2,1.6h5c1,0,1.8,0.8,1.8,1.8v7.5
				C298.2,328.9,295.6,334.2,290.6,338.5z"/>
			<path class="st0" d="M288.5,319.9l-6.4,6.4l-4.5-4.5c-0.7-0.7-1.8-0.7-2.6,0c-0.7,0.7-0.7,1.8,0,2.6l5.8,5.8
				c0.4,0.4,0.8,0.5,1.3,0.5s0.9-0.2,1.3-0.5l7.7-7.7c0.7-0.7,0.7-1.8,0-2.6C290.3,319.2,289.2,319.2,288.5,319.9z"/>
		</g>
	</g>
</g>
</svg>
