<?xml version="1.0" encoding="utf-8"?>
<!-- Generator: Adobe Illustrator 25.2.1, SVG Export Plug-In . SVG Version: 6.00 Build 0)  -->
<svg version="1.1" id="Capa_1" xmlns="http://www.w3.org/2000/svg" xmlns:xlink="http://www.w3.org/1999/xlink" x="0px" y="0px"
	 viewBox="0 0 429 481.9" style="enable-background:new 0 0 429 481.9;" xml:space="preserve">
<style type="text/css">
	.st0{fill:#DFDFDF;}
	.st1{fill:#FFFFFF;}
	.st2{fill:#737373;}
	.st3{fill:#E4EAF8;}
	.st4{fill:#DDDDDD;}
	.st5{fill:#CCCCCC;}
	.st6{fill:#C2C7D0;}
</style>
<g>
	<path class="st0" d="M13.1,203.9c0,198.9,199.7,265.2,199.7,265.2s198.9-65.5,198.9-266v-95.8c0-16-13.6-29.6-29.6-29.6h-62.3
		c-46.3,0-86.3-28.8-107-66.3C192,49,152,77.7,105.7,77.7H43.4c-16,0-29.6,13.6-29.6,29.6L13.1,203.9z"/>
	<path class="st1" d="M381.3,203.1c0,73.5-29.6,135-87.1,183.7c-32.7,28-66.3,43.9-82.3,50.3c-16-6.4-49.5-22.4-82.3-50.3
		c-58.3-48.7-87.9-110.2-87.9-183.7v-95.8H104c40.7,0,79.1-19.2,107-47.1c28,28,66.3,47.1,107,47.1h62.3L381.3,203.1z"/>
	<path class="st2" d="M418,107.3c0-20-16.8-36.7-36.7-36.7H319l0,0c-40.7,0-79.9-24.8-100.6-62.3c-1.6-2.4-3.2-4-6.4-4l0,0
		c-2.4,0-4.8,1.6-6.4,4C184.8,46.6,145.7,71.4,105,71.4H42.6c-20,0-36.7,16.8-36.7,36.7v95.8c0,46.3,11.2,90.3,31.9,128.6
		c16.8,31.1,40.7,59.1,70.3,83.9c50.3,41.5,99.8,58.3,102.2,59.1c0.8,0,1.6,0,2.4,0c0.8,0,1.6,0,2.4,0c2.4-0.8,51.9-17.6,101.4-59.1
		c29.6-24.8,52.7-52.7,70.3-83.9c20.8-39.1,31.9-82.3,31.9-129.4L418,107.3z M307.8,406c-42.3,35.1-85.5,52.7-95,55.9
		c-10.4-4-52.7-20.8-95-55.9C53,352.5,20.3,284.6,20.3,203.9v-95.8c0-12.8,10.4-22.4,22.4-22.4H105c23.2,0,46.3-7.2,67.1-20
		c16-10.4,29.6-24,39.9-39.9c10.4,16,24,29.6,39.9,39.9c20,12.8,43.1,20,66.3,20h63.1c12.8,0,22.4,10.4,22.4,22.4v95.8
		C404.4,283.8,371.7,352.5,307.8,406z"/>
</g>
<g>
	<path class="st1" d="M204.9,224.7c0,19,0,72,0,91.2h13c0-5.3,0-86,0-91.3C214.4,228.3,208.6,228.4,204.9,224.7z"/>
	<path class="st3" d="M211.5,227.4c-2.6,0-4.9-1-6.6-2.7c0,19,0,72,0,91.2h6.6C211.5,310.8,211.5,233,211.5,227.4z"/>
	<g>
		<path class="st4" d="M121.5,296.6c0,1.7,0,5,0,6.7c0,3.9,3.2,7.1,7.1,7.1c3.9,0,7.1-3.2,7.1-7.1c0-1.7,0-5,0-6.7H121.5
			L121.5,296.6z"/>
		<path class="st4" d="M287.1,296.6c0,1.7,0,5,0,6.7c0,3.9,3.2,7.1,7.1,7.1s7.1-3.2,7.1-7.1c0-1.7,0-5,0-6.7H287.1L287.1,296.6z"/>
	</g>
	<g>
		<path class="st5" d="M128.6,303.3c0-1.7,0-5,0-6.7h-7c0,1.7,0,5,0,6.7c0,5.4,6,8.9,10.6,6.2C130,308.3,128.6,306,128.6,303.3z"/>
		<path class="st5" d="M294.1,303.3c0-1.7,0-5,0-6.7h-7c0,1.7,0,5,0,6.7c0,5.4,6,8.9,10.6,6.2C295.6,308.3,294.1,306,294.1,303.3z"
			/>
	</g>
	<g>
		<path class="st1" d="M312.4,185.1c0-3.7-3.1-6.6-6.7-6.4c-23.6,1.1-39.7-9-48-16.1c-14.5-12.3-30.4-9-34.8-9.5c0,0.7,0,12.4,0,13
			c4.9,0.5,16-2.3,26.1,6.4c15.1,12.9,34.9,20.3,56.9,19.3C309.5,191.7,312.4,188.7,312.4,185.1L312.4,185.1z"/>
		<path class="st1" d="M110.6,185.1c0-3.7,3.1-6.6,6.7-6.4c23.6,1.1,39.7-9,48-16.1c14.5-12.3,30.4-9,34.8-9.5c0,0.7,0,12.4,0,13
			c-4.9,0.5-16-2.3-26.1,6.4c-15.1,12.9-34.9,20.3-56.9,19.3C113.4,191.7,110.6,188.7,110.6,185.1L110.6,185.1z"/>
	</g>
	<path class="st5" d="M222.8,159.4c0-9.7,0-4.9,0-6.3l0,0C222.9,153.6,222.8,157.5,222.8,159.4z"/>
	<path class="st3" d="M309.6,185.1c-23.1,0.9-43.7-6.5-59.5-19.3c-10.6-8.6-22.1-5.9-27.3-6.4c0,0.1,0,6.7,0,6.7
		c4.9,0.5,16-2.3,26.1,6.4c15.1,12.9,34.9,20.3,56.9,19.3c3.9-0.2,6.8-3.7,6.5-7.4C311.5,184.8,310.6,185,309.6,185.1z"/>
	<path class="st5" d="M200.1,159.4c0-2.6,0-5.7,0-6.3l0,0C200.1,154.5,200.1,149.7,200.1,159.4z"/>
	<path class="st3" d="M200.1,159.4c-4.9,0.5-16.3-2.3-26.6,6.4c-15.4,12.9-35.7,20.3-58.1,19.3c-1.7-0.1-3.3-0.8-4.4-1.9
		c-1.3,4.1,1.7,8.4,6.2,8.6c22,0.9,41.9-6.4,56.9-19.3c10.1-8.7,21.2-5.9,26.1-6.4C200.1,166.2,200.1,159.5,200.1,159.4z"/>
	<path class="st0" d="M251.1,348.5c-0.7-4.1-3.3-7.8-7.5-9.8c-3.3-1.5-6.1-4.2-8-7.5c-2.6-4.5-2.3-9.1-2.3-8.8
		c0-0.9-0.4-1.7-1.2-2.2c-4.3-2.6-9-4.3-14.1-5.2h-13c-5.1,0.9-9.9,2.6-14.1,5.2c-1.4,0.9-1.2,2.2-1.3,3.4
		c-0.4,6.6-4.3,12.3-10.2,15.1c-4.3,2-7,5.8-7.6,10.2c-0.3,2.5-0.4,4.4-0.4,6.6h80.2C251.6,353,251.5,351.1,251.1,348.5z"/>
	<path class="st6" d="M202,331c3.4-6.2,1.1-9.4,3.4-10.9c4.1-2.5,8.6-4.2,13.4-5c-1.7-0.3,1.1,0-13.8-0.2c-5.1,0.9-9.9,2.6-14.1,5.2
		c-1.6,0.9-1,2.3-1.4,4.9c-0.8,5.7-4.5,11.1-10.1,13.7c-3.9,1.9-6.8,5.5-7.5,10.2c-0.3,2.5-0.4,4.4-0.4,6.6H186
		C185.9,335.6,195.7,342.3,202,331z"/>
	<g>
		<path class="st0" d="M265.4,278.8c0,7.1,0.6,12.7,7.1,15.7c3.7,1.7,4,3.5,6.9,3.5h29.5c2.6,0,3.2-1.5,6-3.1
			c1.3-0.7,6.6-2.8,7.7-9.3c0.2-0.9,0.3-1.6,0.3-2.4c0.1-1.4,0.2-2.4,0.2-4.5L265.4,278.8L265.4,278.8z"/>
		<path class="st0" d="M157.5,278.8c0,6.1-0.2,12.5-7.1,15.7c-3.7,1.8-4.1,3.6-6.9,3.6H114c-2.8,0-3.2-1.8-6.9-3.6
			c-3.5-1.7-6.2-4.9-6.8-9.5c-0.3-2.3-0.3-3.9-0.3-6.2H157.5z"/>
	</g>
	<g>
		<path class="st6" d="M287.1,294.5c-6.8-3.2-7.1-9.2-7.1-15.7h-14.6c0,7.1,0.6,12.7,7.1,15.7c3.7,1.7,4,3.5,6.9,3.5H294
			C291.2,298.1,290.7,296.2,287.1,294.5z"/>
		<path class="st6" d="M121.6,294.5c-6.9-3.2-7.1-9.5-7.1-15.7H100c0,6.1,0.2,12.5,7.1,15.7c3.7,1.8,4,3.5,6.9,3.5h14.6
			C125.7,298.1,125.4,296.2,121.6,294.5z"/>
	</g>
	<path class="st3" d="M205,171.1c-1,0-2-0.3-2.9-0.7v49.4c0,5.1,4.2,9.3,9.3,9.3s9.3-4.2,9.3-9.3v-49.4
		C218.5,171.6,217.6,170.9,205,171.1z"/>
	<path class="st6" d="M211.4,219.8v-48.7c-5.6-0.2-7.1,0.4-9.3-0.7v49.4c0,7.2,7.8,11.6,14,8.1C213.3,226.2,211.4,223.3,211.4,219.8
		z"/>
	<path class="st3" d="M218,148.4c0-4.8,0-9.2,0-13.4c0-3.6-2.9-6.6-6.6-6.6c-3.6,0-6.6,2.9-6.6,6.6c0,4.5,0,8.3,0,13.4
		C205,148.4,217.5,148.4,218,148.4z"/>
	<path class="st4" d="M218,148.4L218,148.4L218,148.4L218,148.4z"/>
	<path class="st6" d="M211.5,134.9c0-2.4,1.3-4.5,3.2-5.6c-4.3-2.5-9.8,0.6-9.8,5.6c0,4.5,0,8.3,0,13.4c0.7,0,4.8,0,6.6,0
		C211.5,143.4,211.5,139.5,211.5,134.9z"/>
	<path class="st3" d="M260.5,368.8h-98c-3.9,0-7.1-3.2-7.1-7.1l0,0c0-3.9,3.2-7.1,7.1-7.1h98c3.9,0,7.1,3.2,7.1,7.1l0,0
		C267.7,365.6,264.4,368.8,260.5,368.8z"/>
	<path class="st6" d="M178.3,361.6L178.3,361.6c0-3.9,3.2-7.1,7.1-7.1h-23c-3.9,0-7.1,3.2-7.1,7.1l0,0c0,3.9,3.2,7.1,7.1,7.1h23
		C181.4,368.8,178.3,365.6,178.3,361.6z"/>
	<g>
		<path class="st0" d="M324.5,265.9c-6.7,0-53.8,0-60.5,0c-3.9,0-7.1,3.2-7.1,7.1s3.2,7.1,7.1,7.1c6.8,0,53.9,0,60.5,0
			c3.9,0,7.1-3.2,7.1-7.1C331.7,269,328.5,265.9,324.5,265.9z"/>
		<path class="st0" d="M98.4,265.9c6.7,0,53.8,0,60.5,0c3.9,0,7.1,3.2,7.1,7.1s-3.2,7.1-7.1,7.1c-6.8,0-53.9,0-60.5,0
			c-3.9,0-7.1-3.2-7.1-7.1C91.2,269,94.5,265.9,98.4,265.9z"/>
	</g>
	<g>
		<path class="st6" d="M273.6,273.1c0-3.9,3.2-7.1,7.1-7.1c-4.1,0-12.8,0-16.8,0c-3.9,0-7.1,3.2-7.1,7.1s3.2,7.1,7.1,7.1
			c4,0,12.8,0,16.8,0C276.8,280.2,273.6,277,273.6,273.1z"/>
		<path class="st6" d="M108,273.1c0-3.9,3.2-7.1,7.1-7.1c-4.1,0-12.8,0-16.8,0c-3.9,0-7.1,3.2-7.1,7.1s3.2,7.1,7.1,7.1
			c4,0,12.8,0,16.8,0C111.2,280.2,108,277,108,273.1z"/>
	</g>
	<path class="st0" d="M218,172.5h-13c-3.5,0-6.4-2.9-6.4-6.4v-12.9c0-3.5,2.9-6.4,6.4-6.4h13c3.5,0,6.4,2.9,6.4,6.4v12.9
		C224.3,169.6,221.4,172.5,218,172.5z"/>
	<path class="st6" d="M211.5,166.2v-12.9c0-3.5,2.9-6.4,6.4-6.4H205c-3.5,0-6.4,2.9-6.4,6.4v12.9c0,3.5,2.9,6.4,6.4,6.4h12.9
		C214.4,172.5,211.5,169.6,211.5,166.2z"/>
	<path d="M324.5,262.2h-0.2l-25.8-66.7c2.5,0.1,4.8,0.1,7.6,0c5.5-0.3,10-4.8,10-10.4c0-5.8-4.9-10.2-10.5-10
		c-2.7,0.1-5.3,0.1-7.7-0.1v-0.7c0-2-1.6-3.7-3.7-3.7c-2,0-3.6,1.5-3.7,3.5c-14.7-2.6-25-9.6-30.6-14.3
		c-14.7-12.5-30.9-10.1-32.9-10.4c-1-2.6-3.1-4.5-5.5-5.5v-9c0-5.6-4.6-10.1-10.1-10.1s-10.1,4.6-10.1,10.1v9c-2.6,1-4.5,3-5.5,5.5
		c-2,0.3-18-2.1-32.9,10.4c-5.5,4.7-15.8,11.7-30.6,14.3c-0.1-2-1.7-3.5-3.7-3.5s-3.7,1.6-3.7,3.7v0.7c-2.5,0.2-5,0.2-7.7,0.1
		c-2.7-0.1-5.4,0.9-7.4,2.7c-6.4,6-2.3,17.2,6.8,17.6c2.9,0.1,5.1,0.1,7.6,0l-25.9,66.7h-0.2c-6,0-10.8,4.9-10.8,10.8
		c0,5.3,3.8,9.7,8.9,10.6c1,12.1,8.7,13.1,12,16.1c3.2,2.8,7.6,1.8,9.4,2v1.6c0,6,4.9,10.8,10.8,10.8s10.8-4.9,10.8-10.8v-1.6
		c1.9-0.2,6.4,0.9,9.5-2c0.8-0.7,1.8-1.4,2.9-1.9c4.9-2.3,8.1-6.8,8.8-11.6c0.1-0.6,0.3-1.5,0.3-2.6c4.9-0.9,8.8-5.4,8.8-10.6
		c0-6-4.9-10.7-10.7-10.8l-26.1-67.5c19.9-2.7,34.4-11.7,43.5-19.4c8.3-7,17.3-5.2,19.4-5.5c0.6,1.5,1.5,2.8,2.7,3.8v46
		c0,3.1,1.1,5.9,2.8,8.1v55.1c0,2,1.6,3.7,3.7,3.7s3.7-1.6,3.7-3.7v-50.6c1.9,0.4,3.9,0.4,5.8,0V311h-5.8v-11.4c0-2-1.6-3.7-3.7-3.7
		s-3.7,1.6-3.7,3.7v12.1c-4.3,1-8.5,2.7-12.3,5c-1.8,1.1-3,3.1-3,5.4c0,5.3-2.6,10-8.3,13c-4.9,2.4-8.8,7.1-9.5,13.4
		c-0.2,1-0.2,1.5-0.3,2.1h-5.4c-6,0-10.8,4.9-10.8,10.8s4.9,10.8,10.8,10.8h65.2c2,0,3.7-1.6,3.7-3.7s-1.6-3.7-3.7-3.7h-65.1
		c-2,0-3.5-1.6-3.5-3.5s1.6-3.5,3.5-3.5c3.6,0,91.7,0,98,0c2,0,3.5,1.6,3.5,3.5c0,2-1.6,3.5-3.5,3.5h-15.9c-2,0-3.7,1.6-3.7,3.7
		s1.6,3.7,3.7,3.7h15.9c6,0,10.8-4.9,10.8-10.8s-4.9-10.8-10.8-10.8H255c-0.1-0.9-0.2-2.1-0.3-3.1c-0.9-5.3-4.3-10-9.5-12.4
		c-4.5-2.1-7.7-6.6-8.2-11.8c-0.1-1.4,0.2-4.6-3.1-6.5c-3.8-2.3-8-4-12.3-5v-84.3c1.7-2.2,2.7-4.9,2.7-7.9v-19.4
		c0-2-1.6-3.7-3.7-3.7s-3.7,1.6-3.7,3.7v19.4c0,3.5-3.1,6-6.2,5.6c-2.9-0.3-5.1-2.7-5.1-5.6v-43.7H217v7.3c0,2,1.6,3.7,3.7,3.7
		s3.7-1.6,3.7-3.7v-9.6c1.3-1,2.2-2.4,2.9-4c2.1,0.3,11.1-1.5,19.4,5.5c9.1,7.7,23.6,16.8,43.5,19.4L264.1,262
		c-6,0-10.7,4.9-10.7,10.8c0,5.3,3.7,9.6,8.8,10.6c0.1,0.7,0.2,2,0.3,2.7c0.9,4.9,3.9,9.2,8.8,11.5c0.9,0.4,2,1.1,2.9,1.9
		c3.3,2.9,8.2,1.7,9.5,2v1.6c0,6,4.9,10.8,10.8,10.8s10.8-4.9,10.8-10.8v-1.6c1.6-0.3,5.9,0.9,9.3-1.9c1-0.9,1.7-1.4,3-2
		c5.4-2.6,8.5-7.3,9.1-14.1c5-0.9,8.9-5.3,8.9-10.6C335.3,267.1,330.5,262.2,324.5,262.2z M117.2,188.2c-1.7-0.1-3-1.4-3-3.1
		s1.4-2.8,2.9-2.7c2.8,0.2,5.4,0.1,8.1-0.1v5.9C122.6,188.4,119.9,188.4,117.2,188.2z M132.3,303.3c0,2-1.6,3.5-3.5,3.5
		c-2,0-3.5-1.6-3.5-3.5v-1.6h7.1L132.3,303.3L132.3,303.3z M145.4,293.3l-0.3,0.2c-0.7,0.5-1,0.9-1.7,0.9c-39.3,0-26.3,0.9-34.8-3.2
		c-3.1-1.4-4.5-4-4.9-7.4h49.9C153,290.4,149.3,290.4,145.4,293.3z M162.5,273.1c0,2-1.6,3.5-3.5,3.5c-7.1,0-53.6,0-60.5,0
		c-2,0-3.5-1.6-3.5-3.5c0-2,1.6-3.5,3.5-3.5c17.6,0,31.8,0,60.5,0C160.9,269.5,162.5,271.1,162.5,273.1z M151.2,262.2h-44.9l22.5-58
		L151.2,262.2z M195.1,162.6c-1.8,0.3-12.9-1.6-23.4,7.2c-8.3,7-21.3,15.1-39.2,17.7v-6c17-2.7,28.9-10.7,35.2-16.1
		c12.3-10.5,25.9-8.4,27.4-8.7V162.6L195.1,162.6z M217.7,318.6c4.3,0.8,8.3,2.2,12,4.3c0.3,7.4,4,14.1,11.1,18.4
		c1.4,0.8,5.7,2.4,6.6,7.7c0,0.3,0.2,0.9,0.3,1.9h-72.6c0-0.1,0.3-2,0.3-1.9c1.2-7.1,7-6.1,12.5-12.4c0.9-0.9,1.1-1.4,1-1.3
		c2.6-3.5,4.1-7.7,4.3-12.3c3.7-2.2,7.8-3.7,12-4.3L217.7,318.6L217.7,318.6z M208.6,134.9c0-1.6,1.3-2.9,2.9-2.9
		c1.6,0,2.9,1.3,2.9,2.9v8.3h-5.8L208.6,134.9L208.6,134.9z M220.7,166.2c-0.1,0.2,0.1,1.6-1.5,2.4c-0.5,0.3-0.9,0.3-0.9,0.3
		c-0.3,0,0.5,0-13.2,0c-1.4,0-2.6-1-2.7-2.8c0-2.9,0-11.7,0-12.9c0.1-2.6,2.9-2.7,2.6-2.6c0.1,0,12.6,0,13,0c1.4,0,2.6,1,2.7,2.8
		C220.7,153.4,220.7,166.2,220.7,166.2z M297.8,182.3c8.2,0.5,8.7-0.6,10.1,0.9c1.8,1.7,0.5,4.9-2.1,5.1c-2.6,0.1-5.3,0.1-8,0V182.3
		L297.8,182.3z M251.3,169.8c-10.4-8.9-21.7-7-23.4-7.2v-5.8c1.6,0.3,15.1-1.8,27.4,8.7c6.3,5.4,18.2,13.4,35.2,16.1v6
		C272.6,185,259.6,176.8,251.3,169.8z M294.1,204.3l22.5,58h-44.9L294.1,204.3z M297.8,303.3c0,2-1.6,3.5-3.5,3.5
		c-2,0-3.5-1.6-3.5-3.5v-1.6h7.1L297.8,303.3L297.8,303.3z M311.8,292.5c-1.9,1.2-2,1.9-2.9,1.9c-39.2,0-26,0.9-34.8-3.2
		c-3.1-1.4-4.5-4-4.9-7.4h49.9C318.5,289.8,315.3,290.3,311.8,292.5z M324.5,276.5c-7.3,0-54,0-60.5,0c-2,0-3.5-1.6-3.5-3.5
		c0-2,1.6-3.5,3.5-3.5c43.8,0,32.6,0,60.5,0c2,0,3.5,1.6,3.5,3.5C328.1,275,326.5,276.5,324.5,276.5z"/>
</g>
</svg>
