<?xml version="1.0" encoding="utf-8"?>
<!-- Generator: Adobe Illustrator 25.2.1, SVG Export Plug-In . SVG Version: 6.00 Build 0)  -->
<svg version="1.1" id="Capa_1" xmlns="http://www.w3.org/2000/svg" xmlns:xlink="http://www.w3.org/1999/xlink" x="0px" y="0px"
	 viewBox="0 0 512 512" style="enable-background:new 0 0 512 512;" xml:space="preserve">
<style type="text/css">
	.st0{fill:#DFDFDF;}
	.st1{fill:#737373;}
	.st2{fill:#FFBEAB;}
	.st3{fill:#C2C7D0;}
	.st4{fill:#E4EAF8;}
	.st5{fill:#FFFFFF;}
	.st6{fill:#FF6B6B;}
</style>
<circle class="st0" cx="255.9" cy="133.9" r="119.3"/>
<path class="st1" d="M157.2,133.9c0-62.4,47.9-113.6,109-118.8c-3.4-0.3-6.8-0.4-10.3-0.4C190,14.6,136.6,68,136.6,133.9
	c0,69.8,59.7,124.8,129.6,118.8C205.2,247.5,157.2,196.3,157.2,133.9z"/>
<path class="st0" d="M255.4,20.9c-31.1,0-56.4,25.2-56.4,56.4v22.3c3.8-3.5,9.1-5.4,14.4-4.7v-2.8c0-2.2,1.9-4,4.1-3.8
	c21.8,1.6,44-5.4,60.8-16.3c1.6-1,3.6-0.8,4.9,0.6c14.3,15.4,14.3,14.8,14.3,16.8v5.5c5.7-0.9,10.8,0.9,14.4,4.2V77.3
	C311.8,46.2,286.5,20.9,255.4,20.9z"/>
<path class="st1" d="M214.1,77.3c0-28.6,21.3-52.2,48.8-55.9c-2.5-0.3-5-0.5-7.6-0.5c-31.1,0-56.4,25.2-56.4,56.4v22.3
	c3.8-3.5,9.1-5.4,14.4-4.7v-2.8c0-0.9,0.3-1.7,0.8-2.3L214.1,77.3L214.1,77.3z"/>
<g>
	<path class="st2" d="M296.7,92.7v30.9c0,0.3,0,0.7,0,1c10.9,1.7,19.5-6.2,19.5-15.9C316.1,98.9,307.6,91,296.7,92.7z"/>
	<path class="st2" d="M214.1,123.5V92.7c-9.5-1.3-19.5,6-19.5,15.9c0,9.7,8.5,17.6,19.5,15.9C214.1,124.2,214.1,123.9,214.1,123.5z"
		/>
</g>
<g>
	<path class="st3" d="M310.3,96.3c-3.5-2.9-8.3-4.4-13.7-3.6v30.9c0,0.3,0,0.7,0,1c5.4,0.8,10.2-0.7,13.7-3.6V96.3z"/>
	<path class="st3" d="M214.1,121c-3.6-3-5.8-7.4-5.8-12.3c0-4.8,2.3-8.9,5.8-11.8v-4.1c-9.5-1.3-19.5,6-19.5,15.9
		c0,9.7,8.5,17.6,19.5,15.9c0-0.3,0-0.7,0-1V121z"/>
</g>
<path class="st4" d="M256,164.2c-9.1,0-17.1-2.5-23.7-6.7v22.1l23.6,29.1l23.6-29.1v-22.8C272.8,161.5,264.7,164.2,256,164.2z"/>
<path class="st3" d="M247.4,163.4c-5.6-1-10.7-3.1-15.1-5.9v22.1l15.1,18.6V163.4z"/>
<path class="st5" d="M279.4,178.2l-23.6,29.1l-23.6-29.1l-62.3,24.1c0,0-3.7,1.5-8.1,5c47.9,61.2,140.2,61,188,0
	c-4.4-3.5-8.1-5-8.1-5L279.4,178.2z"/>
<path class="st0" d="M266.2,252.7c-37.3-3.2-69.7-23.5-89.2-53.1l-6.9,2.7c0,0-3.7,1.5-8.1,5C186.5,238.7,225.2,256.2,266.2,252.7z"
	/>
<path class="st5" d="M283.2,71.1c-1.3-1.4-3.3-1.6-4.9-0.6c-16.8,11-39,17.9-60.8,16.3c-2.2-0.2-4.1,1.6-4.1,3.8v33.7
	c0,21.6,17,41.4,42.6,41.4c22.8,0,41.4-18.6,41.4-41.4V87.9C297.4,85.9,297.5,86.5,283.2,71.1z"/>
<path class="st4" d="M228.5,124.3V86.9c-3.6,0.2-7.3,0.2-11-0.1c-2.2-0.2-4.1,1.6-4.1,3.8v33.7c0,21.6,17,41.4,42.6,41.4
	c2.4,0,4.7-0.2,6.9-0.6C243.4,161.8,228.5,144.8,228.5,124.3z"/>
<g>
	<path class="st0" d="M284.3,222.2l17.6-35.3l-22.5-8.7l-23.6,29.1l23,16.3C280.7,224.9,283.3,224.2,284.3,222.2z"/>
	<path class="st0" d="M227.5,222.2l-17.6-35.3l22.5-8.7l23.6,29.1l-23,16.3C231.1,224.9,228.5,224.2,227.5,222.2z"/>
</g>
<path class="st0" d="M255.9,207.3L255.9,207.3L255.9,207.3L255.9,207.3L255.9,207.3l-16.7,11.9l7.9,11.9c6.4,0,11.3,0,17.6,0
	l7.9-11.9L255.9,207.3z"/>
<path class="st0" d="M264.3,213.2l-8.3-5.9v0l0,0l0,0v0l-16.7,11.9l7.9,11.9c6.1,0,10.9,0,16.7,0l-6.5-9.8c-0.8-1.2-0.5-2.8,0.7-3.6
	L264.3,213.2z"/>
<path class="st6" d="M267.6,252.6l-2.9-21.6c-6.4,0-11.3,0-17.6,0l-2.9,21.6C252,253.4,259.8,253.4,267.6,252.6z"/>
<path class="st0" d="M247.1,231l-2.9,21.6c5.9,0.6,11.2,0.7,16.7,0.5l3-22C258,231,253.2,231,247.1,231z"/>
<circle class="st0" cx="392.7" cy="372.4" r="119.3"/>
<path class="st1" d="M294,372.5c0-62.4,47.9-113.6,109-118.8c-3.4-0.3-6.8-0.4-10.3-0.4c-65.9,0-119.3,53.4-119.3,119.3
	c0,69.8,59.7,124.8,129.6,118.8C342,486.1,294,434.9,294,372.5z"/>
<path class="st0" d="M392.2,259.5c-31.1,0-56.4,25.2-56.4,56.4v22.3c3.8-3.5,9.1-5.4,14.4-4.7v-2.8c0-2.2,1.9-4,4.1-3.8
	c21.8,1.6,44-5.4,60.8-16.3c1.6-1,3.6-0.8,4.9,0.6c14.3,15.4,14.3,14.8,14.3,16.8v5.5c5.7-0.9,10.8,0.9,14.4,4.2v-21.8
	C448.6,284.7,423.3,259.5,392.2,259.5z"/>
<path class="st1" d="M350.9,315.9c0-28.6,21.3-52.2,48.8-55.9c-2.5-0.3-5-0.5-7.6-0.5c-31.1,0-56.4,25.2-56.4,56.4v22.3
	c3.8-3.5,9.1-5.4,14.4-4.7v-2.8c0-0.9,0.3-1.7,0.8-2.3L350.9,315.9L350.9,315.9z"/>
<g>
	<path class="st2" d="M433.4,331.2v30.9c0,0.3,0,0.7,0,1c10.9,1.7,19.5-6.2,19.5-15.9C452.9,337.5,444.3,329.6,433.4,331.2z"/>
	<path class="st2" d="M350.9,362.1v-30.9c-9.5-1.3-19.5,6-19.5,15.9c0,9.7,8.5,17.6,19.5,15.9C350.9,362.8,350.9,362.5,350.9,362.1z
		"/>
</g>
<g>
	<path class="st3" d="M447.1,334.8c-3.5-2.9-8.3-4.4-13.7-3.6v30.9c0,0.3,0,0.7,0,1c5.4,0.8,10.2-0.7,13.7-3.6V334.8z"/>
	<path class="st3" d="M350.9,359.5c-3.6-3-5.8-7.4-5.8-12.3c0-4.8,2.3-8.9,5.8-11.8v-4.1c-9.5-1.3-19.5,6-19.5,15.9
		c0,9.7,8.5,17.6,19.5,15.9c0-0.3,0-0.7,0-1L350.9,359.5L350.9,359.5z"/>
</g>
<path class="st4" d="M392.8,402.8c-9.1,0-17.1-2.5-23.7-6.7v22.1l23.6,29.1l23.6-29.1v-22.8C409.6,400.1,401.5,402.8,392.8,402.8z"
	/>
<path class="st3" d="M384.2,402c-5.6-1-10.7-3.1-15.1-5.9v22.1l15.1,18.6V402z"/>
<path class="st5" d="M416.2,416.7l-23.6,29.1l-23.6-29.1l-62.3,24.1c0,0-3.7,1.5-8.1,5c47.9,61.1,140.2,61,188,0
	c-4.4-3.5-8.1-5-8.1-5L416.2,416.7z"/>
<path class="st0" d="M403,491.3c-37.3-3.2-69.7-23.5-89.2-53.1l-6.9,2.7c0,0-3.7,1.5-8.1,5C323.1,477.1,361.8,494.8,403,491.3z"/>
<path class="st5" d="M419.9,309.6c-1.3-1.4-3.3-1.6-4.9-0.6c-16.8,11-39,17.9-60.8,16.3c-2.2-0.2-4.1,1.6-4.1,3.8v33.7
	c0,21.6,17,41.4,42.6,41.4c22.8,0,41.4-18.6,41.4-41.4v-36.4C434.2,324.5,434.3,325,419.9,309.6z"/>
<path class="st4" d="M365.2,362.9v-37.4c-3.6,0.2-7.3,0.2-11-0.1c-2.2-0.2-4.1,1.6-4.1,3.8v33.7c0,21.6,17,41.4,42.6,41.4
	c2.4,0,4.7-0.2,6.9-0.6C380.2,400.4,365.2,383.3,365.2,362.9z"/>
<g>
	<path class="st0" d="M421.1,460.8l17.6-35.3l-22.5-8.7l-23.6,29.1l23,16.3C417.5,463.5,420.1,462.8,421.1,460.8z"/>
	<path class="st0" d="M364.3,460.8l-17.6-35.3l22.5-8.7l23.6,29.1l-23,16.3C367.9,463.5,365.3,462.8,364.3,460.8z"/>
</g>
<path class="st0" d="M392.7,445.8L392.7,445.8L392.7,445.8L392.7,445.8L392.7,445.8L376,457.7l7.9,11.9c6.4,0,11.3,0,17.6,0
	l7.9-11.9L392.7,445.8z"/>
<path class="st0" d="M401,451.8l-8.3-5.9v0l0,0l0,0v0L376,457.7l7.9,11.9c6.1,0,10.9,0,16.7,0l-6.5-9.8c-0.8-1.2-0.5-2.8,0.7-3.6
	L401,451.8z"/>
<path class="st6" d="M404.4,491.2l-2.9-21.6c-6.4,0-11.3,0-17.6,0l-2.9,21.6C388.8,491.9,396.6,491.9,404.4,491.2z"/>
<path class="st0" d="M383.9,469.6l-2.9,21.6c5.9,0.6,11.2,0.7,16.7,0.5l3-22C394.8,469.6,390,469.6,383.9,469.6z"/>
<circle class="st0" cx="119.3" cy="372.4" r="119.3"/>
<path class="st1" d="M20.6,372.5c0-62.4,47.9-113.6,109-118.8c-3.4-0.3-6.8-0.4-10.3-0.4C53.4,253.2,0,306.6,0,372.5
	c0,69.8,59.7,124.8,129.6,118.8C68.5,486.1,20.6,434.9,20.6,372.5z"/>
<path class="st0" d="M118.7,259.5c-31.1,0-56.4,25.2-56.4,56.4v22.3c3.8-3.5,9.1-5.4,14.4-4.7v-2.8c0-2.2,1.9-4,4.1-3.8
	c21.8,1.6,44-5.4,60.8-16.3c1.6-1,3.6-0.8,4.9,0.6c14.3,15.4,14.3,14.8,14.3,16.8v5.5c5.7-0.9,10.8,0.9,14.4,4.2v-21.8
	C175.1,284.7,149.9,259.5,118.7,259.5z"/>
<path class="st1" d="M77.5,315.9c0-28.6,21.3-52.2,48.8-55.9c-2.5-0.3-5-0.5-7.6-0.5c-31.1,0-56.4,25.2-56.4,56.4v22.3
	c3.8-3.5,9.1-5.4,14.4-4.7v-2.8c0-0.9,0.3-1.7,0.8-2.3L77.5,315.9L77.5,315.9z"/>
<g>
	<path class="st2" d="M160,331.2v30.9c0,0.3,0,0.7,0,1c10.9,1.7,19.5-6.2,19.5-15.9C179.5,337.5,170.9,329.6,160,331.2z"/>
	<path class="st2" d="M77.5,362.1v-30.9C68,330,58,337.3,58,347.2c0,9.7,8.5,17.6,19.5,15.9C77.5,362.8,77.5,362.5,77.5,362.1z"/>
</g>
<g>
	<path class="st3" d="M173.7,334.8c-3.5-2.9-8.3-4.4-13.7-3.6v30.9c0,0.3,0,0.7,0,1c5.4,0.8,10.2-0.7,13.7-3.6V334.8z"/>
	<path class="st3" d="M77.5,359.5c-3.6-3-5.8-7.4-5.8-12.3c0-4.8,2.3-8.9,5.8-11.8v-4.1C68,330,58,337.3,58,347.2
		c0,9.7,8.5,17.6,19.5,15.9c0-0.3,0-0.7,0-1V359.5z"/>
</g>
<path class="st4" d="M119.3,402.8c-9.1,0-17.1-2.5-23.7-6.7v22.1l23.6,29.1l23.6-29.1v-22.8C136.1,400.1,128,402.8,119.3,402.8z"/>
<path class="st3" d="M110.8,402c-5.6-1-10.7-3.1-15.1-5.9v22.1l15.1,18.6V402z"/>
<path class="st5" d="M142.8,416.7l-23.6,29.1l-23.6-29.1l-62.3,24.1c0,0-3.7,1.5-8.1,5c47.9,61.1,140.2,61,188,0
	c-4.4-3.5-8.1-5-8.1-5L142.8,416.7z"/>
<path class="st0" d="M129.6,491.3c-37.3-3.2-69.7-23.5-89.2-53.1l-6.9,2.7c0,0-3.7,1.5-8.1,5C50.4,478,89.5,494.7,129.6,491.3z"/>
<path class="st5" d="M146.5,309.6c-1.3-1.4-3.3-1.6-4.9-0.6c-16.8,11-39,17.9-60.8,16.3c-2.2-0.2-4.1,1.6-4.1,3.8v33.7
	c0,21.6,17,41.4,42.6,41.4c22.8,0,41.4-18.6,41.4-41.4v-36.4C160.8,324.5,160.9,325,146.5,309.6z"/>
<path class="st4" d="M91.8,362.9v-37.4c-3.6,0.2-7.3,0.2-11-0.1c-2.2-0.2-4.1,1.6-4.1,3.8v33.7c0,21.6,17,41.4,42.6,41.4
	c2.4,0,4.7-0.2,6.9-0.6C106.7,400.4,91.8,383.3,91.8,362.9z"/>
<g>
	<path class="st0" d="M147.7,460.8l17.6-35.3l-22.5-8.7l-23.6,29.1l23,16.3C144.1,463.5,146.7,462.8,147.7,460.8z"/>
	<path class="st0" d="M90.8,460.8l-17.6-35.3l22.5-8.7l23.6,29.1l-23,16.3C94.4,463.5,91.8,462.8,90.8,460.8z"/>
</g>
<path class="st0" d="M119.3,445.8L119.3,445.8L119.3,445.8L119.3,445.8L119.3,445.8l-16.7,11.9l7.9,11.9c6.4,0,11.3,0,17.6,0
	l7.9-11.9L119.3,445.8z"/>
<path class="st0" d="M127.6,451.8l-8.3-5.9v0l0,0l0,0v0l-16.7,11.9l7.9,11.9c6.1,0,10.9,0,16.7,0l-6.5-9.8c-0.8-1.2-0.5-2.8,0.7-3.6
	L127.6,451.8z"/>
<path class="st6" d="M131,491.2l-2.9-21.6c-6.4,0-11.3,0-17.6,0l-2.9,21.6C115.4,491.9,123.1,491.9,131,491.2z"/>
<path class="st0" d="M110.4,469.6l-2.9,21.6c5.9,0.6,11.2,0.7,16.7,0.5l3-22C121.3,469.6,116.6,469.6,110.4,469.6z"/>
<g>
	<path d="M255.1,260.9c0.3,0,0.5,0,0.8,0c0.3,0,0.5,0,0.8,0c0.2,0,0.3,0,0.5,0c0.1,0,0.2,0,0.2,0c38.7-0.5,74.5-18.2,98.5-48.7
		c2.6-3.4,2-8.2-1.3-10.8c-5.1-4-9.4-5.8-9.9-6c-0.1,0-0.1,0-0.2-0.1L287.2,173v-10.6c8.9-7.3,15.1-17.6,17.2-29.4
		c4.4-0.7,8.6-2.6,12-5.5c5.3-4.5,8.3-11.1,8.3-18c0-5.4-1.8-10.6-5.1-14.7V77.3c0-35.4-28.8-64.2-64.1-64.2S191.2,42,191.2,77.3
		v17.8c-3.3,4.1-5.1,9-5.1,14.3c0,6.9,3,13.5,8.3,18c3.4,2.9,7.5,4.8,11.9,5.5c2.1,12.3,8.8,22.8,18.2,30.1v9.9l-57.4,22.2
		c-0.1,0-0.1,0-0.2,0.1c-0.5,0.2-4.8,2-9.9,6c-3.3,2.6-3.9,7.5-1.3,10.8c23.9,30.6,59.8,48.3,98.4,48.7c0.1,0,0.2,0,0.3,0
		C254.8,260.9,254.9,260.9,255.1,260.9z M232.3,214.7l-11.7-23.5l9.3-3.6l14.9,18.3l-10,7.1c0,0-0.1,0.1-0.1,0.1L232.3,214.7z
		 M291.3,191.1l-11.7,23.5l-2.3-1.6c0,0-0.1-0.1-0.1-0.1l-10-7.1l14.8-18.3L291.3,191.1z M255.9,216.9l6.1,4.4l-1.5,2.2h-9.4
		l-1.5-2.2L255.9,216.9z M253.9,238.9h4l0.8,6.5c-1.9,0-3.7,0-5.6,0L253.9,238.9z M274.1,244l-1.3-10.9l1.9-2.9
		c1.9,1.3,4.1,1.9,6.4,1.9c0.9,0,1.9-0.1,2.8-0.3c3.2-0.8,6-3,7.5-6c0,0,0,0,0,0l14.5-29l32.4,12.5C321.1,227.9,298.7,240,274.1,244
		z M275.1,152.1c-4.4,3-9.4,4.9-14.6,5.6c0,0,0,0-0.1,0c-0.1,0-0.2,0-0.3,0c0,0-0.1,0-0.1,0c-0.2,0-0.3,0-0.5,0.1c0,0,0,0-0.1,0
		c-0.1,0-0.1,0-0.2,0c-0.1,0-0.1,0-0.2,0c-0.1,0-0.1,0-0.2,0c-0.1,0-0.1,0-0.2,0c-0.1,0-0.1,0-0.2,0c-0.1,0-0.2,0-0.3,0
		c-0.1,0-0.1,0-0.2,0c-0.1,0-0.2,0-0.2,0c0,0-0.1,0-0.1,0c-0.1,0-0.2,0-0.3,0c0,0,0,0-0.1,0c-0.1,0-0.3,0-0.4,0c0,0-0.1,0-0.1,0
		c-0.1,0-0.2,0-0.3,0c0,0-0.1,0-0.1,0c-0.1,0-0.3,0-0.4,0c-22.1,0-34.3-16.5-34.9-32.5c0-0.1,0-0.3,0-0.4l0-0.4c0-0.1,0-0.3,0-0.4
		V94.7c16,0.4,32.7-3.2,47.8-10.2c0,0,0,0,0.1,0c0.1,0,0.2-0.1,0.3-0.1c0,0,0.1,0,0.1-0.1c0.4-0.2,0.8-0.4,1.2-0.6c0,0,0.1,0,0.1,0
		c0.1,0,0.2-0.1,0.3-0.1c0.1,0,0.1-0.1,0.2-0.1c0.1-0.1,0.2-0.1,0.3-0.2c0,0,0.1,0,0.1-0.1c0.1-0.1,0.3-0.1,0.4-0.2c0,0,0,0,0,0
		c0.1,0,0.2-0.1,0.3-0.1c0.1,0,0.1-0.1,0.2-0.1c0,0,0.1,0,0.1-0.1c0.3-0.1,0.5-0.3,0.8-0.4c0,0,0.1,0,0.1-0.1c1.3-0.7,2.7-1.4,4-2.2
		c0.2-0.1,0.3-0.2,0.5-0.3c0,0,0.1,0,0.1-0.1c0,0,0,0,0.1,0c0.5-0.3,1.1-0.6,1.6-1c1.9,2,3.5,3.7,4.8,5.2c2.3,2.5,4.1,4.4,5.2,5.6
		v34.9c0,0.1,0,0.3,0,0.4l0,0.4c0,0.1,0,0.3,0,0.4c-0.4,10.9-6,20.5-14.3,26.4C275.3,152,275.2,152.1,275.1,152.1z M306.3,115.7
		c-0.4,0.3-0.7,0.6-1.1,0.8v-14.3c0.5,0.3,1,0.6,1.4,1c0,0,0.1,0.1,0.1,0.1c1.6,1.6,2.5,3.7,2.5,6
		C309.2,111.8,308.1,114.1,306.3,115.7z M206.7,77.3c0-26.8,21.8-48.7,48.7-48.7s48.7,21.8,48.7,48.7V83c0,0,0,0,0-0.1l0,0
		c0,0,0-0.1,0-0.1c0,0,0,0,0,0c0,0,0,0,0-0.1c0,0,0,0,0,0c0,0,0-0.1,0-0.1c0,0,0,0,0,0c-0.1-0.2-0.3-0.4-0.4-0.6c0,0,0,0,0,0
		c0,0,0-0.1-0.1-0.1c0,0,0,0,0,0c-1.3-1.9-3.5-4.3-7.3-8.3c-0.1-0.1-0.2-0.2-0.3-0.3c-0.2-0.2-0.5-0.5-0.7-0.8
		c-0.1-0.1-0.2-0.3-0.4-0.4c-0.1-0.1-0.1-0.1-0.2-0.2c-0.1-0.1-0.2-0.3-0.4-0.4c-0.3-0.4-0.7-0.8-1.1-1.1c-0.1-0.1-0.2-0.2-0.3-0.4
		c-0.2-0.2-0.4-0.4-0.6-0.6c-0.1-0.1-0.2-0.2-0.3-0.3c-1-1-2-2.1-3.1-3.3c0,0,0,0,0,0c-3.8-4.1-10.1-4.9-14.8-1.8
		c-16.8,10.9-37.2,16.4-56,15.1c-0.9-0.1-1.8,0-2.7,0.1c-0.2,0-0.4,0.1-0.6,0.1c-0.1,0-0.2,0-0.3,0.1c-1.9,0.5-3.7,1.4-5.2,2.8
		c-0.2,0.2-0.4,0.4-0.6,0.6c0,0,0,0,0,0c-0.1,0.1-0.1,0.1-0.2,0.2c0,0,0,0,0,0c-0.1,0.1-0.1,0.1-0.2,0.2c0,0,0,0,0,0.1
		c0,0.1-0.1,0.1-0.1,0.2c0,0,0,0-0.1,0.1c0,0.1-0.1,0.1-0.1,0.2c0,0,0,0-0.1,0.1c0,0.1-0.1,0.1-0.1,0.2c0,0,0,0.1-0.1,0.1
		c0,0.1-0.1,0.1-0.1,0.2c0,0,0,0.1-0.1,0.1c0,0.1-0.1,0.1-0.1,0.2c0,0,0,0.1-0.1,0.1c0,0.1-0.1,0.1-0.1,0.2c0,0,0,0.1,0,0.1
		c0,0.1-0.1,0.1-0.1,0.2c0,0,0,0.1,0,0.1c0,0.1-0.1,0.1-0.1,0.2c0,0,0,0.1,0,0.1c0,0.1-0.1,0.1-0.1,0.2c0,0,0,0,0,0.1
		c0,0.1-0.1,0.1-0.1,0.2c0,0,0,0,0,0.1c0,0,0,0,0,0L206.7,77.3L206.7,77.3L206.7,77.3z M201.6,109.4c0-2.6,1.4-4.4,2.5-5.4
		c0.1,0,0.1-0.1,0.2-0.1c0.4-0.4,0.9-0.8,1.4-1.1v13.8c-0.4-0.2-0.8-0.5-1.1-0.8C202.7,114.2,201.6,111.8,201.6,109.4z M256.6,173.5
		c0.1,0,0.1,0,0.2,0c0.1,0,0.3,0,0.4,0c0.1,0,0.1,0,0.2,0c0.1,0,0.3,0,0.4,0c0.1,0,0.1,0,0.2,0c0.2,0,0.4,0,0.5,0c0,0,0.1,0,0.1,0
		c0.2,0,0.4,0,0.5,0c0.1,0,0.1,0,0.2,0c0.1,0,0.2,0,0.4,0c0.1,0,0.1,0,0.2,0c0.1,0,0.2,0,0.4,0c0.1,0,0.1,0,0.2,0c0.2,0,0.3,0,0.5,0
		c0,0,0.1,0,0.1,0c0.2,0,0.4,0,0.6-0.1c0.1,0,0.1,0,0.2,0c0.1,0,0.2,0,0.4,0c0.1,0,0.2,0,0.2,0c0.1,0,0.2,0,0.3,0c0.1,0,0.1,0,0.2,0
		c0.1,0,0.3,0,0.4-0.1c0.1,0,0.1,0,0.2,0c0.2,0,0.4-0.1,0.5-0.1c0.1,0,0.1,0,0.2,0c0.1,0,0.2,0,0.4-0.1c0.1,0,0.1,0,0.2,0
		c0.1,0,0.2,0,0.3-0.1c0.1,0,0.1,0,0.2,0c0.1,0,0.2,0,0.4-0.1c0.1,0,0.1,0,0.2,0c0.2,0,0.4-0.1,0.5-0.1c0.1,0,0.1,0,0.2,0
		c0.1,0,0.2-0.1,0.4-0.1c0.1,0,0.2,0,0.3-0.1c0.1,0,0.2,0,0.3-0.1s0.2,0,0.3-0.1c0.1,0,0.2,0,0.2-0.1c0.1,0,0.2-0.1,0.3-0.1
		c0.1,0,0.1,0,0.2-0.1c0.4-0.1,0.8-0.2,1.2-0.3c0,0,0.1,0,0.1,0c0.1,0,0.3-0.1,0.4-0.1c0,0,0.1,0,0.1,0c0.1,0,0.3-0.1,0.4-0.1
		c0,0,0,0,0,0c0.3-0.1,0.6-0.2,0.9-0.3v4.6l-15.8,19.5l-15.9-19.6V172c5.6,1.3,11.2,1.6,15.9,1.6
		C256.2,173.5,256.4,173.5,256.6,173.5z M173.7,209.3l32.3-12.5l14.5,29c0,0,0,0,0,0c1.5,3,4.2,5.2,7.5,6c0.9,0.2,1.9,0.3,2.8,0.3
		c2.2,0,4.5-0.7,6.4-1.9l1.9,2.9l-1.3,10.9C213.2,240,190.7,227.9,173.7,209.3z"/>
	<path d="M217.9,439.2c-5.1-4-9.4-5.8-9.9-6c-0.1,0-0.1,0-0.2-0.1l-57.4-22.2v-10.6c8.9-7.3,15.1-17.6,17.2-29.4
		c4.4-0.7,8.6-2.6,12-5.5c5.3-4.5,8.3-11.1,8.3-18c0-5.4-1.8-10.6-5.1-14.7v-17.3c0-35.4-28.8-64.2-64.1-64.2s-64.2,28.8-64.2,64.2
		V333c-3.3,4.1-5.1,9-5.1,14.3c0,6.9,3,13.5,8.3,18c3.4,2.9,7.5,4.8,11.9,5.5c2.1,12.3,8.8,22.8,18.2,30.1v9.9l-57.4,22.2
		c-0.1,0-0.1,0-0.2,0.1c-0.5,0.2-4.8,2-9.9,6c-3.4,2.6-3.9,7.5-1.3,10.8c23.9,30.6,59.8,48.3,98.5,48.7c0.1,0,0.2,0,0.3,0
		c0.2,0,0.3,0,0.5,0c0.3,0,0.5,0,0.8,0c0.3,0,0.5,0,0.8,0c0.2,0,0.3,0,0.5,0c0.1,0,0.2,0,0.3,0c38.7-0.5,74.5-18.2,98.5-48.7
		C221.8,446.7,221.2,441.9,217.9,439.2z M154.5,429.1l-11.7,23.5l-2.4-1.7c0,0,0,0-0.1,0l-10-7.1l14.8-18.3L154.5,429.1z
		 M95.5,452.6l-11.7-23.5l9.3-3.6l7.2,8.9l7.6,9.4l-10,7.1c0,0,0,0-0.1,0L95.5,452.6z M121.9,483.3c-1.9,0-3.7,0-5.6,0l0.8-6.5h4
		L121.9,483.3z M123.8,461.4h-9.4l-1.5-2.2l6.1-4.4l6.1,4.4L123.8,461.4z M138.3,390.1c-4.1,2.8-8.6,4.6-13.4,5.5c0,0,0,0,0,0
		c-0.1,0-0.2,0-0.3,0.1c0,0,0,0,0,0c-0.3,0-0.6,0.1-0.9,0.1c0,0-0.1,0-0.1,0c-0.1,0-0.2,0-0.2,0c0,0-0.1,0-0.1,0c-0.1,0-0.3,0-0.4,0
		c0,0-0.1,0-0.1,0c-0.1,0-0.1,0-0.2,0c-0.1,0-0.1,0-0.2,0c-0.1,0-0.1,0-0.2,0c-0.1,0-0.1,0-0.2,0c-0.1,0-0.1,0-0.2,0
		c-0.1,0-0.2,0-0.3,0c0,0-0.1,0-0.1,0c-0.1,0-0.2,0-0.2,0c0,0-0.1,0-0.1,0c-0.1,0-0.2,0-0.3,0c0,0,0,0-0.1,0c-0.1,0-0.3,0-0.4,0
		c0,0-0.1,0-0.1,0c-0.1,0-0.2,0-0.3,0c0,0-0.1,0-0.1,0c-0.1,0-0.3,0-0.4,0c-22.1,0-34.3-16.5-34.9-32.5c0-0.1,0-0.3,0-0.4l0-0.4
		c0-0.1,0-0.3,0-0.4v-29.6c0,0,0.1,0,0.1,0c19.9,0.5,40.8-5.2,58.5-16c1.9,2,3.5,3.7,4.8,5.2c1.2,1.3,2.4,2.5,3.3,3.5
		c0.8,0.8,1.4,1.5,1.9,2.1v34.9c0,0,0,0.1,0,0.1c0,0.1,0,0.2,0,0.2l0,0.4c0,0.1,0,0.3,0,0.4c-0.4,10.9-6,20.5-14.3,26.4
		C138.5,389.9,138.4,390,138.3,390.1z M169.5,353.6c-0.4,0.3-0.7,0.6-1.1,0.8v-14.3c0.5,0.3,1,0.6,1.4,1c0,0,0.1,0.1,0.1,0.1
		c1.6,1.6,2.5,3.7,2.5,6C172.4,349.8,171.4,352.1,169.5,353.6z M118.6,266.6c26.8,0,48.7,21.8,48.7,48.7v5.6
		c-1.2-2.1-3.6-4.6-8.3-9.7c-1.8-1.9-3.9-4.2-6.7-7.1c-0.1-0.1-0.2-0.2-0.3-0.3c-3.8-4.1-9.9-4.9-14.6-1.9c-0.1,0-0.1,0.1-0.2,0.1
		c-16.8,10.9-37.2,16.4-56,15.1c-0.3,0-0.6,0-0.9,0c-2.9,0-5.7,1.1-7.8,3.1c-0.3,0.3-0.5,0.5-0.8,0.8c0,0,0,0,0,0
		c-0.1,0.1-0.1,0.1-0.2,0.2c0,0,0,0,0,0c-0.1,0.1-0.1,0.1-0.2,0.2c0,0,0,0,0,0c0,0.1-0.1,0.1-0.1,0.2c0,0,0,0,0,0
		c0,0.1-0.1,0.1-0.1,0.2c0,0,0,0,0,0c0,0.1-0.1,0.1-0.1,0.2c0,0,0,0,0,0c0,0.1-0.1,0.1-0.1,0.2c0,0,0,0,0,0
		c-0.3,0.5-0.6,0.9-0.8,1.5v-8.4C69.9,288.4,91.8,266.6,118.6,266.6z M64.8,347.3c0-2.6,1.4-4.4,2.5-5.4c0,0,0.1-0.1,0.1-0.1
		c0.4-0.4,0.9-0.8,1.4-1.1v13.8c-0.4-0.2-0.8-0.5-1.1-0.8C65.9,352.1,64.8,349.8,64.8,347.3z M119.8,411.5c0.1,0,0.1,0,0.2,0
		c0.1,0,0.3,0,0.4,0c0.1,0,0.1,0,0.2,0c0.1,0,0.3,0,0.4,0c0.1,0,0.1,0,0.2,0c0.2,0,0.4,0,0.5,0c0,0,0.1,0,0.1,0c0.2,0,0.3,0,0.5,0
		c0.1,0,0.1,0,0.2,0c0.1,0,0.2,0,0.4,0c0.1,0,0.2,0,0.2,0c0.1,0,0.2,0,0.4,0c0.1,0,0.1,0,0.2,0c0.2,0,0.3,0,0.5,0c0,0,0.1,0,0.1,0
		c0.2,0,0.4,0,0.6-0.1c0.1,0,0.1,0,0.2,0c0.1,0,0.2,0,0.4,0c0.1,0,0.2,0,0.2,0c0.1,0,0.2,0,0.3,0c0.1,0,0.1,0,0.2,0
		c0.1,0,0.3,0,0.4-0.1c0.1,0,0.1,0,0.2,0c0.2,0,0.4-0.1,0.5-0.1c0.1,0,0.1,0,0.2,0c0.1,0,0.2,0,0.4-0.1c0.1,0,0.1,0,0.2,0
		c0.1,0,0.2,0,0.3-0.1c0.1,0,0.1,0,0.2,0c0.1,0,0.2,0,0.4-0.1c0.1,0,0.1,0,0.2,0c0.2,0,0.4-0.1,0.5-0.1c0.1,0,0.1,0,0.2,0
		c0.1,0,0.2-0.1,0.4-0.1c0.1,0,0.2,0,0.3-0.1c0.1,0,0.2,0,0.3-0.1c0.1,0,0.2,0,0.3-0.1c0.1,0,0.2,0,0.3-0.1c0.1,0,0.2-0.1,0.3-0.1
		c0.1,0,0.1,0,0.2-0.1c0.4-0.1,0.8-0.2,1.2-0.3c0,0,0.1,0,0.1,0c0.1,0,0.2-0.1,0.4-0.1c0,0,0.1,0,0.1,0c0.1,0,0.3-0.1,0.4-0.1
		c0,0,0,0,0,0c0.3-0.1,0.6-0.2,0.9-0.3v4.6L119.1,433l-15.9-19.6v-3.5c5.6,1.3,11.2,1.6,15.9,1.6
		C119.4,411.5,119.6,411.5,119.8,411.5z M36.9,447.2l32.3-12.5l14.5,29c0,0,0,0,0,0c1.5,3,4.2,5.2,7.5,6c0.9,0.2,1.9,0.3,2.8,0.3
		c2.2,0,4.5-0.7,6.4-1.9l1.9,2.9l-1.3,10.9C76.4,477.9,53.9,465.8,36.9,447.2z M137.3,481.9L136,471l1.9-2.9
		c1.9,1.3,4.1,1.9,6.4,1.9c0.9,0,1.9-0.1,2.8-0.3c3.2-0.8,6-3,7.5-6c0,0,0,0,0,0l14.5-29l32.4,12.5
		C184.3,465.8,161.9,477.9,137.3,481.9z"/>
	<path d="M491.4,439.2c-5.1-4-9.4-5.8-9.9-6c-0.1,0-0.1,0-0.2-0.1L424,410.9v-10.6c8.9-7.3,15.1-17.6,17.2-29.4
		c4.4-0.7,8.6-2.6,12-5.5c5.3-4.5,8.3-11.1,8.3-18c0-5.4-1.8-10.6-5.1-14.7v-17.3c0-35.4-28.8-64.2-64.1-64.2S328,279.9,328,315.2
		V333c-3.3,4.1-5.1,9-5.1,14.3c0,6.9,3,13.5,8.3,18c3.4,2.9,7.5,4.8,11.9,5.5c2.1,12.3,8.8,22.8,18.2,30.1v9.9L304,433.1
		c-0.1,0-0.1,0-0.2,0.1c-0.5,0.2-4.8,2-9.9,6c-3.4,2.6-3.9,7.5-1.3,10.8c23.9,30.6,59.8,48.3,98.5,48.7c0.1,0,0.2,0,0.3,0
		c0.2,0,0.3,0,0.5,0c0.3,0,0.5,0,0.8,0c0.3,0,0.5,0,0.8,0c0.2,0,0.3,0,0.5,0c0.1,0,0.2,0,0.3,0c38.7-0.5,74.5-18.2,98.5-48.7
		C495.4,446.7,494.8,441.9,491.4,439.2z M428.1,429.1l-11.7,23.5L414,451c0,0-0.1-0.1-0.1-0.1l-10-7.1l14.8-18.3L428.1,429.1z
		 M369.1,452.6l-11.7-23.5l9.3-3.6l14.9,18.3l-10,7.1c0,0-0.1,0.1-0.1,0.1L369.1,452.6z M395.5,483.3c-1.9,0-3.7,0-5.6,0l0.8-6.5h4
		L395.5,483.3z M397.4,461.4H388l-1.5-2.2l6.1-4.4l6.1,4.4L397.4,461.4z M411.9,390.1c-4.1,2.8-8.6,4.6-13.4,5.5c0,0,0,0,0,0
		c-0.1,0-0.2,0-0.3,0.1c0,0,0,0,0,0c-0.3,0-0.6,0.1-0.9,0.1c0,0-0.1,0-0.1,0c-0.1,0-0.2,0-0.2,0c0,0-0.1,0-0.1,0c-0.1,0-0.3,0-0.4,0
		c0,0-0.1,0-0.1,0c-0.1,0-0.1,0-0.2,0c-0.1,0-0.1,0-0.2,0c-0.1,0-0.1,0-0.2,0c-0.1,0-0.1,0-0.2,0c-0.1,0-0.1,0-0.2,0
		c-0.1,0-0.2,0-0.4,0c0,0-0.1,0-0.1,0c-0.1,0-0.2,0-0.2,0c0,0-0.1,0-0.1,0c-0.1,0-0.2,0-0.3,0c0,0,0,0-0.1,0c-0.1,0-0.3,0-0.4,0
		c0,0-0.1,0-0.1,0c-0.1,0-0.2,0-0.3,0c0,0-0.1,0-0.1,0c-0.1,0-0.3,0-0.4,0c-22.1,0-34.3-16.5-34.9-32.5c0-0.1,0-0.2,0-0.4l0-0.5
		c0-0.1,0-0.3,0-0.4v-29.6c0.1,0,0.1,0,0.2,0c0.1,0,0.1,0,0.2,0c0.1,0,0.1,0,0.2,0c0.1,0,0.2,0,0.3,0c0,0,0.1,0,0.1,0
		c19.6,0.3,40.2-5.4,57.6-16c1.9,2,3.5,3.7,4.8,5.2c2.3,2.5,4.1,4.4,5.2,5.6v34.9c0,0.1,0,0.3,0,0.4l0,0.4c0,0.1,0,0.3,0,0.4
		c-0.4,10.9-6,20.5-14.3,26.4C412.1,389.9,412,390,411.9,390.1z M443.1,353.6c-0.4,0.3-0.7,0.6-1.1,0.8v-14.3c0.5,0.3,1,0.6,1.4,1
		c0,0,0.1,0.1,0.1,0.1c1.6,1.6,2.5,3.7,2.5,6C446,349.8,444.9,352.1,443.1,353.6z M343.5,315.3c0-26.8,21.8-48.7,48.7-48.7
		c26.8,0,48.7,21.8,48.7,48.7v5.6c0,0,0,0,0-0.1l0,0c0,0,0-0.1,0-0.1c0,0,0,0,0,0c0,0,0,0,0-0.1c0,0,0,0,0,0c0,0,0-0.1,0-0.1
		c0,0,0,0,0,0c-0.1-0.2-0.3-0.4-0.4-0.6c0,0,0,0,0,0c0,0,0-0.1-0.1-0.1c0,0,0,0,0,0c-1.3-1.9-3.5-4.3-7.3-8.3
		c-0.1-0.1-0.2-0.2-0.3-0.3c-1.8-1.9-4.1-4.4-7-7.5c-3.8-4.1-10.1-4.9-14.8-1.8c-16.8,10.9-37.2,16.4-56,15.1
		c-3.2-0.2-6.4,0.9-8.7,3.1c-0.1,0.1-0.1,0.1-0.2,0.2c0,0-0.1,0.1-0.1,0.1c0,0-0.1,0.1-0.1,0.1c0,0-0.1,0.1-0.1,0.1
		c0,0-0.1,0.1-0.1,0.1c0,0-0.1,0.1-0.1,0.1c0,0-0.1,0.1-0.1,0.1c0,0-0.1,0.1-0.1,0.1c0,0-0.1,0.1-0.1,0.1c0,0-0.1,0.1-0.1,0.1
		c0,0-0.1,0.1-0.1,0.1c0,0-0.1,0.1-0.1,0.1c0,0,0,0.1-0.1,0.1c0,0-0.1,0.1-0.1,0.1c0,0,0,0.1-0.1,0.1c0,0-0.1,0.1-0.1,0.1
		c0,0,0,0.1-0.1,0.1c0,0-0.1,0.1-0.1,0.1c0,0,0,0.1-0.1,0.1c0,0-0.1,0.1-0.1,0.1c0,0,0,0.1-0.1,0.1c0,0-0.1,0.1-0.1,0.1
		c0,0,0,0.1-0.1,0.1c0,0.1-0.1,0.1-0.1,0.1c0,0,0,0.1-0.1,0.1c0,0-0.1,0.1-0.1,0.1c0,0,0,0.1-0.1,0.1c0,0.1-0.1,0.1-0.1,0.2
		c0,0,0,0.1-0.1,0.1c0,0,0,0.1-0.1,0.1c0,0,0,0,0,0L343.5,315.3L343.5,315.3L343.5,315.3z M338.4,347.3c0-2.6,1.4-4.4,2.5-5.4
		c0,0,0.1-0.1,0.1-0.1c0.4-0.4,0.9-0.8,1.4-1.1v13.8c-0.4-0.2-0.8-0.5-1.1-0.8C339.4,352.1,338.4,349.8,338.4,347.3z M393.4,411.5
		c0.1,0,0.1,0,0.2,0c0.1,0,0.3,0,0.4,0c0.1,0,0.1,0,0.2,0c0.1,0,0.3,0,0.4,0c0.1,0,0.1,0,0.2,0c0.2,0,0.4,0,0.5,0c0,0,0.1,0,0.1,0
		c0.2,0,0.4,0,0.5,0c0.1,0,0.1,0,0.2,0c0.1,0,0.2,0,0.4,0c0.1,0,0.1,0,0.2,0c0.1,0,0.2,0,0.4,0c0.1,0,0.1,0,0.2,0c0.2,0,0.3,0,0.5,0
		c0,0,0.1,0,0.1,0c0.2,0,0.4,0,0.6-0.1c0.1,0,0.1,0,0.2,0c0.1,0,0.2,0,0.4,0c0.1,0,0.2,0,0.2,0c0.1,0,0.2,0,0.3,0c0.1,0,0.1,0,0.2,0
		c0.1,0,0.3,0,0.4-0.1c0.1,0,0.1,0,0.2,0c0.2,0,0.4-0.1,0.5-0.1c0.1,0,0.1,0,0.2,0c0.1,0,0.2,0,0.4-0.1c0.1,0,0.1,0,0.2,0
		c0.1,0,0.2,0,0.3-0.1c0.1,0,0.1,0,0.2,0c0.1,0,0.2,0,0.4-0.1c0.1,0,0.1,0,0.2,0c0.2,0,0.4-0.1,0.5-0.1c0.1,0,0.1,0,0.2,0
		c0.1,0,0.2-0.1,0.4-0.1c0.1,0,0.2,0,0.3-0.1c0.1,0,0.2,0,0.3-0.1c0.1,0,0.2,0,0.3-0.1c0.1,0,0.2,0,0.3-0.1c0.1,0,0.2-0.1,0.3-0.1
		c0.1,0,0.1,0,0.2-0.1c0.4-0.1,0.8-0.2,1.2-0.3c0,0,0.1,0,0.1,0c0.1,0,0.2-0.1,0.4-0.1c0,0,0.1,0,0.1,0c0.1,0,0.3-0.1,0.4-0.1
		c0,0,0,0,0,0c0.3-0.1,0.6-0.2,0.9-0.3v4.6L392.7,433l-15.9-19.6v-3.7c4.7,1.2,9.9,1.7,15.9,1.7C393,411.5,393.2,411.5,393.4,411.5z
		 M310.5,447.2l32.3-12.5l14.5,29c1.5,3,4.2,5.2,7.5,6c0.9,0.2,1.9,0.3,2.8,0.3c2.2,0,4.5-0.7,6.4-1.9l1.9,2.9l-1.3,10.9
		C349.9,477.9,327.5,465.8,310.5,447.2z M410.9,481.9l-1.3-10.9l1.9-2.9c1.9,1.3,4.1,1.9,6.4,1.9c0.9,0,1.9-0.1,2.8-0.3
		c3.2-0.8,6-3,7.5-6c0,0,0,0,0,0l14.5-29l32.4,12.5C457.9,465.8,435.5,477.9,410.9,481.9z"/>
</g>
<g>
	<path class="st1" d="M427.1,243.5c-3.2,0-6.1-2-7.3-5.1c-7.8-21.7-19.7-41.4-35.3-58.5c-2.9-3.2-2.6-8,0.5-10.9s8-2.6,10.9,0.5
		c17,18.6,29.9,40.1,38.4,63.7c1.4,4-0.6,8.4-4.7,9.9C428.9,243.3,428,243.5,427.1,243.5z"/>
	<path class="st1" d="M83.6,243.8c-0.9,0-1.7-0.1-2.6-0.5c-4-1.4-6.1-5.9-4.7-9.9c8.6-24.1,21.9-46,39.3-64.9
		c2.9-3.1,7.8-3.3,10.9-0.4c3.1,2.9,3.3,7.8,0.4,10.9c-16.1,17.4-28.2,37.5-36.1,59.6C89.7,241.8,86.7,243.8,83.6,243.8z"/>
	<path class="st1" d="M255.4,487.6c-14.6,0-29.1-1.7-43.1-4.9c-2.8-0.6-5-2.8-5.7-5.5s0.1-5.7,2.2-7.7l0.1-0.1
		c2.3-2.1,5.4-2.6,8.1-1.5c25.7,5.8,53.1,5.6,78.9-0.5c4.2-1,8.3,1.6,9.3,5.7c1,4.2-1.6,8.3-5.7,9.3
		C285,485.9,270.2,487.6,255.4,487.6z"/>
</g>
</svg>
