<?xml version="1.0" encoding="utf-8"?>
<!-- Generator: Adobe Illustrator 25.2.1, SVG Export Plug-In . SVG Version: 6.00 Build 0)  -->
<svg version="1.1" id="Capa_1" xmlns="http://www.w3.org/2000/svg" xmlns:xlink="http://www.w3.org/1999/xlink" x="0px" y="0px"
	 viewBox="0 0 512 512" style="enable-background:new 0 0 512 512;" xml:space="preserve">
<style type="text/css">
	.st0{fill:#FFFFFF;}
	.st1{fill:#E1EAF8;}
	.st2{fill:#DFDFDF;}
	.st3{fill:#737373;}
</style>
<path class="st0" d="M390.1,152.4H369c-3.4-12-8.2-23.5-14.2-34.1l14.8-14.7c6-6,6-15.7,0-21.7l-39.2-39c-6-5.9-15.6-5.9-21.6,0
	l-14.9,14.9c-10.7-6-22.2-10.8-34.3-14.1V22.8c0-8.4-6.9-15.3-15.3-15.3h-55.6c-8.4,0-15.3,6.9-15.3,15.3v20.8
	c-12.1,3.4-23.6,8.2-34.4,14.1l-14.9-14.8c-6-5.9-15.6-5.9-21.6,0l-39.2,39c-6,6-6,15.7,0,21.7l14.8,14.7
	c-6,10.7-10.8,22.1-14.2,34.1H42.8c-8.4,0-15.3,6.8-15.3,15.3v55c0,8.4,6.9,15.3,15.3,15.3h21.1c3.4,12,8.2,23.5,14.2,34.1
	l-14.8,14.7c-6,6-6,15.7,0,21.7l39.2,39c6,5.9,15.6,5.9,21.6,0l14.9-14.8c10.8,6,22.2,10.8,34.4,14.2v20.8c0,4.5,2,8.6,5.1,11.4
	c2.7,2.4,6.3,3.9,10.2,3.9h55.6c8.4,0,15.3-6.9,15.3-15.3v-20.8c12.1-3.4,23.6-8.2,34.3-14.2l14.9,14.8l0.1,0.1
	c6,5.9,15.6,5.9,21.6,0l19.9-19.8l19.3-19.2c6-6,6-15.7,0-21.7l-14.8-14.7c6-10.7,10.8-22.1,14.2-34.1h21.1
	c6.8,0,12.6-4.4,14.5-10.6c0.5-1.5,0.8-3.1,0.8-4.7v-55C405.4,159.3,398.5,152.4,390.1,152.4z M216.4,265.4c-2.7,0-5.3-0.1-7.9-0.4
	c-35.2-3.9-62.6-33.7-62.6-69.8c0-38.8,31.5-70.2,70.5-70.2c38.9,0,70.4,31.4,70.4,70.2c0,11.9-3,23.2-8.3,33.1
	C266.8,250.4,243.4,265.4,216.4,265.4z"/>
<path class="st1" d="M398.3,232.3l-2,2c-1.3-0.6-2.6-1.1-3.9-1.6v-2.6c0-16.6-13.5-30.2-30.2-30.2h-42.3
	c-16.6,0-30.2,13.5-30.2,30.2v2.6c-1.3,0.5-2.6,1.1-3.9,1.6l-2-2c-1.5-1.5-3.2-2.9-5-4c-11.9,22.1-35.2,37.2-62.2,37.2
	c-2.7,0-5.3-0.1-7.9-0.4c-4.1,5.2-6.3,11.7-6.3,18.4c0,8.1,3.2,15.7,8.9,21.4l1.8,1.8c-0.5,1.2-1.1,2.5-1.6,3.7h-2.8
	c-16.6,0-30.2,13.5-30.2,30.2V379c2.7,2.4,6.3,3.9,10.2,3.9h55.6c8.4,0,15.3-6.9,15.3-15.3v-20.8c12.1-3.4,23.6-8.2,34.3-14.2
	l14.9,14.8c5.4-12.3,17.8-20.9,32.2-20.9c3.2,0,6.4,0.4,9.3,1.3l19.3-19.2c6-6,6-15.7,0-21.7l-14.8-14.7c6-10.7,10.8-22.1,14.2-34.1
	h21.1c6.8,0,12.6-4.4,14.5-10.6C402.3,228.8,400.2,230.4,398.3,232.3z"/>
<path class="st2" d="M216.4,85.7c-60.5,0-109.6,49-109.6,109.6c0,58.7,46.2,106.6,104.2,109.4c1.8,0.1,3.6,0.1,5.4,0.1
	c58.9,0,107-46.5,109.4-104.8c0.1-1.6,0.1-3.1,0.1-4.7C326,134.7,276.9,85.7,216.4,85.7z M278.3,228.7
	c-11.9,21.9-35.2,36.7-61.9,36.7c-2.7,0-5.3-0.1-7.9-0.4h0c-35.2-3.9-62.6-33.7-62.6-69.8c0-38.8,31.5-70.2,70.5-70.2
	c38.9,0,70.4,31.4,70.4,70.2c0,11.9-3,23.2-8.3,33.1C278.5,228.4,278.4,228.6,278.3,228.7z"/>
<path class="st1" d="M319.8,199.9c-16.6,0-30.2,13.5-30.2,30.2v2.6c-1.3,0.5-2.6,1.1-3.9,1.6l-2-2c-1.5-1.5-3.2-2.9-5-4
	c-0.1,0.2-0.2,0.3-0.3,0.5c-11.9,21.9-35.2,36.7-61.9,36.7c-2.7,0-5.3-0.1-7.9-0.4h0c-4.1,5.2-6.3,11.7-6.3,18.4
	c0,8,3.1,15.5,8.7,21.2c1.8,0.1,3.6,0.1,5.4,0.1c58.9,0,107-46.5,109.4-104.8H319.8z"/>
<path class="st3" d="M484.9,382.4v-41.9c0-6.4-5.2-11.7-11.7-11.7h-16.1c-2.6-9.2-6.3-17.9-10.9-26l11.3-11.2c4.6-4.6,4.6-12,0-16.5
	l-29.9-29.7c-4.5-4.5-11.9-4.5-16.4,0l-11.4,11.3c-8.2-4.6-16.9-8.2-26.2-10.8v-15.9c0-6.4-5.2-11.7-11.7-11.7h-42.3
	c-6.4,0-11.7,5.2-11.7,11.7V246c-9.2,2.6-18,6.2-26.2,10.8l-11.4-11.3c-4.5-4.5-11.9-4.5-16.4,0l-29.9,29.7c-4.6,4.6-4.6,12,0,16.5
	l11.3,11.2c-4.6,8.1-8.3,16.8-10.9,26h-16c-6.4,0-11.7,5.2-11.7,11.7v41.9c0,6.4,5.2,11.7,11.7,11.7h16c2.6,9.2,6.3,17.9,10.9,26
	l-11.3,11.2c-4.6,4.6-4.6,12,0,16.5l29.9,29.7c4.5,4.5,11.9,4.5,16.4,0l11.4-11.3c8.2,4.6,16.9,8.2,26.2,10.8v15.9
	c0,6.4,5.2,11.7,11.7,11.7h42.3c6.4,0,11.7-5.2,11.7-11.7V477c9.2-2.6,18-6.2,26.2-10.8l11.4,11.3c4.5,4.5,11.9,4.5,16.4,0
	l29.9-29.7c4.6-4.6,4.6-12,0-16.5l-11.3-11.2c4.6-8.1,8.3-16.8,10.9-26h16.1C479.7,394.1,484.9,388.9,484.9,382.4z M340.9,415
	c-29.6,0-53.7-24-53.7-53.5s24-53.5,53.7-53.5s53.7,24,53.7,53.5S370.6,415,340.9,415z"/>
<path class="st0" d="M340.9,278c-46.1,0-83.5,37.4-83.5,83.5c0,46.1,37.4,83.5,83.5,83.5c46.1,0,83.5-37.4,83.5-83.5
	C424.4,315.4,387,278,340.9,278z M340.9,415c-29.6,0-53.7-24-53.7-53.5s24-53.5,53.7-53.5s53.7,24,53.7,53.5S370.6,415,340.9,415z"
	/>
<g>
	<path d="M368.4,307c-0.3-0.2-0.7-0.4-1-0.5c-8.1-3.9-17.1-6-26.4-6c-21.9,0-41.2,11.6-52,28.9c-0.3,0.4-0.5,0.8-0.7,1.2
		c-5.4,9.1-8.5,19.7-8.5,30.9c0,33.6,27.4,61,61.2,61c30.5,0,56.6-22.7,60.6-52.9c0.5-4.1-2.3-7.9-6.4-8.4c-4.1-0.5-7.9,2.3-8.4,6.4
		c-3,22.7-22.7,39.9-45.8,39.9c-25.5,0-46.2-20.6-46.2-46c0-5.2,0.9-10.2,2.5-14.9l6.3,6.2c4.4,4.4,10.2,6.6,16.1,6.6
		c5.8,0,11.6-2.2,16.1-6.6l30.2-30.1c7.4,4.7,13.5,11.6,17.2,19.9c1.7,3.8,6.1,5.5,9.9,3.8c3.8-1.7,5.5-6.1,3.8-9.9
		C390.9,323.5,380.8,313.2,368.4,307z M325.1,342.2c-3,3-8,3-11,0l-9.3-9.3c8.5-10.6,21.5-17.5,36.2-17.5c3.4,0,6.7,0.4,9.9,1.1
		L325.1,342.2z"/>
	<path d="M473.2,321.4h-10.5c-2-5.9-4.3-11.6-7.1-17.1l7.3-7.3c3.6-3.6,5.7-8.4,5.7-13.6c0-5.1-2-10-5.7-13.6L433,240.1
		c-7.4-7.4-19.6-7.4-27,0l-7.5,7.4c-1.6-0.8-3.2-1.6-4.9-2.3c10.9-1.7,19.2-11.2,19.2-22.5v-55c0-12.6-10.2-22.8-22.8-22.8h-15.5
		c-2.8-8.7-6.3-17.1-10.5-25.3l10.8-10.8c4.3-4.3,6.7-10.1,6.7-16.2c0-6.1-2.4-11.9-6.7-16.2l-39.2-39c-8.9-8.8-23.3-8.8-32.1,0
		l-11,10.9c-8.2-4.2-16.7-7.7-25.5-10.5V22.8C267,10.2,256.8,0,244.2,0h-55.6c-12.6,0-22.8,10.2-22.8,22.8V38
		c-8.7,2.8-17.3,6.3-25.5,10.5l-11-10.9c-8.9-8.8-23.3-8.8-32.1,0L58,76.6c-4.3,4.3-6.7,10.1-6.7,16.2c0,6.1,2.4,11.9,6.7,16.2
		l10.8,10.8c-4.2,8.1-7.7,16.6-10.5,25.3H42.8c-12.6,0-22.8,10.2-22.8,22.8v55c0,12.6,10.2,22.8,22.8,22.8h15.5
		c2.8,8.7,6.3,17.1,10.5,25.3L58,281.5c-4.3,4.3-6.7,10.1-6.7,16.2s2.4,11.9,6.7,16.2l7.6,7.6c1.5,1.5,3.4,2.2,5.3,2.2
		c1.9,0,3.9-0.7,5.3-2.2c2.9-2.9,2.9-7.7,0-10.6l-7.6-7.6c-1.5-1.5-2.3-3.4-2.3-5.5s0.8-4.1,2.3-5.5l14.8-14.7
		c2.4-2.4,2.9-6.1,1.2-9c-5.8-10.2-10.4-21.2-13.6-32.5c-0.9-3.2-3.9-5.5-7.2-5.5H42.8c-4.3,0-7.8-3.5-7.8-7.8v-55
		c0-4.3,3.5-7.8,7.8-7.8h21.1c3.4,0,6.3-2.2,7.2-5.4c3.2-11.3,7.8-22.2,13.6-32.5c1.7-2.9,1.2-6.6-1.2-9L68.6,98.3
		c-1.5-1.5-2.3-3.4-2.3-5.5c0-2.1,0.8-4.1,2.3-5.5l39.2-39c3-3,8-3,11,0l14.9,14.9c2.4,2.4,6,2.9,8.9,1.2
		c10.4-5.8,21.4-10.3,32.7-13.5c3.2-0.9,5.5-3.9,5.5-7.2V22.8c0-4.3,3.5-7.8,7.8-7.8h55.6c4.3,0,7.8,3.5,7.8,7.8v20.8
		c0,3.4,2.2,6.3,5.5,7.2c11.3,3.2,22.3,7.7,32.7,13.5c2.9,1.6,6.6,1.1,8.9-1.2l15-14.9c3-3,7.9-3,11,0l39.2,39
		c1.5,1.5,2.3,3.4,2.3,5.5s-0.8,4.1-2.3,5.5L349.5,113c-2.4,2.4-2.9,6.1-1.2,9c5.8,10.2,10.4,21.2,13.6,32.5
		c0.9,3.2,3.9,5.4,7.2,5.4h21.1c4.3,0,7.8,3.5,7.8,7.8v55c0,4.3-3.5,7.8-7.8,7.8h-8.8v-0.4c0-10.6-8.6-19.2-19.2-19.2
		c0,0-38.8,0.2-44.9,0.2c-9.4,1.2-16.6,9.3-16.6,19v10.3c-5.9,1.9-11.7,4.3-17.3,7.1l-5-5c10.4-13.5,16.1-30,16.1-47.3
		c0-42.9-35-77.7-77.9-77.7c-43,0-78,34.9-78,77.7c0,42.9,35,77.7,77.9,77.7c-2,3.1-3.1,6.7-3.1,10.4c0,5.1,2,10,5.7,13.6l0.2,0.2
		c4.9,4.1,6.8,7.6,6.8,7.6s-5.8,13.5-6.9,16.6h-10.5c-10.6,0-19.2,8.6-19.2,19.2v34.9h-0.8c-4.3,0-7.8-3.5-7.8-7.8v-20.8
		c0-3.4-2.2-6.3-5.5-7.2c-11.4-3.2-22.4-7.7-32.7-13.5c-2.9-1.6-6.6-1.1-8.9,1.2l-14.9,14.8c-3,3-8,3-11,0l-9.2-9.1
		c-2.9-2.9-7.7-2.9-10.6,0c-2.9,2.9-2.9,7.7,0,10.6l9.2,9.1c8.9,8.8,23.3,8.8,32.1,0l11-10.9c8.2,4.2,16.7,7.7,25.5,10.5v15.2
		c0,12.6,10.2,22.8,22.8,22.8h2.6c3,6.6,9.7,11.1,17.4,11.1h10.5c2,5.9,4.3,11.6,7.1,17.1L219,426c-3.6,3.6-5.7,8.4-5.7,13.6
		c0,5.1,2,10,5.7,13.6l29.9,29.7c7.4,7.4,19.6,7.4,27,0l7.5-7.4c5.6,2.8,11.4,5.2,17.3,7.1v10.3c0,10.6,8.6,19.2,19.2,19.2h42.3
		c10.6,0,19.2-8.6,19.2-19.2v-10.3c5.9-2,11.7-4.3,17.3-7.1l7.5,7.4c7.4,7.4,19.6,7.4,27,0l29.9-29.7c3.6-3.6,5.7-8.5,5.7-13.6
		c0-5.1-2-10-5.7-13.6l-7.3-7.3c2.8-5.5,5.2-11.2,7.1-17.1h10.5c10.6,0,19.2-8.6,19.2-19.2v-41.9C492.4,330,483.8,321.4,473.2,321.4
		z M216.5,258c-34.7,0-63-28.1-63-62.7c0-34.6,28.2-62.7,63-62.7c34.7,0,62.9,28.1,62.9,62.7c0,14.5-5,28.4-14.1,39.6
		c-5.8-0.9-11.9,0.9-16.4,5.3l-15.7,15.6C227.8,257.2,222.1,258,216.5,258z M477.4,382.4c0,2.3-1.9,4.2-4.2,4.2h-16
		c-3.4,0-6.3,2.2-7.2,5.5c-2.4,8.5-5.8,16.7-10.2,24.3c-1.7,2.9-1.2,6.6,1.2,9l11.3,11.2c0.8,0.8,1.2,1.8,1.2,2.9
		c0,1.1-0.4,2.2-1.2,2.9l-29.9,29.7c-1.6,1.6-4.2,1.6-5.9,0l-11.4-11.3c-2.4-2.4-6-2.9-8.9-1.2c-7.7,4.3-16,7.7-24.5,10.1
		c-3.2,0.9-5.5,3.9-5.5,7.2v15.9c0,2.3-1.9,4.2-4.2,4.2h-42.3c-2.3,0-4.2-1.9-4.2-4.2V477c0-3.4-2.2-6.3-5.5-7.2
		c-8.6-2.4-16.8-5.8-24.5-10.1c-1.1-0.6-2.4-0.9-3.7-0.9c-1.9,0-3.8,0.7-5.3,2.2l-11.4,11.3c-1.6,1.6-4.2,1.6-5.9,0l-29.9-29.7
		c-0.8-0.8-1.2-1.8-1.2-2.9c0-1.1,0.4-2.2,1.2-2.9l11.3-11.2c2.4-2.4,2.9-6.1,1.2-9c-4.3-7.7-7.8-15.9-10.2-24.4
		c-0.9-3.2-3.9-5.5-7.2-5.5h-16c-2.3,0-4.2-1.9-4.2-4.2v-41.9c0-2.3,1.9-4.2,4.2-4.2h16c3.4,0,6.3-2.2,7.2-5.5
		c2.4-8.5,5.8-16.7,10.2-24.4c1.7-2.9,1.2-6.6-1.2-9l-11.3-11.2c-0.8-0.8-1.2-1.8-1.2-2.9s0.4-2.2,1.2-2.9l29.9-29.7
		c1.6-1.6,4.2-1.6,5.9,0l11.4,11.3c2.4,2.4,6,2.9,8.9,1.2c7.8-4.3,16-7.7,24.5-10.1c3.2-0.9,5.5-3.9,5.5-7.2v-15.9
		c0-2.3,1.9-4.2,4.2-4.2h42.3c2.3,0,4.2,1.9,4.2,4.2v7.8c0,0,0,0.1,0,0.1c0,0,0,0.1,0,0.1v7.9c0,3.4,2.2,6.3,5.5,7.2
		c8.5,2.4,16.8,5.8,24.5,10.1c2.9,1.6,6.6,1.1,8.9-1.2l11.4-11.3c1.6-1.6,4.2-1.6,5.9,0l29.9,29.7c0.8,0.8,1.2,1.8,1.2,2.9
		s-0.4,2.2-1.2,2.9l-11.3,11.2c-2.4,2.4-2.9,6.1-1.2,9c4.3,7.7,7.8,15.9,10.2,24.4c0.9,3.2,3.9,5.5,7.2,5.5h16
		c2.3,0,4.2,1.9,4.2,4.2V382.4z"/>
</g>
</svg>
