<?xml version="1.0" encoding="utf-8"?>
<!-- Generator: Adobe Illustrator 25.2.1, SVG Export Plug-In . SVG Version: 6.00 Build 0)  -->
<svg version="1.1" id="Capa_1" xmlns="http://www.w3.org/2000/svg" xmlns:xlink="http://www.w3.org/1999/xlink" x="0px" y="0px"
	 viewBox="0 0 512 512" style="enable-background:new 0 0 512 512;" xml:space="preserve">
<style type="text/css">
	.st0{fill:#FFFFFF;}
	.st1{fill:#E4EAF8;}
	.st2{fill:#DFDFDF;}
	.st3{fill:#737373;}
</style>
<path class="st0" d="M479.5,301.3H119.1c-13.5,0-24.5-11-24.5-24.5V75.6c0-13.5,11-24.5,24.5-24.5h360.4c13.5,0,24.5,11,24.5,24.5
	v201.2C504,290.3,493,301.3,479.5,301.3z"/>
<path class="st1" d="M392.4,190.7H121c-3.6,0-6.5-2.9-6.5-6.5V75.6c0-13.5,11-24.5,24.5-24.5h-20c-13.6,0-24.5,11-24.5,24.5v115.1
	l0,0v86.1c0,13.5,11,24.5,24.5,24.5l0,0c9.4,0,302.9,0,317.9,0v-66.1C437,210.6,417,190.7,392.4,190.7z"/>
<path class="st2" d="M468.6,81H129.9c-3,0-5.5,2.4-5.5,5.5v179.5c0,3,2.4,5.5,5.5,5.5h338.7c3,0,5.5-2.4,5.5-5.5V86.4
	C474.1,83.4,471.6,81,468.6,81z"/>
<g>
	<path class="st1" d="M392.4,190.7H151c-3.5,0-6.3-2.8-6.3-6.3V86.4c0-3,2.4-5.5,5.5-5.5h-20.2c-3,0-5.5,2.4-5.5,5.5v104.3l0,0v75.2
		c0,3,2.4,5.5,5.5,5.5l0,0c9.4,0,293.4,0,307.1,0v-36.1C437,210.6,417,190.7,392.4,190.7z"/>
	<circle class="st2" cx="299.3" cy="176.2" r="79.3"/>
</g>
<path class="st0" d="M392.4,461H32c-13.5,0-24.5-11-24.5-24.5V235.2c0-13.5,11-24.5,24.5-24.5h360.4c13.5,0,24.5,11,24.5,24.5v201.2
	C417,449.9,406,461,392.4,461z"/>
<path class="st1" d="M27.5,436.4V235.2c0-13.5,11-24.5,24.5-24.5H32c-13.5,0-24.5,11-24.5,24.5v201.2c0,13.5,11,24.5,24.5,24.5h20
	C38.5,461,27.5,449.9,27.5,436.4z"/>
<path class="st2" d="M381.6,240.6H42.8c-3,0-5.5,2.4-5.5,5.5v179.5c0,3,2.4,5.5,5.5,5.5h338.7c3,0,5.5-2.4,5.5-5.5V246.1
	C387,243.1,384.6,240.6,381.6,240.6z"/>
<g>
	<path class="st1" d="M57.6,425.6V246.1c0-3,2.4-5.5,5.5-5.5H42.8c-3,0-5.5,2.4-5.5,5.5v179.5c0,3,2.4,5.5,5.5,5.5H63
		C60,431,57.6,428.6,57.6,425.6z"/>
	<circle class="st2" cx="212.2" cy="335.8" r="79.3"/>
</g>
<g>
	<path class="st3" d="M297,211.3c-13.6-0.3-23.8-7.6-23.8-13.9c0-3.1,2.8-7.8,6.3-7.8c4.3,0,7.6,7.3,17.5,8.4v-22.3
		c-10.2-3.8-21.8-8.2-21.8-22.5c0-14.2,10.5-20.4,21.8-21.9v-3.1c0-1.5,1.7-2.8,3.8-2.8c1.9,0,3.8,1.3,3.8,2.8v2.9
		c7.3,0.2,19.2,2.4,19.2,8.9c0,2.6-1.8,7.7-5.9,7.7c-3.1,0-5.7-3.6-13.2-4.1v19.7c10,3.7,21.2,8.7,21.2,24
		c0,13.8-8.6,21.7-21.2,23.8v3.5c0,1.5-1.9,2.8-3.8,2.8c-2.1,0-3.8-1.3-3.8-2.8L297,211.3L297,211.3z M297.9,160.7v-16.9
		c-5.6,0.9-9,3.6-9,7.8C288.9,156.6,292.7,158.7,297.9,160.7z M303.7,178.3v19.5c4.9-1,8.4-3.9,8.4-9.2
		C312.1,183.2,308.6,180.5,303.7,178.3z"/>
	<path class="st3" d="M209.5,370.9c-13.6-0.3-23.8-7.6-23.8-13.9c0-3.1,2.8-7.8,6.3-7.8c4.3,0,7.6,7.3,17.5,8.4v-22.3
		c-10.2-3.8-21.8-8.2-21.8-22.5c0-14.2,10.5-20.4,21.8-21.9v-3.1c0-1.5,1.7-2.8,3.8-2.8c1.9,0,3.8,1.3,3.8,2.8v2.9
		c7.3,0.2,19.2,2.4,19.2,8.9c0,2.6-1.8,7.7-5.9,7.7c-3.1,0-5.7-3.6-13.2-4.1v19.7c10,3.7,21.2,8.7,21.2,24
		c0,13.8-8.6,21.7-21.2,23.8v3.5c0,1.5-1.9,2.8-3.8,2.8c-2.1,0-3.8-1.3-3.8-2.8L209.5,370.9L209.5,370.9L209.5,370.9z M210.4,320.4
		v-16.9c-5.6,0.9-9,3.6-9,7.8C201.4,316.2,205.2,318.4,210.4,320.4z M216.2,338v19.5c4.9-1,8.4-3.9,8.4-9.2
		C224.6,342.8,221.1,340.1,216.2,338z"/>
</g>
<g>
	<path class="st3" d="M346.4,343.3h-19.8c-4.1,0-7.5-3.4-7.5-7.5s3.4-7.5,7.5-7.5h19.8c4.1,0,7.5,3.4,7.5,7.5
		S350.6,343.3,346.4,343.3z"/>
	<path class="st3" d="M95,343.3H75.2c-4.1,0-7.5-3.4-7.5-7.5s3.4-7.5,7.5-7.5H95c4.1,0,7.5,3.4,7.5,7.5
		C102.5,340,99.1,343.3,95,343.3z"/>
	<path class="st3" d="M433.9,183.7h-19.8c-4.1,0-7.5-3.4-7.5-7.5s3.4-7.5,7.5-7.5h19.8c4.1,0,7.5,3.4,7.5,7.5
		S438.1,183.7,433.9,183.7z"/>
	<path class="st3" d="M182.5,183.7h-19.8c-4.1,0-7.5-3.4-7.5-7.5s3.4-7.5,7.5-7.5h19.8c4.1,0,7.5,3.4,7.5,7.5
		S186.6,183.7,182.5,183.7z"/>
</g>
<g>
	<path class="st3" d="M371.2,218.2c-1.1,0-2.2-0.2-3.3-0.8c-3.7-1.8-5.3-6.3-3.5-10c4.7-9.8,7.1-20.3,7.1-31.3
		c0-39.6-32.2-71.8-71.8-71.8c-39.6,0-71.8,32.2-71.8,71.8c0,11,2.4,21.5,7.1,31.3c1.8,3.7,0.2,8.2-3.5,10c-3.7,1.8-8.2,0.2-10-3.5
		c-5.7-11.8-8.6-24.6-8.6-37.8c0-47.9,38.9-86.8,86.8-86.8s86.8,38.9,86.8,86.8c0,13.2-2.9,26-8.6,37.8
		C376.6,216.6,374,218.2,371.2,218.2z"/>
	<path class="st3" d="M212.2,422.7c-47.9,0-86.8-38.9-86.8-86.8s38.9-86.8,86.8-86.8c42.1,0,78.1,30.1,85.5,71.5
		c0.7,4.1-2,8-6.1,8.7c-4.1,0.7-8-2-8.7-6.1c-6.1-34.3-35.8-59.1-70.7-59.1c-39.6,0-71.8,32.2-71.8,71.8s32.2,71.8,71.8,71.8
		c32.3,0,60.8-21.7,69.3-52.8c1.1-4,5.2-6.3,9.2-5.3c4,1.1,6.3,5.2,5.3,9.2C285.7,396.4,251.3,422.7,212.2,422.7z"/>
</g>
<path d="M480,43.5H317.2c-4.1,0-7.5,3.4-7.5,7.5s3.4,7.5,7.5,7.5H480c9.4,0,17,7.6,17,17v201.2c0,9.4-7.6,17-17,17h-55.5v-58.6
	c0-17.7-14.4-32-32-32h-290V75.6c0-9.4,7.6-17,17-17h162.7c4.1,0,7.5-3.4,7.5-7.5s-3.4-7.5-7.5-7.5H119.5c-17.7,0-32,14.4-32,32
	v127.6H32c-17.7,0-32,14.4-32,32v201.2c0,17.7,14.4,32,32,32h360.4c17.7,0,32-14.4,32-32V308.8H480c17.7,0,32-14.4,32-32V75.6
	C512,57.9,497.6,43.5,480,43.5z M409.5,436.4c0,9.4-7.6,17-17,17H32c-9.4,0-17-7.6-17-17V235.2c0-9.4,7.6-17,17-17h360.4
	c9.4,0,17,7.6,17,17L409.5,436.4L409.5,436.4z"/>
</svg>
