<?xml version="1.0" encoding="utf-8"?>
<!-- Generator: Adobe Illustrator 25.2.1, SVG Export Plug-In . SVG Version: 6.00 Build 0)  -->
<svg version="1.1" id="Capa_1" xmlns="http://www.w3.org/2000/svg" xmlns:xlink="http://www.w3.org/1999/xlink" x="0px" y="0px"
	 viewBox="0 0 590.3 590.3" style="enable-background:new 0 0 590.3 590.3;" xml:space="preserve">
<style type="text/css">
	.st0{fill:#DFDFDF;}
	.st1{fill:#FFFFFF;}
	.st2{fill:#C7CFE2;}
</style>
<circle class="st0" cx="294.8" cy="71.9" r="24"/>
<polyline class="st0" points="311.5,432.2 310.9,95.9 278.8,95.9 279.5,432.3 "/>
<path class="st1" d="M303.6,472.3l-96.1,0.2c-8.8,0-16,7.2-16,16l0,16l208.2-0.4l0-16c0-8.8-7.2-16-16-16l-48,0.1"/>
<g>
	<path class="st0" d="M335.6,472.2l0-24c0-8.8-7.2-16-16-16l-48,0.1c-8.8,0-16,7.2-16,16l0,24"/>
	<path class="st0" d="M240.7,472.4l79.5-0.1l26.5,0l37-0.1c0,0,0,0,0,0l-48,0.1l-32,0.1l-96.1,0.2c-8.8,0-16,7.2-16,16l0,16l36-0.1
		l0-16C227.5,479.6,233.4,472.4,240.7,472.4z"/>
</g>
<g>
	<polygon class="st2" points="399.7,504.1 399.7,504.1 399.7,488.1 399.7,488.1 399.7,488.1 	"/>
	<path class="st2" d="M399.7,488.1c0-8.8-6-16-13.3-16l-2.8,0C392.4,472.1,399.7,479.3,399.7,488.1z"/>
	<rect x="313.6" y="418.2" class="st2" width="0" height="172.2"/>
</g>
<path class="st0" d="M293.6,432.2l25.9,0c0,0,0,0,0,0l-48,0.1c-8.8,0-16,7.2-16,16l0,24l24.9,0l0-24
	C280.4,439.5,286.3,432.2,293.6,432.2z"/>
<path class="st1" d="M191.2,320.3l16,0c0.1,44.2-35.7,80.1-79.9,80.2S47.1,364.8,47,320.6l112.1-0.2"/>
<path class="st0" d="M47,320.6c0.1,44.2,36,80,80.2,79.9c4.3,0,8.6-0.4,12.8-1c-27.7-6.1-48.9-39.1-48.9-79L47,320.6z"/>
<ellipse transform="matrix(8.248058e-02 -0.9966 0.9966 8.248058e-02 -3.5626 236.6203)" class="st0" cx="126.7" cy="120.2" rx="16" ry="16"/>
<path class="st1" d="M527.3,223.6l16,0c0.1,44.2-35.7,80.1-79.9,80.2s-80.1-35.7-80.2-79.9l112.1-0.2"/>
<circle class="st0" cx="462.9" cy="23.5" r="16"/>
<path class="st0" d="M383.2,223.9c0.1,44.2,36,80,80.2,79.9c4.3,0,8.6-0.4,12.8-1c-27.7-6.1-48.9-39.1-48.9-79L383.2,223.9z"/>
<path d="M550.8,223.6C550.8,223.6,550.8,223.6,550.8,223.6c0-0.1,0-0.1,0-0.2c0-0.2,0-0.4,0-0.6c0-0.1,0-0.1,0-0.2
	c0-0.2,0-0.3-0.1-0.5c0-0.1,0-0.2-0.1-0.3c0-0.1-0.1-0.3-0.1-0.4c0-0.2-0.1-0.3-0.2-0.5c0-0.1,0-0.1-0.1-0.2l0,0c0,0,0,0,0,0
	l-72.4-176c-0.3-0.8-0.8-1.5-1.3-2.1c5.9-4.3,9.8-11.3,9.8-19.1c0-12.9-10.6-23.5-23.6-23.5c-12.7,0-23.1,10.2-23.5,22.8L322.2,56.3
	c-5.5-9.6-15.9-15.9-27.4-15.9c-2.9,0-5.8,0.4-8.7,1.2c-14.2,4.1-23.4,17.3-22.8,31.5l-117.4,33.6c-4.3-6-11.3-9.9-19.2-9.9
	c-6.3,0-12.2,2.5-16.6,6.9c-4.4,4.4-6.9,10.4-6.9,16.6c0,7.5,3.6,14.2,9.1,18.5l-72.2,179c0,0.1-0.1,0.2-0.1,0.3
	c0,0.1-0.1,0.3-0.1,0.4c0,0.1-0.1,0.3-0.1,0.4c0,0.1-0.1,0.2-0.1,0.3c0,0.2-0.1,0.3-0.1,0.5c0,0.1,0,0.2,0,0.2c0,0.2,0,0.4,0,0.5
	c0,0.1,0,0.1,0,0.2c0,0,0,0,0,0.1c0,0,0,0.1,0,0.1c0.2,48.2,39.4,87.3,87.6,87.3c0.1,0,0.1,0,0.2,0c23.4,0,45.4-9.2,61.9-25.8
	c16.5-16.5,25.5-38.5,25.5-61.8c0,0,0-0.1,0-0.1c0,0,0,0,0,0c0-0.1,0-0.1,0-0.2c0-0.2,0-0.4,0-0.6c0-0.1,0-0.1,0-0.2
	c0-0.2,0-0.3-0.1-0.5c0-0.1-0.1-0.2-0.1-0.3c0-0.1-0.1-0.3-0.1-0.4c0-0.2-0.1-0.3-0.2-0.5c0-0.1,0-0.1-0.1-0.2l0,0c0,0,0,0,0,0
	l-72.4-176c-0.3-0.8-0.8-1.5-1.3-2.1c1-0.7,2-1.6,2.9-2.5c4.2-4.3,6.6-9.9,6.8-15.8l117.2-33.5c1.2,2.1,2.7,4.1,4.3,5.9
	c-0.3,0.8-0.5,1.7-0.5,2.6l0.6,328.8l-0.5,0c-13,0-23.5,10.6-23.5,23.6l0,16.5l-40.5,0.1c-13,0-23.5,10.6-23.5,23.6l0,16
	c0,4.1,3.4,7.5,7.5,7.5c0,0,0,0,0,0l208.2-0.4c2,0,3.9-0.8,5.3-2.2s2.2-3.3,2.2-5.3l0-16c0-6.3-2.5-12.2-6.9-16.6
	c-4.4-4.4-10.3-6.9-16.6-6.9c0,0,0,0,0,0l-40.5,0.1l0-16.5c0-13-10.6-23.5-23.5-23.5c0,0,0,0,0,0l-0.5,0l-0.6-328.8
	c0-0.9-0.2-1.7-0.5-2.5c5.6-6.1,8.7-14.2,8.4-22.6l117.4-33.6c1.3,1.9,2.9,3.5,4.7,4.9l-72.2,178.9c0,0,0,0,0,0.1l0,0.1
	c0,0,0,0.1-0.1,0.1c-0.1,0.2-0.1,0.3-0.2,0.5c0,0.1,0,0.2-0.1,0.3c0,0.1-0.1,0.3-0.1,0.4c0,0.1,0,0.3-0.1,0.4c0,0.1,0,0.2,0,0.3
	c0,0.2,0,0.4,0,0.6c0,0.1,0,0.1,0,0.2c0,0,0,0,0,0.1c0,0,0,0.1,0,0.1c0.2,48.2,39.4,87.3,87.6,87.3c0.1,0,0.1,0,0.2,0
	c23.4,0,45.4-9.2,61.9-25.8c16.5-16.5,25.5-38.5,25.5-61.8C550.8,223.7,550.8,223.6,550.8,223.6z M462.9,15c4.7,0,8.5,3.8,8.5,8.5
	c0,4.7-3.8,8.5-8.5,8.5l0,2.2c0,0,0,0,0,0V32c-4.7,0-8.5-3.8-8.5-8.5C454.3,18.8,458.2,15,462.9,15z M290.3,56
	c1.5-0.4,3-0.6,4.6-0.6c7.3,0,13.8,4.9,15.9,12c0,0,0,0,0,0l0,0c2.5,8.8-2.6,17.9-11.3,20.4c-1.5,0.4-3,0.6-4.6,0.6
	c-7.3,0-13.9-4.9-15.9-12C276.4,67.7,281.5,58.5,290.3,56z M120.7,114.2c1.6-1.6,3.7-2.5,6-2.5c4.7,0,8.5,3.8,8.5,8.5
	c0,2.3-0.9,4.4-2.5,6c-1.6,1.6-3.7,2.5-6,2.5l0,2.2c0,0,0,0,0,0v-2.2c-4.7,0-8.5-3.8-8.5-8.5C118.2,118,119.1,115.9,120.7,114.2z
	 M127.8,147.1L196,312.8l-4.8,0c-4.1,0-7.5,3.4-7.5,7.5c0,4.1,3.4,7.5,7.5,7.5c0,0,0,0,0,0l8.1,0c-1.7,16.5-8.9,31.9-20.8,43.8
	c-13.7,13.7-31.9,21.3-51.3,21.4c-19.4,0-37.6-7.5-51.4-21.2c-11.9-11.9-19.2-27.2-21-43.8l104.2-0.2c4.1,0,7.5-3.4,7.5-7.5
	c0-4.1-3.4-7.5-7.5-7.5c0,0,0,0,0,0l-101,0.2l68.3-169.3c0.1,0,0.2,0,0.2,0c0,0,0,0,0,0c0.2,0,0.3,0,0.5,0
	C127.2,144.9,127.4,146,127.8,147.1z M319.5,439.7C319.5,439.7,319.5,439.7,319.5,439.7c4.7,0,8.5,3.8,8.5,8.5l0,24c0,0,0,0,0,0
	c0,4.1,3.4,7.5,7.5,7.5l0,0c0,0,0,0,0,0l0,0l0,0l48-0.1c2.3,0,4.4,0.9,6,2.5s2.5,3.7,2.5,6l0,8.5L199,497l0-8.5
	c0-4.7,3.8-8.5,8.5-8.5l48-0.1c0,0,0,0,0,0c0,0,0,0,0,0c0,0,0,0,0,0l48-0.1c4.1,0,7.5-3.4,7.5-7.5c0-4.1-3.4-7.5-7.5-7.5
	c0,0,0,0,0,0l-40.5,0.1l0-16.5c0-4.7,3.8-8.5,8.5-8.5l40-0.1c0,0,0,0,0,0c0,0,0,0,0,0c0,0,0,0,0,0L319.5,439.7z M287,424.7
	l-0.6-322.5c2.7,0.8,5.5,1.2,8.4,1.2c2.9,0,5.8-0.4,8.6-1.2l0.6,322.5L287,424.7z M514.7,274.9c-13.7,13.7-31.9,21.3-51.3,21.4
	c-19.3,0-37.6-7.5-51.4-21.2c-11.9-11.9-19.2-27.2-21-43.8l104.2-0.2c4.1,0,7.5-3.4,7.5-7.5c0-4.1-3.4-7.5-7.5-7.5c0,0,0,0,0,0
	l-101,0.2L462.6,47c0.1,0,0.2,0,0.2,0c0,0,0,0,0,0c0.2,0,0.3,0,0.5,0c-0.1,1.1,0.1,2.3,0.5,3.4l68.1,165.7l-4.8,0
	c-4.1,0-7.5,3.4-7.5,7.5c0,4.1,3.4,7.5,7.5,7.5c0,0,0,0,0,0l8.1,0C533.8,247.6,526.6,263,514.7,274.9z"/>
</svg>
