<?xml version="1.0" encoding="utf-8"?>
<!-- Generator: Adobe Illustrator 25.2.1, SVG Export Plug-In . SVG Version: 6.00 Build 0)  -->
<svg version="1.1" id="Capa_1" xmlns="http://www.w3.org/2000/svg" xmlns:xlink="http://www.w3.org/1999/xlink" x="0px" y="0px"
	 viewBox="0 0 512 512" style="enable-background:new 0 0 512 512;" xml:space="preserve">
<style type="text/css">
	.st0{fill:#E1EAF8;}
	.st1{fill:#D8E0EA;}
	.st2{fill:#DFDFDF;}
	.st3{fill:#FFFFFF;}
	.st4{fill:#E4EAF6;}
	.st5{fill:#737373;}
</style>
<polygon class="st0" points="328.1,359.8 328.1,303.7 183.9,303.7 183.9,359.8 256,423.8 "/>
<path class="st1" d="M183.9,303.7v59.2c90.8,32.7,144.2-49.2,144.2-49.2v-10L183.9,303.7L183.9,303.7z"/>
<path class="st2" d="M488.3,462.8c-0.1-30.9-19.6-63.8-53.2-73.1L368,375.7l-19.1-28.8c-2.7-3.6-8-4.3-11.5-1.4L255.9,416l0,0l0,0
	l-81.8-70.1c-3.5-2.9-8.8-2.2-11.5,1.4l-19,28.9l-67.1,14.2c-33.5,9.5-52.9,42.4-52.9,73.3l0,19.9c0,11.6,10.8,21,24.1,21l184.2-0.3
	l48.1-0.1l184.2-0.3c13.3,0,24-9.5,24-21.1L488.3,462.8z"/>
<g>
	<path class="st0" d="M82.2,448.2l-42.8-31.9c-10.2,13.8-15.7,30.8-15.7,47.3l0,19.9c0,11.6,10.8,21,24.1,21l49.6-0.1v-22.5
		C97.4,469,91.9,456.8,82.2,448.2z"/>
	<path class="st0" d="M488.3,482.6l0-19.9c0-19.7-8-40.2-22.5-55l-40.1,40.4c-9.7,8.6-15.3,20.8-15.3,33.6v21.9l54-0.1
		C477.6,503.7,488.3,494.2,488.3,482.6z"/>
</g>
<path class="st0" d="M144.8,194.6c1.3-32,17.6-72.3,21.7-81.1c0.5-1.1,0.8-1.7,0.8-1.7c12.5-1.6,24.4-2.6,35.8-3.1
	c3.3-0.1,6.5-0.2,9.6-0.3c87-1.4,138.8,27.1,138.8,27.1l16.3,38.5c23-72.7,14.9-134,7.5-150.7c-56.1,8.1-138.9-39.5-191.1,0.4
	l-4.4,0c-33.2,0.1-52.7,28.9-52.6,64.2c0.1,34,16,101.6,16,101.6l1.7,11.1c0-1.1,0-2.8,0-4C144.8,196.5,144.8,194.6,144.8,194.6z"/>
<path class="st3" d="M366.9,219.7c0.1-0.6,0.2-1.3,0.2-1.9c1.9-16.6,3.8-37.7-3.3-53.1c-4.4-9.6-8.2-19.5-12.4-29.3
	c0,0-51.8-28.5-138.8-27.1c-3.2,0.1-6.4,0.1-9.6,0.3c-11.4,0.5-23.4,1.5-35.8,3.1c0,0-0.3,0.6-0.8,1.7c-30,65.2-34.8,146.2,20.3,200
	c12.6,12.3,27.9,22.1,45,27c2.1,0.6,4.3,1.1,6.4,1.6c0.4,0.1,0.8,0.2,1.3,0.3c5.4,1,10.9,1.6,16.5,1.6
	C320.8,343.8,359.5,277.2,366.9,219.7z"/>
<path class="st0" d="M182.8,218.7c-1.9-89.6,13-85.1,13-85.1c36.7-8.5,97.6-2.5,159.1,10.2c-1.1-2.8-2.3-5.5-3.4-8.3
	c0,0-51.8-28.5-138.8-27.1c-3.2,0.1-6.4,0.1-9.6,0.3c-11.4,0.5-23.4,1.5-35.8,3.1c0,0-0.3,0.6-0.8,1.7c-30,65.2-34.8,146.2,20.3,200
	c12.6,12.3,27.9,22.1,45,27c2.1,0.6,4.3,1.1,6.4,1.6c0.4,0.1,0.8,0.2,1.3,0.3c5.4,1,10.9,1.6,16.5,1.6
	C235.6,336.8,184.2,285.2,182.8,218.7z"/>
<path class="st2" d="M375.3,23.3c-56.1,8.1-138.9-39.5-191.1,0.4c0,0-41.6,48.4-17,88.1c12.5-1.6,24.4-2.6,35.8-3.1
	c0.1,0,0.1,0,0.2,0c3.2-0.1,6.3-0.2,9.4-0.3c87-1.4,138.8,27.1,138.8,27.1l16.3,38.5C390.8,101.4,382.7,40,375.3,23.3z"/>
<path class="st0" d="M231.9,440.1l24-24.1l-81.8-70.1c-3.5-2.9-8.8-2.2-11.5,1.4l-19,28.9l64.2,88L231.9,440.1z"/>
<path class="st4" d="M304,464l63.9-88.2l-19.1-28.8c-2.7-3.6-8-4.3-11.5-1.4L255.9,416l24.1,24L304,464z"/>
<path class="st0" d="M304,464l63.9-88.2l-19.1-28.8c-2.7-3.6-8-4.3-11.5-1.4L255.9,416l24.1,24L304,464z"/>
<polyline class="st5" points="270.9,461.9 240.9,460.9 232,504.1 280.1,504.1 270.9,461.9 "/>
<path class="st5" d="M231.9,448.1c0,8.8,7.2,16,16.1,16l16,0c8.8,0,16-7.2,16-16l0-8l-24.1-24l-24,24.1L231.9,448.1z"/>
<g>
	<circle class="st0" cx="278.9" cy="287.8" r="15"/>
	<path class="st0" d="M137.9,246.6h-17.8c-4.6,0-8.4-3.8-8.4-8.4V176c0-4.6,3.8-8.4,8.4-8.4h17.8c2.3,0,4.2,1.9,4.2,4.2v70.6
		C142.1,244.8,140.2,246.6,137.9,246.6z"/>
	<path class="st0" d="M371.3,247.6h18.3c4.6,0,8.4-3.8,8.4-8.4V177c0-4.6-3.8-8.4-8.4-8.4h-18.3c-2.3,0-4.2,1.9-4.2,4.2v70.6
		C367.1,245.8,369,247.6,371.3,247.6z"/>
</g>
<g>
	<path d="M495.8,462.7c0-17.1-5.5-34.5-15.3-48.9c-10.8-15.7-25.7-26.6-43.3-31.5c-0.2,0-0.3-0.1-0.5-0.1L372.5,369l-17.4-26.2
		c-0.1-0.1-0.2-0.2-0.3-0.4c-2.9-3.9-7.6-6.2-12.4-6.2c-3.6,0-7.1,1.3-9.8,3.5c0,0-0.1,0.1-0.1,0.1l-76.6,66.2L179,340.2
		c0,0-0.1-0.1-0.1-0.1c-2.8-2.3-6.2-3.5-9.8-3.5c-4.9,0-9.5,2.3-12.4,6.2c-0.1,0.1-0.2,0.2-0.3,0.4l-17.3,26.3L75,383
		c-0.2,0-0.3,0.1-0.5,0.1C57,388.1,42,399,31.3,414.7c-9.8,14.4-15.2,31.8-15.1,48.9l0,19.9c0,7.8,3.4,15.1,9.6,20.5
		c5.9,5.1,13.7,8,21.9,8h0.1l184.2-0.3c0,0,0,0,0,0c0,0,0,0,0,0l48-0.1c0,0,0,0,0,0c0,0,0,0,0,0l184.2-0.3c8.2,0,16-2.9,21.9-8.1
		c6.2-5.4,9.6-12.7,9.6-20.5L495.8,462.7z M342.2,351.3c0.1-0.1,0.4-0.1,0.6,0l16,24.2l-55.7,76.9l-17.8-17.8l0,0l-18.3-18.3
		L342.2,351.3z M168.7,351.7c0.2-0.2,0.5-0.1,0.6,0l75.5,64.8l-36.1,36.2l-56-76.7L168.7,351.7z M476.3,491.9
		c-3.2,2.8-7.4,4.3-12,4.3L47.8,497c-4.6,0-8.9-1.5-12.1-4.3c-2.9-2.5-4.5-5.8-4.5-9.2l0-19.9c0-26.1,16.1-57.1,47.2-66l62.1-13.1
		l61.4,84.1c1.3,1.8,3.3,2.9,5.5,3.1c0.2,0,0.4,0,0.6,0c2,0,3.9-0.8,5.3-2.2l42.7-42.8l42.8,42.7c1.4,1.4,3.3,2.2,5.3,2.2
		c0.2,0,0.4,0,0.6,0c2.2-0.2,4.2-1.3,5.5-3.1l61.1-84.3l62.1,12.9c31.1,8.8,47.4,39.7,47.4,65.8l0,19.9
		C480.8,486.1,479.2,489.3,476.3,491.9z"/>
	<path d="M119.9,254.3l0.2,97.9c0,4.1,3.4,7.5,7.5,7.5c0,0,0,0,0,0c4.1,0,7.5-3.4,7.5-7.5l-0.2-96.6l8.2,0
		c6,18.8,15.3,36.5,27.4,51.5c23.2,28.6,53.4,44.4,85.1,44.4c0.1,0,0.1,0,0.2,0c24.6,0,48.4-9.7,68.9-27.8c0.1-0.1,0.3-0.3,0.4-0.4
		c1.3,0.1,2.6,0.1,3.9,0.1c9.3,0,18.8-2.2,28-6.7c30-14.6,50.2-48.8,50.1-85.2l-0.1-48.1c0-6.3-2.5-12.2-6.9-16.6
		c-4.5-4.4-10.3-6.9-16.6-6.9c0,0,0,0,0,0l-3.9,0c17.8-67.9,9.7-123.6,2.5-139.7c0,0,0,0,0-0.1c-0.1-0.1-0.1-0.3-0.2-0.4
		c0-0.1-0.1-0.2-0.1-0.2c-0.1-0.1-0.2-0.2-0.2-0.4c-0.1-0.1-0.1-0.2-0.2-0.3c-0.1-0.1-0.1-0.2-0.2-0.3c-0.1-0.1-0.2-0.2-0.2-0.3
		c-0.1-0.1-0.1-0.1-0.2-0.2c-0.1-0.1-0.2-0.2-0.3-0.3c-0.1-0.1-0.1-0.1-0.2-0.2c-0.1-0.1-0.2-0.2-0.3-0.3c-0.1-0.1-0.2-0.1-0.3-0.2
		c-0.1-0.1-0.2-0.1-0.3-0.2c-0.1-0.1-0.2-0.1-0.3-0.2c-0.1,0-0.2-0.1-0.3-0.1c-0.1-0.1-0.3-0.1-0.4-0.2c-0.1,0-0.1-0.1-0.2-0.1
		c-0.2-0.1-0.3-0.1-0.5-0.2c-0.1,0-0.1,0-0.2-0.1c-0.2,0-0.3-0.1-0.5-0.1c-0.1,0-0.2,0-0.3-0.1c-0.1,0-0.3,0-0.4-0.1
		c-0.1,0-0.2,0-0.3,0c-0.1,0-0.2,0-0.3,0c-0.1,0-0.3,0-0.4,0c-0.1,0-0.2,0-0.3,0c-0.2,0-0.3,0-0.5,0c0,0,0,0-0.1,0
		c-20.2,2.9-44.5-1.9-70.3-7.1c-43.2-8.6-87.8-17.4-122.4,7.5c-0.6-0.1-1.1-0.2-1.7-0.2c0,0,0,0,0,0c-18,0-33.8,7.8-44.7,21.8
		c-10,12.9-15.5,30.6-15.4,49.9c0,19.8,5.1,49.9,9.6,72.6l-1.9,0c-6.3,0-12.2,2.5-16.6,6.9c-4.4,4.5-6.9,10.4-6.9,16.6l0.1,48.1
		C103.9,242.4,110.6,251.2,119.9,254.3z M350.6,303.2c-17.2,8.4-34.8,6.6-49.8-5c1.6-3.2,2.4-6.8,2.4-10.4
		c0-12.9-10.6-23.5-23.6-23.5c-6.3,0-12.2,2.5-16.6,6.9s-6.9,10.4-6.9,16.6c0,12.9,10.6,23.5,23.5,23.5c0,0,0,0,0,0
		c3.7,0,7.3-0.9,10.5-2.5c0.3,0.3,0.6,0.6,0.9,0.8c4.9,3.9,10.2,7,15.6,9.2c-15.7,11.4-33.1,17.5-50.9,17.5c-0.1,0-0.1,0-0.1,0
		c-27,0-53.1-13.8-73.4-38.8c-20-24.7-31.6-57.5-31.6-89.9l0-9.1c-0.1-28.8,16.3-67.8,21.7-79.8c96.7-11.6,160.9,16.2,173.3,22.2
		l14.6,34.6l0.1,31.8c0,26.6-7.6,53.7-21.6,76.4c-2.2,3.5-1.1,8.2,2.4,10.3c1.2,0.8,2.6,1.1,3.9,1.1c2.5,0,5-1.3,6.4-3.6
		c7-11.3,12.5-23.7,16.5-36.5l15.7,0c1.8,0,3.5-0.2,5.2-0.6C382.9,275.8,368.8,294.3,350.6,303.2z M271.2,287.8c0-2.3,0.9-4.4,2.5-6
		c1.6-1.6,3.7-2.5,6-2.5c4.7,0,8.5,3.8,8.5,8.5c0,2.3-0.9,4.4-2.5,6c-1.6,1.6-3.7,2.5-6,2.5l0,7.5v-7.5
		C275,296.3,271.2,292.5,271.2,287.8z M383.6,175C383.6,175,383.6,175,383.6,175c2.3,0,4.4,0.9,6,2.5c1.6,1.6,2.5,3.7,2.5,6
		l0.1,48.1c0,2.3-0.9,4.4-2.5,6s-3.7,2.5-6,2.5l-11.8,0c2.3-10.8,3.4-21.8,3.4-32.8l-0.1-32.2c0-0.1,0-0.1,0-0.1L383.6,175z
		 M146.9,47.2c8.1-10.4,19.4-16,32.9-16c0.8,0,1.5-0.1,2.2-0.3c2.2,0.7,4.7,0.3,6.7-1.2c29.5-22.5,71.6-14.2,112.2-6.1
		c21.2,4.2,41.4,8.2,60.1,8.2c3.1,0,6.2-0.1,9.2-0.4c5.1,17.7,10,63.5-3.8,120l-7.9-18.8c-0.7-1.6-1.8-2.8-3.3-3.7
		c-3-1.6-73.6-39.6-188.9-24.5c0,0,0,0-0.1,0c-0.1,0-0.3,0.1-0.4,0.1c-0.1,0-0.2,0-0.3,0.1c-0.1,0-0.2,0.1-0.3,0.1
		c-0.9,0.2-1.6,0.6-2.3,1.1c0,0,0,0,0,0c-0.1,0-0.1,0.1-0.2,0.1c-0.5,0.4-1,0.8-1.4,1.3c0,0,0,0,0,0c-0.1,0.1-0.2,0.2-0.2,0.3
		c-0.1,0.1-0.1,0.2-0.2,0.3c0,0.1-0.1,0.2-0.1,0.2c-0.1,0.1-0.2,0.3-0.2,0.4c0,0,0,0,0,0c-0.6,1.3-10.1,21.3-17.2,45.3
		c-4.1-21.5-8.6-48.5-8.6-66C134.6,71.8,139,57.4,146.9,47.2z M121.3,178c1.6-1.6,3.7-2.5,6-2.5l5,0c1.6,7.4,2.8,12.8,3.3,14.9
		l0,17.4c0,11,1.2,22,3.6,32.8l-11.8,0c0,0,0,0,0,0c-4.7,0-8.5-3.8-8.5-8.5l-0.1-48.1C118.8,181.7,119.7,179.6,121.3,178z"/>
</g>
</svg>
