<?xml version="1.0" encoding="utf-8"?>
<!-- Generator: Adobe Illustrator 25.2.1, SVG Export Plug-In . SVG Version: 6.00 Build 0)  -->
<svg version="1.1" id="Capa_1" xmlns="http://www.w3.org/2000/svg" xmlns:xlink="http://www.w3.org/1999/xlink" x="0px" y="0px"
	 viewBox="0 0 512 512" style="enable-background:new 0 0 512 512;" xml:space="preserve">
<style type="text/css">
	.st0{fill:#DFDFDF;}
	.st1{fill:#FFFFFF;}
	.st2{fill:#737373;}
	.st3{fill:#979BA0;}
</style>
<circle class="st0" cx="179" cy="170.5" r="162.5"/>
<circle class="st1" cx="179" cy="170.5" r="136.8"/>
<circle class="st2" cx="179" cy="170.5" r="42.8"/>
<path class="st1" d="M427,144.8H256c-9.4,0-17.1,7.7-17.1,17.1v324.9c0,9.4,7.7,17.1,17.1,17.1h222.3c9.4,0,17.1-7.7,17.1-17.1
	V213.2L427,144.8z"/>
<path class="st0" d="M427,144.8v51.3c0,9.4,7.7,17.1,17.1,17.1h51.3L427,144.8z"/>
<circle class="st2" cx="179" cy="170.5" r="17.1"/>
<g>
	<path class="st0" d="M452.7,324.9h-77c-4.4,0-8,3.6-8,8c0,4.4,3.6,8,8,8h77c4.4,0,8-3.6,8-8S457.1,324.9,452.7,324.9z"/>
	<path class="st0" d="M375.7,375.2h59.9c4.4,0,8-3.6,8-8c0-4.4-3.6-8-8-8h-59.9c-4.4,0-8,3.6-8,8
		C367.7,371.6,371.3,375.2,375.7,375.2z"/>
</g>
<path class="st2" d="M335.8,327.3l-28.5,28.5l-20-20c-3.1-3.1-8.2-3.1-11.3,0c-3.1,3.1-3.1,8.2,0,11.3l25.7,25.7
	c1.6,1.6,3.6,2.3,5.7,2.3s4.1-0.8,5.7-2.3l34.2-34.2c3.1-3.1,3.1-8.2,0-11.3C344,324.2,339,324.2,335.8,327.3z"/>
<g>
	<path class="st0" d="M452.7,239.4h-77c-4.4,0-8,3.6-8,8s3.6,8,8,8h77c4.4,0,8-3.6,8-8S457.1,239.4,452.7,239.4z"/>
	<path class="st0" d="M375.7,289.7h59.9c4.4,0,8-3.6,8-8c0-4.4-3.6-8-8-8h-59.9c-4.4,0-8,3.6-8,8
		C367.7,286.1,371.3,289.7,375.7,289.7z"/>
</g>
<path class="st2" d="M335.8,241.8l-28.5,28.5l-20-20c-3.1-3.1-8.2-3.1-11.3,0c-3.1,3.1-3.1,8.2,0,11.3l25.7,25.7
	c1.6,1.6,3.6,2.3,5.7,2.3s4.1-0.8,5.7-2.3l34.2-34.2c3.1-3.1,3.1-8.2,0-11.3C344,238.6,339,238.6,335.8,241.8z"/>
<g>
	<path class="st0" d="M452.7,410.5h-77c-4.4,0-8,3.6-8,8c0,4.4,3.6,8,8,8h77c4.4,0,8-3.6,8-8C460.7,414,457.1,410.5,452.7,410.5z"/>
	<path class="st0" d="M435.6,444.7h-59.9c-4.4,0-8,3.6-8,8c0,4.4,3.6,8,8,8h59.9c4.4,0,8-3.6,8-8C443.6,448.2,440,444.7,435.6,444.7
		z"/>
</g>
<path class="st2" d="M335.8,412.8l-28.5,28.5l-20-20c-3.1-3.1-8.2-3.1-11.3,0c-3.1,3.1-3.1,8.2,0,11.3l25.7,25.7
	c1.6,1.6,3.6,2.3,5.7,2.3s4.1-0.8,5.7-2.3l34.2-34.2c3.1-3.1,3.1-8.2,0-11.3C344,409.7,339,409.7,335.8,412.8z"/>
<g>
	<path class="st3" d="M201.8,159.1l59.9-59.9c3.1-3.1,3.1-8.2,0-11.3s-8.2-3.1-11.3,0l-59.9,59.9c-0.1,0.1-0.2,0.2-0.3,0.3
		c-3.4-1.7-7.2-2.6-11.2-2.6c-4,0-7.8,0.9-11.2,2.6l-51.6-51.6c-3.1-3.1-8.2-3.1-11.3,0c-3.1,3.1-3.1,8.2,0,11.3l51.6,51.6
		c-1.7,3.4-2.6,7.2-2.6,11.2c0,13.9,11.3,25.1,25.1,25.1s25.1-11.3,25.1-25.1c0-4-1-7.8-2.6-11.2
		C201.6,159.2,201.7,159.1,201.8,159.1z M179,179.6c-5,0-9.1-4.1-9.1-9.1s4.1-9.1,9.1-9.1s9.1,4.1,9.1,9.1S184.1,179.6,179,179.6z"
		/>
	<path class="st3" d="M179,67.3c4.4,0,8-3.6,8-8V42.2c0-4.4-3.6-8-8-8s-8,3.6-8,8v17.1C171,63.8,174.6,67.3,179,67.3z"/>
	<path class="st3" d="M179,273.6c-4.4,0-8,3.6-8,8v17.1c0,4.4,3.6,8,8,8s8-3.6,8-8v-17.1C187.1,277.2,183.5,273.6,179,273.6z"/>
	<path class="st3" d="M75.9,170.5c0-4.4-3.6-8-8-8H50.8c-4.4,0-8,3.6-8,8s3.6,8,8,8h17.1C72.3,178.5,75.9,174.9,75.9,170.5z"/>
	<path class="st3" d="M86.8,108L72,99.4c-3.8-2.2-8.7-0.9-11,2.9s-0.9,8.7,2.9,11l14.8,8.6c1.3,0.7,2.6,1.1,4,1.1
		c2.8,0,5.5-1.4,6.9-4C91.9,115.1,90.6,110.2,86.8,108z"/>
	<path class="st3" d="M230.6,81.2c1.3,0.7,2.6,1.1,4,1.1c2.8,0,5.5-1.4,6.9-4l8.6-14.8c2.2-3.8,0.9-8.7-2.9-11
		c-3.8-2.2-8.7-0.9-11,2.9l-8.6,14.8C225.5,74,226.8,78.9,230.6,81.2z"/>
	<path class="st3" d="M127.5,259.8c-3.8-2.2-8.7-0.9-11,2.9l-8.6,14.8c-2.2,3.8-0.9,8.7,2.9,11c1.3,0.7,2.6,1.1,4,1.1
		c2.8,0,5.5-1.4,6.9-4l8.6-14.8C132.6,266.9,131.3,262,127.5,259.8z"/>
	<path class="st3" d="M275.3,122.9c1.4,0,2.7-0.3,4-1.1l14.8-8.6c3.8-2.2,5.1-7.1,2.9-11c-2.2-3.8-7.1-5.1-11-2.9l-14.8,8.6
		c-3.8,2.2-5.1,7.1-2.9,11C269.9,121.5,272.5,122.9,275.3,122.9z"/>
	<path class="st3" d="M78.8,219.1L64,227.7c-3.8,2.2-5.1,7.1-2.9,11c1.5,2.6,4.2,4,6.9,4c1.4,0,2.7-0.3,4-1.1l14.8-8.6
		c3.8-2.2,5.1-7.1,2.9-11C87.5,218.2,82.6,216.9,78.8,219.1z"/>
	<path class="st3" d="M116.5,78.2c1.5,2.6,4.2,4,6.9,4c1.4,0,2.7-0.3,4-1.1c3.8-2.2,5.1-7.1,2.9-11l-8.6-14.8
		c-2.2-3.8-7.1-5.1-11-2.9c-3.8,2.2-5.1,7.1-2.9,11L116.5,78.2z"/>
</g>
<path d="M501.1,207.6l-68.4-68.4c-1.5-1.5-3.5-2.3-5.7-2.3h-80.8c-7.4-37-27.1-70.7-55.9-95.5C259.4,14.7,219.9,0,179,0
	C85,0,8.6,76.5,8.6,170.5S85,341,179,341c17.8,0,35.1-2.7,51.8-8v153.9c0,13.8,11.3,25.1,25.1,25.1h222.3
	c13.9,0,25.1-11.3,25.1-25.1V213.2C503.4,211.1,502.6,209.1,501.1,207.6z M435,164.2l41,41h-32c-5,0-9.1-4.1-9.1-9.1V164.2z
	 M179,324.9c-85.2,0-154.5-69.3-154.5-154.5S93.9,16,179,16c37,0,72.8,13.3,100.8,37.4c25.3,21.8,42.8,51.1,50,83.4H256
	c-13.9,0-25.1,11.3-25.1,25.1V316C214.3,321.9,196.9,324.9,179,324.9z M478.3,496H256c-5,0-9.1-4.1-9.1-9.1V161.9
	c0-5,4.1-9.1,9.1-9.1h163v43.3c0,13.9,11.3,25.1,25.1,25.1h43.3v265.6C487.4,491.9,483.3,496,478.3,496z"/>
<path class="st0" d="M281.7,204.2h111.2c4.4,0,8-3.6,8-8s-3.6-8-8-8H281.7c-4.4,0-8,3.6-8,8S277.2,204.2,281.7,204.2z"/>
</svg>
