<?xml version="1.0" encoding="utf-8"?>
<!-- Generator: Adobe Illustrator 25.2.1, SVG Export Plug-In . SVG Version: 6.00 Build 0)  -->
<svg version="1.1" id="Capa_1" xmlns="http://www.w3.org/2000/svg" xmlns:xlink="http://www.w3.org/1999/xlink" x="0px" y="0px"
	 viewBox="0 0 512 512" style="enable-background:new 0 0 512 512;" xml:space="preserve">
<style type="text/css">
	.st0{fill:#DFDFDF;}
	.st1{fill:#FFFFFF;}
	.st2{fill:#737373;}
</style>
<path class="st0" d="M376.1,278.5c-9.9,52.8-52.6,91.3-103,98.5c-12.8,1.8-26.1,1.6-39.5-0.9c-66.2-12.4-110-76.4-97.6-142.6
	c12.1-64.4,72.9-107.6,137.1-98.5c1.8,0.3,3.6,0.6,5.4,0.9C344.7,148.3,388.5,212.3,376.1,278.5z"/>
<path class="st1" d="M376.1,278.5c-9.9,52.8-52.6,91.3-103,98.5c-1.8-0.3-3.6-0.6-5.4-0.9c-66.2-12.4-110-76.4-97.6-142.6
	c9.9-52.8,52.6-91.3,103-98.5c1.8,0.3,3.6,0.6,5.4,0.9C344.7,148.3,388.5,212.3,376.1,278.5z"/>
<g>
	<path class="st0" d="M287.4,39c0,10.1-4.9,19.1-12.4,24.8c-5.2,3.9-11.6,6.2-18.6,6.2c-17.1,0-31-13.9-31-31c0-17.1,13.9-31,31-31
		c7,0,13.4,2.3,18.6,6.2C282.5,19.9,287.4,28.9,287.4,39z"/>
	<path class="st0" d="M287.4,473c0,10.1-4.9,19.1-12.4,24.8c-5.2,3.9-11.6,6.2-18.6,6.2c-17.1,0-31-13.9-31-31c0-17.1,13.9-31,31-31
		c7,0,13.4,2.3,18.6,6.2C282.5,453.9,287.4,462.9,287.4,473z"/>
	<path class="st0" d="M82.4,254.5c0,10.1-4.9,19.1-12.4,24.8c-5.2,3.9-11.6,6.2-18.6,6.2c-17.1,0-31-13.9-31-31
		c0-17.1,13.9-31,31-31c7,0,13.4,2.3,18.6,6.2C77.5,235.4,82.4,244.4,82.4,254.5z"/>
	<path class="st0" d="M482.2,276.8c-1,0.9-2,1.8-3,2.6c-12.3,9.2-29.8,8.1-40.8-3.2c-11.9-12.3-11.6-31.9,0.7-43.8
		c11.1-10.8,28.1-11.6,40.1-2.6c1.3,1,2.5,2,3.7,3.2C494.7,245.2,494.4,264.8,482.2,276.8z"/>
	<path class="st0" d="M128.5,125.9c-1.1,1.1-2.2,2-3.3,2.9c-12.1,9.1-29.4,8.1-40.4-2.9c-12.1-12.1-12.1-31.7,0-43.8
		c11-11,28.3-12,40.4-2.9c1.2,0.9,2.3,1.8,3.3,2.9C140.6,94.2,140.6,113.8,128.5,125.9z"/>
	<path class="st0" d="M430.1,426.5c-1.1,1.1-2.2,2-3.3,2.9c-12.1,9.1-29.4,8.1-40.4-2.9c-12.1-12.1-12.1-31.7,0-43.8
		c11-11,28.3-12,40.4-2.9c1.2,0.9,2.3,1.8,3.3,2.9C442.2,394.8,442.2,414.4,430.1,426.5z"/>
	<path class="st0" d="M429.6,125.4c-1.1,1.1-2.2,2-3.3,2.9c-12.1,9.1-29.4,8.1-40.4-2.9c-12.1-12.1-12.1-31.7,0-43.8
		c11-11,28.3-12,40.4-2.9c1.2,0.9,2.3,1.8,3.3,2.9C441.7,93.7,441.7,113.3,429.6,125.4z"/>
	<path class="st0" d="M129.1,427c-1.1,1.1-2.2,2-3.3,2.9c-12.1,9.1-29.4,8.2-40.4-2.9c-12.1-12.1-12.1-31.7,0-43.8
		c11-11,28.3-12,40.4-2.9c1.2,0.9,2.3,1.8,3.3,2.9C141.1,395.3,141.1,414.9,129.1,427z"/>
</g>
<g>
	<path class="st1" d="M287.4,39c0,10.1-4.9,19.1-12.4,24.8c-7.5-5.6-12.4-14.6-12.4-24.8c0-10.1,4.9-19.1,12.4-24.8
		C282.5,19.9,287.4,28.9,287.4,39z"/>
	<path class="st1" d="M287.4,473c0,10.1-4.9,19.1-12.4,24.8c-7.5-5.6-12.4-14.6-12.4-24.8c0-10.1,4.9-19.1,12.4-24.8
		C282.5,453.9,287.4,462.9,287.4,473z"/>
	<path class="st1" d="M82.4,254.5c0,10.1-4.9,19.1-12.4,24.8c-7.5-5.6-12.4-14.6-12.4-24.8c0-10.1,4.9-19.1,12.4-24.8
		C77.5,235.4,82.4,244.4,82.4,254.5z"/>
	<path class="st1" d="M482.2,276.8c-1,0.9-2,1.8-3,2.6c-1.3-1-2.5-2-3.6-3.2c-11.9-12.3-11.6-31.9,0.7-43.8c1-0.9,2-1.8,3-2.6
		c1.3,1,2.5,2,3.7,3.2C494.7,245.2,494.4,264.8,482.2,276.8z"/>
	<path class="st1" d="M128.5,125.9c-1.1,1.1-2.2,2-3.3,2.9c-1.2-0.9-2.3-1.8-3.3-2.9c-12.1-12.1-12.1-31.7,0-43.8
		c1.1-1.1,2.2-2,3.3-2.9c1.2,0.9,2.3,1.8,3.3,2.9C140.6,94.2,140.6,113.8,128.5,125.9z"/>
	<path class="st1" d="M430.1,426.5c-1.1,1.1-2.2,2-3.3,2.9c-1.2-0.9-2.3-1.8-3.3-2.9c-12.1-12.1-12.1-31.7,0-43.8
		c1.1-1.1,2.2-2,3.3-2.9c1.2,0.9,2.3,1.8,3.3,2.9C442.2,394.8,442.2,414.4,430.1,426.5z"/>
	<path class="st1" d="M429.6,125.4c-1.1,1.1-2.2,2-3.3,2.9c-1.2-0.9-2.3-1.8-3.3-2.9c-12.1-12.1-12.1-31.7,0-43.8
		c1.1-1.1,2.2-2,3.3-2.9c1.2,0.9,2.3,1.8,3.3,2.9C441.7,93.7,441.7,113.3,429.6,125.4z"/>
	<path class="st1" d="M129.1,427c-1.1,1.1-2.2,2-3.3,2.9c-1.2-0.9-2.3-1.8-3.3-2.9c-12.1-12.1-12.1-31.7,0-43.8
		c1.1-1.1,2.2-2,3.3-2.9c1.2,0.9,2.3,1.8,3.3,2.9C141.1,395.3,141.1,414.9,129.1,427z"/>
</g>
<path d="M461.2,215.6c-19.1-0.3-35,13.1-38.7,31h-36.6c-2.1-29.2-14-56.1-32.6-77l33.2-33.2c6.4,4.2,13.8,6.2,21.2,6.2
	c34.5,0,52.2-41.9,27.6-66.5c-15.2-15.2-39.9-15.2-55.1,0c-13.3,13.3-15,33.9-5,49l-33.2,33.2c-22.1-19.5-49.6-30.3-77.5-32.1v-49
	c17.7-3.7,30.9-19.4,30.9-38.1c0-21.5-17.5-39-39-39s-39,17.5-39,39c0,18.8,13.3,34.4,31,38.2V126c-28.6,1.7-55.6,12.7-77.1,31.1
	l-31.9-31.9c9.6-14.8,8.3-35.3-5.2-48.7c-15.2-15.2-39.9-15.2-55.1,0c-24.6,24.6-6.9,66.5,27.6,66.5c7.5,0,15-2.1,21.4-6.4
	l31.7,31.7c-4.1,4.5-8,9.4-11.5,14.5c-2.5,3.7-1.6,8.6,2.1,11.1c3.7,2.5,8.6,1.5,11.1-2.1c42.5-62.4,131.7-66.8,180.3-11.1
	c44,50.2,35.5,126.9-17.7,166.6c-3.6,2.6-4.3,7.7-1.6,11.2c2.7,3.6,7.7,4.3,11.2,1.6c3.6-2.6,6.9-5.5,10.2-8.4l31.5,31.5
	c-9.8,15.1-8.1,35.5,5.2,48.7v0c15.2,15.2,39.9,15.2,55.1,0c15.2-15.2,15.2-39.9,0-55.1c-13.3-13.3-33.9-15-49-5l-31.6-31.6
	c19-22.3,29.5-49.8,30.9-77.8h36.4c1.5,7,4.8,13.6,10.2,19.1c0,0,0,0,0,0c7.6,7.9,17.8,11.8,28,11.8c9.8,0,19.6-3.7,27.2-11
	C512.5,258.5,495.8,216.1,461.2,215.6z M407.7,80.6c20.4,0,30.6,24.8,16.2,39.1c-8.9,8.9-23.5,8.9-32.4,0
	C377,105.2,387.4,80.6,407.7,80.6z M122.8,120.3c-8.9,8.9-23.5,8.9-32.4,0c-8.9-8.9-8.9-23.5,0-32.4c9-9,23.5-9,32.4,0c0,0,0,0,0,0
	c4.3,4.3,6.7,10.1,6.7,16.2C129.6,110.2,127.2,115.9,122.8,120.3z M256.3,61.9c-12.6,0-22.9-10.3-22.9-22.9
	c0-12.6,10.3-22.9,22.9-22.9c12.6,0,22.9,10.3,22.9,22.9c0,12.6-10.3,22.9-22.9,22.9C256.3,61.9,256.4,61.9,256.3,61.9z M392,388.3
	c8.9-8.9,23.5-8.9,32.4,0c8.9,8.9,8.9,23.5,0,32.4c-8.9,8.9-23.5,8.9-32.4,0v0C383.1,411.8,383.1,397.3,392,388.3z M476.6,271
	c-9.1,8.8-23.6,8.6-32.4-0.5c-14.2-14.6-3.6-39.2,16.8-38.9c6.1,0.1,11.9,2.6,16.1,7C485.9,247.6,485.6,262.2,476.6,271z"/>
<path class="st2" d="M335.2,217.6c-34.3-70.4-137.4-64.3-162.6,10.5c-3,9-4.6,18.4-4.6,28c0,4.4,0.3,9.1,1.1,13.7
	c0.7,4.4,4.8,7.4,9.2,6.7c4.4-0.7,7.4-4.8,6.7-9.2c-0.3-1.6-0.4-3.2-0.6-4.8h20.2c0.6,10.4,2.7,20.6,6.1,30.1
	c-4,2.2-7.8,4.7-11.5,7.4c-1.8-2.4-3.5-4.8-5-7.4c-2.2-3.8-7.2-5.1-11-2.8c-3.8,2.2-5.1,7.2-2.8,11c37.8,64.1,135.1,55.7,159.2-16.9
	C346.5,262.8,345.6,239.1,335.2,217.6z M204.7,246.5h-20c1.6-12.2,6.4-24.2,14.5-34.5c3.6,2.7,7.4,5.2,11.4,7.3
	C207.5,228,205.5,237.1,204.7,246.5z M210.5,200.4c4.7-3.8,10-7.2,15.7-9.8c-3.4,4.4-6.5,9-9.1,14
	C214.8,203.3,212.6,201.9,210.5,200.4z M210.4,311.7c2.2-1.5,4.4-3,6.7-4.3c2.7,5,5.9,9.8,9.4,14.3
	C223.3,320.4,216.5,316.7,210.4,311.7z M248,321.3c-6.5-5.9-11.9-12.8-16.1-20.3c5.2-1.7,10.6-2.8,16.1-3.4V321.3z M248,281.4
	c-7.8,0.7-15.4,2.3-22.7,4.8c-2.6-7.5-4.1-15.4-4.7-23.6H248L248,281.4L248,281.4z M248,246.5h-27.1c0.7-7.2,2.2-14.1,4.4-20.7
	c7.3,2.5,14.9,4.1,22.7,4.8L248,246.5L248,246.5z M248,214.4c-5.5-0.6-10.9-1.7-16.2-3.4c4.2-7.5,9.6-14.4,16.2-20.4V214.4z
	 M320.7,224.7c3.4,7,5.6,14.3,6.6,21.9h-20.1c-0.8-9.4-2.8-18.6-5.8-27.2c4-2.2,7.8-4.6,11.4-7.3
	C315.9,215.9,318.5,220.1,320.7,224.7z M301.5,200.4c-2.1,1.5-4.3,2.9-6.6,4.2c-2.7-4.9-5.7-9.6-9.1-14
	C291.9,193.3,297.8,197.2,301.5,200.4z M264,190.7c6.6,5.9,12,12.9,16.2,20.3c-5.2,1.7-10.6,2.8-16.2,3.4V190.7z M264,230.6
	c7.8-0.7,15.4-2.3,22.7-4.8c2.2,6.6,3.7,13.6,4.4,20.7H264L264,230.6L264,230.6z M264,262.6h27.4c-0.6,8.2-2.1,16.1-4.7,23.6
	c-7.3-2.5-14.9-4.1-22.7-4.8L264,262.6L264,262.6z M264,321.3v-23.7c5.5,0.6,10.9,1.7,16.1,3.4C275.9,308.4,270.6,315.3,264,321.3z
	 M289.2,319.9C289.2,319.9,289.2,319.9,289.2,319.9c-1.3,0.7-2.4,1.2-3.6,1.8c0,0,0,0-0.1,0c3.5-4.5,6.7-9.2,9.4-14.3
	c2.3,1.3,4.6,2.7,6.8,4.3C301.4,311.9,296,316.4,289.2,319.9z M312.9,300.1c-3.7-2.8-7.5-5.2-11.5-7.4c3.4-9.5,5.4-19.7,6.1-30.1
	h20.2C326.5,275.7,321.6,288.8,312.9,300.1z"/>
<path d="M299.9,361.3c-82.1,34.4-172.9-35.8-156-126.4c1.2-6.2,2.8-12.3,5-18.1c1.5-4.2-0.6-8.8-4.8-10.3c-4.2-1.5-8.8,0.6-10.3,4.8
	c-4.2,11.4-6.7,23.3-7.5,35.2H89.6c-3.7-17.7-19.4-31-38.2-31c-21.5,0-39,17.5-39,39s17.5,39,39,39c18.7,0,34.4-13.3,38.2-31H126
	c1.5,30.2,13.4,58.1,32.5,79.7l-30.1,30.1c-15.2-9.8-35.6-8-48.7,5.2c-15.2,15.2-15.2,39.9,0,55.1c15.2,15.2,39.9,15.2,55.1,0
	c7.4-7.4,11.4-17.2,11.4-27.6c0-7.7-2.2-15.1-6.4-21.4l0,0l30.1-30.1l0,0c22.2,19.6,50,30.8,78.5,32.4v48.9
	c-17.7,3.7-31,19.4-31,38.1c0,21.5,17.5,39,39,39s39-17.5,39-39c0-18.7-13.3-34.4-31-38.2v-48.9c14.3-0.9,28.3-4.2,41.6-9.8
	c4.1-1.7,6-6.4,4.3-10.5C308.7,361.6,303.9,359.6,299.9,361.3z M51.4,277.5c-12.6,0-22.9-10.3-22.9-22.9c0-12.6,10.3-22.9,22.9-22.9
	c12.6,0,22.9,10.3,22.9,22.9C74.4,267.2,64.1,277.5,51.4,277.5z M107.2,428c-12.6,0-22.9-10.1-22.9-22.9c0-6.3,2.5-12,6.7-16.2
	c8.9-8.9,23.5-8.9,32.4,0c4.3,4.3,6.7,10.1,6.7,16.2C130.1,417.9,119.7,428,107.2,428z M279.3,473c0,12.6-10.3,22.9-22.9,22.9
	c-12.6,0-22.9-10.3-22.9-22.9c0-12.6,10.3-22.9,22.9-22.9c0,0,0,0,0.1,0C269.1,450.1,279.3,460.4,279.3,473z"/>
</svg>
