<?xml version="1.0" encoding="utf-8"?>
<!-- Generator: Adobe Illustrator 25.2.1, SVG Export Plug-In . SVG Version: 6.00 Build 0)  -->
<svg version="1.1" id="Capa_1" xmlns="http://www.w3.org/2000/svg" xmlns:xlink="http://www.w3.org/1999/xlink" x="0px" y="0px"
	 viewBox="0 0 512 512" style="enable-background:new 0 0 512 512;" xml:space="preserve">
<style type="text/css">
	.st0{fill:#5B5D6E;}
	.st1{fill:#E1EAF8;}
	.st2{fill:#DFDFDF;}
	.st3{fill:#959CB3;}
	.st4{fill:#FFFFFF;}
</style>
<g>
	<path class="st0" d="M215.4,119.8l-0.1-48.1c0-8.9-7.2-16-16.1-16L95.1,55.9c-8.9,0-16,7.2-16,16.1l0.1,32.1c0,8.9,7.2,16,16.1,16
		l64.1-0.1"/>
	<path class="st0" d="M295.6,119.6l-0.1-48.1c0-8.9,7.1-16,16-16.1l104.2-0.2c8.9,0,16,7.1,16.1,16l0.1,32.1c0,8.9-7.1,16-16,16.1
		l-24,0"/>
</g>
<path class="st1" d="M113.6,104L113.6,72c0-8.8,7.1-16,16-16.1l71-0.1c-0.4,0-0.8-0.1-1.3-0.1L95.1,55.9c-8.8,0-16,7.2-16,16.1
	l0.1,32.1c0,8.9,7.2,16,16.1,16l33.2-0.1C120.2,119.3,113.7,112.4,113.6,104z"/>
<path class="st2" d="M215.4,119.8l-0.1-48.1c0-8.4-6.5-15.3-14.8-15.9l-71,0.1c-8.9,0-16,7.2-16,16.1l0.1,32.1
	c0,8.4,6.5,15.3,14.8,15.9l30.9-0.1L215.4,119.8z"/>
<path class="st1" d="M345.9,55.5l71-0.1c-0.4,0-0.8-0.1-1.3-0.1l-104.2,0.2c-8.9,0-16,7.2-16,16.1l0.1,48.1l34.5-0.1l-0.1-48
	C329.9,62.7,337.1,55.5,345.9,55.5z"/>
<path class="st2" d="M415.8,119.4c8.9,0,16-7.2,16-16.1l-0.1-32.1c0-8.4-6.5-15.3-14.8-15.9l-71,0.1c-8.9,0-16,7.2-16,16.1l0.1,48
	l61.7-0.1L415.8,119.4z"/>
<path id="SVGCleanerId_0" class="st3" d="M103.3,120l0.1,39.8l-31.1,0.1c-14.7,0-27.5,10.1-31,24.3L9.9,318.9
	c-1.6,6.4-2.4,12.9-2.4,19.4l0.2,94.3c0,13.3,10.8,24,24.1,24l136.2-0.3c13.3,0,24-10.8,24-24.1l-0.2-104.2l128.2-0.2l0.2,104.2
	c0,13.3,10.8,24,24.1,24l136.2-0.3c13.3,0,24-10.8,24-24.1l-0.2-94.3c0-6.6-0.8-13.1-2.4-19.4L470,183.4
	c-3.6-14.3-16.4-24.2-31.1-24.2l-31.1,0.1l-0.1-39.8"/>
<g>
	<path id="SVGCleanerId_0_1_" class="st3" d="M103.3,120l0.1,39.8l-31.1,0.1c-14.7,0-27.5,10.1-31,24.3L9.9,318.9
		c-1.6,6.4-2.4,12.9-2.4,19.4l0.2,94.3c0,13.3,10.8,24,24.1,24l136.2-0.3c13.3,0,24-10.8,24-24.1l-0.2-104.2l128.2-0.2l0.2,104.2
		c0,13.3,10.8,24,24.1,24l136.2-0.3c13.3,0,24-10.8,24-24.1l-0.2-94.3c0-6.6-0.8-13.1-2.4-19.4L470,183.4
		c-3.6-14.3-16.4-24.2-31.1-24.2l-31.1,0.1l-0.1-39.8"/>
</g>
<rect x="320.1" y="328" transform="matrix(1 -1.899997e-03 1.899997e-03 1 -0.6986 0.6392)" class="st1" width="32" height="80.1"/>
<path class="st1" d="M352.2,432.1l0-24.1l-32,0.1l0,24c0,13.3,10.8,24,24.1,24l30.4-0.1C362.1,455.2,352.2,444.8,352.2,432.1z"/>
<path class="st1" d="M39.5,338.4c0-6.6,0.8-13.1,2.4-19.4l31.3-134.7c3.5-14.3,16.3-24.3,31-24.3l31.1-0.1l-0.1-39.8l272.5-0.5v-0.1
	L103.3,120l0.1,39.8l-31.1,0.1c-14.7,0-27.5,10.1-31,24.3L9.9,318.9c-1.6,6.4-2.4,12.9-2.4,19.4l0.1,70.3l32-0.1L39.5,338.4z"/>
<path class="st1" d="M39.7,432.7l0-24.1l-32,0.1l0,24c0,13.3,10.8,24,24.1,24l30.4-0.1C49.6,455.8,39.7,445.4,39.7,432.7z"/>
<path class="st3" d="M440.7,159.3c-0.3,0-0.6,0-0.9,0v0L440.7,159.3z"/>
<path class="st2" d="M352.2,408l0,24.1c0,12.7,9.9,23.1,22.5,23.9l105.8-0.2c13.3,0,24-10.8,24-24.1l0-24L352.2,408z"/>
<path class="st4" d="M352.2,408l152.3-0.3l-0.1-70.3c0-6.6-0.8-13.1-2.4-19.4L470,183.4c-3.4-13.7-15.4-23.4-29.3-24.2l-0.9,0v0
	c-0.3,0-0.6,0-0.9,0l-31.1,0.1l-0.1-39.8L135.3,120l0.1,39.8l-31.1,0.1c-14.7,0-27.5,10.1-31,24.3L41.9,318.9
	c-1.6,6.4-2.4,12.9-2.4,19.4l0.1,70.2l152.3-0.3l-0.1-80.1l128.2-0.2v0.1l32-0.1L352.2,408z"/>
<path class="st2" d="M39.7,432.7c0,12.7,9.9,23.1,22.5,23.9l105.8-0.2c13.3,0,24-10.8,24-24.1l0-24l-152.3,0.3L39.7,432.7z"/>
<g>
	<rect x="17.5" y="328.2" class="st1" width="174.3" height="15"/>
	<rect x="330" y="328.2" class="st1" width="174.3" height="15"/>
</g>
<rect x="190.8" y="118.8" class="st2" width="129.2" height="209.2"/>
<rect x="190.8" y="118.8" class="st1" width="25.1" height="209.2"/>
<path d="M512,407.7L512,407.7L512,407.7l-0.1-70.3c0-7.1-0.9-14.3-2.6-21.2l-31.8-134.6c0,0,0-0.1,0-0.1
	c-4.4-17.6-20.2-29.9-38.4-29.9c0,0-0.1,0-0.1,0l-23.6,0l0-24.8l0.5,0c6.3,0,12.2-2.5,16.6-6.9c4.4-4.5,6.9-10.4,6.9-16.7l-0.1-32.1
	c0-13-10.6-23.5-23.5-23.5c0,0,0,0,0,0L311.5,48c-13,0-23.5,10.6-23.5,23.6l0.1,40.6l-65.1,0.1l-0.1-40.6c0-6.3-2.5-12.2-6.9-16.6
	c-4.4-4.4-10.3-6.9-16.6-6.9c0,0,0,0,0,0L95.1,48.4c-13,0-23.5,10.6-23.5,23.6l0.1,32.1c0,13,10.6,23.5,23.5,23.5c0,0,0,0,0,0l0.5,0
	l0,24.8l-23.6,0c-18.2,0-33.9,12.4-38.3,30c0,0,0,0.1,0,0.1L2.6,317.2C0.9,324.1,0,331.3,0,338.4l0.1,70.3c0,0,0,0,0,0v0l0,24
	c0,8.4,3.3,16.3,9.3,22.3c6,5.9,13.9,9.2,22.3,9.2c0,0,0,0,0.1,0l136.2-0.3c17.4,0,31.5-14.2,31.5-31.6l0-24v0v0l-0.1-72.6
	l113.2-0.2l0.1,72.6v0c0,0,0,0,0,0l0,24c0,17.4,14.2,31.5,31.6,31.5c0,0,0,0,0.1,0l136.2-0.3c8.4,0,16.3-3.3,22.3-9.3
	s9.2-13.9,9.2-22.3L512,407.7z M496.9,415.2l0,16.5c0,4.4-1.7,8.6-4.8,11.7c-3.1,3.1-7.3,4.9-11.7,4.9l-136.2,0.3c0,0,0,0,0,0
	c-9.1,0-16.5-7.4-16.5-16.5l0-16.5l0-15l-0.1-72.6c0-2-0.8-3.9-2.2-5.3c-1.4-1.4-3.3-2.2-5.3-2.2l-128.2,0.2c-4.1,0-7.5,3.4-7.5,7.5
	l0.1,72.6l0,15l0,16.5c0,9.1-7.4,16.5-16.5,16.6l-136.2,0.3c0,0,0,0,0,0c-4.4,0-8.5-1.7-11.7-4.8c-3.1-3.1-4.9-7.3-4.9-11.7l0-16.5
	l0-15L15,338.4c0-5.9,0.7-11.9,2.1-17.6c0,0,0-0.1,0-0.1L48.5,186c2.7-10.9,12.5-18.6,23.8-18.6l31.1-0.1c2,0,3.9-0.8,5.3-2.2
	c1.4-1.4,2.2-3.3,2.2-5.3l-0.1-32.3l48.6-0.1c4.1,0,7.5-3.4,7.5-7.5c0-4.1-3.4-7.5-7.5-7.5c0,0,0,0,0,0l-56.1,0.1c0,0,0,0,0,0
	c0,0,0,0,0,0c0,0,0,0,0,0l-8,0c0,0,0,0,0,0c-4.7,0-8.5-3.8-8.5-8.5L86.6,72c0-4.7,3.8-8.5,8.5-8.5l104.2-0.2c2.3,0,4.4,0.9,6,2.5
	c1.6,1.6,2.5,3.7,2.5,6l0.1,40.6l-16.5,0c-4.1,0-7.5,3.4-7.5,7.5c0,0,0,0,0,0l0.3,176.3c0,4.1,3.4,7.5,7.5,7.5c0,0,0,0,0,0
	c4.1,0,7.5-3.4,7.5-7.5l-0.3-168.8l16.5,0c0,0,0,0,0,0c0,0,0,0,0,0c0,0,0,0,0,0l96.7-0.2l0.3,168.8c0,4.1,3.4,7.5,7.5,7.5
	c0,0,0,0,0,0c4.1,0,7.5-3.4,7.5-7.5l-0.3-168.8l32.6-0.1c4.1,0,7.5-3.4,7.5-7.5c0-4.1-3.4-7.5-7.5-7.5c0,0,0,0,0,0l-56.6,0.1
	L303,71.6c0-4.7,3.8-8.5,8.5-8.5l104.2-0.2c0,0,0,0,0,0c4.7,0,8.5,3.8,8.5,8.5l0.1,32.1c0,2.3-0.9,4.4-2.5,6c-1.6,1.6-3.7,2.5-6,2.5
	l-8,0c0,0,0,0,0,0c0,0,0,0,0,0c0,0,0,0,0,0l-16,0c-4.1,0-7.5,3.4-7.5,7.5c0,4.2,3.4,7.5,7.5,7.5l8.5,0l0.1,32.3
	c0,4.1,3.4,7.5,7.5,7.5c0,0,0,0,0,0l31.1-0.1c0,0,0,0,0,0c11.2,0,21,7.6,23.8,18.5l31.8,134.5c0,0,0,0.1,0,0.1
	c1.4,5.8,2.2,11.7,2.2,17.6l0.1,62.8L496.9,415.2z"/>
</svg>
