<?xml version="1.0" encoding="utf-8"?>
<!-- Generator: Adobe Illustrator 25.2.1, SVG Export Plug-In . SVG Version: 6.00 Build 0)  -->
<svg version="1.1" id="Capa_1" xmlns="http://www.w3.org/2000/svg" xmlns:xlink="http://www.w3.org/1999/xlink" x="0px" y="0px"
	 viewBox="0 0 512 512" style="enable-background:new 0 0 512 512;" xml:space="preserve">
<style type="text/css">
	.st0{fill:#DFDFDF;}
	.st1{fill:#FFFFFF;}
</style>
<path class="st0" d="M39.7,216.3c0.4,216.4,217,288.2,217,288.2S473,433,472.6,215.5l-0.2-104.1c0-17.7-14.4-32.1-32.1-32l-68.1,0.1
	c-50.2,0.1-93.9-30.8-116.4-72c-22.3,41.2-65.9,72.3-116.1,72.4L71.5,80c-17.7,0-32.1,14.4-32,32.1L39.7,216.3z"/>
<path class="st1" d="M440.5,215.6c0.1,79.5-31.7,146.8-94.7,200c-35.7,30.2-72.1,47.4-89.2,54.6c-17.2-7.2-53.6-24.4-89.5-54.6
	C104,362.4,71.9,295.4,71.7,216.3l-0.2-104.2l68.1-0.1c44.2-0.1,85.8-21,116.1-51.4c30.4,30.3,72.1,51.1,116.3,51l68.1-0.1
	L440.5,215.6z"/>
<path d="M479.8,111.4c0-21.8-17.8-39.5-39.7-39.5l-68,0.1h-0.2C328,72,285,45.3,262.4,3.9C261,1.5,258.5,0,255.7,0l0,0
	c-2.8,0-5.3,1.5-6.6,3.9c-22.5,41.5-65.5,68.4-109.5,68.5l-68.1,0.1c-21.8,0-39.6,17.8-39.5,39.7l0.2,104.1
	c0.1,50.6,11.9,97.7,35,139.9c18.5,33.7,44.2,64.4,76.4,91.1c54.7,45.4,108.5,63.5,110.8,64.3c0.8,0.3,1.6,0.4,2.4,0.4
	c0.8,0,1.6-0.1,2.4-0.4c2.3-0.7,56.1-18.9,110.5-64.3c32.1-26.8,57.7-57.5,76-91.3c23-42.3,34.6-89.6,34.5-140.5L479.8,111.4z
	 M360.3,435.4c-46.1,38.5-92.8,57.1-103.7,61.1c-10.9-4-57.3-22.4-103.5-60.7C83,377.6,47.4,303.7,47.2,216.3L47,112.2
	c0-13.5,11-24.6,24.5-24.6l68.1-0.1c25.3,0,50.4-7.7,72.6-22c17.3-11.2,32.2-26,43.5-43.3c11.4,17.2,26.3,32,43.6,43.1
	C321.5,79.5,346.5,87,371.8,87l68.4-0.1c13.5,0,24.5,11,24.6,24.5l0.2,104.1C465.2,303.2,429.9,377.2,360.3,435.4z"/>
<path d="M331.6,194.5l-88.7,88.7l-62.1-62.1c-9.7-9.7-25.5-9.7-35.3,0c-9.7,9.7-9.7,25.5,0,35.3l79.8,79.8
	c4.9,4.9,11.2,7.3,17.6,7.3s12.8-2.4,17.6-7.3l106.4-106.4c9.7-9.7,9.7-25.5,0-35.3C357.2,184.8,341.4,184.8,331.6,194.5z"/>
</svg>
