<?xml version="1.0" encoding="utf-8"?>
<!-- Generator: Adobe Illustrator 25.2.1, SVG Export Plug-In . SVG Version: 6.00 Build 0)  -->
<svg version="1.1" id="Capa_1" xmlns="http://www.w3.org/2000/svg" xmlns:xlink="http://www.w3.org/1999/xlink" x="0px" y="0px"
	 viewBox="0 0 441.8 444.1" style="enable-background:new 0 0 441.8 444.1;" xml:space="preserve">
<style type="text/css">
	.st0{fill:#FFFFFF;}
	.st1{fill:#737373;}
	.st2{opacity:0.1;enable-background:new    ;}
	.st3{fill:#DFDFDF;}
	.st4{fill:#E4EAF8;}
	.st5{fill:#D81E05;}
	.st6{fill:#969BA1;}
	.st7{fill:#DFDFDE;}
	.st8{opacity:0.1;}
	.st9{fill:#E3E8F5;}
	.st10{fill:#C1C6CE;}
	.st11{fill:#D62327;}
</style>
<g id="Capa_2_1_">
	<g id="Capa_1-2">
		<polygon class="st0" points="406,220.7 417,248 427.1,220.7 		"/>
		<path class="st1" d="M423,65.8h-12.9v-14c0-3.6,2.9-6.5,6.5-6.5l0,0c3.6,0,6.5,2.9,6.5,6.5V65.8z"/>
		<path class="st1" d="M427.1,65.6v155.1H406V65.6c0-1.6,1.3-2.9,2.9-2.9h15.2C425.8,62.7,427.1,64,427.1,65.6z"/>
		<path class="st2" d="M427.1,65.6v155.1h-7.2V65.6c0-1.6-1.3-2.9-2.9-2.9c0,0,0,0,0,0h7.2C425.8,62.7,427.1,64,427.1,65.6z"/>
		<rect x="406" y="160.6" class="st3" width="21.1" height="60.1"/>
		<rect x="419.9" y="160.6" class="st2" width="7.2" height="60.1"/>
		<rect x="402.8" y="74.6" class="st3" width="27.4" height="60.1"/>
		<rect x="419.9" y="74.6" class="st2" width="10.4" height="60.1"/>
		<rect x="196.4" y="11.9" class="st0" width="184.8" height="286.2"/>
		<rect x="196.4" y="11.9" class="st3" width="9.3" height="286.2"/>
		<rect x="372" y="11.9" class="st4" width="9.3" height="286.2"/>
		<rect x="226.6" y="40.6" class="st5" width="124.6" height="19.7"/>
		<rect x="226.6" y="138.2" class="st3" width="27.4" height="27.4"/>
		<rect x="226.6" y="183" class="st3" width="27.4" height="27.4"/>
		<rect x="226.6" y="227.8" class="st3" width="27.4" height="27.4"/>
		<path d="M442.2,67.9c-2.4,0-4.3,1.9-4.3,4.3v10h-3.2v-7.7c0-2-1.3-3.7-3.2-4.2v-4.8c0-2.8-1.6-5.3-4-6.5v-7.3
			c0-6-4.9-10.8-10.8-10.8c-6,0-10.8,4.8-10.8,10.8v7.3c-2.5,1.2-4,3.7-4,6.5v4.8c-1.9,0.5-3.2,2.2-3.2,4.2v60.1
			c0,2,1.3,3.7,3.2,4.2v7.9c0,0,0,0,0,0.1s0,0,0,0.1v13.6c0,0,0,0,0,0.1c0,0,0,0,0,0.1v59.9c0,0.6,0.1,1.2,0.3,1.7l11,27.2
			c0.7,1.6,2.3,2.7,4,2.7h0.1c1.8,0,3.4-1.1,4-2.8l10.1-27.2c0.2-0.5,0.3-1,0.3-1.5v-20.8c0.1-2.4-1.8-4.4-4.2-4.5
			c-2.4-0.1-4.4,1.8-4.5,4.2c0,0.1,0,0.2,0,0.3v16.5h-12.4V139h12.4v44.7c-0.1,2.4,1.8,4.4,4.2,4.5c2.4,0.1,4.4-1.8,4.5-4.2
			c0-0.1,0-0.2,0-0.3v-44.8c1.9-0.5,3.2-2.2,3.2-4.2V90.9h3.2v71.1c0.1,2.4,2.1,4.3,4.5,4.2c2.3-0.1,4.1-1.9,4.2-4.2V72.2
			C446.5,69.8,444.5,67.9,442.2,67.9z M420.8,225.1l-4,10.8l-4.4-10.8H420.8z M414.4,51.8c0-1.2,1-2.1,2.1-2.1
			c0.6,0,1.1,0.2,1.5,0.6c0.4,0.4,0.6,0.9,0.6,1.5v6.5h-4.3L414.4,51.8L414.4,51.8z M410.4,67h12.4v3.2h-12.4L410.4,67z M425.9,86.4
			c0,0.1,0,0.1,0,0.2s0,0.1,0,0.2v43.5h-18.8V78.9h18.7L425.9,86.4z"/>
		<path d="M381.2,276.3c-2.4,0-4.3,1.9-4.3,4.3c0,0,0,0,0,0v13.1H200.8V81.7c-0.1-2.4-2.1-4.3-4.5-4.2c-2.3,0.1-4.1,1.9-4.2,4.2
			v216.4c0,2.4,1.9,4.3,4.3,4.3h184.9c2.4,0,4.3-1.9,4.3-4.3v-17.4C385.6,278.3,383.7,276.3,381.2,276.3
			C381.3,276.3,381.3,276.3,381.2,276.3z"/>
		<path d="M381.2,7.6H196.4c-2.4,0-4.3,1.9-4.3,4.3v53.6c-0.1,2.4,1.8,4.4,4.2,4.5c2.4,0.1,4.4-1.8,4.5-4.2c0-0.1,0-0.2,0-0.3V16.3
			h176.2v248.3c0,2.4,1.9,4.3,4.3,4.3s4.3-1.9,4.3-4.3c0,0,0,0,0,0V11.9C385.6,9.5,383.7,7.6,381.2,7.6
			C381.3,7.6,381.3,7.6,381.2,7.6z"/>
		<path class="st3" d="M226.6,78.3h85.1c2.4-0.1,4.3-2.1,4.2-4.5c-0.1-2.3-1.9-4.1-4.2-4.2h-85.1c-2.4,0.1-4.3,2.1-4.2,4.5
			C222.5,76.4,224.3,78.2,226.6,78.3z"/>
		<path class="st3" d="M351.1,69.6h-22.6c-2.4-0.1-4.4,1.8-4.5,4.2c-0.1,2.4,1.8,4.4,4.2,4.5c0.1,0,0.2,0,0.3,0h22.6
			c2.4-0.1,4.3-2.1,4.2-4.5C355.2,71.5,353.4,69.7,351.1,69.6z"/>
		<path class="st3" d="M351.1,83.5H266c-2.4-0.1-4.4,1.8-4.5,4.2c-0.1,2.4,1.8,4.4,4.2,4.5c0.1,0,0.2,0,0.3,0h85.1
			c2.4-0.1,4.3-2.1,4.2-4.5C355.2,85.4,353.4,83.6,351.1,83.5z"/>
		<path class="st3" d="M226.6,92.2h22.6c2.4-0.1,4.3-2.1,4.2-4.5c-0.1-2.3-1.9-4.1-4.2-4.2h-22.6c-2.4,0.1-4.3,2.1-4.2,4.5
			C222.5,90.3,224.3,92.1,226.6,92.2z"/>
		<path class="st3" d="M277.5,149.3h50.3c2.4,0,4.3-1.9,4.3-4.3c0-2.4-1.9-4.3-4.3-4.3h-50.3c-2.4,0-4.3,1.9-4.3,4.3
			C273.2,147.3,275.1,149.3,277.5,149.3z"/>
		<path class="st6" d="M351.1,140.6h-9.9c-2.4,0-4.3,1.9-4.3,4.3c0,2.4,1.9,4.3,4.3,4.3h9.9c2.4,0,4.3-1.9,4.3-4.3
			C355.5,142.6,353.5,140.6,351.1,140.6L351.1,140.6z"/>
		<path class="st3" d="M351.1,154.5h-50.3c-2.4,0.1-4.3,2.1-4.2,4.5c0.1,2.3,1.9,4.1,4.2,4.2h50.3c2.4-0.1,4.3-2.1,4.2-4.5
			C355.2,156.4,353.4,154.6,351.1,154.5z"/>
		<path class="st3" d="M277.5,163.2h9.9c2.4,0.1,4.4-1.8,4.5-4.2c0.1-2.4-1.8-4.4-4.2-4.5c-0.1,0-0.2,0-0.3,0h-9.9
			c-2.4-0.1-4.4,1.8-4.5,4.2c-0.1,2.4,1.8,4.4,4.2,4.5C277.3,163.2,277.4,163.2,277.5,163.2z"/>
		<path class="st3" d="M277.5,194.1h50.3c2.4,0,4.3-1.9,4.3-4.3c0-2.4-1.9-4.3-4.3-4.3c0,0,0,0,0,0h-50.3c-2.4,0-4.3,1.9-4.3,4.3
			C273.2,192.1,275.1,194.1,277.5,194.1C277.5,194.1,277.5,194.1,277.5,194.1z"/>
		<path class="st3" d="M351.1,185.4h-9.9c-2.4,0-4.3,1.9-4.3,4.3c0,2.4,1.9,4.3,4.3,4.3h9.9c2.4,0,4.3-1.9,4.3-4.3
			C355.4,187.4,353.5,185.4,351.1,185.4L351.1,185.4z"/>
		<path class="st3" d="M351.1,199.3h-50.3c-2.4,0.1-4.3,2.1-4.2,4.5c0.1,2.3,1.9,4.1,4.2,4.2h50.3c2.4-0.1,4.3-2.1,4.2-4.5
			C355.2,201.2,353.4,199.4,351.1,199.3z"/>
		<path class="st3" d="M277.5,208h9.9c2.4,0,4.3-1.9,4.3-4.3c0-2.4-1.9-4.3-4.3-4.3c0,0,0,0,0,0h-9.9c-2.4,0-4.3,1.9-4.3,4.3
			C273.2,206.1,275.1,208,277.5,208C277.5,208,277.5,208,277.5,208z"/>
		<path class="st3" d="M332.2,234.5c0-2.4-1.9-4.3-4.3-4.3h-50.3c-2.4,0.1-4.3,2.1-4.2,4.5c0.1,2.3,1.9,4.1,4.2,4.2h50.3
			C330.2,238.9,332.2,237,332.2,234.5C332.2,234.6,332.2,234.6,332.2,234.5z"/>
		<path class="st3" d="M351.1,230.2h-9.9c-2.4,0.1-4.3,2.1-4.2,4.5c0.1,2.3,1.9,4.1,4.2,4.2h9.9c2.4-0.1,4.3-2.1,4.2-4.5
			C355.2,232.1,353.4,230.3,351.1,230.2L351.1,230.2z"/>
		<path class="st3" d="M300.8,252.8h50.3c2.4,0,4.3-1.9,4.3-4.3c0-2.4-1.9-4.3-4.3-4.3h-50.3c-2.4,0-4.3,1.9-4.3,4.3
			C296.5,250.9,298.4,252.8,300.8,252.8z"/>
		<path class="st3" d="M277.5,244.1c-2.4,0-4.3,1.9-4.3,4.3c0,2.4,1.9,4.3,4.3,4.3c0,0,0,0,0,0h9.9c2.4,0,4.3-1.9,4.3-4.3
			c0-2.4-1.9-4.3-4.3-4.3c0,0,0,0,0,0H277.5z"/>
		<path class="st3" d="M205.4,108.1c0,2.4,1.9,4.3,4.3,4.3c0,0,0,0,0,0h158.1c2.4-0.1,4.3-2.1,4.2-4.5c-0.1-2.3-1.9-4.1-4.2-4.2
			H209.8C207.4,103.7,205.4,105.7,205.4,108.1z"/>
	</g>
</g>
<g>
	<path class="st7" d="M131.5,62c-35.8,0-64.8,29-64.8,64.8V153c4.3-4,10.5-6.2,16.5-5.4v-3.2c0-2.6,2.2-4.6,4.7-4.4
		c25,1.8,50.5-6.2,69.8-18.7c1.8-1.2,4.2-0.9,5.6,0.7c16.5,17.7,16.4,17,16.4,19.3v6.3c6.6-1,12.4,1,16.5,4.8v-25.6
		C196.3,91,167.3,62,131.5,62z"/>
	<path class="st8" d="M81.9,126.8c0-33.2,25-60.6,57.2-64.3c-2.5-0.3-5-0.5-7.6-0.5c-35.8,0-64.8,29-64.8,64.8V153
		c4-3.7,9.6-5.9,15.2-5.5L81.9,126.8L81.9,126.8z"/>
	<path class="st9" d="M179.7,145.3v35.6c0,0.4,0,0.8,0,1.2c12.6,1.9,22.5-7.2,22.5-18.4C202.2,152.4,192.3,143.4,179.7,145.3z"/>
	<path class="st10" d="M195,149c-4-3.1-9.3-4.6-15.3-3.8v35.6c0,0.4,0,0.8,0,1.2c6,0.9,11.3-0.7,15.3-3.8L195,149L195,149L195,149z"
		/>
	<path class="st9" d="M83.4,180.9v-35.7c-11-1.5-22.5,7-22.5,18.4c0,11.2,9.9,20.3,22.5,18.4C83.4,181.7,83.4,181.3,83.4,180.9z"/>
	<path class="st10" d="M83.4,178.5c-4.5-3.4-7.3-8.8-7.3-14.8c0-5.8,3-10.9,7.3-14.2v-4.2c-11-1.5-22.5,7-22.5,18.4
		c0,11.2,9.9,20.3,22.5,18.4c0-0.4,0-0.8,0-1.2V178.5z"/>
	<path class="st9" d="M132.2,226.1c-10.5,0-19.7-2.9-27.2-7.7V245l27.1,33.4l27.1-33.4v-27.3C151.5,223,142.2,226.1,132.2,226.1z"/>
	<path class="st10" d="M120.5,224.9c-5.7-1.3-10.9-3.5-15.5-6.4V245l15.5,19.1V224.9L120.5,224.9z"/>
	<path class="st0" d="M230.8,270.5l-71.6-27.7l-27.1,33.4L105,242.7l-71.5,27.7c0,0-26.5,10.9-26.5,41.1c0,27.3,0,96.4,0,118.4
		c0,4.9,4,8.8,8.8,8.8c3.7,0,228.8,0,232.6,0c4.9,0,8.8-4,8.8-8.8c0-22.1,0-91.1,0-118.4C257.3,281.3,230.8,270.5,230.8,270.5z"/>
	<path class="st7" d="M22.1,430c0-22.1,0-99.5,0-126.8c0-17.5,8.9-28.5,16.4-34.7l-5,1.9c0,0-26.5,10.9-26.5,41.1
		c0,27.3,0,96.4,0,118.4c0,4.9,4,8.8,8.8,8.8c0.6,0,6.1,0,15.1,0C26.1,438.8,22.1,434.9,22.1,430z"/>
	<path class="st0" d="M163.4,119.7c-1.5-1.6-3.8-1.9-5.6-0.7c-19.3,12.6-44.8,20.5-69.8,18.7c-2.5-0.2-4.7,1.8-4.7,4.4v38.7
		c0,24.9,19.5,47.6,49,47.6c26.2,0,47.6-21.3,47.6-47.6V139C179.8,136.7,179.9,137.4,163.4,119.7z"/>
	<path class="st9" d="M98.4,180.8v-42.9c-3.5,0.1-7,0.1-10.4-0.2c-2.5-0.2-4.7,1.8-4.7,4.4v38.7c0,24.9,19.5,47.6,49,47.6
		c2.3,0,4.6-0.2,6.9-0.5C116.1,224.6,98.4,204.7,98.4,180.8z"/>
	<g>
		<path class="st7" d="M164.8,293.3l20.2-40.6l-25.9-10l-27.1,33.4l26.4,18.7C160.6,296.4,163.6,295.6,164.8,293.3z"/>
		<path class="st7" d="M99.5,293.3l-20.2-40.6l25.9-10l27.1,33.4l-26.4,18.7C103.6,296.4,100.6,295.6,99.5,293.3z"/>
		<path class="st11" d="M159.6,406l-17.4-102.8h-10.1h0H122L104.6,406c-0.2,1.3,0.2,2.7,1,3.6l0,0l0,0l24,26.4c1.3,1.5,3.6,1.5,5,0
			l24-26.4l0,0l0,0C159.4,408.7,159.8,407.3,159.6,406z"/>
	</g>
	<polygon class="st11" points="132.1,276.2 132.1,276.1 132.1,276.1 132.1,276.1 132.1,276.2 112.9,289.8 122,303.4 132.1,303.4 
		132.1,303.4 142.3,303.4 151.3,289.8 	"/>
	<path class="st8" d="M120.8,409.6c-0.8-0.9-1.2-2.3-1-3.6l17.4-102.8h-5h0H122L104.6,406c-0.2,1.3,0.2,2.7,1,3.6l24,26.4
		c1.3,1.5,3.6,1.5,5,0l5.1-5.6L120.8,409.6z"/>
	<path class="st8" d="M139.7,281.5l-7.6-5.4v0l0,0l0,0v0l-19.2,13.6l9.1,13.7h10.1h0h5l-7.9-11.8c-0.7-1-0.4-2.4,0.6-3.1
		L139.7,281.5z"/>
	<path d="M257.4,355.3c3.1,0,5.7-2.5,5.7-5.7v-38.5c0-33.6-28.8-45.8-30-46.3c0,0-0.1,0-0.1,0l-68-26.3v-15.9
		c10.8-8.4,18.3-20.8,20.2-35c5.4-0.4,10.4-2.4,14.5-5.9c5.3-4.6,8.4-11.2,8.4-18.3c0-5.8-2.1-11.4-5.9-15.8v-21.1
		c0-38.9-31.6-70.5-70.5-70.5s-70.5,31.6-70.5,70.5v21.6c-3.8,4.3-5.9,9.6-5.9,15.2c0,7,3.1,13.7,8.4,18.3c4.1,3.5,9.1,5.5,14.4,5.9
		c1.9,14.5,9.6,27.4,21.3,35.9v15.1l-67.9,26.3c0,0-0.1,0-0.1,0c-1.2,0.5-30,12.7-30,46.3v118.4c0,8,6.5,14.5,14.5,14.5h54.2
		c3.1,0,5.7-2.5,5.7-5.7c0-3.1-2.5-5.7-5.7-5.7H58v-112c0-3.1-2.5-5.7-5.7-5.7c-3.1,0-5.7,2.5-5.7,5.7v112H16
		c-1.7,0-3.1-1.4-3.1-3.1V311.2c0-25.6,21.6-35.2,22.9-35.8l40.8-15.8l17.9,35.9l0,0c1.7,3.4,5.2,5.5,8.9,5.5c3.6,0,5.6-1.7,8.1-3.5
		l4.6,6.9l-17,100.4c0,0.1,0,0.1,0,0.2c-0.4,3,0.5,6,2.5,8.2l17.8,19.6H96.7c-3.1,0-5.7,2.5-5.7,5.7c0,3.1,2.5,5.7,5.7,5.7h151.9
		c8,0,14.5-6.5,14.5-14.5v-53.5c0-3.1-2.5-5.7-5.7-5.7c-3.1,0-5.7,2.5-5.7,5.7v53.5c0,1.7-1.4,3.1-3.1,3.1h-30.6v-112
		c0-3.1-2.5-5.7-5.7-5.7c-3.1,0-5.7,2.5-5.7,5.7v112h-61.5l17.8-19.6c1.9-2.1,2.9-5.2,2.5-8.2c0-0.1,0-0.1,0-0.2l-17-100.4l4.6-6.9
		c2.5,1.8,4.5,3.5,8.1,3.5c3.7,0,7.2-2.1,8.9-5.5v0l17.9-35.9l40.8,15.8c1.5,0.6,22.9,10.3,22.9,35.8v38.5
		C251.8,352.8,254.3,355.3,257.4,355.3z M192.2,172.9c-1.9,1.6-4.1,2.6-6.6,3v-25.4c6.5,1.1,11,6.5,11,12.7
		C196.7,167,195.1,170.5,192.2,172.9z M72.6,126.4c0-32.6,26.5-59.1,59.1-59.1s59.1,26.5,59.1,59.1v13.7c-1.7-0.5-3.4-0.8-5.1-1
		c0-5.5,0-4.4-17.9-23.7c-3.3-3.5-8.8-4.3-12.9-1.6c-19.8,12.9-44,19.4-66.3,17.8c-4.9-0.4-9.3,2.9-10.5,7.6
		c-1.8,0.2-3.9,0.7-5.4,1.2L72.6,126.4L72.6,126.4z M66.8,163.3c0-6.1,5-11,11-12.4V176C71.1,174.9,66.8,169.4,66.8,163.3z
		 M89.1,180.4V145v-1.9c24.5,1.4,50.3-5.9,71.1-19.2c8.2,8.8,12.7,13.5,14.1,15.2c0,4.5,0,36.2,0,41.3c0,23.1-18.8,41.9-41.9,41.9
		C106.5,222.3,89.1,202.2,89.1,180.4z M132.4,233.7c7.5,0,14.8-1.6,21.3-4.4v11l-21.4,26.4l-21.4-26.4v-10.6
		C117.8,232.4,125.2,233.7,132.4,233.7z M87.3,255.4l16.1-6.3l20.7,25.5c-10.5,7.5-19.1,13.6-20.1,14.3L87.3,255.4z M132.3,430
		l-21.8-24l16.5-97.2h10.7l16.5,97.2L132.3,430z M139.4,297.4h-14.2l-4.3-6.5l11.4-8.1l11.4,8.1L139.4,297.4z M160.6,288.9
		c-0.4-0.3-9.3-6.6-20.1-14.3c4.7-5.8-0.8,1,20.6-25.5l16.2,6.3L160.6,288.9z"/>
</g>
</svg>
