<svg xmlns="http://www.w3.org/2000/svg" viewBox="0 0 79.27 77.07"><defs><style>.cls-1,.cls-4{fill:#010101;}.cls-1{opacity:0.1;}.cls-2{fill:#f0f3fa;}.cls-3{fill:#e0e0df;}.cls-5{fill:#fff;}.cls-6{fill:#d82627;}.cls-7{fill:#747474;}.cls-8{fill:#e4e9f6;}.cls-9{fill:#c2c7cf;}.cls-10{fill:#d72426;}</style></defs><g id="Capa_2" data-name="Capa 2"><g id="Capa_1-2" data-name="Capa 1"><path class="cls-1" d="M65.93,4.36H74.8a3.56,3.56,0,0,1,3.56,3.54l.08,44.35a3.56,3.56,0,0,1-3.54,3.55l-35.48.07a3.55,3.55,0,0,1-3.56-3.54L35.78,8a3.56,3.56,0,0,1,3.54-3.56h8.87"/><polyline class="cls-2" points="69.48 7.91 74.81 7.89 74.89 52.25 39.41 52.31 39.33 7.96 44.65 7.95"/><path class="cls-3" d="M62.38,2.6H59.55a2.64,2.64,0,0,0-5,0H51.73a3.54,3.54,0,0,0-3.54,3.55V9.72l17.74,0V6.14A3.54,3.54,0,0,0,62.38,2.6Z"/><rect class="cls-1" x="48.24" y="6.99" width="17.74" height="2.72"/><path class="cls-4" d="M79.19,7.89a4.39,4.39,0,0,0-4.38-4.38h0l-8.87,0h0a4.39,4.39,0,0,0-3.52-1.77h-2.3a3.47,3.47,0,0,0-6,0h-2.3a4.36,4.36,0,0,0-3.09,1.29,4.06,4.06,0,0,0-.43.5h0l-8.87,0A4.39,4.39,0,0,0,35,8L35,52.32a4.39,4.39,0,0,0,4.38,4.37h0l35.48-.06a4.4,4.4,0,0,0,4.37-4.39ZM49.82,4.25a2.66,2.66,0,0,1,1.92-.8h2.82a.83.83,0,0,0,.78-.55,1.81,1.81,0,0,1,3.43,0,.83.83,0,0,0,.78.55h2.84A2.71,2.71,0,0,1,65.1,6.14V8.86L49,8.89V6.17A2.66,2.66,0,0,1,49.82,4.25ZM74.9,55,39.41,55a2.73,2.73,0,0,1-2.72-2.71L36.61,8a2.69,2.69,0,0,1,.79-1.92,2.75,2.75,0,0,1,1.92-.81h8.14a4.23,4.23,0,0,0-.1.94V9.72a.83.83,0,0,0,.83.83h0l17.74,0a.84.84,0,0,0,.83-.84V6.14a4.25,4.25,0,0,0-.1-.95h8.15a2.71,2.71,0,0,1,2.71,2.71l.09,44.35A2.72,2.72,0,0,1,74.9,55Z"/><path class="cls-5" d="M57.06,5.21a.82.82,0,0,0,.83-.83A.83.83,0,1,0,56.47,5,.87.87,0,0,0,57.06,5.21Z"/><path class="cls-6" d="M43.2,20.67a.83.83,0,0,0,0,1.18l2.66,2.65a.83.83,0,0,0,.59.25h0A.82.82,0,0,0,47,24.5l4.43-4.44a.83.83,0,0,0-1.18-1.18l-3.84,3.86-2.08-2.07A.83.83,0,0,0,43.2,20.67Z"/><path class="cls-6" d="M50.31,28.64,46.47,32.5l-2.08-2.07a.83.83,0,0,0-1.18,0,.84.84,0,0,0,0,1.18l2.66,2.65a.86.86,0,0,0,.59.24.84.84,0,0,0,.59-.24l4.43-4.44a.83.83,0,0,0-1.18-1.18Z"/><path class="cls-6" d="M50.33,38.4l-3.84,3.85-2.08-2.07a.84.84,0,0,0-1.18,0,.82.82,0,0,0,0,1.17L45.9,44a.87.87,0,0,0,.59.24h0a.87.87,0,0,0,.59-.24l4.42-4.45a.83.83,0,0,0-1.17-1.17Z"/><path class="cls-7" d="M55.32,22.07h0L70.4,22a.83.83,0,0,0,0-1.66h0l-15.08,0a.83.83,0,1,0,0,1.66Z"/><path class="cls-7" d="M70.42,30.13h0l-15.08,0a.84.84,0,1,0,0,1.67h0l15.08,0a.84.84,0,0,0,0-1.67Z"/><path class="cls-7" d="M70.43,39.89l-15.08,0a.83.83,0,1,0,0,1.66h0l15.08,0a.84.84,0,0,0,0-1.67Z"/><path class="cls-3" d="M23.68,7.49a11.79,11.79,0,0,0-11.8,11.79v4.77a3.78,3.78,0,0,1,3-1v-.58a.82.82,0,0,1,.87-.81,21.12,21.12,0,0,0,12.71-3.41.81.81,0,0,1,1,.12c3,3.23,3,3.1,3,3.53v1.15a3.55,3.55,0,0,1,3,.88V19.28A11.79,11.79,0,0,0,23.68,7.49Z"/><path class="cls-1" d="M14.64,19.28A11.79,11.79,0,0,1,25.06,7.57a12.77,12.77,0,0,0-1.38-.08,11.79,11.79,0,0,0-11.8,11.79v4.77a3.82,3.82,0,0,1,2.76-1V19.28Z"/><path class="cls-8" d="M32.45,22.64v6.7a3.42,3.42,0,1,0,0-6.7Z"/><path class="cls-9" d="M35.24,23.33a3.65,3.65,0,0,0-2.79-.69v6.7a3.6,3.6,0,0,0,2.79-.68V23.33Z"/><path class="cls-8" d="M14.91,29.14v-6.5A3.61,3.61,0,0,0,10.81,26a3.45,3.45,0,0,0,4.11,3.36A1.48,1.48,0,0,1,14.91,29.14Z"/><path class="cls-9" d="M14.91,28.69A3.37,3.37,0,0,1,13.57,26a3.29,3.29,0,0,1,1.34-2.59v-.76A3.61,3.61,0,0,0,10.81,26a3.45,3.45,0,0,0,4.11,3.36,1.48,1.48,0,0,1,0-.21Z"/><path class="cls-8" d="M23.8,37.37A9.07,9.07,0,0,1,18.85,36v4.84l4.93,6.08,4.93-6.08v-5A8.58,8.58,0,0,1,23.8,37.37Z"/><path class="cls-9" d="M21.67,37.14A9,9,0,0,1,18.85,36v4.84l2.82,3.47V37.14Z"/><path class="cls-5" d="M41.75,45.44l-13-5-4.93,6.09-4.93-6.09-13,5A8.27,8.27,0,0,0,1,52.92V74.49A1.61,1.61,0,0,0,2.61,76.1H45a1.61,1.61,0,0,0,1.61-1.61V52.92A8.28,8.28,0,0,0,41.75,45.44Z"/><path class="cls-3" d="M3.75,74.49V51.41a8,8,0,0,1,3-6.32l-.92.35A8.27,8.27,0,0,0,1,52.92V74.49A1.61,1.61,0,0,0,2.61,76.1H5.36A1.61,1.61,0,0,1,3.75,74.49Z"/><path class="cls-5" d="M29.49,18a.81.81,0,0,0-1-.13,21.05,21.05,0,0,1-12.71,3.42.8.8,0,0,0-.87.8v7.05a8.8,8.8,0,0,0,17.59,0V21.5C32.47,21.08,32.49,21.21,29.49,18Z"/><path class="cls-8" d="M17.65,29.12V21.3a17.17,17.17,0,0,1-1.9,0,.8.8,0,0,0-.87.8v7.05a8.85,8.85,0,0,0,10.18,8.57A8.67,8.67,0,0,1,17.65,29.12Z"/><path class="cls-3" d="M29.73,49.6l3.69-7.38-4.71-1.83-4.93,6.09,4.81,3.41A.77.77,0,0,0,29.73,49.6Z"/><path class="cls-3" d="M17.84,49.6l-3.69-7.38,4.71-1.83,4.93,6.09L19,49.89A.77.77,0,0,1,17.84,49.6Z"/><path class="cls-10" d="M28.79,70.13,25.63,51.41H21.94L18.77,70.13a.82.82,0,0,0,.19.65h0l4.37,4.82a.61.61,0,0,0,.91,0l4.37-4.82h0A.78.78,0,0,0,28.79,70.13Z"/><polygon class="cls-10" points="23.79 46.48 23.79 46.48 23.79 46.48 23.78 46.48 23.78 46.48 20.29 48.96 21.94 51.45 23.78 51.45 23.79 51.45 25.63 51.45 27.28 48.96 23.79 46.48"/><path class="cls-1" d="M21.72,70.78a.78.78,0,0,1-.18-.65L24.7,51.41H21.94L18.77,70.13a.82.82,0,0,0,.19.65l4.37,4.82a.61.61,0,0,0,.91,0l.93-1Z"/><path class="cls-1" d="M25.17,47.46l-1.38-1h0L20.29,49l1.65,2.49H24.7L23.27,49.3a.42.42,0,0,1,.1-.57Z"/><path class="cls-4" d="M46.61,60.89a1,1,0,0,0,1-1v-7a9.23,9.23,0,0,0-5.46-8.43h0l-12.38-4.8v-2.9a9.69,9.69,0,0,0,3.67-6.38,4.53,4.53,0,0,0,2.64-1.08,4.4,4.4,0,0,0,.45-6.2V19.22a12.83,12.83,0,1,0-25.66,0v3.93a4.18,4.18,0,0,0-1.07,2.77,4.37,4.37,0,0,0,1.53,3.33A4.47,4.47,0,0,0,14,30.33a9.59,9.59,0,0,0,3.88,6.53v2.75L5.48,44.41h0A9.21,9.21,0,0,0,0,52.85V74.43a2.65,2.65,0,0,0,2.64,2.64h9.87a1,1,0,0,0,0-2.07H10.28V54.61a1,1,0,1,0-2.07,0V75H2.64a.58.58,0,0,1-.57-.57V52.85a7.17,7.17,0,0,1,4.18-6.52l7.43-2.88L16.94,50h0a1.84,1.84,0,0,0,1.63,1,2.36,2.36,0,0,0,1.48-.64l.83,1.25L17.79,69.9v0a1.9,1.9,0,0,0,.45,1.49L21.48,75H17.34a1,1,0,1,0,0,2.07H45a2.65,2.65,0,0,0,2.65-2.64V64.69a1,1,0,0,0-2.08,0v9.74A.57.57,0,0,1,45,75H39.44V54.61a1,1,0,1,0-2.07,0V75H26.16l3.25-3.58a1.9,1.9,0,0,0,.45-1.49v0l-3.1-18.29.84-1.25a2.39,2.39,0,0,0,1.48.64,1.81,1.81,0,0,0,1.62-1h0L34,43.45l7.44,2.88a7.19,7.19,0,0,1,4.17,6.52v7A1,1,0,0,0,46.61,60.89ZM34.73,27.68a2.26,2.26,0,0,1-1.19.55V23.61a2.35,2.35,0,0,1,2,2.31A2.29,2.29,0,0,1,34.73,27.68ZM13,19.22a10.76,10.76,0,1,1,21.52,0v2.49a4.14,4.14,0,0,0-.93-.18c0-1,0-.81-3.26-4.32a1.83,1.83,0,0,0-2.35-.29,20,20,0,0,1-12.07,3.25,1.84,1.84,0,0,0-1.92,1.38,5,5,0,0,0-1,.23V19.22Zm-1.07,6.7a2.48,2.48,0,0,1,2-2.26v4.57A2.34,2.34,0,0,1,11.88,25.92ZM16,29.05v-6.8a22.21,22.21,0,0,0,13-3.49c1.49,1.61,2.31,2.45,2.57,2.77v7.52a7.76,7.76,0,0,1-15.52,0Zm7.89,9.7a9.68,9.68,0,0,0,3.87-.81v2l-3.89,4.8L19.92,40V38A10.45,10.45,0,0,0,23.84,38.75Zm-8.22,4,2.94-1.14,3.76,4.65L18.66,48.8Zm8.2,31.79-4-4.37,3-17.7h1.94l3,17.7Zm1.29-24.14H22.53l-.79-1.19,2.08-1.48,2.08,1.48ZM29,48.8l-3.67-2.6c.86-1.05-.14.18,3.76-4.64l3,1.14Z"/></g></g></svg>