<svg xmlns="http://www.w3.org/2000/svg" viewBox="0 0 60.09 74.09"><defs><style>.cls-1{fill:#747474;}.cls-2,.cls-6{fill:#010101;}.cls-2,.cls-5{opacity:0.1;}.cls-3{fill:#fff;}.cls-4{fill:#e0e0df;}.cls-7{fill:#d82627;}</style></defs><g id="Capa_2" data-name="Capa 2"><g id="Capa_1-2" data-name="Capa 1"><path class="cls-1" d="M33.79,72.58V68.7H26.24v3.88a1.51,1.51,0,0,0,1.5,1.51h4.54A1.52,1.52,0,0,0,33.79,72.58Z"/><path class="cls-2" d="M30,72.58V68.7H26.24v3.88a1.51,1.51,0,0,0,1.5,1.51h3.77A1.51,1.51,0,0,1,30,72.58Z"/><path class="cls-3" d="M21.84,53.09v6.17H38.18V53.19a6.36,6.36,0,0,1,3-5.37A21,21,0,1,0,19,47.9,6.1,6.1,0,0,1,21.84,53.09Z"/><path class="cls-2" d="M22,47.9A21,21,0,0,1,31.52,9.07C31.07,9,30.61,9,30.15,9A21,21,0,0,0,19,47.9a6.1,6.1,0,0,1,2.87,5.19v6.17h3V53.09A6.08,6.08,0,0,0,22,47.9Z"/><path class="cls-4" d="M38.35,63.91H21.68a1.77,1.77,0,0,1-1.77-1.76V60.58a1.77,1.77,0,0,1,1.77-1.76H38.35a1.77,1.77,0,0,1,1.76,1.76v1.57A1.77,1.77,0,0,1,38.35,63.91Z"/><path class="cls-4" d="M38.35,69H21.68a1.78,1.78,0,0,1-1.77-1.76V65.67a1.77,1.77,0,0,1,1.77-1.76H38.35a1.77,1.77,0,0,1,1.76,1.76v1.57A1.78,1.78,0,0,1,38.35,69Z"/><g class="cls-5"><path class="cls-6" d="M38.35,61.36H21.68A1.76,1.76,0,0,1,20,60.09a1.62,1.62,0,0,0-.08.49v1.57a1.78,1.78,0,0,0,1.77,1.76H38.35a1.78,1.78,0,0,0,1.76-1.76V60.58a2,2,0,0,0-.07-.49A1.78,1.78,0,0,1,38.35,61.36Z"/><path class="cls-6" d="M38.35,66.45H21.68A1.76,1.76,0,0,1,20,65.18a1.62,1.62,0,0,0-.08.49v1.57A1.78,1.78,0,0,0,21.68,69H38.35a1.78,1.78,0,0,0,1.76-1.76V65.67a1.93,1.93,0,0,0-.07-.49A1.78,1.78,0,0,1,38.35,66.45Z"/></g><path class="cls-7" d="M44.49,27.7H40.32A10.61,10.61,0,0,0,39,24.54l3-2.95A.45.45,0,0,0,42,21l-2.78-2.78a.45.45,0,0,0-.64,0l-2.95,2.95a10.59,10.59,0,0,0-3.16-1.3V15.64a.47.47,0,0,0-.46-.46H28.05a.47.47,0,0,0-.46.46v4.18a10.59,10.59,0,0,0-3.16,1.3l-2.95-2.95a.45.45,0,0,0-.64,0L18.06,21a.45.45,0,0,0,0,.64l3,2.95A10.88,10.88,0,0,0,19.7,27.7H15.53a.47.47,0,0,0-.46.46v3.92a.47.47,0,0,0,.46.46H19.7A10.88,10.88,0,0,0,21,35.7l-3,2.95a.45.45,0,0,0,0,.64l2.78,2.78a.45.45,0,0,0,.64,0l2.95-3a10.88,10.88,0,0,0,3.16,1.31V44.6a.47.47,0,0,0,.46.46H32a.47.47,0,0,0,.46-.46V40.43a10.88,10.88,0,0,0,3.16-1.31l2.95,3a.45.45,0,0,0,.64,0L42,39.29a.45.45,0,0,0,0-.64L39,35.7a10.61,10.61,0,0,0,1.31-3.16h4.17a.47.47,0,0,0,.46-.46V28.16A.47.47,0,0,0,44.49,27.7ZM30,34.91a4.79,4.79,0,1,1,4.79-4.79A4.78,4.78,0,0,1,30,34.91Z"/><path class="cls-2" d="M21,24.54a10.59,10.59,0,0,0-1.3,3.16h2.46a.6.6,0,0,0,.58-.45,10.88,10.88,0,0,1,1-2.45.38.38,0,0,0-.05-.46L21,21.59A.45.45,0,0,1,21,21l1.63-1.63-1.14-1.15a.46.46,0,0,0-.65,0L18.06,21a.45.45,0,0,0,0,.64Z"/><path class="cls-7" d="M18,32.08V28.16a.47.47,0,0,1,.46-.46H15.53a.46.46,0,0,0-.45.46v3.92a.46.46,0,0,0,.45.46h2.94A.47.47,0,0,1,18,32.08Z"/><path class="cls-2" d="M21,39.29a.45.45,0,0,1,0-.64L23.69,36a.47.47,0,0,0,.08-.56,10.56,10.56,0,0,1-1.05-2.52.44.44,0,0,0-.43-.33H19.71A10.59,10.59,0,0,0,21,35.7l-3,2.95a.45.45,0,0,0,0,.64l2.78,2.78a.46.46,0,0,0,.65,0l1.14-1.15Z"/><path class="cls-2" d="M30.53,15.64a.46.46,0,0,1,.45-.46H28.05a.47.47,0,0,0-.46.46v4.18h2.28a.72.72,0,0,0,.66-.72V15.64Z"/><path class="cls-2" d="M30.53,44.6V40.88a.46.46,0,0,0-.46-.45H27.59V44.6a.47.47,0,0,0,.46.46H31A.46.46,0,0,1,30.53,44.6Z"/><path class="cls-1" d="M24.15,30.05a5.9,5.9,0,1,0,5.9-5.9A5.9,5.9,0,0,0,24.15,30.05Zm9.59,0a3.7,3.7,0,1,1-3.69-3.7A3.7,3.7,0,0,1,33.74,30.05Z"/><path class="cls-6" d="M4.75,29H1.1a1.1,1.1,0,1,0,0,2.2H4.75a1.1,1.1,0,0,0,0-2.2Z"/><path class="cls-6" d="M59,29H55.34a1.1,1.1,0,0,0,0,2.2H59A1.1,1.1,0,0,0,59,29Z"/><path class="cls-6" d="M11.38,47.16,8.8,49.74a1.09,1.09,0,0,0,0,1.55,1.1,1.1,0,0,0,1.56,0l2.58-2.58a1.09,1.09,0,0,0,0-1.55A1.1,1.1,0,0,0,11.38,47.16Z"/><path class="cls-6" d="M48.71,12.94l2.58-2.58a1.1,1.1,0,0,0,0-1.56,1.09,1.09,0,0,0-1.55,0l-2.58,2.58a1.1,1.1,0,0,0,0,1.56A1.09,1.09,0,0,0,48.71,12.94Z"/><path class="cls-6" d="M30.05,5.85a1.1,1.1,0,0,0,1.1-1.1V1.1a1.1,1.1,0,0,0-2.2,0V4.75A1.1,1.1,0,0,0,30.05,5.85Z"/><path class="cls-6" d="M48.71,47.16a1.1,1.1,0,0,0-1.55,1.55l2.58,2.58a1.1,1.1,0,0,0,1.55-1.55Z"/><path class="cls-6" d="M11.38,12.94a1.1,1.1,0,0,0,1.56-1.56L10.36,8.8A1.1,1.1,0,0,0,8.8,10.36Z"/><path class="cls-6" d="M32.75,8a1.1,1.1,0,1,0-.27,2.19A19.81,19.81,0,0,1,49.81,27.61a1.1,1.1,0,0,0,1.09,1H51a1.1,1.1,0,0,0,1-1.22A22.15,22.15,0,0,0,32.75,8Z"/><path class="cls-6" d="M38.38,70a2.86,2.86,0,0,0,2.86-2.86V65.59a2.87,2.87,0,0,0-.61-1.76,2.82,2.82,0,0,0,.61-1.76V60.5a2.87,2.87,0,0,0-1.92-2.7V53.12a5.21,5.21,0,0,1,2.47-4.44A22,22,0,0,0,52,32.75a1.1,1.1,0,1,0-2.18-.27,19.81,19.81,0,0,1-9.18,14.34,7.39,7.39,0,0,0-3.49,6.3v4.52H23V53a7.24,7.24,0,0,0-3.39-6.13,19.9,19.9,0,0,1,8-36.69A1.1,1.1,0,1,0,27.34,8a22.11,22.11,0,0,0-8.91,40.75A5,5,0,0,1,20.78,53V57.8a2.88,2.88,0,0,0-1.93,2.7v1.57a2.82,2.82,0,0,0,.61,1.76,2.87,2.87,0,0,0-.61,1.76v1.57A2.86,2.86,0,0,0,21.71,70H38.38M39,67.16a.67.67,0,0,1-.66.66H21.71a.67.67,0,0,1-.66-.66V65.59a.67.67,0,0,1,.66-.66H38.38a.67.67,0,0,1,.66.66Zm0-5.09a.67.67,0,0,1-.66.66H21.71a.67.67,0,0,1-.66-.66V60.5a.67.67,0,0,1,.66-.66H38.38a.67.67,0,0,1,.66.66Z"/></g></g></svg>