<svg xmlns="http://www.w3.org/2000/svg" viewBox="0 0 71.26 73.75"><defs><style>.cls-1{fill:#e0e0df;}.cls-2{fill:#fff;}.cls-3{fill:#d72426;}.cls-4{fill:#747474;}.cls-5{fill:#979ba0;}.cls-6{fill:#010101;}</style></defs><g id="Capa_2" data-name="Capa 2"><g id="Capa_1-2" data-name="Capa 1"><circle class="cls-1" cx="24.54" cy="24.56" r="23.41"/><circle class="cls-2" cx="24.54" cy="24.56" r="19.7"/><circle class="cls-3" cx="24.54" cy="24.56" r="6.16"/><path class="cls-2" d="M60.27,20.86H35.63a2.47,2.47,0,0,0-2.46,2.46v46.8a2.47,2.47,0,0,0,2.46,2.46h32a2.47,2.47,0,0,0,2.47-2.46V30.71Z"/><path class="cls-1" d="M60.27,20.86v7.39a2.46,2.46,0,0,0,2.46,2.46h7.39Z"/><circle class="cls-4" cx="24.54" cy="24.56" r="2.46"/><path class="cls-1" d="M64,46.8H52.88a1.15,1.15,0,1,0,0,2.3H64a1.15,1.15,0,0,0,0-2.3Z"/><path class="cls-1" d="M52.88,54H61.5a1.15,1.15,0,1,0,0-2.3H52.88a1.15,1.15,0,1,0,0,2.3Z"/><path class="cls-3" d="M47.13,47.14,43,51.25l-2.88-2.88a1.14,1.14,0,0,0-1.62,0,1.15,1.15,0,0,0,0,1.63l3.7,3.7A1.13,1.13,0,0,0,43,54a1.22,1.22,0,0,0,.82-.33l4.93-4.93a1.17,1.17,0,0,0,0-1.63A1.21,1.21,0,0,0,47.13,47.14Z"/><path class="cls-1" d="M64,34.48H52.88a1.16,1.16,0,1,0,0,2.31H64a1.16,1.16,0,0,0,0-2.31Z"/><path class="cls-1" d="M52.88,41.73H61.5a1.16,1.16,0,1,0,0-2.31H52.88a1.16,1.16,0,1,0,0,2.31Z"/><path class="cls-3" d="M47.13,34.83,43,38.93l-2.88-2.88a1.15,1.15,0,1,0-1.62,1.63l3.7,3.7a1.13,1.13,0,0,0,.82.33,1.17,1.17,0,0,0,.82-.33l4.93-4.92a1.16,1.16,0,1,0-1.66-1.63Z"/><path class="cls-1" d="M64,59.13H52.88a1.15,1.15,0,1,0,0,2.3H64a1.16,1.16,0,0,0,1.15-1.15A1.14,1.14,0,0,0,64,59.13Z"/><path class="cls-1" d="M61.5,64.05H52.88a1.16,1.16,0,1,0,0,2.31H61.5a1.16,1.16,0,1,0,0-2.31Z"/><path class="cls-3" d="M47.13,59.46,43,63.56l-2.88-2.88a1.15,1.15,0,0,0-1.62,1.63l3.7,3.7a1.13,1.13,0,0,0,.82.33,1.17,1.17,0,0,0,.82-.33l4.93-4.92a1.17,1.17,0,0,0,0-1.63A1.19,1.19,0,0,0,47.13,59.46Z"/><path class="cls-5" d="M27.83,22.92l8.63-8.63a1.17,1.17,0,0,0,0-1.63,1.15,1.15,0,0,0-1.63,0L26.2,21.29l0,0a3.71,3.71,0,0,0-3.23,0L15.5,13.9a1.15,1.15,0,1,0-1.63,1.63L21.3,23a3.62,3.62,0,1,0,6.48,0S27.81,22.92,27.83,22.92Zm-3.29,2.95a1.31,1.31,0,1,1,1.31-1.31A1.31,1.31,0,0,1,24.54,25.87Z"/><path class="cls-5" d="M24.54,9.69A1.15,1.15,0,0,0,25.7,8.54V6.08a1.16,1.16,0,0,0-2.31,0V8.54A1.14,1.14,0,0,0,24.54,9.69Z"/><path class="cls-5" d="M24.54,39.41a1.16,1.16,0,0,0-1.15,1.15V43a1.16,1.16,0,1,0,2.31,0V40.56A1.15,1.15,0,0,0,24.54,39.41Z"/><path class="cls-5" d="M9.69,24.56a1.14,1.14,0,0,0-1.15-1.15H6.08a1.15,1.15,0,0,0,0,2.3H8.54A1.15,1.15,0,0,0,9.69,24.56Z"/><path class="cls-5" d="M11.26,15.56,9.13,14.32a1.16,1.16,0,0,0-1.16,2l2.13,1.24a1.17,1.17,0,0,0,.57.16,1.13,1.13,0,0,0,1-.58A1.14,1.14,0,0,0,11.26,15.56Z"/><path class="cls-5" d="M32,11.7a1.16,1.16,0,0,0,.57.15,1.13,1.13,0,0,0,1-.57l1.24-2.13a1.16,1.16,0,1,0-2-1.17l-1.24,2.13A1.2,1.2,0,0,0,32,11.7Z"/><path class="cls-5" d="M17.13,37.42a1.17,1.17,0,0,0-1.59.42L14.3,40a1.17,1.17,0,0,0,.42,1.58,1.13,1.13,0,0,0,.58.16,1.11,1.11,0,0,0,1-.57L17.53,39A1.16,1.16,0,0,0,17.13,37.42Z"/><path class="cls-5" d="M38.41,17.7a1,1,0,0,0,.58-.16l2.13-1.23a1.16,1.16,0,0,0-1.16-2l-2.14,1.24a1.16,1.16,0,0,0,.59,2.16Z"/><path class="cls-5" d="M10.11,31.56,8,32.8A1.16,1.16,0,0,0,8.56,35a1.1,1.1,0,0,0,.57-.16l2.13-1.24a1.15,1.15,0,0,0-1.15-2Z"/><path class="cls-5" d="M15.54,11.26a1.15,1.15,0,0,0,1,.58,1,1,0,0,0,.57-.16,1.16,1.16,0,0,0,.42-1.58L16.29,8a1.16,1.16,0,1,0-2,1.16Z"/><path class="cls-6" d="M70.94,29.9l-9.85-9.85a1.14,1.14,0,0,0-.82-.33H48.63A24.56,24.56,0,1,0,32,48V70.13a3.62,3.62,0,0,0,3.61,3.62h32a3.63,3.63,0,0,0,3.62-3.62V30.71A1.12,1.12,0,0,0,70.94,29.9Zm-9.52-6.25,5.9,5.91H62.71a1.31,1.31,0,0,1-1.31-1.31v-4.6ZM24.54,46.8A22.25,22.25,0,1,1,46.26,19.7H35.63A3.62,3.62,0,0,0,32,23.32v22.2A22.23,22.23,0,0,1,24.54,46.8ZM67.65,71.44h-32a1.31,1.31,0,0,1-1.31-1.31V23.32A1.31,1.31,0,0,1,35.63,22H59.11v6.24a3.62,3.62,0,0,0,3.62,3.61H69V70.12A1.33,1.33,0,0,1,67.65,71.44Z"/><path class="cls-1" d="M39.34,29.41h16a1.15,1.15,0,1,0,0-2.3h-16a1.15,1.15,0,1,0,0,2.3Z"/></g></g></svg>