<svg xmlns="http://www.w3.org/2000/svg" viewBox="0 0 88.47 83.5"><defs><style>.cls-1{fill:#e0e0df;}.cls-2,.cls-7{fill:#010101;}.cls-2,.cls-8{opacity:0.1;}.cls-3{fill:#e4e9f6;}.cls-4{fill:#c2c7cf;}.cls-5{fill:#fff;}.cls-6{fill:#d72426;}.cls-9{fill:#e0dfdf;}</style></defs><g id="Capa_2" data-name="Capa 2"><g id="Capa_1-2" data-name="Capa 1"><path class="cls-1" d="M23.68,1.1a11.8,11.8,0,0,0-11.8,11.8v4.77a3.75,3.75,0,0,1,3-1V16.1a.81.81,0,0,1,.87-.8,21.12,21.12,0,0,0,12.71-3.41.81.81,0,0,1,1,.12c3,3.23,3,3.1,3,3.52v1.16a3.55,3.55,0,0,1,3,.88V12.9A11.8,11.8,0,0,0,23.68,1.1Z"/><path class="cls-2" d="M14.64,12.9A11.79,11.79,0,0,1,25.06,1.19a10.66,10.66,0,0,0-1.38-.09,11.8,11.8,0,0,0-11.8,11.8v4.77a3.82,3.82,0,0,1,2.76-1V12.9Z"/><path class="cls-3" d="M32.45,16.26V23a3.42,3.42,0,1,0,0-6.7Z"/><path class="cls-4" d="M35.24,16.94a3.64,3.64,0,0,0-2.79-.68V23a3.61,3.61,0,0,0,2.79-.69V16.94Z"/><path class="cls-3" d="M14.91,22.76V16.25a3.61,3.61,0,0,0-4.1,3.36A3.45,3.45,0,0,0,14.92,23,1.48,1.48,0,0,1,14.91,22.76Z"/><path class="cls-4" d="M14.91,22.3a3.34,3.34,0,0,1-1.34-2.69A3.29,3.29,0,0,1,14.91,17v-.77a3.61,3.61,0,0,0-4.1,3.36A3.45,3.45,0,0,0,14.92,23a1.48,1.48,0,0,1,0-.21Z"/><path class="cls-3" d="M23.8,31a9.07,9.07,0,0,1-4.95-1.4v4.83l4.93,6.09,4.93-6.09v-5A8.66,8.66,0,0,1,23.8,31Z"/><path class="cls-4" d="M21.67,30.76a9,9,0,0,1-2.82-1.17v4.83l2.82,3.48V30.76Z"/><path class="cls-5" d="M41.75,39.06,28.71,34l-4.93,6.08L18.85,34l-13,5.05A8.26,8.26,0,0,0,1,46.54V68.11a1.61,1.61,0,0,0,1.61,1.61H45a1.61,1.61,0,0,0,1.61-1.61V46.54A8.26,8.26,0,0,0,41.75,39.06Z"/><path class="cls-1" d="M3.75,68.11V45a8,8,0,0,1,3-6.31l-.92.35A8.26,8.26,0,0,0,1,46.54V68.11a1.61,1.61,0,0,0,1.61,1.61H5.36A1.61,1.61,0,0,1,3.75,68.11Z"/><path class="cls-5" d="M29.49,11.6a.81.81,0,0,0-1-.13,21.19,21.19,0,0,1-12.71,3.42.8.8,0,0,0-.87.8v7A8.67,8.67,0,0,0,23.8,31.4a8.68,8.68,0,0,0,8.67-8.66V15.12C32.47,14.7,32.49,14.82,29.49,11.6Z"/><path class="cls-3" d="M17.65,22.74V14.92c-.64,0-1.27,0-1.9,0a.8.8,0,0,0-.87.8v7A8.67,8.67,0,0,0,23.8,31.4a8.69,8.69,0,0,0,1.26-.09A8.67,8.67,0,0,1,17.65,22.74Z"/><path class="cls-1" d="M29.73,43.22l3.69-7.39L28.71,34l-4.93,6.08,4.81,3.42A.77.77,0,0,0,29.73,43.22Z"/><path class="cls-1" d="M17.84,43.22l-3.69-7.39L18.86,34l4.93,6.08L19,43.51A.77.77,0,0,1,17.84,43.22Z"/><path class="cls-6" d="M28.79,63.75,25.63,45H21.94L18.77,63.75a.82.82,0,0,0,.19.65h0l4.37,4.82a.63.63,0,0,0,.91,0l4.37-4.82h0A.78.78,0,0,0,28.79,63.75Z"/><polygon class="cls-6" points="23.79 40.1 23.79 40.09 23.79 40.1 23.78 40.09 23.78 40.1 20.29 42.58 21.94 45.07 23.78 45.07 23.79 45.07 25.63 45.07 27.28 42.58 23.79 40.1"/><path class="cls-2" d="M21.72,64.4a.78.78,0,0,1-.18-.65L24.7,45H21.94L18.77,63.75a.82.82,0,0,0,.19.65l4.37,4.82a.63.63,0,0,0,.91,0l.93-1Z"/><path class="cls-2" d="M25.17,41.08l-1.38-1h0l-3.49,2.48,1.65,2.49H24.7l-1.43-2.16a.41.41,0,0,1,.1-.56Z"/><path class="cls-7" d="M46.61,54.51a1,1,0,0,0,1-1v-7A9.25,9.25,0,0,0,42.18,38h0L29.78,33.23v-2.9A9.69,9.69,0,0,0,33.45,24a4.53,4.53,0,0,0,2.64-1.08,4.4,4.4,0,0,0,.45-6.2V12.83a12.83,12.83,0,0,0-25.66,0v3.94a4.16,4.16,0,0,0-1.07,2.77,4.39,4.39,0,0,0,1.53,3.33A4.47,4.47,0,0,0,14,24a9.59,9.59,0,0,0,3.88,6.53v2.75L5.48,38h0A9.23,9.23,0,0,0,0,46.47V68a2.65,2.65,0,0,0,2.64,2.65h9.87a1,1,0,0,0,0-2.08H10.28V48.22a1,1,0,0,0-2.07,0V68.61H2.64A.57.57,0,0,1,2.07,68V46.47A7.16,7.16,0,0,1,6.25,40l7.43-2.88,3.26,6.54h0a1.83,1.83,0,0,0,1.63,1A2.32,2.32,0,0,0,20.05,44l.83,1.26L17.79,63.52v0A1.9,1.9,0,0,0,18.23,65l3.25,3.57H17.34a1,1,0,0,0,0,2.08H45A2.65,2.65,0,0,0,47.65,68V58.31a1,1,0,0,0-2.08,0V68a.56.56,0,0,1-.57.57H39.44V48.22a1,1,0,0,0-2.07,0V68.61H26.16L29.41,65a1.9,1.9,0,0,0,.45-1.49v0l-3.1-18.29L27.59,44a2.35,2.35,0,0,0,1.48.65,1.8,1.8,0,0,0,1.62-1h0L34,37.07,41.4,40a7.19,7.19,0,0,1,4.17,6.52v7A1,1,0,0,0,46.61,54.51ZM34.73,21.3a2.34,2.34,0,0,1-1.19.55V17.23a2.34,2.34,0,0,1,2,2.31A2.29,2.29,0,0,1,34.73,21.3ZM13,12.83a10.76,10.76,0,1,1,21.52,0v2.49a4.78,4.78,0,0,0-.93-.18c0-1,0-.8-3.26-4.32a1.84,1.84,0,0,0-2.35-.28,20,20,0,0,1-12.07,3.25,1.84,1.84,0,0,0-1.92,1.38,5.75,5.75,0,0,0-1,.22V12.83Zm-1.07,6.71a2.46,2.46,0,0,1,2-2.26v4.57A2.34,2.34,0,0,1,11.88,19.54ZM16,22.67v-6.8a22.21,22.21,0,0,0,13-3.49c1.49,1.61,2.31,2.45,2.57,2.77v7.52a7.76,7.76,0,0,1-15.52,0Zm7.89,9.7a9.68,9.68,0,0,0,3.87-.81v2l-3.89,4.81-3.9-4.82V31.63A10.65,10.65,0,0,0,23.84,32.37Zm-8.22,4,2.94-1.14,3.76,4.64-3.66,2.6Zm8.2,31.79-4-4.37,3-17.71h1.94l3,17.71ZM25.11,44H22.53l-.79-1.19,2.08-1.47,2.08,1.47ZM29,42.42l-3.67-2.6,3.76-4.64,3,1.14Z"/><path class="cls-1" d="M64.5,1.1A11.8,11.8,0,0,0,52.7,12.9v4.77a3.76,3.76,0,0,1,3-1V16.1a.8.8,0,0,1,.86-.8,21.12,21.12,0,0,0,12.71-3.41.81.81,0,0,1,1,.12c3,3.23,3,3.1,3,3.52v1.16a3.57,3.57,0,0,1,3,.88V12.9A11.81,11.81,0,0,0,64.5,1.1Z"/><path class="cls-2" d="M55.46,12.9A11.79,11.79,0,0,1,65.88,1.19,10.43,10.43,0,0,0,64.5,1.1,11.8,11.8,0,0,0,52.7,12.9v4.77a3.82,3.82,0,0,1,2.76-1V12.9Z"/><path class="cls-3" d="M73.28,16.26v6.49c0,.07,0,.14,0,.21a3.42,3.42,0,1,0,0-6.7Z"/><path class="cls-4" d="M76.06,16.94a3.63,3.63,0,0,0-2.78-.68v6.49c0,.07,0,.14,0,.21a3.61,3.61,0,0,0,2.79-.69V16.94Z"/><path class="cls-3" d="M55.73,22.76V16.25a3.61,3.61,0,0,0-4.1,3.36A3.45,3.45,0,0,0,55.74,23C55.74,22.9,55.73,22.83,55.73,22.76Z"/><path class="cls-4" d="M55.73,22.3a3.37,3.37,0,0,1-1.34-2.69A3.29,3.29,0,0,1,55.73,17v-.77a3.61,3.61,0,0,0-4.1,3.36A3.45,3.45,0,0,0,55.74,23c0-.07,0-.14,0-.21Z"/><path class="cls-3" d="M64.62,31a9.07,9.07,0,0,1-5-1.4v4.83l4.93,6.09,4.93-6.09v-5A8.61,8.61,0,0,1,64.62,31Z"/><path class="cls-4" d="M62.49,30.76a9,9,0,0,1-2.82-1.17v4.83l2.82,3.48V30.76Z"/><path class="cls-5" d="M82.57,39.06,69.53,34,64.6,40.09,59.67,34l-13,5.05a8.26,8.26,0,0,0-4.83,7.48V68.11a1.61,1.61,0,0,0,1.61,1.61H85.79a1.61,1.61,0,0,0,1.61-1.61V46.54A8.26,8.26,0,0,0,82.57,39.06Z"/><path class="cls-1" d="M44.57,68.11V45a8,8,0,0,1,3-6.31l-.91.35a8.26,8.26,0,0,0-4.83,7.48V68.11a1.61,1.61,0,0,0,1.61,1.61h2.75A1.61,1.61,0,0,1,44.57,68.11Z"/><path class="cls-5" d="M70.31,11.6a.81.81,0,0,0-1-.13,21.19,21.19,0,0,1-12.71,3.42.8.8,0,0,0-.86.8v7a8.79,8.79,0,0,0,17.58,0V15.12C73.29,14.7,73.31,14.82,70.31,11.6Z"/><path class="cls-3" d="M58.47,22.74V14.92c-.63,0-1.27,0-1.9,0a.8.8,0,0,0-.86.8v7a8.91,8.91,0,0,0,10.17,8.57A8.67,8.67,0,0,1,58.47,22.74Z"/><path class="cls-1" d="M70.56,43.22l3.68-7.39L69.53,34,64.6,40.09l4.81,3.42A.79.79,0,0,0,70.56,43.22Z"/><path class="cls-1" d="M58.66,43.22,55,35.83,59.68,34l4.93,6.08L59.8,43.51A.77.77,0,0,1,58.66,43.22Z"/><path class="cls-6" d="M69.62,63.75,66.45,45H62.76L59.6,63.75a.78.78,0,0,0,.18.65h0l4.37,4.82a.63.63,0,0,0,.91,0l4.37-4.82h0A.82.82,0,0,0,69.62,63.75Z"/><polygon class="cls-6" points="64.61 40.1 64.61 40.09 64.61 40.1 64.6 40.09 64.6 40.1 61.11 42.58 62.76 45.07 64.6 45.07 64.61 45.07 66.45 45.07 68.11 42.58 64.61 40.1"/><path class="cls-2" d="M62.55,64.4a.78.78,0,0,1-.19-.65L65.52,45H62.76L59.6,63.75a.78.78,0,0,0,.18.65l4.37,4.82a.63.63,0,0,0,.91,0l.93-1Z"/><path class="cls-2" d="M66,41.08l-1.38-1h0l-3.49,2.48,1.65,2.49h2.76l-1.43-2.16a.41.41,0,0,1,.1-.56Z"/><path class="cls-7" d="M87.43,54.51a1,1,0,0,0,1-1v-7A9.25,9.25,0,0,0,83,38h0L70.6,33.23v-2.9A9.69,9.69,0,0,0,74.27,24a4.53,4.53,0,0,0,2.64-1.08,4.41,4.41,0,0,0,.46-6.2V12.83a12.84,12.84,0,0,0-25.67,0v3.94a4.16,4.16,0,0,0-1.07,2.77,4.39,4.39,0,0,0,1.53,3.33A4.47,4.47,0,0,0,54.79,24a9.63,9.63,0,0,0,3.88,6.53v2.75L46.31,38h0a9.23,9.23,0,0,0-5.47,8.44V68a2.65,2.65,0,0,0,2.64,2.65h9.87a1,1,0,0,0,0-2.08H51.1V48.22a1,1,0,0,0-2.07,0V68.61H43.46a.57.57,0,0,1-.57-.57V46.47A7.17,7.17,0,0,1,47.07,40l7.43-2.88,3.27,6.54h0a1.8,1.8,0,0,0,1.62,1A2.32,2.32,0,0,0,60.87,44l.84,1.26-3.1,18.29v0A1.85,1.85,0,0,0,59.05,65l3.25,3.57H58.16a1,1,0,0,0,0,2.08H85.82A2.65,2.65,0,0,0,88.47,68V58.31a1,1,0,1,0-2.07,0V68a.57.57,0,0,1-.58.57H80.26V48.22a1,1,0,0,0-2.07,0V68.61H67L70.23,65a1.9,1.9,0,0,0,.45-1.49v0L67.58,45.23,68.41,44a2.35,2.35,0,0,0,1.48.65,1.83,1.83,0,0,0,1.63-1h0l3.26-6.54L82.22,40a7.19,7.19,0,0,1,4.18,6.52v7A1,1,0,0,0,87.43,54.51ZM75.56,21.3a2.41,2.41,0,0,1-1.2.55V17.23a2.33,2.33,0,0,1,1.2,4.07ZM53.77,12.83a10.76,10.76,0,0,1,21.52,0v2.49a4.78,4.78,0,0,0-.93-.18c0-1,0-.8-3.26-4.32a1.84,1.84,0,0,0-2.35-.28,20,20,0,0,1-12.07,3.25,1.84,1.84,0,0,0-1.92,1.38,5.75,5.75,0,0,0-1,.22V12.83ZM52.7,19.54a2.46,2.46,0,0,1,2-2.26v4.57A2.34,2.34,0,0,1,52.7,19.54Zm4.08,3.13v-6.8a22.18,22.18,0,0,0,12.94-3.49c1.5,1.61,2.31,2.45,2.57,2.77v7.52a7.76,7.76,0,0,1-15.51,0Zm7.88,9.7a9.65,9.65,0,0,0,3.87-.81v2l-3.89,4.81-3.9-4.82V31.63A10.69,10.69,0,0,0,64.66,32.37Zm-8.22,4,2.94-1.14,3.76,4.64-3.66,2.6Zm8.2,31.79-4-4.37,3-17.71h1.94l3,17.71ZM65.93,44H63.35l-.79-1.19,2.08-1.47,2.08,1.47Zm3.87-1.54-3.66-2.6C67,38.76,66,40,69.9,35.18l2.94,1.14Z"/><path class="cls-1" d="M45.17,9.74A12.78,12.78,0,0,0,32.39,22.52v18a1.69,1.69,0,0,0,1.69,1.69H56.25a1.69,1.69,0,0,0,1.69-1.69v-18A12.78,12.78,0,0,0,45.17,9.74Z"/><path class="cls-2" d="M35.32,40.54v-18A12.78,12.78,0,0,1,46.63,9.82a14.13,14.13,0,0,0-1.46-.08A12.78,12.78,0,0,0,32.39,22.52v18a1.69,1.69,0,0,0,1.69,1.69H37A1.69,1.69,0,0,1,35.32,40.54Z"/><path class="cls-3" d="M54.41,26.29v7a3.61,3.61,0,1,0,0-7Z"/><path class="cls-4" d="M57.36,26.9a3.82,3.82,0,0,0-3-.61v7a3.83,3.83,0,0,0,3-.61V26.9Z"/><path class="cls-3" d="M45.3,41.94A9.57,9.57,0,0,1,40,40.39v4.74l5.2,6.42,5.19-6.42V40.41A9.11,9.11,0,0,1,45.3,41.94Z"/><path class="cls-4" d="M42.89,41.65A9.29,9.29,0,0,1,40,40.39v4.74l2.93,3.62Z"/><path class="cls-5" d="M53.83,24.58a13.24,13.24,0,0,1-5.51-3.47.86.86,0,0,0-1.25,0c-1.5,1.72-5.55,5.91-10.62,7.78a.85.85,0,0,0-.55.8V33.1a9.27,9.27,0,0,0,18.53,0V25.39A.85.85,0,0,0,53.83,24.58Z"/><path class="cls-3" d="M38.83,33.1V27.85a19.62,19.62,0,0,1-2.38,1.07.85.85,0,0,0-.55.8V33.1a9.14,9.14,0,0,0,9.4,9.13,8.42,8.42,0,0,0,1.33-.1A9.14,9.14,0,0,1,38.83,33.1Z"/><path class="cls-6" d="M64.1,50.16,50.35,44.84l-5.19,6.41L40,44.84,26.23,50.16a8.71,8.71,0,0,0-5.08,7.89V80.78a1.7,1.7,0,0,0,1.69,1.7H67.49a1.7,1.7,0,0,0,1.69-1.7V58.05A8.71,8.71,0,0,0,64.1,50.16Z"/><path class="cls-8" d="M24.08,80.78V55.85a8.26,8.26,0,0,1,2.12-5.67,8.69,8.69,0,0,0-5.05,7.87V80.78a1.7,1.7,0,0,0,1.69,1.7h2.93A1.7,1.7,0,0,1,24.08,80.78Z"/><path class="cls-9" d="M51.43,54.55l3.89-7.79-5-1.92-5.19,6.41,5.06,3.6A.82.82,0,0,0,51.43,54.55Z"/><path class="cls-9" d="M38.89,54.55,35,46.76l5-1.92,5.2,6.41-5.07,3.6A.82.82,0,0,1,38.89,54.55Z"/><path class="cls-9" d="M41.82,54.15a18.75,18.75,0,0,0-3.93,6.57.65.65,0,0,0,.37.83l3.21,1.32a.66.66,0,0,0,.89-.47,20.37,20.37,0,0,1,2.43-6.06A3.61,3.61,0,0,1,41.82,54.15Z"/><path class="cls-9" d="M48.51,54.14a3.65,3.65,0,0,1-3,2.2A20.37,20.37,0,0,1,48,62.4a.66.66,0,0,0,.89.47l3.21-1.32a.65.65,0,0,0,.37-.83A18.77,18.77,0,0,0,48.51,54.14Z"/><path class="cls-2" d="M40.82,62.06a27.63,27.63,0,0,1,2.65-6.12,3.59,3.59,0,0,1-1.65-1.79,18.75,18.75,0,0,0-3.93,6.57.65.65,0,0,0,.37.83l2.56,1.05A1,1,0,0,1,40.82,62.06Z"/><path class="cls-2" d="M50,56.19l.15-.11a12.89,12.89,0,0,0-1.6-1.94,3.63,3.63,0,0,1-3,2.2A20.37,20.37,0,0,1,48,62.4a.66.66,0,0,0,.89.47l1.62-.67a27.93,27.93,0,0,0-1.22-3.66A2,2,0,0,1,50,56.19Z"/><path class="cls-9" d="M45.16,51.26l-3.6,2.55a3.75,3.75,0,0,0,7.2,0Z"/><path class="cls-2" d="M44.81,53.53l1.78-1.26-1.43-1-3.6,2.55a3.75,3.75,0,0,0,5,2.42,3.75,3.75,0,0,1-2-1.93A.63.63,0,0,1,44.81,53.53Z"/><path class="cls-7" d="M69.22,70.8a1.1,1.1,0,0,0-1.1,1.1v8.81a.6.6,0,0,1-.6.6H61.66V59.79a1.1,1.1,0,0,0-2.19,0V81.31H46.29V66.14a1.1,1.1,0,0,0-2.19,0V81.31H39.72a1.1,1.1,0,0,0,0,2.19h27.8a2.8,2.8,0,0,0,2.8-2.79V71.9A1.11,1.11,0,0,0,69.22,70.8Z"/><path class="cls-7" d="M64.55,49.07h0L51.49,44v-.75h4.79a2.81,2.81,0,0,0,2.8-2.8v-8a4.65,4.65,0,0,0,0-5.55V22.44a13.88,13.88,0,0,0-27.75,0v18a2.79,2.79,0,0,0,2.79,2.79H38.9V44l-13,5h0A9.77,9.77,0,0,0,20.09,58V80.71a2.79,2.79,0,0,0,2.79,2.79H34.6a1.1,1.1,0,0,0,0-2.2H30.94V59.79a1.1,1.1,0,0,0-2.2,0V81.31H22.88a.6.6,0,0,1-.6-.6V58a7.57,7.57,0,0,1,4.4-6.86l7.83-3L38,55h0a1.88,1.88,0,0,0,1.06.94,23.19,23.19,0,0,0-2.11,4.36,1.74,1.74,0,0,0,1,2.22l3.21,1.32a1.78,1.78,0,0,0,1.48-.07,1.74,1.74,0,0,0,.9-1.18,19.32,19.32,0,0,1,1.73-4.72,18.92,18.92,0,0,1,1.73,4.72,1.76,1.76,0,0,0,2.38,1.25l3.21-1.32a1.74,1.74,0,0,0,1-2.22,24,24,0,0,0-2.12-4.36A1.92,1.92,0,0,0,52.45,55h0l3.44-6.9,7.83,3A7.6,7.6,0,0,1,68.12,58v8.81a1.1,1.1,0,0,0,2.19,0V58A9.75,9.75,0,0,0,64.55,49.07ZM37,33v-3.2c.63-.24,1.25-.52,1.84-.81a31.69,31.69,0,0,0,8.89-7,14.38,14.38,0,0,0,5.37,3.43l.24.08V33A8.17,8.17,0,0,1,37,33ZM57.8,29.73a2.48,2.48,0,0,1-2.23,2.45v-4.9A2.47,2.47,0,0,1,57.8,29.73ZM47.32,54a2.53,2.53,0,0,1-4.25,0l2.13-1.51C46.93,53.76,46.47,53.44,47.32,54Zm-2-10.78a10.32,10.32,0,0,0,4-.79v1.92l-4.09,5-4.1-5.06V42.43A11.11,11.11,0,0,0,45.33,43.25Zm11.55-2.79a.6.6,0,0,1-.6.6H51.66a10.24,10.24,0,0,0,3.81-6.67,5,5,0,0,0,1.41-.28v6.35Zm-22.76.6a.6.6,0,0,1-.6-.6v-18a11.68,11.68,0,0,1,23.36,0v2.9a5.61,5.61,0,0,0-1.33-.27,1.92,1.92,0,0,0-1.36-1.61h0a12.19,12.19,0,0,1-5-3.19,1.94,1.94,0,0,0-2.71-.07c-.28.26-4.58,5.5-10.32,7.62a2,2,0,0,0-1.27,1.82V33a10.16,10.16,0,0,0,3.91,8Zm2.44,6.22,3.09-1.2,4,4.89,0,0-3.8,2.7Zm4.88,14.3-2.33-1a18.72,18.72,0,0,1,2.62-4.75,4.6,4.6,0,0,0,1.47,1.07A21.61,21.61,0,0,0,41.44,61.58Zm7.52,0a21.51,21.51,0,0,0-1.76-4.65,4.6,4.6,0,0,0,1.47-1.07,19.34,19.34,0,0,1,2.63,4.76Zm1.67-7.89L46.78,51l4-4.88,3.09,1.2Z"/></g></g></svg>