<?xml version="1.0" encoding="utf-8"?>
<!-- Generator: Adobe Illustrator 25.2.1, SVG Export Plug-In . SVG Version: 6.00 Build 0)  -->
<svg version="1.1" id="Capa_1" xmlns="http://www.w3.org/2000/svg" xmlns:xlink="http://www.w3.org/1999/xlink" x="0px" y="0px"
	 viewBox="0 0 406 339.1" style="enable-background:new 0 0 406 339.1;" xml:space="preserve">
<style type="text/css">
	.st0{opacity:0.5;fill:url(#SVGID_1_);}
	.st1{fill:#747474;}
	.st2{fill:#FFFFFF;}
</style>
<radialGradient id="SVGID_1_" cx="388.8383" cy="447.6672" r="171.7619" gradientTransform="matrix(0.9224 0 0 0.871 -131.3885 -222.6249)" gradientUnits="userSpaceOnUse">
	<stop  offset="0.1089" style="stop-color:#010101"/>
	<stop  offset="0.1149" style="stop-color:#040404"/>
	<stop  offset="0.2623" style="stop-color:#454545"/>
	<stop  offset="0.4074" style="stop-color:#7E7E7E"/>
	<stop  offset="0.5465" style="stop-color:#ACACAC"/>
	<stop  offset="0.6785" style="stop-color:#D0D0D0"/>
	<stop  offset="0.8015" style="stop-color:#EAEAEA"/>
	<stop  offset="0.9122" style="stop-color:#FAFAFA"/>
	<stop  offset="1" style="stop-color:#FFFFFF"/>
</radialGradient>
<ellipse class="st0" cx="227.3" cy="167.3" rx="158.4" ry="149.6"/>
<polygon class="st1" points="173.2,87.6 39.8,87.6 112,165.4 39.8,243.3 173.2,243.3 245.3,165.4 "/>
<polygon class="st2" points="255.6,61 76.8,61 173.6,165.4 76.8,269.9 255.6,269.9 352.5,165.4 "/>
<path class="st1" d="M250.2,73.6l85.2,91.8l-85.2,91.8H105.6l85.2-91.8l-85.2-91.8H250.2 M250.8,72.2h-0.6H105.6h-3.2l2.2,2.3
	l84.3,90.9l-84.3,90.9l-2.2,2.3h3.2h144.6h0.6l0.4-0.4l85.2-91.8l0.9-0.9l-0.9-0.9l-85.2-91.8L250.8,72.2L250.8,72.2z"/>
<polygon class="st1" points="105.6,73.6 250.2,73.6 335.4,165.4 251.2,258.2 105.6,257.3 190.8,165.4 "/>
<g>
</g>
<g>
</g>
<g>
</g>
<g>
</g>
<g>
</g>
<g>
</g>
</svg>
