<?xml version="1.0" encoding="utf-8"?>
<!-- Generator: Adobe Illustrator 25.2.1, SVG Export Plug-In . SVG Version: 6.00 Build 0)  -->
<svg version="1.1" id="Capa_1" xmlns="http://www.w3.org/2000/svg" xmlns:xlink="http://www.w3.org/1999/xlink" x="0px" y="0px"
	 viewBox="0 0 406 339.1" style="enable-background:new 0 0 406 339.1;" xml:space="preserve">
<style type="text/css">
	.st0{opacity:0.5;fill:url(#SVGID_1_);}
	.st1{fill:#D82627;}
	.st2{fill:#FFFFFF;}
</style>
<radialGradient id="SVGID_1_" cx="388.9171" cy="448.5305" r="172.6252" gradientTransform="matrix(0.9224 0 0 0.871 -131.3885 -222.6249)" gradientUnits="userSpaceOnUse">
	<stop  offset="0.1089" style="stop-color:#010101"/>
	<stop  offset="0.1149" style="stop-color:#040404"/>
	<stop  offset="0.2623" style="stop-color:#454545"/>
	<stop  offset="0.4074" style="stop-color:#7E7E7E"/>
	<stop  offset="0.5465" style="stop-color:#ACACAC"/>
	<stop  offset="0.6785" style="stop-color:#D0D0D0"/>
	<stop  offset="0.8015" style="stop-color:#EAEAEA"/>
	<stop  offset="0.9122" style="stop-color:#FAFAFA"/>
	<stop  offset="1" style="stop-color:#FFFFFF"/>
</radialGradient>
<ellipse class="st0" cx="227.3" cy="168" rx="159.2" ry="150.4"/>
<polygon class="st1" points="173,88 39,88 111.5,166.2 39,244.4 173,244.4 245.5,166.2 "/>
<polygon class="st2" points="255.9,61.3 76.1,61.3 173.4,166.2 76.1,271.1 255.9,271.1 353.2,166.2 "/>
<path class="st1" d="M250.3,73.9l85.6,92.3l-85.6,92.3H105l85.6-92.3L105,73.9H250.3 M251,72.5h-0.6H105h-3.2l2.2,2.4l84.8,91.4
	L104,257.5l-2.2,2.4h3.2h145.3h0.6l0.4-0.4l85.6-92.3l0.9-1l-0.9-1l-85.6-92.3L251,72.5L251,72.5z"/>
<g>
</g>
<g>
</g>
<g>
</g>
<g>
</g>
<g>
</g>
<g>
</g>
</svg>
