<svg xmlns="http://www.w3.org/2000/svg" viewBox="0 0 139.67 139.67"><defs><style>.cls-1{fill:#d82627;}.cls-2,.cls-3{fill:#010101;}.cls-2{opacity:0.1;}.cls-4{fill:#f0f3fa;}.cls-5{fill:#e0e0df;}.cls-6{fill:#747474;}</style></defs><g id="Capa_2" data-name="Capa 2"><g id="Capa_1-2" data-name="Capa 1"><path class="cls-1" d="M133.26,65.58h-3.21a.79.79,0,0,1-.79-.72A59.73,59.73,0,0,0,74.72,10.4a.68.68,0,0,1-.63-.69V6.41a4.33,4.33,0,0,0-3.77-4.34A4.26,4.26,0,0,0,65.58,6.3V9.51a.91.91,0,0,1-.83.91A59.73,59.73,0,0,0,10.41,64.85a.8.8,0,0,1-.8.73H6.41a4.33,4.33,0,0,0-4.34,3.77A4.26,4.26,0,0,0,6.3,74.09H9.77a.62.62,0,0,1,.62.58,59.73,59.73,0,0,0,54.47,54.59.78.78,0,0,1,.72.78v3.22a4.32,4.32,0,0,0,3.77,4.34,4.26,4.26,0,0,0,4.74-4.23v-3.52a.57.57,0,0,1,.52-.57,59.73,59.73,0,0,0,54.65-54.47.78.78,0,0,1,.78-.72h3.33a4.26,4.26,0,0,0,4.23-4.74A4.33,4.33,0,0,0,133.26,65.58ZM70.55,121A51.13,51.13,0,1,1,121,70.55,51.18,51.18,0,0,1,70.55,121Z"/><path class="cls-2" d="M71,133.26V130a.79.79,0,0,0-.72-.78A59.73,59.73,0,0,1,15.85,74.67a.63.63,0,0,0-.63-.58H11.75a4.25,4.25,0,0,1-4.22-4.74,4.32,4.32,0,0,1,4.34-3.77h3.2a.79.79,0,0,0,.79-.73A59.74,59.74,0,0,1,70.2,10.42a.91.91,0,0,0,.84-.9V6.3a4.26,4.26,0,0,1,1.51-3.25,4.13,4.13,0,0,0-2.23-1A4.26,4.26,0,0,0,65.58,6.3V9.52a.9.9,0,0,1-.83.9A59.73,59.73,0,0,0,10.41,64.85a.8.8,0,0,1-.8.73H6.41a4.33,4.33,0,0,0-4.34,3.77A4.26,4.26,0,0,0,6.3,74.09H9.77a.62.62,0,0,1,.62.58,59.73,59.73,0,0,0,54.47,54.59.78.78,0,0,1,.72.78v3.22a4.32,4.32,0,0,0,3.77,4.34,4.22,4.22,0,0,0,3.22-1A4.44,4.44,0,0,1,71,133.26Z"/><path class="cls-3" d="M133.37,63.54H131.2A61.78,61.78,0,0,0,76.13,8.48V6.3a6.3,6.3,0,1,0-12.59,0V8.48A61.76,61.76,0,0,0,8.48,63.54H6.3a6.3,6.3,0,1,0,0,12.59H8.48A61.78,61.78,0,0,0,63.54,131.2v2.17a6.3,6.3,0,1,0,12.59,0V131.2A61.81,61.81,0,0,0,131.2,76.13h2.17a6.3,6.3,0,1,0,0-12.59Zm0,8.5h-4.05a2,2,0,0,0-2,1.9,57.82,57.82,0,0,1-53.34,53.34,2,2,0,0,0-1.9,2v4.05a2.21,2.21,0,1,1-4.41,0v-4.05a2,2,0,0,0-1.9-2A57.83,57.83,0,0,1,12.39,73.94a2,2,0,0,0-2-1.9h-4a2.21,2.21,0,1,1,0-4.41h4.05a2,2,0,0,0,2-1.9A57.83,57.83,0,0,1,65.73,12.39a2,2,0,0,0,1.9-2v-4A2.21,2.21,0,1,1,72,6.3v4.05a2,2,0,0,0,1.9,2,57.82,57.82,0,0,1,53.34,53.34,2,2,0,0,0,2,1.9h4.05a2.21,2.21,0,1,1,0,4.41Z"/><path class="cls-2" d="M80.2,42.21H90.61a4.18,4.18,0,0,1,4.18,4.15l.09,52.08a4.17,4.17,0,0,1-4.16,4.18l-41.66.08a4.18,4.18,0,0,1-4.17-4.16l-.1-52.08A4.19,4.19,0,0,1,49,42.27l10.41,0"/><polyline class="cls-4" points="84.37 46.37 90.62 46.36 90.72 98.44 49.05 98.52 48.95 46.44 55.2 46.43"/><path class="cls-5" d="M76,40.14H72.71a3.11,3.11,0,0,0-5.87,0H63.53a4.17,4.17,0,0,0-4.16,4.18V48.5l20.84,0V44.3A4.17,4.17,0,0,0,76,40.14Z"/><rect class="cls-2" x="59.42" y="45.29" width="20.83" height="3.19"/><path class="cls-3" d="M95.76,46.35a5.14,5.14,0,0,0-5.14-5.13h0l-10.42,0h0A5.15,5.15,0,0,0,76,39.16H73.33a4.07,4.07,0,0,0-7.11,0h-2.7a5.11,5.11,0,0,0-3.63,1.51,5.47,5.47,0,0,0-.5.58h0L49,41.3a5.16,5.16,0,0,0-5.14,5.15l.1,52.08a5.16,5.16,0,0,0,5.14,5.13h0l41.67-.08a5.14,5.14,0,0,0,5.13-5.15ZM61.27,42.08a3.15,3.15,0,0,1,2.26-.94h3.31a1,1,0,0,0,.92-.65,2.13,2.13,0,0,1,4,0,1,1,0,0,0,.92.65H76a3.18,3.18,0,0,1,3.19,3.18v3.19l-18.88,0V44.34A3.17,3.17,0,0,1,61.27,42.08Zm29.45,59.55-41.66.08a3.19,3.19,0,0,1-3.2-3.18l-.1-52.08A3.21,3.21,0,0,1,49,43.25l9.56,0a5.1,5.1,0,0,0-.12,1.11v4.17a1,1,0,0,0,1,1h0l20.83,0a1,1,0,0,0,1-1V44.3a5.11,5.11,0,0,0-.13-1.11l9.56,0h0a3.19,3.19,0,0,1,3.19,3.19l.1,52.08A3.19,3.19,0,0,1,90.72,101.63Z"/><path class="cls-1" d="M53.5,61.36a1,1,0,0,0,0,1.39l3.13,3.11a1,1,0,0,0,.69.29h0a.94.94,0,0,0,.69-.29l5.2-5.22a1,1,0,1,0-1.38-1.37l-4.51,4.52-2.44-2.43A1,1,0,0,0,53.5,61.36Z"/><path class="cls-1" d="M61.85,70.72l-4.51,4.53L54.9,72.82a1,1,0,1,0-1.38,1.38l3.14,3.12a1,1,0,0,0,.68.29,1,1,0,0,0,.7-.29l5.19-5.22a1,1,0,0,0-1.38-1.38Z"/><path class="cls-1" d="M61.87,82.18l-4.51,4.53-2.44-2.43a1,1,0,1,0-1.37,1.38l3.13,3.12a1,1,0,0,0,.69.29h0a1,1,0,0,0,.69-.29l5.2-5.22a1,1,0,0,0-1.39-1.38Z"/><path class="cls-6" d="M67.73,63h0l17.7,0a1,1,0,1,0,0-1.95h0l-17.71,0a1,1,0,0,0,0,2Z"/><path class="cls-6" d="M85.46,72.48h0l-17.71,0a1,1,0,0,0,0,1.95h0l17.7,0a1,1,0,1,0,0-2Z"/><path class="cls-6" d="M85.48,83.93,67.77,84a1,1,0,0,0,0,2h0l17.71,0a1,1,0,0,0,0-2Z"/></g></g></svg>