<svg xmlns="http://www.w3.org/2000/svg" viewBox="0 0 105.13 105.3"><defs><style>.cls-1{fill:#fff;}.cls-2{fill:#d82627;}.cls-3{fill:#e4e9f6;}.cls-4,.cls-7{fill:#010101;}.cls-4{opacity:0.1;}.cls-5{fill:#e0e0df;}.cls-6{fill:#484e55;}</style></defs><g id="Capa_2" data-name="Capa 2"><g id="Capa_1-2" data-name="Capa 1"><path class="cls-1" d="M92.1,13.24a39.93,39.93,0,1,0,0,56.47A39.92,39.92,0,0,0,92.1,13.24Z"/><path class="cls-2" d="M86.32,19a31.76,31.76,0,1,0,0,44.91A31.76,31.76,0,0,0,86.32,19Z"/><path class="cls-1" d="M87.34,41.47A23.48,23.48,0,1,1,63.86,18,23.48,23.48,0,0,1,87.34,41.47Z"/><path class="cls-3" d="M39.74,69.71A39.93,39.93,0,0,1,65.92,1.6a39.93,39.93,0,1,0,0,79.75A39.83,39.83,0,0,1,39.74,69.71Z"/><path class="cls-4" d="M45.52,63.93A31.75,31.75,0,0,1,65.92,9.79a31.75,31.75,0,1,0,0,63.37A31.68,31.68,0,0,1,45.52,63.93Z"/><path class="cls-4" d="M44.5,41.47A23.47,23.47,0,0,1,65.92,18.09C65.24,18,64.56,18,63.86,18a23.48,23.48,0,0,0,0,47c.7,0,1.38,0,2.06-.09A23.48,23.48,0,0,1,44.5,41.47Z"/><path class="cls-5" d="M33.58,78.5l-6.95-7a1.9,1.9,0,0,0-2.7,0L3.25,92.23a5.71,5.71,0,0,0,0,8.06l1.8,1.8a5.73,5.73,0,0,0,8.06,0L33.58,81.62A2.21,2.21,0,0,0,33.58,78.5Z"/><path class="cls-5" d="M19.81,75.67,3.25,92.23a5.71,5.71,0,0,0,0,8.06l1.8,1.8a5.73,5.73,0,0,0,8.06,0L29.67,85.52Z"/><path class="cls-4" d="M9.16,102.09l-1.8-1.8a5.73,5.73,0,0,1,0-8.06L23.93,75.67l3.41-3.41-.71-.71a1.9,1.9,0,0,0-2.7,0L3.25,92.23a5.71,5.71,0,0,0,0,8.06l1.8,1.8a5.73,5.73,0,0,0,6.09,1.28A5.71,5.71,0,0,1,9.16,102.09Z"/><path class="cls-2" d="M63,53.26c-4.17-.1-7.31-2.34-7.31-4.27,0-1,.86-2.42,1.93-2.42,1.31,0,2.34,2.24,5.38,2.59V42.3c-3.14-1.17-6.69-2.52-6.69-6.93S59.53,29.1,63,28.65v-1c0-.44.51-.86,1.17-.86s1.17.42,1.17.86v.9c2.24.07,5.9.73,5.9,2.72,0,.8-.56,2.38-1.83,2.38-1,0-1.76-1.1-4.07-1.27v6.06c3.07,1.14,6.52,2.69,6.52,7.38,0,4.24-2.66,6.69-6.52,7.31v1.06c0,.45-.58.87-1.17.87S63,54.67,63,54.22Zm.27-15.55v-5.2c-1.72.28-2.75,1.1-2.75,2.41C60.5,36.44,61.67,37.09,63.25,37.71Zm1.8,5.42v6a2.81,2.81,0,0,0,2.58-2.82C67.63,44.61,66.53,43.78,65.05,43.13Z"/><path class="cls-6" d="M97.12,41.47A33.29,33.29,0,1,0,87.37,65,33.07,33.07,0,0,0,97.12,41.47ZM63.82,71.69a30.2,30.2,0,1,1,21.37-8.85A30,30,0,0,1,63.82,71.69Z"/><path class="cls-7" d="M103.73,43.54a1.55,1.55,0,0,0-1.68,1.4A38.38,38.38,0,0,1,67.28,79.71a1.54,1.54,0,0,0,.14,3.07h.14a41.48,41.48,0,0,0,37.57-37.57A1.54,1.54,0,0,0,103.73,43.54Z"/><path class="cls-7" d="M60.36,79.71A38.4,38.4,0,1,1,102.05,38a1.55,1.55,0,0,0,3.08-.27,41.47,41.47,0,1,0-71.7,31.95L30.17,73l-2.5-2.49a3.44,3.44,0,0,0-4.87,0L2.12,91.14a7.24,7.24,0,0,0,0,10.24l1.8,1.8a7.24,7.24,0,0,0,10.24,0L34.63,82.71a3.75,3.75,0,0,0,0-5.3l-2.28-2.28,3.26-3.26A41.48,41.48,0,0,0,60.09,82.78h.14a1.54,1.54,0,0,0,.13-3.07Zm-27.91-.12a.68.68,0,0,1,0,.94L12,101a4.15,4.15,0,0,1-5.87,0L4.3,99.2a4.16,4.16,0,0,1,0-5.88L25,72.64a.36.36,0,0,1,.26-.11.33.33,0,0,1,.25.11Z"/></g></g></svg>