<svg xmlns="http://www.w3.org/2000/svg" viewBox="0 0 111.77 102.15"><defs><style>.cls-1{fill:#e0e0df;}.cls-2,.cls-3{fill:#010101;}.cls-2{opacity:0.1;}.cls-4{fill:#d82627;}.cls-5{fill:#fff;}</style></defs><g id="Capa_2" data-name="Capa 2"><g id="Capa_1-2" data-name="Capa 1"><path class="cls-1" d="M108.07,55h-23a2.25,2.25,0,0,1-2.24-2.24V48a2.25,2.25,0,0,1,2.24-2.24h23A2.25,2.25,0,0,1,110.32,48v4.69A2.25,2.25,0,0,1,108.07,55Z"/><path class="cls-2" d="M108.07,51.2h-23A2.25,2.25,0,0,1,82.85,49v3.75A2.25,2.25,0,0,0,85.09,55h23a2.25,2.25,0,0,0,2.25-2.24V49A2.25,2.25,0,0,1,108.07,51.2Z"/><path class="cls-1" d="M108.07,64.13h-23a2.25,2.25,0,0,1-2.24-2.24V57.2A2.25,2.25,0,0,1,85.09,55h23a2.25,2.25,0,0,1,2.25,2.25v4.69A2.25,2.25,0,0,1,108.07,64.13Z"/><path class="cls-2" d="M108.07,60.38h-23a2.25,2.25,0,0,1-2.24-2.25v3.76a2.25,2.25,0,0,0,2.24,2.24h23a2.25,2.25,0,0,0,2.25-2.24V58.13A2.25,2.25,0,0,1,108.07,60.38Z"/><path class="cls-1" d="M108.07,73.31h-23a2.25,2.25,0,0,1-2.24-2.24V66.38a2.25,2.25,0,0,1,2.24-2.25h23a2.25,2.25,0,0,1,2.25,2.25v4.69A2.25,2.25,0,0,1,108.07,73.31Z"/><path class="cls-2" d="M108.07,69.56h-23a2.25,2.25,0,0,1-2.24-2.25v3.76a2.25,2.25,0,0,0,2.24,2.24h23a2.25,2.25,0,0,0,2.25-2.24V67.31A2.25,2.25,0,0,1,108.07,69.56Z"/><path class="cls-1" d="M108.07,82.49h-23a2.25,2.25,0,0,1-2.24-2.25V75.56a2.25,2.25,0,0,1,2.24-2.25h23a2.25,2.25,0,0,1,2.25,2.25v4.68A2.25,2.25,0,0,1,108.07,82.49Z"/><path class="cls-2" d="M108.07,78.74h-23a2.26,2.26,0,0,1-2.24-2.25v3.75a2.25,2.25,0,0,0,2.24,2.25h23a2.25,2.25,0,0,0,2.25-2.25V76.49A2.26,2.26,0,0,1,108.07,78.74Z"/><path class="cls-1" d="M108.07,91.67h-23a2.25,2.25,0,0,1-2.24-2.25V84.73a2.25,2.25,0,0,1,2.24-2.24h23a2.25,2.25,0,0,1,2.25,2.24v4.69A2.25,2.25,0,0,1,108.07,91.67Z"/><path class="cls-2" d="M108.07,87.91h-23a2.25,2.25,0,0,1-2.24-2.24v3.75a2.25,2.25,0,0,0,2.24,2.25h23a2.25,2.25,0,0,0,2.25-2.25V85.67A2.25,2.25,0,0,1,108.07,87.91Z"/><path class="cls-1" d="M108.07,100.84h-23a2.25,2.25,0,0,1-2.24-2.24V93.91a2.25,2.25,0,0,1,2.24-2.24h23a2.25,2.25,0,0,1,2.25,2.24V98.6A2.25,2.25,0,0,1,108.07,100.84Z"/><path class="cls-2" d="M108.07,97.09h-23a2.25,2.25,0,0,1-2.24-2.24V98.6a2.25,2.25,0,0,0,2.24,2.24h23a2.25,2.25,0,0,0,2.25-2.24V94.85A2.25,2.25,0,0,1,108.07,97.09Z"/><path class="cls-1" d="M80.6,73.31h-23a2.25,2.25,0,0,1-2.25-2.24V66.38a2.25,2.25,0,0,1,2.25-2.25h23a2.26,2.26,0,0,1,2.25,2.25v4.69A2.25,2.25,0,0,1,80.6,73.31Z"/><path class="cls-2" d="M80.6,69.56h-23a2.25,2.25,0,0,1-2.25-2.25v3.76a2.25,2.25,0,0,0,2.25,2.24h23a2.26,2.26,0,0,0,2.25-2.24V67.31A2.25,2.25,0,0,1,80.6,69.56Z"/><path class="cls-1" d="M80.6,82.49h-23a2.25,2.25,0,0,1-2.25-2.25V75.56a2.25,2.25,0,0,1,2.25-2.25h23a2.26,2.26,0,0,1,2.25,2.25v4.68A2.25,2.25,0,0,1,80.6,82.49Z"/><path class="cls-2" d="M80.6,78.74h-23a2.26,2.26,0,0,1-2.25-2.25v3.75a2.25,2.25,0,0,0,2.25,2.25h23a2.26,2.26,0,0,0,2.25-2.25V76.49A2.26,2.26,0,0,1,80.6,78.74Z"/><path class="cls-1" d="M80.6,91.67h-23a2.25,2.25,0,0,1-2.25-2.25V84.73a2.25,2.25,0,0,1,2.25-2.24h23a2.26,2.26,0,0,1,2.25,2.24v4.69A2.25,2.25,0,0,1,80.6,91.67Z"/><path class="cls-2" d="M80.6,87.91h-23a2.25,2.25,0,0,1-2.25-2.24v3.75a2.25,2.25,0,0,0,2.25,2.25h23a2.26,2.26,0,0,0,2.25-2.25V85.67A2.25,2.25,0,0,1,80.6,87.91Z"/><path class="cls-1" d="M80.6,100.84h-23a2.25,2.25,0,0,1-2.25-2.24V93.91a2.25,2.25,0,0,1,2.25-2.24h23a2.26,2.26,0,0,1,2.25,2.24V98.6A2.25,2.25,0,0,1,80.6,100.84Z"/><path class="cls-2" d="M80.6,97.09h-23a2.25,2.25,0,0,1-2.25-2.24V98.6a2.25,2.25,0,0,0,2.25,2.24h23a2.26,2.26,0,0,0,2.25-2.24V94.85A2.25,2.25,0,0,1,80.6,97.09Z"/><path class="cls-1" d="M53.13,91.67h-23a2.25,2.25,0,0,1-2.24-2.25V84.73a2.25,2.25,0,0,1,2.24-2.24h23a2.25,2.25,0,0,1,2.24,2.24v4.69A2.25,2.25,0,0,1,53.13,91.67Z"/><path class="cls-2" d="M53.13,87.91h-23a2.25,2.25,0,0,1-2.24-2.24v3.75a2.25,2.25,0,0,0,2.24,2.25h23a2.25,2.25,0,0,0,2.24-2.25V85.67A2.25,2.25,0,0,1,53.13,87.91Z"/><path class="cls-1" d="M53.13,100.84h-23A2.25,2.25,0,0,1,27.9,98.6V93.91a2.25,2.25,0,0,1,2.24-2.24h23a2.25,2.25,0,0,1,2.24,2.24V98.6A2.25,2.25,0,0,1,53.13,100.84Z"/><path class="cls-2" d="M53.13,97.09h-23a2.25,2.25,0,0,1-2.24-2.24V98.6a2.25,2.25,0,0,0,2.24,2.24h23a2.25,2.25,0,0,0,2.24-2.24V94.85A2.25,2.25,0,0,1,53.13,97.09Z"/><path class="cls-3" d="M108.12,44.28h-23a3.66,3.66,0,0,0-3.65,3.65v4.69a3.6,3.6,0,0,0,.78,2.24,3.61,3.61,0,0,0-.78,2.25v4.68a3.52,3.52,0,0,0,.14,1,4,4,0,0,0-1-.13H72.43a1.4,1.4,0,0,0,0,2.8h8.22a.86.86,0,0,1,.84.84V71a.85.85,0,0,1-.84.84h-23a.85.85,0,0,1-.84-.84V66.28a.86.86,0,0,1,.84-.84h8.22a1.4,1.4,0,0,0,0-2.8H57.66A3.64,3.64,0,0,0,54,66.28V71a3.66,3.66,0,0,0,.77,2.25A3.66,3.66,0,0,0,54,75.46v4.69a3.93,3.93,0,0,0,.13,1,3.52,3.52,0,0,0-1-.14h-23a3.66,3.66,0,0,0-3.65,3.65v4.69a3.58,3.58,0,0,0,.78,2.24,3.61,3.61,0,0,0-.78,2.25v4.69a3.65,3.65,0,0,0,3.65,3.64h23a3.66,3.66,0,0,0,2.25-.77,3.66,3.66,0,0,0,2.24.77h23a3.66,3.66,0,0,0,2.24-.77,3.66,3.66,0,0,0,2.25.77h23a3.65,3.65,0,0,0,3.65-3.64V93.82a3.61,3.61,0,0,0-.78-2.25,3.58,3.58,0,0,0,.78-2.24V84.64A3.58,3.58,0,0,0,111,82.4a3.61,3.61,0,0,0,.78-2.25V75.46a3.6,3.6,0,0,0-.78-2.24,3.61,3.61,0,0,0,.78-2.25V66.28A3.6,3.6,0,0,0,111,64a3.61,3.61,0,0,0,.78-2.25V57.11a3.61,3.61,0,0,0-.78-2.25,3.6,3.6,0,0,0,.78-2.24V47.93A3.66,3.66,0,0,0,108.12,44.28ZM84.29,47.93a.85.85,0,0,1,.85-.84h23a.85.85,0,0,1,.84.84v4.69a.85.85,0,0,1-.84.84h-23a.86.86,0,0,1-.85-.84ZM109,57.11v4.68a.85.85,0,0,1-.84.85h-23a.86.86,0,0,1-.85-.85V57.11a.86.86,0,0,1,.85-.85h23A.85.85,0,0,1,109,57.11Zm0,9.17V71a.85.85,0,0,1-.84.84h-23a.85.85,0,0,1-.85-.84V66.28a.86.86,0,0,1,.85-.84h23A.85.85,0,0,1,109,66.28Zm0,9.18v4.69a.85.85,0,0,1-.84.84h-23a.85.85,0,0,1-.85-.84V75.46a.86.86,0,0,1,.85-.84h23A.85.85,0,0,1,109,75.46Zm0,9.18v4.69a.85.85,0,0,1-.84.84h-23a.86.86,0,0,1-.85-.84V84.64a.85.85,0,0,1,.85-.84h23A.85.85,0,0,1,109,84.64ZM56.82,89.33V84.64a.85.85,0,0,1,.84-.84h23a.85.85,0,0,1,.84.84v4.69a.86.86,0,0,1-.84.84h-23A.86.86,0,0,1,56.82,89.33ZM80.65,74.62a.86.86,0,0,1,.84.84v4.69a.85.85,0,0,1-.84.84h-23a.85.85,0,0,1-.84-.84V75.46a.86.86,0,0,1,.84-.84Zm-51.3,10a.85.85,0,0,1,.84-.84h23a.85.85,0,0,1,.84.84v4.69a.85.85,0,0,1-.84.84h-23a.85.85,0,0,1-.84-.84ZM53.17,99.35h-23a.85.85,0,0,1-.84-.84V93.82a.85.85,0,0,1,.84-.84h23a.85.85,0,0,1,.84.84v4.69A.85.85,0,0,1,53.17,99.35Zm27.48,0h-23a.86.86,0,0,1-.84-.84V93.82a.85.85,0,0,1,.84-.84h23a.85.85,0,0,1,.84.84v4.69A.86.86,0,0,1,80.65,99.35ZM109,98.51a.85.85,0,0,1-.84.84h-23a.86.86,0,0,1-.85-.84V93.82a.85.85,0,0,1,.85-.84h23a.85.85,0,0,1,.84.84v4.69Z"/><path class="cls-4" d="M74.58,29.55H61.8A1.14,1.14,0,0,0,61,31.5l3.4,3.29L43.83,56.19,30.39,45a4.33,4.33,0,0,0-5.74.21L1.24,67.78a4,4,0,0,0,0,5.79,4.33,4.33,0,0,0,6,0L27.85,53.69,41.41,65a4.32,4.32,0,0,0,5.85-.31L70.35,40.58l3.4,3.29a1.18,1.18,0,0,0,2-.81V30.69A1.16,1.16,0,0,0,74.58,29.55Z"/><path class="cls-2" d="M64.37,34.79,43.83,56.19l1,.73a1.92,1.92,0,0,0,2.53-.2l20.12-21a1.32,1.32,0,0,0,0-1.88L65,31.5a1.14,1.14,0,0,1,.84-1.95h-4A1.14,1.14,0,0,0,61,31.5Z"/><path class="cls-2" d="M5.26,67.78C30.54,43.41,28.87,44.92,29.64,44.52a4.33,4.33,0,0,0-5,.7L1.24,67.78a4,4,0,0,0,0,5.79,4.35,4.35,0,0,0,5,.71A4,4,0,0,1,5.26,67.78Z"/><path class="cls-2" d="M45.42,65,30.63,52.66a1.4,1.4,0,0,0-1.88.1l-.9.93L41.41,65a4.33,4.33,0,0,0,4.76.5A4.45,4.45,0,0,1,45.42,65Z"/><circle class="cls-1" cx="94.13" cy="16.7" r="15.2"/><circle class="cls-5" cx="94.13" cy="16.7" r="9.45"/><path class="cls-3" d="M109.18,19.42a1.4,1.4,0,0,0-1.73,1A13.8,13.8,0,1,1,94.17,2.81,13.72,13.72,0,0,1,107.8,14.44a1.4,1.4,0,1,0,2.77-.44,16.58,16.58,0,1,0-.42,7.15A1.41,1.41,0,0,0,109.18,19.42Z"/><path class="cls-4" d="M94.77,15.58V12.8a3.64,3.64,0,0,1,1.53.51.7.7,0,0,0,1-.34,1,1,0,0,0-.08-1.26,4.1,4.1,0,0,0-2.42-.66v-.41c0-.24-.3-.4-.54-.4s-.54.17-.54.4v.44c-1.83.24-3.07,1.22-3.07,3.08s1.38,2.53,3.07,3.18v3.14a3.75,3.75,0,0,1-2-1,.7.7,0,0,0-1.07.23,1.07,1.07,0,0,0,0,1.39,4,4,0,0,0,3.1,1.28v.44c0,.24.28.4.54.4s.54-.16.54-.39v-.49a3.23,3.23,0,0,0,3-3.35C97.75,17.05,96.55,16.23,94.77,15.58Zm-1-.34c-.95-.38-1.27-.69-1.27-1.28s.59-1,1.27-1.11Zm.82,5.23V17.72c1,.43,1.19.9,1.19,1.45A1.3,1.3,0,0,1,94.64,20.47Z"/></g></g></svg>