<svg xmlns="http://www.w3.org/2000/svg" viewBox="0 0 104.17 104.56"><defs><style>.cls-1{fill:#e0dfdf;}.cls-2,.cls-4{opacity:0.1;}.cls-3{fill:#737474;}.cls-5{fill:#e0e0df;}.cls-6{fill:#fff;}.cls-7{fill:#010101;}.cls-8{fill:#d82627;}</style></defs><g id="Capa_2" data-name="Capa 2"><g id="Capa_1-2" data-name="Capa 1"><path class="cls-1" d="M65.86,29.39a27.61,27.61,0,0,1-7.55,8.45H43.4A27.52,27.52,0,0,1,36,29.54,40.77,40.77,0,0,0,18.13,41H8.29a3.46,3.46,0,0,0-3.46,3.46v2.32a6.17,6.17,0,0,0-3.37,5.5v13.1a5.43,5.43,0,0,0,3.37,5s0,.08,0,.12v1.8a3.79,3.79,0,0,0,3.79,3.79h5.13a2.54,2.54,0,0,1,2.09,1.1,36.56,36.56,0,0,0,9.44,9.14.74.74,0,0,1,.33.62V99.8A3.17,3.17,0,0,0,28.78,103H39.6a3.18,3.18,0,0,0,3.18-3.17V94.15a.74.74,0,0,1,.85-.74,50.29,50.29,0,0,0,7.54.57,49.32,49.32,0,0,0,8.23-.68.74.74,0,0,1,.87.73V99.8A3.18,3.18,0,0,0,63.45,103H74.27a3.17,3.17,0,0,0,3.18-3.17V86.49a.77.77,0,0,1,.31-.61C101.05,69.43,94.56,38.49,65.86,29.39Z"/><g class="cls-2"><path d="M22.75,40.51a40.05,40.05,0,0,1,14-9.69c-.27-.42-.52-.85-.76-1.28A40.77,40.77,0,0,0,18.13,41h3.53A1.46,1.46,0,0,0,22.75,40.51Z"/><path d="M63.69,36.88a27.59,27.59,0,0,0,5.62-6.24c-1.12-.46-2.27-.88-3.45-1.25a27.61,27.61,0,0,1-7.55,8.45C63,37.84,62.29,38.06,63.69,36.88Z"/><path d="M29.79,98.32V87.75a2.25,2.25,0,0,0-.95-1.82A36.16,36.16,0,0,1,20,77.22a2.55,2.55,0,0,0-2.09-1.1H14.27A5.26,5.26,0,0,1,9,70.85v-.44a5.44,5.44,0,0,1-3.36-5V52.28a6.16,6.16,0,0,1,2.7-5.11A1.48,1.48,0,0,0,9,45.94,4.94,4.94,0,0,1,14,41H8.29a3.46,3.46,0,0,0-3.46,3.46v2.32a6.17,6.17,0,0,0-3.37,5.5v13.1a5.43,5.43,0,0,0,3.37,5s0,.08,0,.12v1.8a3.79,3.79,0,0,0,3.79,3.79h5.13a2.54,2.54,0,0,1,2.09,1.1,36.56,36.56,0,0,0,9.44,9.14.74.74,0,0,1,.33.62V99.8A3.17,3.17,0,0,0,28.78,103h5.66A4.65,4.65,0,0,1,29.79,98.32Z"/><path d="M64.46,98.32V95.75a2.23,2.23,0,0,0-2.52-2.2c-.57.07-1.15.14-1.73.19a.72.72,0,0,1,.06.29V99.8A3.18,3.18,0,0,0,63.45,103h5.66A4.65,4.65,0,0,1,64.46,98.32Z"/></g><circle class="cls-3" cx="28.03" cy="48.78" r="3.4"/><path class="cls-4" d="M28.7,48.78a3.38,3.38,0,0,1,1.37-2.72,3.36,3.36,0,0,0-2-.68,3.4,3.4,0,0,0,0,6.8,3.36,3.36,0,0,0,2-.68A3.39,3.39,0,0,1,28.7,48.78Z"/><path d="M102.64,51.16a1.53,1.53,0,0,0-1.52,1.53c0,4.51-3.15,6.2-7.66,6.09-.89-14.12-11.7-25.32-25.41-30.22a19.43,19.43,0,0,0,.7-1.88,9.87,9.87,0,0,1-1.07.16,4.61,4.61,0,0,1-2.08-.35,23.57,23.57,0,0,1-7.75,9.89H44a23.89,23.89,0,0,1-7.54-9.59l0,0a5.35,5.35,0,0,1-2.85.91c.12.33.24.67.39,1A41.86,41.86,0,0,0,17.52,39.54H8.35a5,5,0,0,0-5,5V46A7.68,7.68,0,0,0,0,52.34V65.45a6.92,6.92,0,0,0,3.36,6v1a5.32,5.32,0,0,0,5.31,5.31h5.14a1,1,0,0,1,.84.45,37.64,37.64,0,0,0,9.49,9.29V99.86a4.71,4.71,0,0,0,4.7,4.7H39.66a4.71,4.71,0,0,0,4.71-4.7V95.11c1.09.15,2.21.26,3.33.34a1.53,1.53,0,1,0,.21-3c-1.35-.09-2.69-.24-4-.44a2.28,2.28,0,0,0-2.62,2.25v5.65a1.65,1.65,0,0,1-1.65,1.65H28.84a1.65,1.65,0,0,1-1.65-1.65V87a2.26,2.26,0,0,0-1-1.88,34.65,34.65,0,0,1-9-8.76,4.1,4.1,0,0,0-3.34-1.74H8.67A2.27,2.27,0,0,1,6.41,72.4v-.28h5.15a1.53,1.53,0,1,0,0-3.05H5.47a3.9,3.9,0,0,1-2.42-3.61V52.34A4.63,4.63,0,0,1,5.59,48.2a1.52,1.52,0,0,0,.83-1.36V44.52a1.94,1.94,0,0,1,1.93-1.93h9.84a1.53,1.53,0,0,0,1.15-.52A38.72,38.72,0,0,1,35.39,31.45a27.12,27.12,0,0,0,4,4.93h-.6a1.53,1.53,0,1,0,0,3h24.3a1.53,1.53,0,1,0,0-3h-.62a27.27,27.27,0,0,0,4.15-5.09c14.31,5,23.84,16.64,23.84,29.34,0,9.23-4.92,18-13.51,24.07a2.28,2.28,0,0,0-1,1.85V99.86a1.65,1.65,0,0,1-1.65,1.65H63.51a1.65,1.65,0,0,1-1.65-1.65V94.1a2.26,2.26,0,0,0-2.65-2.24c-1.43.24-2.91.41-4.4.52A1.53,1.53,0,0,0,55,95.43c1.27-.1,2.54-.24,3.77-.42v4.85a4.71,4.71,0,0,0,4.7,4.7H74.34a4.71,4.71,0,0,0,4.7-4.7V87c8.84-6.38,14-15.46,14.45-25.13,6.2.11,10.68-2.88,10.68-9.14A1.53,1.53,0,0,0,102.64,51.16Z"/><circle class="cls-5" cx="50.55" cy="19.79" r="18.02"/><circle class="cls-6" cx="50.55" cy="19.79" r="11.2"/><path class="cls-7" d="M68.39,23a1.67,1.67,0,0,0-2,1.15A16.36,16.36,0,1,1,50.61,3.33,16.26,16.26,0,0,1,66.76,17.11a1.67,1.67,0,1,0,3.29-.52,19.68,19.68,0,1,0-.51,8.48A1.68,1.68,0,0,0,68.39,23Z"/><path class="cls-8" d="M51.31,18.47v-3.3a4.33,4.33,0,0,1,1.82.6.84.84,0,0,0,1.15-.39,1.16,1.16,0,0,0-.09-1.5,4.91,4.91,0,0,0-2.88-.78v-.49c0-.28-.35-.47-.64-.47s-.63.19-.63.47v.52c-2.17.29-3.64,1.45-3.64,3.65s1.63,3,3.64,3.77v3.73a4.47,4.47,0,0,1-2.4-1.21.83.83,0,0,0-1.27.26,1.3,1.3,0,0,0,0,1.66A4.78,4.78,0,0,0,50,26.5V27c0,.28.33.47.63.47s.64-.19.64-.47v-.58a3.82,3.82,0,0,0,3.54-4C54.85,20.21,53.42,19.24,51.31,18.47Zm-1.12-.41c-1.13-.45-1.5-.82-1.5-1.52s.69-1.18,1.5-1.31Zm1,6.2V21c1.17.51,1.41,1.07,1.41,1.72A1.53,1.53,0,0,1,51.16,24.26Z"/></g></g></svg>