<svg xmlns="http://www.w3.org/2000/svg" viewBox="0 0 111.22 99.64"><defs><style>.cls-1{fill:#e0e0df;}.cls-2{fill:#fff;}.cls-3{fill:#d82627;}.cls-4{fill:#010101;}.cls-5{fill:#747474;}</style></defs><g id="Capa_2" data-name="Capa 2"><g id="Capa_1-2" data-name="Capa 1"><path class="cls-1" d="M109.59,60.07A38,38,0,1,1,71.64,22.12,37.95,37.95,0,0,1,109.59,60.07Z"/><path class="cls-2" d="M41.77,36.65V45.2a4.69,4.69,0,0,1-4.68,4.69h-2A37.91,37.91,0,0,1,41.77,36.65Z"/><circle class="cls-3" cx="71.64" cy="60.07" r="26.02"/><circle class="cls-2" cx="71.64" cy="60.07" r="21.54"/><path class="cls-1" d="M47.39,23.59,25.91,2.11a1.64,1.64,0,0,0-2.32,0L2.11,23.59a1.64,1.64,0,0,0,1.17,2.8h7.49V45.2a1.65,1.65,0,0,0,1.65,1.65H37.09a1.64,1.64,0,0,0,1.64-1.65V26.39h7.5A1.64,1.64,0,0,0,47.39,23.59Z"/><path class="cls-4" d="M71.64,20.49A39.55,39.55,0,0,0,40.36,35.82V28h5.87a3.27,3.27,0,0,0,2.31-5.59L27.07,1a3.27,3.27,0,0,0-4.63,0L1,22.43A3.27,3.27,0,0,0,3.28,28H9.14v4.66a1.63,1.63,0,0,0,3.26,0V26.39a1.63,1.63,0,0,0-1.63-1.63H3.27a0,0,0,0,1,0,0L24.74,3.26h0L46.25,24.74a0,0,0,0,1,0,0h-7.5a1.63,1.63,0,0,0-1.63,1.63V45.2s0,0,0,0H12.42l0,0V38.73a1.63,1.63,0,0,0-3.26,0V45.2a3.28,3.28,0,0,0,3.28,3.28H33.79a39.58,39.58,0,0,0,71.11,33,1.63,1.63,0,1,0-2.73-1.77,36.33,36.33,0,0,1-65-31.28,3.28,3.28,0,0,0,3.15-3.27V41.6A36.32,36.32,0,0,1,108,60.07,36,36,0,0,1,105,74.41a1.64,1.64,0,0,0,.86,2.14,1.59,1.59,0,0,0,.64.13,1.64,1.64,0,0,0,1.5-1A39.59,39.59,0,0,0,71.64,20.49Z"/><path class="cls-2" d="M104.83,61.7a1.63,1.63,0,0,0,1.63-1.63A34.86,34.86,0,0,0,71.64,25.24a1.63,1.63,0,0,0,0,3.26,31.61,31.61,0,0,1,31.57,31.57A1.63,1.63,0,0,0,104.83,61.7Z"/><path class="cls-2" d="M40.07,60.07a1.63,1.63,0,0,0-3.26,0A34.87,34.87,0,0,0,71.64,94.89a1.63,1.63,0,0,0,0-3.26A31.6,31.6,0,0,1,40.07,60.07Z"/><path class="cls-3" d="M67.25,64.71a1.63,1.63,0,1,0-3.26,0c0,3,2.58,5.51,6,6.12V72.1a1.63,1.63,0,0,0,3.26,0V70.83c3.43-.61,6-3.13,6-6.12,0-2-2.16-3.43-6-5.6V52.64c1.6.46,2.75,1.55,2.75,2.79a1.63,1.63,0,1,0,3.26,0c0-3-2.58-5.51-6-6.13V48A1.63,1.63,0,1,0,70,48V49.3c-3.44.62-6,3.13-6,6.13,0,2,2.17,3.42,6,5.59v6.47C68.41,67,67.25,65.94,67.25,64.71Zm8.77.16a3.42,3.42,0,0,1-2.75,2.62V62.87A11.53,11.53,0,0,1,76,64.87Zm-8.76-9.6A3.4,3.4,0,0,1,70,52.64v4.62A11.63,11.63,0,0,1,67.26,55.27Z"/><path class="cls-5" d="M19.74,50.45a1.63,1.63,0,0,0-1.63,1.63V62.27a1.63,1.63,0,1,0,3.25,0V52.08A1.62,1.62,0,0,0,19.74,50.45Z"/><path class="cls-5" d="M24.75,50.45a1.63,1.63,0,0,0-1.63,1.63v19.6a1.63,1.63,0,0,0,3.26,0V52.08A1.63,1.63,0,0,0,24.75,50.45Z"/><path class="cls-5" d="M29.77,50.45a1.63,1.63,0,0,0-1.63,1.63V62.27a1.63,1.63,0,0,0,3.26,0V52.08A1.63,1.63,0,0,0,29.77,50.45Z"/></g></g></svg>