<svg xmlns="http://www.w3.org/2000/svg" viewBox="0 0 57.09 57.09"><defs><style>.cls-1{fill:#e0dfdf;}.cls-2{fill:none;stroke:#d72426;stroke-miterlimit:10;stroke-width:0.4px;stroke-dasharray:0.79 0.79;}.cls-3{fill:#e0e0df;}.cls-12,.cls-4{fill:#010101;}.cls-10,.cls-4{opacity:0.1;}.cls-5{fill:#fff;}.cls-6{fill:#e4e9f6;}.cls-7{fill:#c2c7cf;}.cls-8{fill:#d82627;}.cls-10,.cls-9{fill:#747474;}.cls-11{fill:#9ad4bb;}</style></defs><g id="Capa_2" data-name="Capa 2"><g id="Capa_1-2" data-name="Capa 1"><circle class="cls-1" cx="29.56" cy="28.91" r="27.39"/><circle class="cls-2" cx="28.54" cy="28.54" r="28.35" transform="matrix(0.57, -0.82, 0.82, 0.57, -11.18, 35.75)"/><path class="cls-3" d="M17.15,1.07H38.63L45,7.54V42.21a.49.49,0,0,1-.48.49H17.09a.59.59,0,0,1-.58-.6V1.73A.66.66,0,0,1,17.15,1.07Z"/><path class="cls-4" d="M40.2,12.3,33.85,5.83a2.22,2.22,0,0,0-1.58-.66H19.08a.34.34,0,0,1-.34-.34V1.73a.66.66,0,0,1,.64-.66H17.15a.66.66,0,0,0-.64.66V42.1a.59.59,0,0,0,.58.6H40.84V13.85A2.2,2.2,0,0,0,40.2,12.3Z"/><path class="cls-5" d="M10.79,7.38H32.27l6.35,6.47V48.52a.48.48,0,0,1-.47.49H10.73a.59.59,0,0,1-.59-.6V8A.65.65,0,0,1,10.79,7.38Z"/><path class="cls-3" d="M12.36,48.41V8A.65.65,0,0,1,13,7.38H10.79a.65.65,0,0,0-.65.66V48.41a.59.59,0,0,0,.59.6h2.21A.59.59,0,0,1,12.36,48.41Z"/><path class="cls-6" d="M32.27,13.33V7.38l6.35,6.47H32.78A.51.51,0,0,1,32.27,13.33Z"/><path class="cls-7" d="M34.48,13.33V9.64L32.27,7.38v6a.51.51,0,0,0,.51.52H35A.51.51,0,0,1,34.48,13.33Z"/><path class="cls-8" d="M24.85,17.56H16.76a.47.47,0,0,0-.47.47v8.26a.47.47,0,0,0,.47.47h8.09a.47.47,0,0,0,.47-.47V18A.47.47,0,0,0,24.85,17.56Z"/><path class="cls-4" d="M18.51,26.29V18a.46.46,0,0,1,.46-.47H16.76a.47.47,0,0,0-.47.47v8.26a.47.47,0,0,0,.47.47H19A.46.46,0,0,1,18.51,26.29Z"/><path class="cls-3" d="M53.68,53.61,48.47,48.4a.55.55,0,0,0-.77,0l-1.38,1.38a.54.54,0,0,0,0,.76l5.25,5.25a.93.93,0,0,0,1.31,0l.8-.8A1,1,0,0,0,53.68,53.61Z"/><path class="cls-4" d="M53,54.83l-5.66-5.66a.5.5,0,0,1-.15-.26l-.87.87a.54.54,0,0,0,0,.76l5.25,5.25a.93.93,0,0,0,1.31,0l.69-.69A.92.92,0,0,1,53,54.83Z"/><rect class="cls-9" x="48.64" y="50.63" width="3.03" height="3.19" transform="translate(-22.24 50.76) rotate(-45)"/><polygon class="cls-4" points="49.15 50.98 47.95 52.17 48.76 52.98 50.21 54.43 51.4 53.24 49.15 50.98"/><path class="cls-3" d="M44.57,34.08a8.91,8.91,0,1,0,0,12.6A8.91,8.91,0,0,0,44.57,34.08Z"/><circle class="cls-5" cx="38.28" cy="40.38" r="5.75"/><path class="cls-9" d="M34.19,46.68a8.9,8.9,0,0,1,5.19-15.13,8.9,8.9,0,1,0,0,17.66A8.92,8.92,0,0,1,34.19,46.68Z"/><path class="cls-10" d="M34.74,40.38a5.74,5.74,0,0,1,4.64-5.64,5.75,5.75,0,1,0,0,11.28A5.76,5.76,0,0,1,34.74,40.38Z"/><path class="cls-3" d="M38.63,7V1.07L45,7.54H39.14A.51.51,0,0,1,38.63,7Z"/><path class="cls-11" d="M45.12,7.6h-6A.57.57,0,0,1,38.58,7V.94ZM38.69,1.21V7a.46.46,0,0,0,.45.47h5.71Z"/><path class="cls-4" d="M40.85,7V3.33L38.63,1.07V7a.51.51,0,0,0,.51.52h2.22A.51.51,0,0,1,40.85,7Z"/><path class="cls-9" d="M33.32,26.9H28.6a.83.83,0,1,1,0-1.66h4.72a.83.83,0,1,1,0,1.66Z"/><path class="cls-9" d="M33.32,22.64H28.6a.83.83,0,1,1,0-1.66h4.72a.83.83,0,0,1,0,1.66Z"/><path class="cls-9" d="M33.32,18.39H28.6a.83.83,0,0,1,0-1.66h4.72a.83.83,0,0,1,0,1.66Z"/><path class="cls-9" d="M33.32,31.15H15.44a.83.83,0,0,1,0-1.66H33.32a.83.83,0,1,1,0,1.66Z"/><path class="cls-9" d="M31.52,35.4H15.44a.83.83,0,0,1,0-1.66H31.52a.83.83,0,1,1,0,1.66Z"/><path class="cls-9" d="M29.51,39.66H15.44a.83.83,0,0,1,0-1.66H29.51a.83.83,0,1,1,0,1.66Z"/><path class="cls-9" d="M29.79,43.91H15.44a.83.83,0,0,1,0-1.66H29.79a.83.83,0,1,1,0,1.66Z"/><path class="cls-12" d="M54.27,53l-5.21-5.21a1.36,1.36,0,0,0-1.94,0l-.1.09-1.29-1.26a9.7,9.7,0,0,0,2-3.94.83.83,0,0,0-.61-1,.82.82,0,0,0-1,.61,8.06,8.06,0,0,1-7.84,6.14,8.29,8.29,0,0,1-1.93-.23l-.07,0a8.24,8.24,0,0,1-1.37-.48,8.09,8.09,0,0,1-3.44-3,8.23,8.23,0,0,1-1-2.2,8.73,8.73,0,0,1-.28-1.66c0-.16,0-.32,0-.48a8,8,0,0,1,2.24-5.59v0l0,0,0,0v0l0,0,0-.05,0,0h0a8.11,8.11,0,0,1,5.94-2.28l.58,0a8.12,8.12,0,0,1,1.45.3,8,8,0,0,1,2.11,1,7.84,7.84,0,0,1,1.7,1.51l.12.11a8,8,0,0,1,1.64,3.54.83.83,0,1,0,1.63-.33,9.67,9.67,0,0,0-1.93-4.19V7.39a.81.81,0,0,0-.24-.6L39.3.44h0l0,0h0l0,0h0l0,0h0A.91.91,0,0,0,39,.23H38.9a.68.68,0,0,0-.2,0H30.54a.83.83,0,0,0,0,1.66h7.34v5a1.34,1.34,0,0,0,1.34,1.34h5V32.66c-.22-.16-.44-.32-.68-.47a9.63,9.63,0,0,0-4.09-1.47h0v-17h0v0h0v0h0v0h0v0h0v0h0v0h0v0h0v0h0v0h0v0h-.09v0h0L32.86,6.78h0v0H17.41V1.86h9.26a.83.83,0,1,0,0-1.66H17.23a1.48,1.48,0,0,0-1.48,1.47V6.54h-5A1.48,1.48,0,0,0,9.31,8v40.4a1.43,1.43,0,0,0,1.42,1.42H36a10,10,0,0,0,2.31.27,9.71,9.71,0,0,0,6.28-2.29l1.29,1.26-.11.11a1.36,1.36,0,0,0,0,1.94L51,56.38a1.76,1.76,0,0,0,2.48,0l.8-.8A1.82,1.82,0,0,0,54.27,53ZM39.54,3l3.52,3.52H39.54Zm-2.92,9.86H33.1V9.37ZM11,48.18V8.2H31.44v5a1.34,1.34,0,0,0,1.34,1.34h5v16.1a9.53,9.53,0,0,0-6.31,2.76h0l0,0-.05.05-.05.06h0l0,0,0,0,0,0A9.74,9.74,0,0,0,30,45.45a9.45,9.45,0,0,0,2.46,2.73ZM53.09,54.4l-.8.81a.1.1,0,0,1-.13,0l-5-5.05,1-1,5,5A.14.14,0,0,1,53.09,54.4Z"/></g></g></svg>