<svg xmlns="http://www.w3.org/2000/svg" viewBox="0 0 59.61 57.25"><defs><style>.cls-1{fill:#e0dfdf;}.cls-2{fill:none;stroke:#d72426;stroke-miterlimit:10;stroke-width:0.4px;stroke-dasharray:0.79 0.79;}.cls-3{fill:#e4e9f6;}.cls-4{fill:#c2c7cf;}.cls-5{fill:#fff;}.cls-6{fill:#e0e0df;}.cls-7,.cls-8{fill:#010101;}.cls-12,.cls-7{opacity:0.1;}.cls-9{fill:#d72426;}.cls-10{fill:#737474;}.cls-11{fill:#a7ca38;}.cls-13{fill:#d8dde6;}.cls-14{fill:#d82627;}</style></defs><g id="Capa_2" data-name="Capa 2"><g id="Capa_1-2" data-name="Capa 1"><circle class="cls-1" cx="29.56" cy="29.06" r="27.39"/><circle class="cls-2" cx="28.54" cy="28.7" r="28.35" transform="translate(-6.85 48.35) rotate(-74.2)"/><path class="cls-3" d="M41,4.55V1.6a1,1,0,0,0-.92-1,.94.94,0,0,0-1,.94s0,3,0,3A17.86,17.86,0,0,1,41,4.55Z"/><path class="cls-4" d="M40.3,1.57a1,1,0,0,1,.36-.74.94.94,0,0,0-1.52.74s0,3,0,3c.48,0,.8,0,1.15,0Z"/><path class="cls-3" d="M48.18,39a.94.94,0,0,0,1.26.63A1,1,0,0,0,50,38.44l-1.66-6.28H46.38Z"/><path class="cls-3" d="M30.73,39.6A.93.93,0,0,0,32,39l1.8-6.81h-2l-1.65,6.29A1,1,0,0,0,30.73,39.6Z"/><path class="cls-4" d="M49.23,39l-1.8-6.81h-1L48.18,39a.94.94,0,0,0,1.26.63.69.69,0,0,0,.17-.1A.91.91,0,0,1,49.23,39Z"/><path class="cls-4" d="M31.22,38.45l1.66-6.29H31.83l-1.65,6.29a1,1,0,0,0,.55,1.15.93.93,0,0,0,.87-.1A1,1,0,0,1,31.22,38.45Z"/><path class="cls-5" d="M56.21,32.39H24a1,1,0,0,1-1-1V8H57.19V31.41A1,1,0,0,1,56.21,32.39Z"/><path class="cls-6" d="M24.54,31.41V8H23V31.41a1,1,0,0,0,1,1h1.57A1,1,0,0,1,24.54,31.41Z"/><path class="cls-6" d="M58.13,8.23H22a1,1,0,0,1-.95-.94V5.08A1,1,0,0,1,22,4.14H58.13a.94.94,0,0,1,.94.94V7.29A.94.94,0,0,1,58.13,8.23Z"/><path class="cls-7" d="M58.13,6.66H22a1,1,0,0,1-.95-.94V7.29a1,1,0,0,0,.95.94H58.13a.94.94,0,0,0,.94-.94V5.72A.94.94,0,0,1,58.13,6.66Z"/><path class="cls-8" d="M58.08,3.51H41.56v-2a1.53,1.53,0,0,0-3.06,0v2H22A1.53,1.53,0,0,0,20.45,5V7.25A1.53,1.53,0,0,0,22,8.78h.35V31.37a1.57,1.57,0,0,0,1.57,1.57H31l-1.46,5.34a1.52,1.52,0,0,0,1.07,1.88,1.54,1.54,0,0,0,1.88-1.07l.68-2.51h13.7l.68,2.51h0a1.54,1.54,0,0,0,1.88,1.07,1.52,1.52,0,0,0,1.07-1.88l-1.46-5.34h7.11a1.57,1.57,0,0,0,1.57-1.57V21.65a.58.58,0,0,0-.59-.59.59.59,0,0,0-.59.59v9.72a.4.4,0,0,1-.39.4H41.22a.59.59,0,1,0,0,1.17h4.66l.67,2.46h-13l.67-2.46h4.29a.59.59,0,1,0,0-1.17H23.9a.4.4,0,0,1-.39-.4V8.78h33V18.9a.59.59,0,0,0,.59.59.58.58,0,0,0,.59-.59V8.78h.35a1.53,1.53,0,0,0,1.53-1.53V5A1.53,1.53,0,0,0,58.08,3.51ZM47.83,32.94l1.55,5.65a.35.35,0,0,1-.68.19l-1.6-5.84ZM33,32.94l-1.6,5.84a.35.35,0,0,1-.68-.19l1.55-5.65ZM39.68,1.53a.35.35,0,1,1,.7,0v2h-.7v-2ZM58.43,7.25a.35.35,0,0,1-.35.35H22a.35.35,0,0,1-.35-.35V5A.35.35,0,0,1,22,4.69h36.1a.35.35,0,0,1,.35.35Z"/><polygon class="cls-9" points="44.55 16.61 40.25 23.23 48.08 23.23 47.91 21.26 47.32 19.43 46.21 17.93 45.1 16.91 44.55 16.61"/><path class="cls-10" d="M35.66,16.44l4.59,6.79,4.3-6.62-2.71-1.36s-1.6-.17-1.73-.17-2,.17-2,.17l-1.43.4Z"/><polygon class="cls-11" points="35.66 16.43 40.25 23.23 31.92 23.23 32.1 21.16 32.98 19.17 34.13 17.7 35.66 16.43"/><path d="M49.92,23.59H36.85a.36.36,0,0,1,0-.72h12.7a9.52,9.52,0,0,0-12.18-8.79.36.36,0,0,1-.44-.25.35.35,0,0,1,.24-.44,10.24,10.24,0,0,1,13.11,9.84A.36.36,0,0,1,49.92,23.59Z"/><path d="M35,23.59H30.14a.36.36,0,0,1-.36-.36,10.2,10.2,0,0,1,5.57-9.11.34.34,0,0,1,.48.15.37.37,0,0,1-.15.49,9.48,9.48,0,0,0-5.17,8.11H35a.36.36,0,0,1,0,.72Z"/><path d="M48.14,23.59a.36.36,0,0,1-.36-.36,7.75,7.75,0,0,0-15.5,0,.36.36,0,1,1-.72,0,8.47,8.47,0,1,1,16.94,0A.36.36,0,0,1,48.14,23.59Z"/><path class="cls-12" d="M40.28,16.44a.43.43,0,0,0-.43.33l-1.44,5.69A1.94,1.94,0,0,0,42,24a1.89,1.89,0,0,0,.08-1.36h0l-1.35-5.85A.44.44,0,0,0,40.28,16.44Z"/><polygon class="cls-5" points="39.15 22.51 40.46 17.34 41.68 22.63 39.15 22.51"/><path d="M42.05,22.79l-.06.09a.37.37,0,0,1-.32.14l-2.54-.12a.37.37,0,0,1-.3-.16.38.38,0,0,1-.07-.33l1.32-5.17a.39.39,0,0,1,.38-.3.4.4,0,0,1,.39.31l1.22,5.29A.43.43,0,0,1,42.05,22.79Zm-2.4-.66,1.53.08L40.44,19Z"/><circle class="cls-5" cx="40.39" cy="23.06" r="1.36"/><path d="M42,23.78a1.76,1.76,0,1,1-.89-2.33A1.77,1.77,0,0,1,42,23.78Zm-2.49-1.11A1,1,0,0,0,40,23.94a1,1,0,1,0-.49-1.27Z"/><path class="cls-6" d="M20.61,19.65a5.06,5.06,0,0,0-5,5.06v2a1.63,1.63,0,0,1,1.28-.42v-.25a.36.36,0,0,1,.37-.35,9,9,0,0,0,5.45-1.46.34.34,0,0,1,.44.06c1.28,1.38,1.28,1.32,1.28,1.5v.5a1.49,1.49,0,0,1,1.28.38v-2A5.06,5.06,0,0,0,20.61,19.65Z"/><path class="cls-7" d="M17.15,24.71a5,5,0,0,1,4.25-5,5,5,0,0,0-5.84,5v2a1.63,1.63,0,0,1,1.28-.42v-.25a.35.35,0,0,1,.31-.34v-1Z"/><path class="cls-3" d="M24.37,26.15V29a1.46,1.46,0,1,0,0-2.86Z"/><path class="cls-4" d="M25.67,26.53a1.53,1.53,0,0,0-1.3-.38V29a1.53,1.53,0,0,0,1.3-.38v-2.1Z"/><path class="cls-3" d="M16.86,28.93V26.14a1.55,1.55,0,0,0-1.76,1.44A1.48,1.48,0,0,0,16.86,29Z"/><path class="cls-4" d="M16.86,28.5a1.46,1.46,0,0,1-.33-.92,1.36,1.36,0,0,1,.33-.87v-.57a1.55,1.55,0,0,0-1.76,1.44A1.48,1.48,0,0,0,16.86,29V28.5Z"/><path class="cls-3" d="M20.66,32.45a3.88,3.88,0,0,1-2.12-.6v2.07l2.12,2.61,2.11-2.61V31.8A3.74,3.74,0,0,1,20.66,32.45Z"/><path class="cls-4" d="M20.11,32.42a3.84,3.84,0,0,1-1.57-.57v2.07l1.57,1.94V32.42Z"/><path class="cls-5" d="M28.35,35.91l-5.58-2.16-2.11,2.6-2.12-2.6L13,35.91a3.54,3.54,0,0,0-2.06,3.2v9.24a.69.69,0,0,0,.69.69H29.73a.69.69,0,0,0,.69-.69V39.11A3.54,3.54,0,0,0,28.35,35.91Z"/><path class="cls-13" d="M12.47,48.35v-10a3.43,3.43,0,0,1,1.32-2.74l-.83.32a3.54,3.54,0,0,0-2.06,3.2v9.24a.69.69,0,0,0,.69.69h1.57A.69.69,0,0,1,12.47,48.35Z"/><path class="cls-5" d="M23.1,24.15a.34.34,0,0,0-.44,0,9.06,9.06,0,0,1-5.45,1.46.34.34,0,0,0-.37.34v3a3.77,3.77,0,0,0,7.54,0V25.66C24.38,25.48,24.38,25.53,23.1,24.15Z"/><path class="cls-3" d="M18.42,28.92V25.55a8.13,8.13,0,0,1-1.21,0,.34.34,0,0,0-.37.34v3a3.71,3.71,0,0,0,3.82,3.71,3.57,3.57,0,0,0,.74-.07A3.72,3.72,0,0,1,18.42,28.92Z"/><path class="cls-14" d="M23.2,37.69l1.58-3.16-2-.78-2.11,2.6,2.05,1.47A.33.33,0,0,0,23.2,37.69Z"/><path class="cls-14" d="M18.11,37.69l-1.58-3.16,2-.78,2.11,2.6L18.6,37.82A.33.33,0,0,1,18.11,37.69Z"/><path class="cls-8" d="M22.8,46.48l-1.35-8H19.87l-1.36,8a.37.37,0,0,0,.08.28h0l1.87,2.07a.27.27,0,0,0,.39,0l1.87-2.07h0A.31.31,0,0,0,22.8,46.48Z"/><path class="cls-8" d="M20.17,46.76a.34.34,0,0,1-.09-.28l1.36-8H19.87l-1.36,8a.37.37,0,0,0,.08.28l1.87,2.07a.27.27,0,0,0,.39,0l.59-.66Z"/><polygon class="cls-8" points="20.66 36.35 20.66 36.35 20.66 36.35 20.66 36.35 20.66 36.35 19.16 37.42 19.87 38.48 20.66 38.48 20.66 38.48 21.45 38.48 22.16 37.42 20.66 36.35"/><path class="cls-8" d="M21.44,36.91l-.78-.56h0l-1.5,1.07.71,1.06h1.57l-.61-.91a.18.18,0,0,1,.05-.26Z"/><path class="cls-6" d="M30.37,26.76a5,5,0,0,0-5.05,5v2a1.62,1.62,0,0,1,1.28-.42v-.25a.34.34,0,0,1,.37-.34,9,9,0,0,0,5.45-1.47.35.35,0,0,1,.44.06c1.28,1.38,1.28,1.33,1.28,1.51v.49a1.49,1.49,0,0,1,1.28.38v-2A5,5,0,0,0,30.37,26.76Z"/><path class="cls-7" d="M26.91,31.81a5,5,0,0,1,4.25-5,5.06,5.06,0,0,0-5.84,5v2a1.62,1.62,0,0,1,1.28-.42v-.25a.35.35,0,0,1,.31-.34v-1Z"/><path class="cls-3" d="M34.13,33.25v2.87a1.46,1.46,0,1,0,0-2.87Z"/><path class="cls-4" d="M35.42,33.63a1.5,1.5,0,0,0-1.29-.38v2.87a1.53,1.53,0,0,0,1.29-.38V33.63Z"/><path class="cls-3" d="M26.62,36V33.25a1.54,1.54,0,0,0-1.76,1.43,1.48,1.48,0,0,0,1.76,1.44Z"/><path class="cls-4" d="M26.62,35.6a1.42,1.42,0,0,1-.33-.92,1.31,1.31,0,0,1,.33-.87v-.56a1.54,1.54,0,0,0-1.76,1.43,1.48,1.48,0,0,0,1.76,1.44V35.6Z"/><path class="cls-3" d="M30.42,39.56A4,4,0,0,1,28.3,39V41l2.11,2.6L32.53,41V38.9A3.74,3.74,0,0,1,30.42,39.56Z"/><path class="cls-4" d="M29.87,39.52A4,4,0,0,1,28.3,39V41L29.87,43Z"/><path class="cls-5" d="M38.11,43l-5.58-2.16-2.12,2.61L28.3,40.85,22.72,43a3.54,3.54,0,0,0-2.06,3.21v9.23a.69.69,0,0,0,.69.69H39.49a.69.69,0,0,0,.69-.69V46.22A3.54,3.54,0,0,0,38.11,43Z"/><path class="cls-6" d="M22.23,55.45v-10a3.43,3.43,0,0,1,1.32-2.74l-.83.32a3.54,3.54,0,0,0-2.06,3.21v9.23a.69.69,0,0,0,.69.69h1.57A.69.69,0,0,1,22.23,55.45Z"/><path class="cls-5" d="M32.86,31.25a.35.35,0,0,0-.44-.05A9.08,9.08,0,0,1,27,32.66a.34.34,0,0,0-.37.34v3a3.77,3.77,0,0,0,7.54,0V32.76C34.14,32.58,34.14,32.63,32.86,31.25Z"/><path class="cls-3" d="M28.18,36V32.65a8.15,8.15,0,0,1-1.21,0,.34.34,0,0,0-.37.34v3a3.71,3.71,0,0,0,3.82,3.71,3.64,3.64,0,0,0,.74-.07A3.71,3.71,0,0,1,28.18,36Z"/><path class="cls-6" d="M33,44.79l1.58-3.16-2-.78-2.12,2.61,2.06,1.46A.33.33,0,0,0,33,44.79Z"/><path class="cls-6" d="M27.87,44.79l-1.58-3.16,2-.78,2.11,2.61-2.06,1.46A.33.33,0,0,1,27.87,44.79Z"/><path class="cls-14" d="M32.56,53.59l-1.35-8H29.63l-1.36,8a.39.39,0,0,0,.08.28h0l1.87,2.06a.27.27,0,0,0,.39,0l1.87-2.06h0A.32.32,0,0,0,32.56,53.59Z"/><path class="cls-7" d="M29.92,53.87a.39.39,0,0,1-.08-.28l1.36-8H29.63l-1.36,8a.39.39,0,0,0,.08.28l1.87,2.06a.27.27,0,0,0,.39,0l.59-.65Z"/><polygon class="cls-14" points="30.42 43.46 30.42 43.45 30.42 43.46 30.41 43.45 30.41 43.46 28.92 44.52 29.63 45.59 30.41 45.59 30.42 45.59 31.21 45.59 31.91 44.52 30.42 43.46"/><path class="cls-7" d="M31.2,44l-.78-.55h0l-1.49,1.06.71,1.07H31.2l-.61-.92a.17.17,0,0,1,.05-.25Z"/><path class="cls-6" d="M10.85,26.76a5,5,0,0,0-5,5v2a1.64,1.64,0,0,1,1.29-.42v-.25a.34.34,0,0,1,.36-.34,9,9,0,0,0,5.45-1.47.35.35,0,0,1,.44.06c1.28,1.38,1.28,1.33,1.28,1.51v.49a1.49,1.49,0,0,1,1.28.38v-2A5,5,0,0,0,10.85,26.76Z"/><path class="cls-7" d="M7.39,31.81a5,5,0,0,1,4.26-5,5.29,5.29,0,0,0-.8-.06,5,5,0,0,0-5,5v2a1.64,1.64,0,0,1,1.29-.42v-.25a.34.34,0,0,1,.3-.34v-1Z"/><path class="cls-3" d="M14.61,33.25v2.87a1.46,1.46,0,1,0,0-2.87Z"/><path class="cls-4" d="M15.91,33.63a1.53,1.53,0,0,0-1.3-.38v2.87a1.56,1.56,0,0,0,1.3-.38V33.63Z"/><path class="cls-3" d="M7.1,36V33.25a1.54,1.54,0,0,0-1.76,1.43A1.48,1.48,0,0,0,7.1,36.12Z"/><path class="cls-4" d="M7.1,35.6a1.42,1.42,0,0,1-.33-.92,1.36,1.36,0,0,1,.33-.87v-.56a1.54,1.54,0,0,0-1.76,1.43A1.48,1.48,0,0,0,7.1,36.12V35.6Z"/><path class="cls-3" d="M10.91,39.56A4,4,0,0,1,8.78,39V41l2.12,2.6L13,41V38.9A3.74,3.74,0,0,1,10.91,39.56Z"/><path class="cls-4" d="M10.36,39.52A4,4,0,0,1,8.78,39V41L10.36,43Z"/><path class="cls-5" d="M18.59,43,13,40.85,10.9,43.46,8.78,40.85,3.21,43a3.54,3.54,0,0,0-2.07,3.21v9.23a.69.69,0,0,0,.69.69H20a.69.69,0,0,0,.69-.69V46.22A3.54,3.54,0,0,0,18.59,43Z"/><path class="cls-6" d="M2.71,55.45v-10A3.43,3.43,0,0,1,4,42.69L3.21,43a3.54,3.54,0,0,0-2.07,3.21v9.23a.69.69,0,0,0,.69.69H3.4A.69.69,0,0,1,2.71,55.45Z"/><path class="cls-5" d="M13.34,31.25a.35.35,0,0,0-.44-.05,9.06,9.06,0,0,1-5.45,1.46.34.34,0,0,0-.36.34v3a3.77,3.77,0,0,0,7.53,0V32.76C14.62,32.58,14.62,32.63,13.34,31.25Z"/><path class="cls-3" d="M8.66,36V32.65a8.13,8.13,0,0,1-1.21,0,.34.34,0,0,0-.36.34v3a3.71,3.71,0,0,0,3.82,3.71,3.54,3.54,0,0,0,.73-.07A3.71,3.71,0,0,1,8.66,36Z"/><path class="cls-6" d="M13.45,44.79,15,41.63l-2-.78L10.9,43.46l2,1.46A.34.34,0,0,0,13.45,44.79Z"/><path class="cls-6" d="M8.35,44.79,6.77,41.63l2-.78,2.11,2.61L8.84,44.92A.33.33,0,0,1,8.35,44.79Z"/><path class="cls-14" d="M13,53.59l-1.35-8H10.11l-1.36,8a.39.39,0,0,0,.08.28h0l1.87,2.06a.27.27,0,0,0,.39,0L13,53.87h0A.32.32,0,0,0,13,53.59Z"/><path class="cls-7" d="M10.41,53.87a.32.32,0,0,1-.08-.28l1.35-8H10.11l-1.36,8a.39.39,0,0,0,.08.28l1.87,2.06a.27.27,0,0,0,.39,0l.59-.65Z"/><polygon class="cls-14" points="10.9 43.46 10.9 43.45 10.9 43.46 10.9 43.45 10.9 43.46 9.4 44.52 10.11 45.59 10.9 45.59 10.9 45.59 11.69 45.59 12.4 44.52 10.9 43.46"/><path class="cls-7" d="M11.68,44l-.78-.55h0L9.4,44.52l.71,1.07h1.57l-.61-.92a.18.18,0,0,1,0-.25Z"/><path class="cls-8" d="M40.2,49.32a.58.58,0,0,0,.58-.59V46.18a4.1,4.1,0,0,0-2.43-3.75h0l-5.21-2V39.33a4.24,4.24,0,0,0,1.56-2.67,2,2,0,0,0,1.09-.48A2,2,0,0,0,36,33.36V31.77a5.64,5.64,0,0,0-9.3-4.29,2.06,2.06,0,0,0-.46-1.22V24.67a5.64,5.64,0,0,0-11.28,0V26.3a2,2,0,0,0-.46,1.18,5.71,5.71,0,0,0-2.22-1.17.59.59,0,1,0-.3,1.14,4.46,4.46,0,0,1,3.32,4.32v.88l-.11,0a.65.65,0,0,0-.14-.4c-.15-.21-.42-.48-1.29-1.42a.94.94,0,0,0-1.19-.15,8.39,8.39,0,0,1-5,1.38,1,1,0,0,0-1,.6l-.16,0v-.9A4.48,4.48,0,0,1,9.58,27.5a.61.61,0,0,0,.4-.74.59.59,0,0,0-.74-.39,5.61,5.61,0,0,0-2.87,2,5.52,5.52,0,0,0-1.14,3.39V33.4a1.92,1.92,0,0,0-.46,1.24,2,2,0,0,0,1.8,2A4.37,4.37,0,0,0,8.22,39.4v1L3,42.42H3A4.1,4.1,0,0,0,.57,46.18v9.24a1.27,1.27,0,0,0,1.28,1.27H20a1.27,1.27,0,0,0,.69-.2,1.24,1.24,0,0,0,.69.2H39.51a1.28,1.28,0,0,0,1.28-1.27V51.48a.59.59,0,0,0-.59-.59.58.58,0,0,0-.59.59v3.94a.1.1,0,0,1-.1.09H37.27v-8.6a.59.59,0,1,0-1.18,0v8.6H31.77l1.17-1.28a.94.94,0,0,0,.22-.76v0l-1.31-7.77.24-.37.06,0a.93.93,0,0,0,.76.14.91.91,0,0,0,.6-.48h0l1.34-2.69,3.06,1.19a2.92,2.92,0,0,1,1.7,2.66v2.55A.58.58,0,0,0,40.2,49.32Zm-11.92-5.1-1.16-2.31,1-.39,1.44,1.78Zm-14-2.31-1.16,2.31L12.76,44h0l-1-.7,1.44-1.79ZM8.76,44.22,7.61,41.91l1-.39,1.44,1.78-1,.7h0Zm7-9.63a.85.85,0,0,1-.56.85v-1.6A.84.84,0,0,1,15.79,34.59Zm7-9.93,1,1.05v3.17a3.18,3.18,0,0,1-6.36,0V26.12A9.74,9.74,0,0,0,22.83,24.66Zm2.72,2.88a.86.86,0,0,1-.29.64.78.78,0,0,1-.28.16v-1.6A.84.84,0,0,1,25.55,27.54ZM27.73,39.4v1l-5,1.94-.64-3.77.24-.37.06,0a1,1,0,0,0,.76.14.93.93,0,0,0,.6-.48h0l1-2a2,2,0,0,0,1.34.74A4.29,4.29,0,0,0,27.73,39.4Zm-7,4.64a4.22,4.22,0,0,0-1-1.07L20.38,39H21L21.64,43A4,4,0,0,0,20.68,44Zm-7.06-4.71a4.31,4.31,0,0,0,1.55-2.67,2,2,0,0,0,1.4-.81l1,2.07h0a.93.93,0,0,0,.6.48,1,1,0,0,0,.76-.14l.06,0,.25.37-.64,3.77-5-1.94V39.33Zm7.06-6.15h0a4.54,4.54,0,0,0,1.52-.27v.59l-1.52,1.88L19.15,33.5v-.57A4.81,4.81,0,0,0,20.68,33.18ZM26,35.44a.84.84,0,0,1-.56-.8.86.86,0,0,1,.56-.76Zm-3.2,1.68-.31-.22h0l-1-.7.5-.63L23,34.41l1,.39Zm-1.68.73H20.2L20,37.53l.7-.49.69.49Zm-2.63-.73L17.37,34.8l1-.39,1.44,1.79-1,.7h0Zm6.23-5.35V33.4a2.16,2.16,0,0,0-.24.35l-1.14-.45V32.23a4.27,4.27,0,0,0,1.56-2.67,1.36,1.36,0,0,0,.29-.06A5.73,5.73,0,0,0,24.75,31.77Zm-8.47-5v1.57a.84.84,0,0,1-.57-.8A.88.88,0,0,1,16.28,26.77Zm0,2.79A4.4,4.4,0,0,0,18,32.3v1l-1.2.47a1.77,1.77,0,0,0-.26-.41V31.77A5.76,5.76,0,0,0,16,29.5,1.36,1.36,0,0,0,16.33,29.56ZM10.62,46.14h.59l1.25,7.39-1.54,1.7-1.55-1.7ZM11.39,45h-1l-.21-.33.69-.49.69.49ZM32,40v.59l-1.52,1.88L28.91,40.6V40a4.81,4.81,0,0,0,1.53.25h0A4.54,4.54,0,0,0,32,40Zm-1.52-.91A3.14,3.14,0,0,1,27.21,36V33.22a9.64,9.64,0,0,0,5.38-1.46l1,1.06V36A3.13,3.13,0,0,1,30.44,39.1Zm4.3-3.66v-1.6a.85.85,0,0,1,.57.8A.84.84,0,0,1,34.74,35.44Zm-4.35-8.13a4.46,4.46,0,0,1,4.46,4.46v.88l-.11,0a.69.69,0,0,0-.14-.4c-.15-.22-.42-.48-1.29-1.42a.94.94,0,0,0-1.2-.15,8.44,8.44,0,0,1-5,1.38.91.91,0,0,0-1,.6l-.16,0v-.9A4.46,4.46,0,0,1,30.39,27.31ZM16.17,24.67a4.46,4.46,0,1,1,8.92,0v.88l-.11,0a.79.79,0,0,0-.16-.44c-.16-.21-.45-.5-1.27-1.38a.93.93,0,0,0-1.19-.15,8.46,8.46,0,0,1-5.08,1.37,1,1,0,0,0-1,.61l-.16,0v-.9ZM6,34.64a.86.86,0,0,1,.57-.76v1.57A.86.86,0,0,1,6,34.64ZM7.69,36V33.22a9.61,9.61,0,0,0,5.38-1.46l1,1.06V36a3.18,3.18,0,0,1-6.36,0Zm3.23,4.3h0A4.45,4.45,0,0,0,12.44,40v.59l-1.52,1.88L9.39,40.6V40A4.81,4.81,0,0,0,10.92,40.28ZM1.75,55.42V46.18a2.92,2.92,0,0,1,1.7-2.66L6.5,42.33,7.84,45h0a.91.91,0,0,0,.6.48.9.9,0,0,0,.76-.14l.06,0,.25.37L8.19,53.45v0a.91.91,0,0,0,.23.76l1.17,1.28H5.26v-8.6a.59.59,0,1,0-1.17,0v8.6H1.85A.09.09,0,0,1,1.75,55.42ZM20,55.51H17.75v-8.6a.58.58,0,0,0-.59-.59.59.59,0,0,0-.59.59v8.6H12.25l1.17-1.28a1,1,0,0,0,.23-.76v0l-1.31-7.77.24-.37.06,0a1,1,0,0,0,.54.17A.93.93,0,0,0,14,45h0l1.34-2.69,3.06,1.19a2.93,2.93,0,0,1,1.7,2.66v9.24A.1.1,0,0,1,20,55.51Zm4.79,0v-8.6a.58.58,0,0,0-.59-.59.59.59,0,0,0-.59.59v8.6H21.37a.09.09,0,0,1-.1-.09V46.18A2.85,2.85,0,0,1,22,44.29a3.22,3.22,0,0,1,1-.77l.81-.31L26,42.33,27.36,45h0a.91.91,0,0,0,.6.48.9.9,0,0,0,.76-.14l.06,0,.24.37-1.31,7.77v0a.94.94,0,0,0,.22.76l1.17,1.28Zm5.66-.28-1.55-1.7,1.25-7.39h.59L32,53.53ZM30.91,45H30l-.22-.33.7-.49.69.49Zm1.68-.74-1.3-.92,1.44-1.79,1,.4Z"/></g></g></svg>