<svg xmlns="http://www.w3.org/2000/svg" viewBox="0 0 57.45 57.09"><defs><style>.cls-1{fill:#e0dfdf;}.cls-2{fill:none;stroke:#d72426;stroke-miterlimit:10;stroke-width:0.4px;stroke-dasharray:0.79 0.79;}.cls-3{fill:#fff;}.cls-4{fill:#e0e0df;}.cls-5{fill:#6fc398;}.cls-5,.cls-9{opacity:0.1;}.cls-6{fill:#747474;}.cls-7{fill:#d82627;}.cls-8{fill:#a8ca38;}.cls-11,.cls-9{fill:#010101;}.cls-10{fill:#484e55;}.cls-12{fill:#e4e9f6;}.cls-13{fill:#c2c7cf;}</style></defs><g id="Capa_2" data-name="Capa 2"><g id="Capa_1-2" data-name="Capa 1"><circle class="cls-1" cx="29.56" cy="28.91" r="27.39"/><circle class="cls-2" cx="28.54" cy="28.54" r="28.35"/><path class="cls-3" d="M14.19,8.56V43.41a1,1,0,0,0,1,1H53.6a1,1,0,0,0,1-1V8.56Z"/><path class="cls-4" d="M55.4,4.59h-42A1.18,1.18,0,0,0,12.2,5.77v2a1.18,1.18,0,0,0,1.18,1.18h42a1.18,1.18,0,0,0,1.18-1.18v-2A1.18,1.18,0,0,0,55.4,4.59Z"/><path class="cls-5" d="M55.4,6.62h-42a1.19,1.19,0,0,1-1.17-1s0,.11,0,.16v2a1.18,1.18,0,0,0,1.18,1.18h42a1.18,1.18,0,0,0,1.18-1.18v-2s0-.11,0-.16A1.19,1.19,0,0,1,55.4,6.62Z"/><path class="cls-6" d="M27.69,25.11H25.33a.47.47,0,0,0-.47.47v8.76a.47.47,0,0,0,.47.47h2.36a.47.47,0,0,0,.47-.47V25.58A.47.47,0,0,0,27.69,25.11Z"/><path class="cls-4" d="M34.24,30H31.87a.47.47,0,0,0-.47.47v3.91a.47.47,0,0,0,.47.47h2.37a.47.47,0,0,0,.47-.47V30.43A.47.47,0,0,0,34.24,30Z"/><path class="cls-7" d="M40.78,20.78H38.41a.47.47,0,0,0-.47.47V34.34a.47.47,0,0,0,.47.47h2.37a.47.47,0,0,0,.47-.47V21.25A.47.47,0,0,0,40.78,20.78Z"/><path class="cls-8" d="M47.32,15.74H45a.47.47,0,0,0-.47.47V34.34a.47.47,0,0,0,.47.47h2.36a.47.47,0,0,0,.47-.47V16.21A.47.47,0,0,0,47.32,15.74Z"/><path class="cls-9" d="M26.71,34.34V25.58a.47.47,0,0,1,.47-.47H25.33a.47.47,0,0,0-.47.47v8.76a.47.47,0,0,0,.47.47h1.85A.47.47,0,0,1,26.71,34.34Z"/><path class="cls-9" d="M33.25,34.34V30.43a.47.47,0,0,1,.47-.47H31.87a.47.47,0,0,0-.47.47v3.91a.47.47,0,0,0,.47.47h1.85A.47.47,0,0,1,33.25,34.34Z"/><path class="cls-9" d="M39.79,34.34V21.25a.47.47,0,0,1,.47-.47H38.41a.47.47,0,0,0-.47.47V34.34a.47.47,0,0,0,.47.47h1.85A.47.47,0,0,1,39.79,34.34Z"/><path class="cls-9" d="M46.34,34.34V16.21a.47.47,0,0,1,.47-.47H45a.47.47,0,0,0-.47.47V34.34a.47.47,0,0,0,.47.47h1.85A.47.47,0,0,1,46.34,34.34Z"/><path class="cls-10" d="M23.91,33.94a.87.87,0,1,0,0,1.74H48.65a.87.87,0,0,0,0-1.74Z"/><path class="cls-11" d="M54.59,26.44a.87.87,0,0,0-.88.87v16.1a.11.11,0,0,1-.11.11H28.21l0,1.74H53.6a1.85,1.85,0,0,0,1.86-1.85V27.31A.87.87,0,0,0,54.59,26.44Z"/><path class="cls-11" d="M55.4,3.72H36.74a.87.87,0,1,0,0,1.74H55.4a.31.31,0,0,1,.31.31v2A.31.31,0,0,1,55.4,8h-42a.32.32,0,0,1-.31-.31v-2a.32.32,0,0,1,.31-.31H32.67a.87.87,0,0,0,0-1.74H13.38a2.05,2.05,0,0,0-2.05,2v2a2.05,2.05,0,0,0,2,2v3l1.75,0v-3H53.71V23.24a.88.88,0,0,0,1.75,0V9.78a2.05,2.05,0,0,0,2-2v-2A2.05,2.05,0,0,0,55.4,3.72Z"/><path class="cls-4" d="M14.64,13.27a7.07,7.07,0,0,0-7.07,7.08v10a.94.94,0,0,0,.93.94H20.77a.94.94,0,0,0,.94-.94v-10A7.08,7.08,0,0,0,14.64,13.27Z"/><path class="cls-9" d="M9.19,30.32v-10a7.06,7.06,0,0,1,6.26-7,7.34,7.34,0,0,0-.81-.05,7.07,7.07,0,0,0-7.07,7.08v10a.94.94,0,0,0,.93.94h1.62A.94.94,0,0,1,9.19,30.32Z"/><path class="cls-12" d="M19.75,22.44v3.88a2,2,0,1,0,0-3.88Z"/><path class="cls-13" d="M21.39,22.77a2.11,2.11,0,0,0-1.64-.33v3.88A2.13,2.13,0,0,0,21.39,26V22.77Z"/><path class="cls-12" d="M14.71,31.09a5.33,5.33,0,0,1-3-.85v2.62l2.87,3.55,2.88-3.55V30.25A5.07,5.07,0,0,1,14.71,31.09Z"/><path class="cls-13" d="M13.38,30.94a5.27,5.27,0,0,1-1.62-.7v2.62l1.62,2Z"/><path class="cls-3" d="M19.43,21.49a7.33,7.33,0,0,1-3.05-1.92.47.47,0,0,0-.69,0,15.89,15.89,0,0,1-5.88,4.31.47.47,0,0,0-.3.44V26.2a5.13,5.13,0,0,0,10.25,0V21.94A.46.46,0,0,0,19.43,21.49Z"/><path class="cls-12" d="M11.13,26.2V23.3a11.26,11.26,0,0,1-1.32.59.47.47,0,0,0-.3.44V26.2a5.07,5.07,0,0,0,5.2,5.06,4.52,4.52,0,0,0,.74-.06A5.06,5.06,0,0,1,11.13,26.2Z"/><path class="cls-3" d="M25.11,35.65l-7.6-2.95-2.88,3.55L11.76,32.7l-7.6,2.95A4.81,4.81,0,0,0,1.35,40V52.59a.94.94,0,0,0,.93.94H27a.94.94,0,0,0,.94-.94V40A4.81,4.81,0,0,0,25.11,35.65Z"/><path class="cls-4" d="M3,52.59V38.79a4.61,4.61,0,0,1,1.17-3.14A4.81,4.81,0,0,0,1.35,40V52.59a.94.94,0,0,0,.93.94H3.9A.94.94,0,0,1,3,52.59Z"/><path class="cls-7" d="M18.1,38.07l2.15-4.31L17.51,32.7l-2.88,3.55,2.8,2A.45.45,0,0,0,18.1,38.07Z"/><path class="cls-7" d="M11.16,38.07,9,33.76l2.75-1.06,2.88,3.55-2.81,2A.46.46,0,0,1,11.16,38.07Z"/><path class="cls-7" d="M12.78,37.85a10.41,10.41,0,0,0-2.17,3.64.36.36,0,0,0,.21.46l1.77.73a.36.36,0,0,0,.49-.26,11.35,11.35,0,0,1,1.35-3.36A2,2,0,0,1,12.78,37.85Z"/><path class="cls-7" d="M16.48,37.84a2,2,0,0,1-1.64,1.22,11.35,11.35,0,0,1,1.35,3.36.37.37,0,0,0,.49.26L18.46,42a.36.36,0,0,0,.2-.46A10.34,10.34,0,0,0,16.48,37.84Z"/><path class="cls-9" d="M12.23,42.23a15.67,15.67,0,0,1,1.47-3.39,2,2,0,0,1-.92-1,10.41,10.41,0,0,0-2.17,3.64.36.36,0,0,0,.21.46l1.41.58A.51.51,0,0,1,12.23,42.23Z"/><path class="cls-9" d="M17.29,39l.08-.06a7.62,7.62,0,0,0-.89-1.08,2,2,0,0,1-1.64,1.22,11.35,11.35,0,0,1,1.35,3.36.37.37,0,0,0,.49.26l.9-.37a14.56,14.56,0,0,0-.68-2A1.09,1.09,0,0,1,17.29,39Z"/><path class="cls-7" d="M14.63,36.25l-2,1.42a2.07,2.07,0,0,0,4,0Z"/><path class="cls-9" d="M14.44,37.51l1-.7-.79-.56-2,1.42A2.06,2.06,0,0,0,15.42,39a2.07,2.07,0,0,1-1.1-1.06A.35.35,0,0,1,14.44,37.51Z"/><path class="cls-11" d="M28,47.07a.6.6,0,0,0-.61.6v4.88a.33.33,0,0,1-.33.33H23.77V41a.61.61,0,0,0-.61-.6.6.6,0,0,0-.61.6V52.88H15.26V44.49a.61.61,0,0,0-.61-.61.61.61,0,0,0-.61.61v8.39H11.62a.61.61,0,0,0,0,1.21H27a1.54,1.54,0,0,0,1.54-1.54V47.67A.6.6,0,0,0,28,47.07Z"/><path class="cls-11" d="M25.36,35h0l-7.22-2.8v-.42h2.66a1.54,1.54,0,0,0,1.54-1.54V25.87a2.54,2.54,0,0,0,.51-1.53,2.57,2.57,0,0,0-.51-1.54V20.3A7.68,7.68,0,0,0,7,20.3v10a1.54,1.54,0,0,0,1.54,1.54h2.65v.42L4,35H4A5.42,5.42,0,0,0,.76,40V52.55A1.54,1.54,0,0,0,2.3,54.09H8.79a.61.61,0,1,0,0-1.21h-2V41a.61.61,0,0,0-1.21,0V52.88H2.3A.33.33,0,0,1,2,52.55V40a4.18,4.18,0,0,1,2.44-3.8l4.33-1.68,1.9,3.81h0a1.06,1.06,0,0,0,.59.53,12.49,12.49,0,0,0-1.17,2.41,1,1,0,0,0,.54,1.23l1.78.73a1,1,0,0,0,.82,0,1,1,0,0,0,.5-.65,10.48,10.48,0,0,1,1-2.62,10.5,10.5,0,0,1,.95,2.62,1,1,0,0,0,.5.65,1,1,0,0,0,.82,0l1.78-.73a1,1,0,0,0,.54-1.23,12.49,12.49,0,0,0-1.17-2.41,1.13,1.13,0,0,0,.59-.53h0l1.9-3.81,4.34,1.68A4.21,4.21,0,0,1,27.34,40v4.87a.61.61,0,1,0,1.21,0V40A5.42,5.42,0,0,0,25.36,35ZM10.14,26.16V24.39c.34-.14.68-.29,1-.45a17.55,17.55,0,0,0,4.92-3.88A7.9,7.9,0,0,0,19,22l.14.05v4.16a4.52,4.52,0,0,1-9,0Zm11.49-1.82a1.37,1.37,0,0,1-1.24,1.35V23A1.37,1.37,0,0,1,21.63,24.34Zm-5.8,13.45a1.44,1.44,0,0,1-1.18.64,1.41,1.41,0,0,1-1.17-.64L14.65,37Zm-1.1-6a5.67,5.67,0,0,0,2.19-.44v1.06l-2.27,2.8-2.27-2.8V31.36A6,6,0,0,0,14.73,31.82Zm6.39-1.54a.33.33,0,0,1-.33.33H18.23a5.69,5.69,0,0,0,2.11-3.7,2.69,2.69,0,0,0,.78-.15v3.52Zm-12.6.33a.33.33,0,0,1-.33-.33v-10a6.47,6.47,0,0,1,12.93,0v1.61a2.78,2.78,0,0,0-.74-.15,1.06,1.06,0,0,0-.75-.89h0a6.69,6.69,0,0,1-2.79-1.77,1.09,1.09,0,0,0-1.51,0,15.59,15.59,0,0,1-5.71,4.22,1.08,1.08,0,0,0-.7,1v1.87a5.64,5.64,0,0,0,2.16,4.45Zm1.36,3.44,1.7-.66,2.19,2.7h0l-2.1,1.5ZM12.58,42l-1.3-.53a10.8,10.8,0,0,1,1.45-2.63,2.71,2.71,0,0,0,.82.6A11.45,11.45,0,0,0,12.58,42Zm4.16,0a12.25,12.25,0,0,0-1-2.57,2.53,2.53,0,0,0,.82-.59A10.8,10.8,0,0,1,18,41.43Zm.92-4.36-2.13-1.51,2.19-2.7,1.71.66Z"/></g></g></svg>