<svg xmlns="http://www.w3.org/2000/svg" viewBox="0 0 392.83 512"><defs><style>.cls-1{fill:#d81e05;}.cls-2{opacity:0.1;}.cls-3{fill:#dfdfdf;}.cls-4{fill:#fff;}.cls-5{fill:#737373;}</style></defs><g id="Capa_2" data-name="Capa 2"><g id="Capa_1-2" data-name="Capa 1"><path class="cls-1" d="M196.42,177.57h0A107.07,107.07,0,0,0,89.35,284.64V425.15H303.48V284.64A107.07,107.07,0,0,0,196.42,177.57Z"/><path class="cls-2" d="M218.87,179.94a107.82,107.82,0,0,0-22.45-2.37h0A107.07,107.07,0,0,0,89.35,284.64V425.15h44.91V284.64A107.1,107.1,0,0,1,218.87,179.94Z"/><rect class="cls-2" x="179.58" y="360.73" width="31.39" height="64.42"/><rect class="cls-3" x="68.34" y="409.32" width="256.16" height="49.61"/><rect class="cls-2" x="68.34" y="409.32" width="21.01" height="49.61"/><rect class="cls-3" x="46.15" y="445.77" width="300.54" height="58.73"/><rect class="cls-2" x="46.15" y="445.77" width="22.19" height="58.73"/><circle class="cls-1" cx="195.27" cy="339.33" r="37.97"/><path class="cls-4" d="M228.81,204a7.5,7.5,0,0,0-6.9,13.32c21.51,11.15,36.9,28.36,43.35,48.45a7.49,7.49,0,0,0,7.14,5.21,7.4,7.4,0,0,0,2.3-.36,7.5,7.5,0,0,0,4.85-9.43C271.88,237.26,253.86,217,228.81,204Z"/><path class="cls-5" d="M196.42,142.82a7.5,7.5,0,0,0,7.5-7.5V7.5a7.5,7.5,0,0,0-15,0V135.32A7.5,7.5,0,0,0,196.42,142.82Z"/><path class="cls-5" d="M145,149a7.5,7.5,0,1,0,13.1-7.29L95.9,30a7.5,7.5,0,1,0-13.1,7.3Z"/><path class="cls-5" d="M120.42,176.8a7.5,7.5,0,0,0,3.52-14.13L11,102.81a7.5,7.5,0,0,0-7,13.25l112.93,59.87A7.49,7.49,0,0,0,120.42,176.8Z"/><path class="cls-5" d="M237.68,151.87a7.51,7.51,0,0,0,10.2-2.91L310,37.28A7.5,7.5,0,1,0,296.93,30L234.77,141.66A7.51,7.51,0,0,0,237.68,151.87Z"/><path class="cls-5" d="M392,105.92a7.5,7.5,0,0,0-10.14-3.11L268.89,162.68a7.5,7.5,0,0,0,7,13.25l112.92-59.87A7.5,7.5,0,0,0,392,105.92Z"/><path class="cls-4" d="M233.37,346.12a7.49,7.49,0,0,0-9.71,4.26A30.35,30.35,0,0,1,208.18,367l-.39.17A30.48,30.48,0,1,1,223,326.68a7.5,7.5,0,1,0,13.64-6.24,45.46,45.46,0,1,0-64.54,58v27.41a7.5,7.5,0,0,0,15,0V384a45,45,0,0,0,8.19.76,46.09,46.09,0,0,0,8.18-.74v17.77h0v4a7.5,7.5,0,0,0,7.5,7.5h0a7.5,7.5,0,0,0,7.5-7.5V378.49a45.34,45.34,0,0,0,19.17-22.66A7.49,7.49,0,0,0,233.37,346.12Z"/><path d="M346.69,438.27H332V409.33a7.5,7.5,0,0,0-7.5-7.5H311V284.64a114.57,114.57,0,1,0-229.14,0v11.59a7.5,7.5,0,0,0,15,0V284.64a99.57,99.57,0,0,1,199.14,0V401.83H96.85V325.77a7.5,7.5,0,0,0-15,0v76.06H68.34a7.5,7.5,0,0,0-7.5,7.5v28.95H46.15a7.49,7.49,0,0,0-7.5,7.5V504.5a7.5,7.5,0,0,0,7.5,7.5H220.64a7.5,7.5,0,0,0,0-15h-167V453.27H339.19V497h-89a7.5,7.5,0,0,0,0,15h96.5a7.5,7.5,0,0,0,7.5-7.5V445.77A7.5,7.5,0,0,0,346.69,438.27Zm-29.69,0H75.84V416.83H317v21.44Z"/></g></g></svg>