<svg xmlns="http://www.w3.org/2000/svg" viewBox="0 0 512 441.61"><defs><style>.cls-1{fill:#fff;}.cls-2{fill:#dfdfdf;}.cls-3{fill:#737373;}.cls-4{opacity:0.1;}.cls-5{fill:#d81e05;}</style></defs><g id="Capa_2" data-name="Capa 2"><g id="Capa_1-2" data-name="Capa 1"><path class="cls-1" d="M8.34,65H503.65V433.27H8.34Z"/><path class="cls-2" d="M8.34,65H503.65v43.42H8.34Z"/><path class="cls-3" d="M52.53,108.47H454.85V213H52.53Z"/><path class="cls-4" d="M454.86,213h0L350.37,108.46H454.85Z"/><path class="cls-2" d="M52.53,252h179v142.6h-179Z"/><path class="cls-4" d="M231.5,252v84.76L146.74,252Z"/><path class="cls-1" d="M8.35,8.35h495.3V65H8.35Z"/><path class="cls-2" d="M274.34,344.34h49.13v49.07H274.34Z"/><path class="cls-2" d="M274.34,256.13h49.13V305.2H274.34Z"/><path class="cls-5" d="M464.35,45H451.66a8.35,8.35,0,0,1,0-16.7h12.69a8.35,8.35,0,0,1,0,16.7Z"/><path class="cls-5" d="M419.27,45H406.58a8.35,8.35,0,1,1,0-16.7h12.69a8.35,8.35,0,1,1,0,16.7Z"/><path class="cls-5" d="M373.08,45H360.39a8.35,8.35,0,1,1,0-16.7h12.69a8.35,8.35,0,1,1,0,16.7Z"/><path d="M503.65,0H8.35A8.35,8.35,0,0,0,0,8.35V433.27a8.34,8.34,0,0,0,8.35,8.34H377.43a8.35,8.35,0,0,0,0-16.69H16.7V73.39H495.3V424.92H427.8a8.35,8.35,0,1,0,0,16.69h75.85a8.34,8.34,0,0,0,8.35-8.34V8.35A8.35,8.35,0,0,0,503.65,0ZM16.7,56.69v-40H290.56v40Zm290.55,0v-40H495.3v40Z"/><path class="cls-2" d="M444.63,263.09H364.72a8.35,8.35,0,0,0,0,16.7h79.91a8.35,8.35,0,0,0,0-16.7Z"/><path class="cls-2" d="M444.63,291.92H364.72a8.35,8.35,0,1,0,0,16.7h79.91a8.35,8.35,0,1,0,0-16.7Z"/><path class="cls-2" d="M444.63,343.81H364.72a8.35,8.35,0,1,0,0,16.69h79.91a8.35,8.35,0,1,0,0-16.69Z"/><path class="cls-2" d="M364.72,389.33h79.91a8.35,8.35,0,1,0,0-16.69H364.72a8.35,8.35,0,1,0,0,16.69Z"/><path class="cls-5" d="M175.86,28.34H47.51a8.35,8.35,0,0,0,0,16.7H175.87a8.35,8.35,0,0,0,0-16.7Z"/></g></g></svg>