<?xml version="1.0" encoding="utf-8"?>
<!-- Generator: Adobe Illustrator 25.2.1, SVG Export Plug-In . SVG Version: 6.00 Build 0)  -->
<svg version="1.1" id="Capa_1" xmlns="http://www.w3.org/2000/svg" xmlns:xlink="http://www.w3.org/1999/xlink" x="0px" y="0px"
	 viewBox="0 0 71.6 95.5" style="enable-background:new 0 0 71.6 95.5;" xml:space="preserve">
<style type="text/css">
	.st0{fill:#E0E0DF;}
	.st1{opacity:0.1;fill:#010101;enable-background:new    ;}
	.st2{fill:#E4E9F6;}
	.st3{fill:#C2C7CF;}
	.st4{fill:#FFFFFF;}
	.st5{fill:#D72426;}
	.st6{fill:#010101;}
	.st7{fill:#DFDFDF;}
	.st8{fill:#737373;}
</style>
<g id="Capa_2_1_">
	<g id="Capa_1-2">
		<path class="st0" d="M45.1,1.2C37.9,1.2,32,7,32,14.2c0,0,0,0,0,0v5.3c0.9-0.8,2.1-1.2,3.3-1.1v-0.6c0-0.5,0.4-0.9,0.9-0.9
			c0,0,0.1,0,0.1,0c5,0.3,9.9-1.1,14.1-3.8c0.4-0.2,0.8-0.2,1.1,0.1c3.3,3.6,3.3,3.4,3.3,3.9v1.3c1.2-0.2,2.4,0.2,3.3,1v-5.2
			C58.2,7.1,52.3,1.2,45.1,1.2C45.1,1.2,45.1,1.2,45.1,1.2z"/>
		<path class="st1" d="M35.1,14.3c0-6.6,4.9-12.2,11.5-13c-0.5,0-1-0.1-1.5-0.1C37.9,1.2,32,7,32,14.2c0,0,0,0,0,0.1v5.3
			c0.8-0.8,1.9-1.2,3.1-1.1L35.1,14.3L35.1,14.3z"/>
		<path class="st2" d="M54.8,18v7.2c0,0.1,0,0.1,0,0.2c2,0.4,4-0.9,4.5-3s-0.9-4-3-4.5C55.8,17.9,55.3,17.9,54.8,18z"/>
		<path class="st3" d="M57.9,18.7c-0.9-0.7-2-0.9-3.1-0.8v7.2c0,0.1,0,0.1,0,0.2c1.1,0.2,2.2-0.1,3.1-0.8L57.9,18.7L57.9,18.7z"/>
		<path class="st2" d="M35.4,25.2V18c-2.2-0.3-4.2,1.2-4.5,3.4c0,0.1,0,0.2,0,0.3c0,2.1,1.7,3.8,3.8,3.8c0.2,0,0.5,0,0.7-0.1
			C35.4,25.4,35.4,25.3,35.4,25.2z"/>
		<path class="st3" d="M35.4,24.7c-0.9-0.7-1.5-1.8-1.5-3c0-1.1,0.6-2.2,1.5-2.9V18c-2.2-0.3-4.2,1.2-4.5,3.4c0,0.1,0,0.2,0,0.3
			c0,2.1,1.7,3.8,3.8,3.8c0.2,0,0.5,0,0.7-0.1c0-0.1,0-0.2,0-0.2L35.4,24.7z"/>
		<path class="st2" d="M45.2,34.3c-1.9,0-3.8-0.5-5.5-1.5v5.3l5.5,6.7l5.5-6.7v-5.5C49.1,33.7,47.2,34.3,45.2,34.3z"/>
		<path class="st3" d="M42.9,34c-1.1-0.2-2.2-0.7-3.1-1.3v5.4l3.1,3.9V34z"/>
		<path class="st4" d="M65.1,43.2l-14.4-5.6l-5.5,6.7l-5.5-6.7l-14.4,5.6c-3.2,1.5-5.3,4.7-5.3,8.3v23.9c0,1,0.8,1.8,1.8,1.8h46.9
			c1,0,1.8-0.8,1.8-1.8V51.5C70.4,47.9,68.4,44.7,65.1,43.2z"/>
		<path class="st0" d="M23,75.4V49.8c0-2.7,1.2-5.3,3.3-7l-1,0.4c-3.2,1.5-5.3,4.7-5.3,8.3v23.9c0,1,0.8,1.8,1.8,1.8h3
			C23.8,77.1,23,76.4,23,75.4z"/>
		<path class="st4" d="M51.5,12.8c-0.3-0.3-0.8-0.4-1.1-0.1c-4.2,2.7-9.1,4.1-14.1,3.8c-0.5-0.1-0.9,0.3-1,0.8c0,0,0,0.1,0,0.1v7.8
			c0,5.4,4.4,9.7,9.7,9.7s9.7-4.4,9.7-9.7v-8.4C54.8,16.3,54.8,16.4,51.5,12.8z"/>
		<path class="st2" d="M38.4,25.2v-8.6c-0.7,0-1.4,0-2.1,0c-0.5-0.1-0.9,0.3-1,0.8c0,0,0,0.1,0,0.1v7.8c0,5.3,4.3,9.6,9.6,9.6
			c0.1,0,0.2,0,0.3,0c0.5,0,0.9,0,1.4-0.1C41.9,34,38.4,29.9,38.4,25.2z"/>
		<path class="st0" d="M51.8,47.8l4.1-8.2l-5.2-2l-5.5,6.7l5.3,3.8c0.4,0.3,0.9,0.2,1.2-0.2C51.8,47.9,51.8,47.9,51.8,47.8z"/>
		<path class="st0" d="M38.6,47.8l-4.1-8.2l5.2-2l5.5,6.7l-5.3,3.8c-0.4,0.3-0.9,0.2-1.2-0.2C38.7,47.9,38.7,47.9,38.6,47.8z"/>
		<path class="st5" d="M50.8,70.6l-3.5-20.7h-4.1l-3.5,20.7c0,0.3,0,0.5,0.2,0.7l0,0l4.8,5.3c0.2,0.3,0.7,0.3,0.9,0.1
			c0,0,0,0,0.1-0.1l4.8-5.3l0,0C50.7,71.1,50.8,70.8,50.8,70.6z"/>
		<polygon class="st5" points="45.2,44.4 45.2,44.4 45.2,44.4 45.2,44.4 45.2,44.4 41.3,47.1 43.2,49.9 45.2,49.9 45.2,49.9 
			47.3,49.9 49.1,47.1 		"/>
		<path class="st1" d="M42.9,71.3c-0.2-0.2-0.2-0.5-0.2-0.7l3.5-20.7h-3l-3.5,20.7c0,0.3,0,0.5,0.2,0.7l4.8,5.3
			c0.2,0.3,0.7,0.3,0.9,0.1c0,0,0,0,0.1-0.1l1-1.1L42.9,71.3z"/>
		<path class="st1" d="M46.8,45.5l-1.5-1.1l0,0l-3.9,2.8l1.8,2.8h3l-1.5-2.4c-0.1-0.2-0.1-0.5,0.1-0.6c0,0,0,0,0,0L46.8,45.5z"/>
		<path class="st6" d="M70.5,60.3c0.6,0,1.1-0.5,1.1-1.1c0,0,0,0,0,0v-7.8c0-4-2.3-7.7-6-9.3l0,0l-13.7-5.3v-3.2
			c2.2-1.7,3.7-4.3,4.1-7.1c1.1-0.1,2.1-0.5,2.9-1.2c2-1.7,2.3-4.8,0.5-6.8c0,0,0,0,0,0v-4.2C59.4,6.4,53.1,0,45.2,0
			C37.4,0,31,6.4,31,14.2v4.4c-0.8,0.8-1.2,1.9-1.2,3.1c0,1.4,0.6,2.8,1.7,3.7c0.8,0.7,1.8,1.1,2.9,1.2c0.4,2.9,1.9,5.5,4.3,7.2v3
			L25,42.1l0,0c-3.7,1.7-6,5.3-6,9.3v23.9c0,1.6,1.3,2.9,2.9,2.9h10.8c0.6,0,1.2-0.5,1.2-1.2s-0.5-1.2-1.2-1.2h-2.5V53.4
			c0.1-0.6-0.4-1.2-1-1.3s-1.2,0.4-1.3,1c0,0.1,0,0.1,0,0.2V76h-6.2c-0.3,0-0.6-0.3-0.6-0.6V51.4c0-3.1,1.8-5.9,4.6-7.2L34,41
			l3.6,7.2l0,0c0.3,0.7,1,1.1,1.8,1.1c0.6,0,1.2-0.3,1.6-0.7l1,1.4l-3.4,20.2l0,0c-0.1,0.6,0.1,1.2,0.5,1.7l3.6,4h-4.6
			c-0.6-0.1-1.2,0.4-1.3,1c-0.1,0.6,0.4,1.2,1,1.3c0.1,0,0.1,0,0.2,0h30.6c1.6,0,2.9-1.3,2.9-2.9V64.5c0.1-0.6-0.4-1.2-1-1.3
			c-0.6-0.1-1.2,0.4-1.3,1c0,0.1,0,0.1,0,0.2v10.8c0,0.3-0.3,0.6-0.6,0.6h-6.2V53.4c0-0.6-0.5-1.2-1.1-1.2s-1.2,0.5-1.2,1.1
			c0,0,0,0,0,0V76H47.8l3.6-4c0.4-0.5,0.6-1.1,0.5-1.7l0,0l-3.4-20.3l0.9-1.4c0.4,0.4,1,0.7,1.6,0.7c0.8,0,1.5-0.4,1.8-1.1l0,0
			l3.6-7.3l8.2,3.2c2.8,1.3,4.6,4.1,4.6,7.2v7.8C69.3,59.8,69.8,60.3,70.5,60.3C70.5,60.3,70.5,60.3,70.5,60.3z M57.3,23.6
			c-0.4,0.3-0.8,0.5-1.3,0.6v-5.1c1.4,0.2,2.4,1.5,2.2,2.9C58.1,22.6,57.8,23.2,57.3,23.6z M33.2,14.2c0-6.6,5.3-11.9,11.9-11.9
			S57,7.6,57,14.2c0,0,0,0,0,0V17c-0.3-0.1-0.7-0.2-1-0.2c0-1.1,0-0.9-3.6-4.8c-0.7-0.7-1.8-0.9-2.6-0.3c-4,2.6-8.6,3.9-13.4,3.6
			c-1-0.1-1.9,0.6-2.1,1.5c-0.4,0-0.7,0.1-1.1,0.2L33.2,14.2L33.2,14.2z M32,21.6c0.1-1.2,1-2.3,2.2-2.5v5.1
			C33,24,32.1,22.9,32,21.6z M36.5,25.1v-7.5c5.1,0.2,10.1-1.1,14.3-3.9c1.7,1.8,2.6,2.7,2.8,3.1v8.3c0,4.7-3.8,8.6-8.6,8.6
			S36.5,29.8,36.5,25.1z M45.3,35.8c1.5,0,2.9-0.3,4.3-0.9v2.2l-4.3,5.3L41,37.1V35C42.4,35.5,43.8,35.8,45.3,35.8z M36.2,40.2
			l3.3-1.3l4.2,5.1l-4,2.9L36.2,40.2z M45.3,75.4l-4.4-4.8L44.2,51h2.2l3.3,19.6L45.3,75.4z M46.7,48.7h-2.9L43,47.3l2.3-1.6
			l2.3,1.6L46.7,48.7z M51,47l-4-2.9c0.9-1.2-0.2,0.2,4.2-5.1l3.3,1.3L51,47z"/>
		<path class="st7" d="M27.7,42.6H2.5c-1.4,0-2.5,1.1-2.5,2.5c0,0,0,0,0,0V93c0,1.4,1.1,2.5,2.5,2.5h32.8c1.4,0,2.5-1.1,2.5-2.5
			V52.6L27.7,42.6z"/>
		<path class="st8" d="M27.7,42.6v7.6c0,1.4,1.1,2.5,2.5,2.5h7.6L27.7,42.6z"/>
		<path class="st4" d="M31.5,69.1H20.2c-0.7,0-1.2,0.5-1.2,1.2s0.5,1.2,1.2,1.2h11.3c0.7,0,1.2-0.5,1.2-1.2S32.2,69.1,31.5,69.1
			L31.5,69.1z"/>
		<path class="st4" d="M20.2,76.5H29c0.6,0.1,1.2-0.4,1.3-1.1c0.1-0.6-0.4-1.2-1.1-1.3c-0.1,0-0.1,0-0.2,0h-8.8
			c-0.6-0.1-1.2,0.4-1.3,1.1c-0.1,0.6,0.4,1.2,1.1,1.3C20,76.5,20.1,76.5,20.2,76.5z"/>
		<path class="st5" d="M14.3,69.4l-4.2,4.2l-2.9-3c-0.5-0.5-1.2-0.5-1.7,0s-0.5,1.2,0,1.7l3.8,3.8c0.2,0.2,0.5,0.3,0.8,0.3
			c0.3,0,0.6-0.1,0.8-0.3l5-5c0.5-0.5,0.5-1.2,0-1.7c0,0,0,0,0,0C15.5,69,14.7,69,14.3,69.4z"/>
		<path class="st4" d="M31.5,56.5H20.2c-0.6-0.1-1.2,0.4-1.3,1.1s0.4,1.2,1.1,1.3c0.1,0,0.1,0,0.2,0h11.3c0.6,0.1,1.2-0.4,1.3-1.1
			s-0.4-1.2-1.1-1.3C31.6,56.5,31.6,56.5,31.5,56.5z"/>
		<path class="st4" d="M20.2,63.9H29c0.7,0,1.2-0.5,1.2-1.2s-0.5-1.2-1.2-1.2h-8.8c-0.7,0-1.2,0.5-1.2,1.2S19.5,63.9,20.2,63.9z"/>
		<path class="st5" d="M14.3,56.8L10.1,61l-2.9-3c-0.5-0.5-1.2-0.5-1.7,0c0,0,0,0,0,0c-0.5,0.5-0.5,1.2,0,1.7c0,0,0,0,0,0l3.8,3.8
			c0.2,0.2,0.5,0.3,0.8,0.3c0.3,0,0.6-0.1,0.8-0.3l5-5c0.5-0.5,0.5-1.2,0-1.7c0,0,0,0,0,0C15.5,56.4,14.8,56.4,14.3,56.8z"/>
		<path class="st4" d="M31.5,81.7H20.2c-0.7,0-1.2,0.5-1.2,1.2s0.5,1.2,1.2,1.2h11.3c0.7,0,1.2-0.5,1.2-1.2S32.2,81.7,31.5,81.7
			L31.5,81.7z"/>
		<path class="st4" d="M29,86.7h-8.8c-0.7,0-1.2,0.5-1.2,1.2s0.5,1.2,1.2,1.2H29c0.7,0,1.2-0.5,1.2-1.2S29.7,86.7,29,86.7z"/>
		<path class="st5" d="M14.3,82l-4.2,4.2l-2.9-2.9c-0.5-0.5-1.2-0.4-1.7,0C5,83.8,5,84.5,5.5,85l3.8,3.8c0.2,0.2,0.5,0.3,0.8,0.3
			c0.3,0,0.6-0.1,0.8-0.3l5-5c0.5-0.4,0.6-1.1,0.2-1.7c0,0-0.1-0.1-0.1-0.1C15.5,81.5,14.8,81.5,14.3,82z"/>
		<path class="st4" d="M6.3,51.3h16.4c0.7,0,1.2-0.5,1.2-1.2s-0.5-1.2-1.2-1.2l0,0H6.3c-0.7,0-1.2,0.5-1.2,1.2l0,0
			C5.1,50.8,5.6,51.3,6.3,51.3C6.3,51.3,6.3,51.3,6.3,51.3z"/>
	</g>
</g>
</svg>
