<svg xmlns="http://www.w3.org/2000/svg" viewBox="0 0 441.79 512"><defs><style>.cls-1{fill:#fff;}.cls-2{fill:#737373;}.cls-3{opacity:0.1;}.cls-4{fill:#dfdfdf;}.cls-5{fill:#e4eaf8;}.cls-6{fill:#969ba1;}.cls-7{fill:#d81e05;}</style></defs><g id="Capa_2" data-name="Capa 2"><g id="Capa_1-2" data-name="Capa 1"><polygon class="cls-1" points="371.48 370.11 390.56 417.37 408.06 370.11 371.48 370.11"/><path class="cls-2" d="M401,101.17H378.53V76.78a11.24,11.24,0,0,1,11.24-11.24h0A11.24,11.24,0,0,1,401,76.78v24.39Z"/><path class="cls-2" d="M408.06,100.71V370.1H371.49V100.71a5.06,5.06,0,0,1,5.06-5.06H403A5.07,5.07,0,0,1,408.06,100.71Z"/><path class="cls-3" d="M408.06,100.72V370.1H395.57V100.72a5.06,5.06,0,0,0-5.06-5.07H403A5.07,5.07,0,0,1,408.06,100.72Z"/><rect class="cls-4" x="371.49" y="265.7" width="36.58" height="104.4"/><rect class="cls-3" x="395.57" y="265.7" width="12.49" height="104.4"/><rect class="cls-4" x="365.96" y="116.33" width="47.63" height="104.4"/><rect class="cls-3" x="395.57" y="116.33" width="18.02" height="104.4"/><rect class="cls-1" x="7.54" y="7.54" width="320.96" height="496.91"/><rect class="cls-4" x="7.54" y="7.54" width="16.09" height="496.91"/><rect class="cls-5" x="312.41" y="7.54" width="16.09" height="496.91"/><rect class="cls-2" x="59.89" y="57.37" width="216.27" height="34.2"/><rect class="cls-4" x="59.89" y="226.76" width="47.66" height="47.66"/><rect class="cls-4" x="59.89" y="304.55" width="47.66" height="47.66"/><rect class="cls-4" x="59.89" y="382.34" width="47.66" height="47.66"/><path d="M434.25,104.72a7.55,7.55,0,0,0-7.55,7.54v17.43h-5.57V116.33a7.55,7.55,0,0,0-5.52-7.27v-8.34a12.61,12.61,0,0,0-7-11.29V76.78A18.81,18.81,0,0,0,389.78,58,18.81,18.81,0,0,0,371,76.78V89.43a12.59,12.59,0,0,0-7,11.29v8.34a7.55,7.55,0,0,0-5.53,7.27v104.4A7.54,7.54,0,0,0,364,228v13.76s0,.07,0,.1,0,.07,0,.1v23.66s0,.06,0,.09,0,.07,0,.1V369.89a7.54,7.54,0,0,0,.54,3l19.08,47.26a7.54,7.54,0,0,0,7,4.73h.11a7.55,7.55,0,0,0,7-4.92l17.5-47.27a7.48,7.48,0,0,0,.47-2.61V333.89a7.55,7.55,0,1,0-15.09,0v28.67H379V228.27h21.49v77.6a7.55,7.55,0,1,0,15.09,0V228a7.55,7.55,0,0,0,5.52-7.26v-76h5.57V268.24a7.55,7.55,0,0,0,15.09,0v-156A7.55,7.55,0,0,0,434.25,104.72Zm-37,272.93-7,18.81-7.6-18.81ZM386.07,76.78a3.71,3.71,0,0,1,3.71-3.7,3.66,3.66,0,0,1,2.62,1.1,3.61,3.61,0,0,1,1.08,2.6V88.12h-7.4V76.78Zm-7,26.43h21.49v5.57H379Zm27,33.67c0,.12,0,.23,0,.35s0,.23,0,.35v75.6H373.5V123.87H406Z"/><path d="M328.5,466.66a7.54,7.54,0,0,0-7.54,7.55v22.7H15.09V128.68a7.55,7.55,0,0,0-15.09,0V504.46A7.55,7.55,0,0,0,7.55,512h321a7.55,7.55,0,0,0,7.55-7.54V474.2A7.55,7.55,0,0,0,328.5,466.66Z"/><path d="M328.5,0H7.54A7.55,7.55,0,0,0,0,7.54v93.12a7.55,7.55,0,1,0,15.09,0V15.09H321v431.1a7.54,7.54,0,1,0,15.08,0V7.54A7.54,7.54,0,0,0,328.5,0Z"/><path class="cls-4" d="M59.89,122.72H207.72a7.55,7.55,0,0,0,0-15.09H59.89a7.55,7.55,0,0,0,0,15.09Z"/><path class="cls-4" d="M276.16,107.63H236.89a7.55,7.55,0,1,0,0,15.09h39.27a7.55,7.55,0,0,0,0-15.09Z"/><path class="cls-4" d="M276.16,131.77H128.33a7.55,7.55,0,1,0,0,15.09H276.16a7.55,7.55,0,0,0,0-15.09Z"/><path class="cls-4" d="M59.89,146.86H99.16a7.55,7.55,0,0,0,0-15.09H59.89a7.55,7.55,0,0,0,0,15.09Z"/><path class="cls-4" d="M148.39,246.06h87.33a7.54,7.54,0,1,0,0-15.08H148.39a7.54,7.54,0,1,0,0,15.08Z"/><path class="cls-6" d="M276.16,231H259a7.54,7.54,0,0,0,0,15.08h17.17a7.54,7.54,0,0,0,0-15.08Z"/><path class="cls-4" d="M276.16,255.12H188.82a7.55,7.55,0,0,0,0,15.09h87.34a7.55,7.55,0,0,0,0-15.09Z"/><path class="cls-4" d="M148.39,270.21h17.16a7.55,7.55,0,1,0,0-15.09H148.39a7.55,7.55,0,1,0,0,15.09Z"/><path class="cls-4" d="M148.39,323.85h87.33a7.54,7.54,0,1,0,0-15.08H148.39a7.54,7.54,0,1,0,0,15.08Z"/><path class="cls-4" d="M276.16,308.77H259a7.54,7.54,0,0,0,0,15.08h17.17a7.54,7.54,0,0,0,0-15.08Z"/><path class="cls-4" d="M276.16,332.91H188.82a7.55,7.55,0,0,0,0,15.09h87.34a7.55,7.55,0,0,0,0-15.09Z"/><path class="cls-4" d="M148.39,348h17.16a7.54,7.54,0,1,0,0-15.08H148.39a7.54,7.54,0,1,0,0,15.08Z"/><path class="cls-4" d="M243.27,394.1a7.55,7.55,0,0,0-7.55-7.55H148.39a7.55,7.55,0,0,0,0,15.09h87.33A7.54,7.54,0,0,0,243.27,394.1Z"/><path class="cls-4" d="M276.16,386.55H259a7.55,7.55,0,0,0,0,15.09h17.17a7.55,7.55,0,0,0,0-15.09Z"/><path class="cls-4" d="M188.82,425.78h87.34a7.54,7.54,0,0,0,0-15.08H188.82a7.54,7.54,0,0,0,0,15.08Z"/><path class="cls-4" d="M148.39,410.7a7.54,7.54,0,1,0,0,15.08h17.16a7.54,7.54,0,1,0,0-15.08Z"/><path class="cls-4" d="M23.17,174.52a7.55,7.55,0,0,0,7.55,7.55H305.33a7.55,7.55,0,0,0,0-15.09H30.72A7.55,7.55,0,0,0,23.17,174.52Z"/><path class="cls-7" d="M81.58,262.17a7.6,7.6,0,0,0,10.74,0h0a8,8,0,0,0,.88-1.06l32.38-32.39A7.48,7.48,0,0,0,115,218.13l-28,28-3.63-3.64a7.6,7.6,0,0,0-10.75,10.75Z"/><path class="cls-7" d="M115,296.06,87,324l-3.63-3.63A7.6,7.6,0,0,0,72.6,331.16l8.94,8.94a7.64,7.64,0,0,0,10.75,0h0a7.9,7.9,0,0,0,.87-1.06l32.39-32.39A7.49,7.49,0,0,0,115,296.06Z"/><path class="cls-7" d="M125.55,373.85a7.51,7.51,0,0,0-10.59,0l-28,28-3.63-3.63A7.6,7.6,0,0,0,72.6,409l8.94,8.94a7.64,7.64,0,0,0,10.75,0,7.2,7.2,0,0,0,.87-1.06l32.39-32.39a7.51,7.51,0,0,0,0-10.59Z"/></g></g></svg>