<svg xmlns="http://www.w3.org/2000/svg" viewBox="0 0 88.18 119.12"><defs><style>.cls-1{fill:#e0e0df;}.cls-2{fill:#fff;}.cls-3,.cls-4{fill:#010101;}.cls-3{opacity:0.1;}.cls-5{fill:#d72426;}</style></defs><g id="Capa_2" data-name="Capa 2"><g id="Capa_1-2" data-name="Capa 1"><path class="cls-1" d="M1.74,8.72h84.7V117.38H1.74Z"/><path class="cls-1" d="M79.46,8.72h7V117.38h-7Z"/><path class="cls-2" d="M79.46,15.7v94.7H8.72V15.7Z"/><path class="cls-1" d="M54.56,8.72H33.62a7,7,0,0,1,7-7h7A7,7,0,0,1,54.56,8.72Z"/><path class="cls-3" d="M47.58,1.74h-7a7,7,0,0,1,7,7h7A7,7,0,0,0,47.58,1.74Z"/><path class="cls-4" d="M86.44,109.9a1.74,1.74,0,0,0-1.75,1.74v4H3.49V22.34a1.75,1.75,0,1,0-3.49,0v95a1.74,1.74,0,0,0,1.74,1.74h84.7a1.74,1.74,0,0,0,1.74-1.74v-5.74A1.74,1.74,0,0,0,86.44,109.9Z"/><path class="cls-4" d="M86.44,7H56.13a8.74,8.74,0,0,0-8.55-7h-7a8.74,8.74,0,0,0-8.55,7H1.74A1.74,1.74,0,0,0,0,8.72v6.11a1.75,1.75,0,1,0,3.49,0V10.47h81.2v93.76a1.75,1.75,0,1,0,3.49,0V8.72A1.74,1.74,0,0,0,86.44,7ZM35.66,7A5.26,5.26,0,0,1,40.6,3.49h7A5.26,5.26,0,0,1,52.52,7Z"/><path class="cls-1" d="M43.42,31H16.73a1.75,1.75,0,0,1,0-3.49H43.42a1.75,1.75,0,0,1,0,3.49Z"/><path class="cls-1" d="M43.42,38.82H16.73a1.75,1.75,0,0,1,0-3.49H43.42a1.75,1.75,0,0,1,0,3.49Z"/><path class="cls-1" d="M43.42,61.2H16.73a1.75,1.75,0,0,1,0-3.49H43.42a1.75,1.75,0,0,1,0,3.49Z"/><path class="cls-1" d="M43.42,69H16.73a1.75,1.75,0,0,1,0-3.49H43.42a1.75,1.75,0,0,1,0,3.49Z"/><path class="cls-1" d="M43.42,91.31H16.73a1.75,1.75,0,0,1,0-3.49H43.42a1.75,1.75,0,0,1,0,3.49Z"/><path class="cls-1" d="M43.42,99.14H16.73a1.75,1.75,0,0,1,0-3.49H43.42a1.75,1.75,0,0,1,0,3.49Z"/><path class="cls-1" d="M50.87,34.87c0,12,12,16,12,16s12-4,12-16V29.07a1.78,1.78,0,0,0-1.78-1.78H69.28a7.5,7.5,0,0,1-6.45-4,7.46,7.46,0,0,1-6.42,4H52.63a1.76,1.76,0,0,0-1.77,1.77Z"/><path class="cls-2" d="M73.06,34.83a14,14,0,0,1-5.24,11.08,19.93,19.93,0,0,1-4.94,3,20,20,0,0,1-5-3,14,14,0,0,1-5.28-11V29.1H56.4a9.27,9.27,0,0,0,6.43-2.85,9.27,9.27,0,0,0,6.44,2.83H73Z"/><path class="cls-4" d="M75.24,29.07A2.2,2.2,0,0,0,73,26.88H69.26a7.07,7.07,0,0,1-6.06-3.77.44.44,0,0,0-.37-.21h0a.41.41,0,0,0-.37.21,7.1,7.1,0,0,1-6.06,3.8H52.63a2.2,2.2,0,0,0-2.19,2.2v5.76a16.08,16.08,0,0,0,1.94,7.75,17.77,17.77,0,0,0,4.23,5,20.66,20.66,0,0,0,6.14,3.56.27.27,0,0,0,.13,0,.3.3,0,0,0,.13,0,20.44,20.44,0,0,0,6.12-3.56,17.44,17.44,0,0,0,4.21-5,16.12,16.12,0,0,0,1.91-7.78ZM68.62,47a21.1,21.1,0,0,1-5.74,3.39A21,21,0,0,1,57.15,47a15.33,15.33,0,0,1-5.87-12.16V29.11a1.36,1.36,0,0,1,1.36-1.36H56.4a7.37,7.37,0,0,0,4-1.22,8.32,8.32,0,0,0,2.41-2.39,8.16,8.16,0,0,0,2.41,2.38,7.43,7.43,0,0,0,4,1.2H73a1.36,1.36,0,0,1,1.36,1.36l0,5.76A15.26,15.26,0,0,1,68.62,47Z"/><path class="cls-5" d="M67,33.67l-4.91,4.91-3.44-3.44a1.38,1.38,0,0,0-2,2l4.41,4.42a1.4,1.4,0,0,0,1,.41,1.36,1.36,0,0,0,1-.41L69,35.62a1.38,1.38,0,0,0-2-1.95Z"/></g></g></svg>