<svg xmlns="http://www.w3.org/2000/svg" viewBox="0 0 105.66 107.72"><defs><style>.cls-1{fill:#484e55;}.cls-2{fill:#fff;}.cls-3{fill:#e4e9f6;}.cls-4{fill:#e0e0df;}.cls-5,.cls-9{fill:#010101;}.cls-5{opacity:0.1;}.cls-6{fill:#747474;}.cls-7{fill:#f57f35;opacity:0.06;}.cls-8{fill:#d82627;}</style></defs><g id="Capa_2" data-name="Capa 2"><g id="Capa_1-2" data-name="Capa 1"><path id="SVGCleanerId_0" data-name="SVGCleanerId 0" class="cls-1" d="M83.13,94.34c-2.81-.07-4.91-1.58-4.91-2.87,0-.65.58-1.62,1.29-1.62.88,0,1.58,1.5,3.62,1.73V87c-2.11-.79-4.5-1.69-4.5-4.66s2.18-4.21,4.5-4.51v-.65c0-.3.34-.58.78-.58s.79.28.79.58v.6c1.5,0,4,.49,4,1.83,0,.53-.37,1.6-1.23,1.6-.65,0-1.18-.74-2.73-.86v4.08c2.06.76,4.38,1.8,4.38,5,0,2.85-1.79,4.49-4.38,4.91V95c0,.3-.39.57-.79.57s-.78-.27-.78-.57Zm.18-10.44V80.4c-1.16.18-1.85.74-1.85,1.62S82.25,83.48,83.31,83.9Zm1.2,3.63v4a1.9,1.9,0,0,0,1.74-1.9C86.25,88.53,85.51,88,84.51,87.53Z"/><path id="SVGCleanerId_0-2" data-name="SVGCleanerId 0" class="cls-1" d="M83.13,94.34c-2.81-.07-4.91-1.58-4.91-2.87,0-.65.58-1.62,1.29-1.62.88,0,1.58,1.5,3.62,1.73V87c-2.11-.79-4.5-1.69-4.5-4.66s2.18-4.21,4.5-4.51v-.65c0-.3.34-.58.78-.58s.79.28.79.58v.6c1.5,0,4,.49,4,1.83,0,.53-.37,1.6-1.23,1.6-.65,0-1.18-.74-2.73-.86v4.08c2.06.76,4.38,1.8,4.38,5,0,2.85-1.79,4.49-4.38,4.91V95c0,.3-.39.57-.79.57s-.78-.27-.78-.57Zm.18-10.44V80.4c-1.16.18-1.85.74-1.85,1.62S82.25,83.48,83.31,83.9Zm1.2,3.63v4a1.9,1.9,0,0,0,1.74-1.9C86.25,88.53,85.51,88,84.51,87.53Z"/><path id="SVGCleanerId_0-3" data-name="SVGCleanerId 0" class="cls-1" d="M83.13,94.34c-2.81-.07-4.91-1.58-4.91-2.87,0-.65.58-1.62,1.29-1.62.88,0,1.58,1.5,3.62,1.73V87c-2.11-.79-4.5-1.69-4.5-4.66s2.18-4.21,4.5-4.51v-.65c0-.3.34-.58.78-.58s.79.28.79.58v.6c1.5,0,4,.49,4,1.83,0,.53-.37,1.6-1.23,1.6-.65,0-1.18-.74-2.73-.86v4.08c2.06.76,4.38,1.8,4.38,5,0,2.85-1.79,4.49-4.38,4.91V95c0,.3-.39.57-.79.57s-.78-.27-.78-.57Zm.18-10.44V80.4c-1.16.18-1.85.74-1.85,1.62S82.25,83.48,83.31,83.9Zm1.2,3.63v4a1.9,1.9,0,0,0,1.74-1.9C86.25,88.53,85.51,88,84.51,87.53Z"/><path id="SVGCleanerId_0-4" data-name="SVGCleanerId 0" class="cls-1" d="M83.13,94.34c-2.81-.07-4.91-1.58-4.91-2.87,0-.65.58-1.62,1.29-1.62.88,0,1.58,1.5,3.62,1.73V87c-2.11-.79-4.5-1.69-4.5-4.66s2.18-4.21,4.5-4.51v-.65c0-.3.34-.58.78-.58s.79.28.79.58v.6c1.5,0,4,.49,4,1.83,0,.53-.37,1.6-1.23,1.6-.65,0-1.18-.74-2.73-.86v4.08c2.06.76,4.38,1.8,4.38,5,0,2.85-1.79,4.49-4.38,4.91V95c0,.3-.39.57-.79.57s-.78-.27-.78-.57Zm.18-10.44V80.4c-1.16.18-1.85.74-1.85,1.62S82.25,83.48,83.31,83.9Zm1.2,3.63v4a1.9,1.9,0,0,0,1.74-1.9C86.25,88.53,85.51,88,84.51,87.53Z"/><path class="cls-2" d="M75.79,1.68H4.57a3,3,0,0,0-3,3V103.2a3.05,3.05,0,0,0,.94,2.2h0a3.08,3.08,0,0,0,2.1.84H75.79a3.08,3.08,0,0,0,2.09-.84h0a3.06,3.06,0,0,0,1-2.2V4.72A3.05,3.05,0,0,0,75.79,1.68Z"/><path class="cls-3" d="M6.68,105.4h0a3.06,3.06,0,0,1-.95-2.2V4.72a3.05,3.05,0,0,1,3-3H4.57a3,3,0,0,0-3,3V103.2a3.05,3.05,0,0,0,.94,2.2h0a3.08,3.08,0,0,0,2.1.84h4.2A3.08,3.08,0,0,1,6.68,105.4Z"/><path class="cls-4" d="M66.67,34.89h-53a2.53,2.53,0,0,1-2.53-2.52V14.94a2.54,2.54,0,0,1,2.53-2.52h53a2.53,2.53,0,0,1,2.52,2.52V32.37A2.52,2.52,0,0,1,66.67,34.89Z"/><path class="cls-5" d="M15.37,32.37V14.94a2.54,2.54,0,0,1,2.52-2.52h-4.2a2.54,2.54,0,0,0-2.53,2.52V32.37a2.53,2.53,0,0,0,2.53,2.52h4.2A2.53,2.53,0,0,1,15.37,32.37Z"/><path class="cls-4" d="M23.67,54.73H17.5A2.53,2.53,0,0,1,15,52.2V46a2.53,2.53,0,0,1,2.52-2.53h6.17A2.53,2.53,0,0,1,26.19,46V52.2A2.53,2.53,0,0,1,23.67,54.73Z"/><path class="cls-5" d="M19.13,52.2V46a2.54,2.54,0,0,1,2.53-2.53H17.5A2.53,2.53,0,0,0,15,46V52.2a2.53,2.53,0,0,0,2.52,2.53h4.16A2.54,2.54,0,0,1,19.13,52.2Z"/><path class="cls-6" d="M62.34,63.35H57.2a3.05,3.05,0,0,0-3,3V91.32a3,3,0,0,0,.67,1.89h0a3,3,0,0,0,2.37,1.15h5.14a3.08,3.08,0,0,0,2.37-1.15h0a3.06,3.06,0,0,0,.67-1.89V66.39A3.05,3.05,0,0,0,62.34,63.35Z"/><path class="cls-7" d="M58.37,91.32V66.39a3.05,3.05,0,0,1,3-3H57.2a3.05,3.05,0,0,0-3,3V91.32a3.06,3.06,0,0,0,3,3h4.21A3.06,3.06,0,0,1,58.37,91.32Z"/><circle class="cls-8" cx="83.69" cy="85.9" r="20.34"/><path class="cls-8" d="M67.48,85.9A20.34,20.34,0,0,1,85.76,65.67a20.34,20.34,0,1,0,0,40.47A20.34,20.34,0,0,1,67.48,85.9Z"/><circle class="cls-2" cx="83.69" cy="85.9" r="13.84"/><path class="cls-4" d="M43.26,54.73H37.09a2.53,2.53,0,0,1-2.52-2.53V46a2.53,2.53,0,0,1,2.52-2.53h6.17A2.54,2.54,0,0,1,45.79,46V52.2A2.54,2.54,0,0,1,43.26,54.73Z"/><path class="cls-5" d="M38.72,52.2V46a2.54,2.54,0,0,1,2.53-2.53H37.09A2.53,2.53,0,0,0,34.57,46V52.2a2.53,2.53,0,0,0,2.52,2.53h4.16A2.54,2.54,0,0,1,38.72,52.2Z"/><path class="cls-4" d="M62.85,54.73H56.69a2.54,2.54,0,0,1-2.53-2.53V46a2.54,2.54,0,0,1,2.53-2.53h6.16A2.54,2.54,0,0,1,65.38,46V52.2A2.54,2.54,0,0,1,62.85,54.73Z"/><path class="cls-5" d="M58.32,52.2V46a2.53,2.53,0,0,1,2.52-2.53H56.69A2.54,2.54,0,0,0,54.16,46V52.2a2.54,2.54,0,0,0,2.53,2.53h4.15A2.53,2.53,0,0,1,58.32,52.2Z"/><path class="cls-4" d="M23.67,74.57H17.5A2.53,2.53,0,0,1,15,72V65.87a2.52,2.52,0,0,1,2.52-2.52h6.17a2.52,2.52,0,0,1,2.52,2.52V72A2.53,2.53,0,0,1,23.67,74.57Z"/><path class="cls-5" d="M19.13,72V65.87a2.53,2.53,0,0,1,2.53-2.52H17.5A2.52,2.52,0,0,0,15,65.87V72a2.53,2.53,0,0,0,2.52,2.53h4.16A2.54,2.54,0,0,1,19.13,72Z"/><path class="cls-4" d="M43.26,74.57H37.09A2.53,2.53,0,0,1,34.57,72V65.87a2.52,2.52,0,0,1,2.52-2.52h6.17a2.53,2.53,0,0,1,2.53,2.52V72A2.54,2.54,0,0,1,43.26,74.57Z"/><path class="cls-5" d="M38.72,72V65.87a2.53,2.53,0,0,1,2.53-2.52H37.09a2.52,2.52,0,0,0-2.52,2.52V72a2.53,2.53,0,0,0,2.52,2.53h4.16A2.54,2.54,0,0,1,38.72,72Z"/><path class="cls-4" d="M23.67,94.4H17.5A2.52,2.52,0,0,1,15,91.88V85.71a2.52,2.52,0,0,1,2.52-2.52h6.17a2.52,2.52,0,0,1,2.52,2.52v6.17A2.52,2.52,0,0,1,23.67,94.4Z"/><path class="cls-5" d="M19.13,91.88V85.71a2.53,2.53,0,0,1,2.53-2.52H17.5A2.52,2.52,0,0,0,15,85.71v6.17A2.52,2.52,0,0,0,17.5,94.4h4.16A2.53,2.53,0,0,1,19.13,91.88Z"/><path class="cls-4" d="M43.26,94.4H37.09a2.52,2.52,0,0,1-2.52-2.52V85.71a2.52,2.52,0,0,1,2.52-2.52h6.17a2.53,2.53,0,0,1,2.53,2.52v6.17A2.53,2.53,0,0,1,43.26,94.4Z"/><path class="cls-5" d="M38.72,91.88V85.71a2.53,2.53,0,0,1,2.53-2.52H37.09a2.52,2.52,0,0,0-2.52,2.52v6.17a2.52,2.52,0,0,0,2.52,2.52h4.16A2.53,2.53,0,0,1,38.72,91.88Z"/><path class="cls-2" d="M21.45,22a1.58,1.58,0,0,0,0,3.16H59.82a1.58,1.58,0,0,0,0-3.16Z"/><path class="cls-9" d="M83.74,63.88a20.94,20.94,0,0,0-3.28.25V4.62A4.62,4.62,0,0,0,75.84,0H4.62A4.62,4.62,0,0,0,0,4.62V103.1a4.63,4.63,0,0,0,4.62,4.62H36.55a1.58,1.58,0,0,0,0-3.16H4.62a1.46,1.46,0,0,1-1.46-1.46V4.62A1.46,1.46,0,0,1,4.62,3.16H75.84A1.46,1.46,0,0,1,77.3,4.62V64.85A21.85,21.85,0,0,0,67,71.63V66.28a4.62,4.62,0,0,0-4.62-4.61H57.25a4.63,4.63,0,0,0-4.62,4.61V91.21a4.63,4.63,0,0,0,4.62,4.62h5.14a4.68,4.68,0,0,0,1.7-.33,22,22,0,0,0,8.33,9.06H43.91a1.58,1.58,0,0,0,0,3.16H75.84a4.58,4.58,0,0,0,2.42-.7,21.92,21.92,0,1,0,5.48-43.14ZM62.39,92.67H57.25a1.46,1.46,0,0,1-1.46-1.46V66.28a1.47,1.47,0,0,1,1.46-1.46h5.14a1.46,1.46,0,0,1,1.46,1.46V76.57a22.15,22.15,0,0,0-1,16A1.43,1.43,0,0,1,62.39,92.67Zm21.35,11.89A18.77,18.77,0,1,1,102.51,85.8,18.82,18.82,0,0,1,83.74,104.56Z"/><path class="cls-8" d="M84.75,84.3V80.22A5.3,5.3,0,0,1,87,81a1,1,0,0,0,1.42-.49,1.39,1.39,0,0,0-.11-1.85,6.07,6.07,0,0,0-3.56-1v-.61a.5.5,0,0,0-.24-.41.93.93,0,0,0-1.1,0,.5.5,0,0,0-.23.4v.65c-2.69.36-4.49,1.82-4.49,4.52s2.1,3.74,4.49,4.65v4.61a5.58,5.58,0,0,1-3-1.5,1,1,0,0,0-1.56.33,2.07,2.07,0,0,0-.38,1.06c0,1.36,2.25,2.85,4.91,2.85v.65c0,.35.39.59.79.59s.78-.24.78-.58v-.72a4.72,4.72,0,0,0,4.38-4.91C89.13,86.44,87.36,85.25,84.75,84.3Zm-1.39-.51c-1.4-.56-1.85-1-1.85-1.88s.85-1.46,1.85-1.62Zm1.21,7.66v-4c1.44.63,1.73,1.31,1.73,2.13A1.88,1.88,0,0,1,84.57,91.45Z"/><path class="cls-1" d="M70.82,32.26v-5a1.58,1.58,0,0,0-3.15,0v5a1,1,0,0,1-1,1h-53a1,1,0,0,1-1-1V14.84a1,1,0,0,1,1-.95h53a1,1,0,0,1,1,.95v5a1.58,1.58,0,1,0,3.15,0v-5a4.11,4.11,0,0,0-4.1-4.1h-53a4.11,4.11,0,0,0-4.11,4.1V32.26a4.12,4.12,0,0,0,4.11,4.11h53A4.11,4.11,0,0,0,70.82,32.26Z"/></g></g></svg>