<svg xmlns="http://www.w3.org/2000/svg" viewBox="0 0 44.73 56.69"><defs><style>.cls-1{fill:#fff;}.cls-2{fill:#e4e9f6;}.cls-3{fill:#c2c7cf;}.cls-4{fill:#d82627;}.cls-5,.cls-8{fill:#010101;}.cls-5{opacity:0.1;}.cls-6{fill:#747474;}.cls-7{fill:#e0e0df;}</style></defs><g id="Capa_2" data-name="Capa 2"><g id="Capa_1-2" data-name="Capa 1"><path class="cls-1" d="M15.49,24.07a1.46,1.46,0,0,1,1.11.51L20,28.52a1.46,1.46,0,0,0,1.11.51H37.54V7.6L30.77.83H7.87a.69.69,0,0,0-.69.69V24.07Z"/><path class="cls-2" d="M10.09.83H7.87a.69.69,0,0,0-.69.69V24.07H9.4V1.52A.69.69,0,0,1,10.09.83Z"/><path class="cls-2" d="M30.77,7.06V.83L37.54,7.6H31.31A.54.54,0,0,1,30.77,7.06Z"/><path class="cls-3" d="M33,7.06v-4L30.77.83V7.06a.54.54,0,0,0,.54.54h2.22A.54.54,0,0,1,33,7.06Z"/><path class="cls-4" d="M42.43,29H21.09A1.49,1.49,0,0,1,20,28.52L16.6,24.58a1.46,1.46,0,0,0-1.11-.51H2.29A1.46,1.46,0,0,0,.83,25.53V54.4a1.46,1.46,0,0,0,1.46,1.46H42.43a1.46,1.46,0,0,0,1.46-1.46V30.49A1.46,1.46,0,0,0,42.43,29Z"/><path class="cls-5" d="M3,54.4V25.53a1.46,1.46,0,0,1,1.47-1.46H2.29A1.46,1.46,0,0,0,.83,25.53V54.4a1.46,1.46,0,0,0,1.46,1.46H4.51A1.46,1.46,0,0,1,3,54.4Z"/><path class="cls-6" d="M22.86,11.69H14.23a.5.5,0,0,0-.49.5V21a.5.5,0,0,0,.49.5h8.63a.5.5,0,0,0,.5-.5V12.19A.5.5,0,0,0,22.86,11.69Z"/><path class="cls-5" d="M16,21V12.19a.5.5,0,0,1,.5-.5H14.23a.5.5,0,0,0-.49.5V21a.5.5,0,0,0,.49.5h2.22A.5.5,0,0,1,16,21Z"/><path class="cls-1" d="M38,33.69H27.63a.92.92,0,0,0-.92.91v1.25a.92.92,0,0,0,.92.92H38a.92.92,0,0,0,.92-.92V34.6A.92.92,0,0,0,38,33.69Z"/><path class="cls-5" d="M38,34.81H27.63a.91.91,0,0,1-.85-.56.84.84,0,0,0-.07.35v1.25a.92.92,0,0,0,.92.92H38a.92.92,0,0,0,.92-.92V34.6a.84.84,0,0,0-.07-.35A.91.91,0,0,1,38,34.81Z"/><path class="cls-7" d="M31.89,21.59h-5a.83.83,0,0,1,0-1.66h5a.83.83,0,1,1,0,1.66Z"/><path class="cls-7" d="M31.89,17.06h-5a.83.83,0,1,1,0-1.66h5a.83.83,0,0,1,0,1.66Z"/><path class="cls-7" d="M31.89,12.52h-5a.83.83,0,1,1,0-1.66h5a.83.83,0,0,1,0,1.66Z"/><path class="cls-7" d="M31.89,26.13H17.21a.83.83,0,1,1,0-1.66H31.89a.83.83,0,1,1,0,1.66Z"/><path class="cls-8" d="M43.9,41.11a.84.84,0,0,0,.83-.84V30.49a2.3,2.3,0,0,0-2.3-2.29H38.37V7.6h0v0h0v0h0v0h0v0h0v0h0v0h0v0h0v0h0v0h0v0h0v0h0v0h0a.14.14,0,0,1,0-.06h0s0,0,0-.05h0v0h0l0,0h-.06V7L31.36.24h0A.86.86,0,0,0,30.76,0H23.08a.83.83,0,0,0,0,1.66h6.86v5.4a1.37,1.37,0,0,0,1.37,1.37h5.4V28.2H21.09a.62.62,0,0,1-.48-.22L17.23,24l-.13-.14a2.31,2.31,0,0,0-1.61-.66H8V1.66h11.2A.83.83,0,0,0,20,.83.83.83,0,0,0,19.21,0H7.87A1.52,1.52,0,0,0,6.35,1.52V23.24H2.29A2.29,2.29,0,0,0,0,25.53V54.4a2.3,2.3,0,0,0,2.29,2.29H42.43a2.3,2.3,0,0,0,2.3-2.29V44.15a.84.84,0,0,0-1.67,0V54.4a.63.63,0,0,1-.63.63H2.29a.63.63,0,0,1-.63-.63V25.53a.63.63,0,0,1,.63-.63h13.2a.67.67,0,0,1,.34.09l0,0,0,0,.09.09,3.38,3.94a2.27,2.27,0,0,0,1.74.8H42.43a.63.63,0,0,1,.63.63v9.78A.85.85,0,0,0,43.9,41.11ZM31.6,2.84l3.94,3.93H31.6Z"/></g></g></svg>