<svg xmlns="http://www.w3.org/2000/svg" viewBox="0 0 45.48 56.69"><defs><style>.cls-1{fill:#e0e0df;}.cls-10,.cls-2{fill:#010101;}.cls-2,.cls-8{opacity:0.1;}.cls-3{fill:#fff;}.cls-4{fill:#e4e9f6;}.cls-5{fill:#c2c7cf;}.cls-6{fill:#d82627;}.cls-7,.cls-8{fill:#747474;}.cls-9{fill:#9ad4bb;}</style></defs><g id="Capa_2" data-name="Capa 2"><g id="Capa_1-2" data-name="Capa 1"><path class="cls-1" d="M7.84.87H29.32l6.35,6.47V42a.48.48,0,0,1-.47.49H7.78a.59.59,0,0,1-.59-.6V1.53A.66.66,0,0,1,7.84.87Z"/><path class="cls-2" d="M30.89,12.1,24.54,5.63A2.24,2.24,0,0,0,23,5H9.77a.34.34,0,0,1-.34-.34V1.53a.65.65,0,0,1,.64-.66H7.84a.66.66,0,0,0-.65.66V41.9a.59.59,0,0,0,.59.6H31.52V13.65A2.2,2.2,0,0,0,30.89,12.1Z"/><path class="cls-3" d="M1.48,7.18H23l6.35,6.47V48.32a.48.48,0,0,1-.48.49H1.41a.59.59,0,0,1-.58-.6V7.84A.66.66,0,0,1,1.48,7.18Z"/><path class="cls-1" d="M3,48.21V7.84a.66.66,0,0,1,.65-.66H1.48a.66.66,0,0,0-.65.66V48.21a.59.59,0,0,0,.58.6H3.63A.59.59,0,0,1,3,48.21Z"/><path class="cls-4" d="M23,13.13v-6l6.35,6.47H23.47A.51.51,0,0,1,23,13.13Z"/><path class="cls-5" d="M25.17,13.13V9.44L23,7.18v6a.51.51,0,0,0,.51.52h2.21A.51.51,0,0,1,25.17,13.13Z"/><path class="cls-6" d="M15.54,17.36H7.45a.47.47,0,0,0-.47.47v8.26a.47.47,0,0,0,.47.47h8.09a.47.47,0,0,0,.47-.47V17.83A.47.47,0,0,0,15.54,17.36Z"/><path class="cls-2" d="M9.19,26.09V17.83a.47.47,0,0,1,.47-.47H7.45a.47.47,0,0,0-.47.47v8.26a.47.47,0,0,0,.47.47H9.66A.47.47,0,0,1,9.19,26.09Z"/><path class="cls-1" d="M44.37,53.41,39.16,48.2a.55.55,0,0,0-.77,0L37,49.58a.54.54,0,0,0,0,.76l5.25,5.25a.92.92,0,0,0,1.3,0l.81-.8A1,1,0,0,0,44.37,53.41Z"/><path class="cls-2" d="M43.68,54.63,38,49a.51.51,0,0,1-.14-.26l-.87.87a.54.54,0,0,0,0,.76l5.25,5.25a.92.92,0,0,0,1.3,0l.7-.69A1,1,0,0,1,43.68,54.63Z"/><rect class="cls-7" x="39.33" y="50.43" width="3.03" height="3.19" transform="translate(-24.83 44.12) rotate(-45)"/><polygon class="cls-2" points="39.83 50.78 38.64 51.97 39.45 52.78 40.9 54.23 42.09 53.04 39.83 50.78"/><path class="cls-1" d="M35.26,33.88a8.91,8.91,0,1,0,0,12.6A8.91,8.91,0,0,0,35.26,33.88Z"/><circle class="cls-3" cx="28.96" cy="40.18" r="5.75"/><path class="cls-7" d="M24.88,46.48a8.93,8.93,0,0,1,0-12.6,8.83,8.83,0,0,1,5.19-2.53,8.9,8.9,0,1,0,0,17.66A8.89,8.89,0,0,1,24.88,46.48Z"/><path class="cls-8" d="M25.43,40.18a5.75,5.75,0,0,1,4.64-5.64,5.75,5.75,0,1,0,0,11.28A5.75,5.75,0,0,1,25.43,40.18Z"/><path class="cls-1" d="M29.32,6.82V.87l6.35,6.47H29.83A.51.51,0,0,1,29.32,6.82Z"/><path class="cls-9" d="M35.81,7.4h-6a.57.57,0,0,1-.56-.58V.74ZM29.38,1V6.82a.46.46,0,0,0,.45.47h5.71Z"/><path class="cls-2" d="M31.54,6.82V3.13L29.32.87v6a.51.51,0,0,0,.51.52H32A.51.51,0,0,1,31.54,6.82Z"/><path class="cls-7" d="M24,26.7H19.29a.83.83,0,0,1,0-1.66H24a.83.83,0,1,1,0,1.66Z"/><path class="cls-7" d="M24,22.45H19.29a.83.83,0,0,1,0-1.66H24a.83.83,0,1,1,0,1.66Z"/><path class="cls-7" d="M24,18.19H19.29a.83.83,0,0,1,0-1.66H24a.83.83,0,0,1,0,1.66Z"/><path class="cls-7" d="M24,31H6.13a.83.83,0,0,1,0-1.66H24A.83.83,0,1,1,24,31Z"/><path class="cls-7" d="M22.21,35.21H6.13a.83.83,0,0,1,0-1.66H22.21a.83.83,0,0,1,0,1.66Z"/><path class="cls-7" d="M20.2,39.46H6.13a.83.83,0,0,1,0-1.66H20.2a.83.83,0,1,1,0,1.66Z"/><path class="cls-7" d="M20.48,43.71H6.13a.83.83,0,0,1,0-1.66H20.48a.83.83,0,0,1,0,1.66Z"/><path class="cls-10" d="M45,52.82l-5.22-5.21a1.38,1.38,0,0,0-1.94,0l-.09.09-1.29-1.26a9.72,9.72,0,0,0,2-3.93.83.83,0,1,0-1.62-.4A8.06,8.06,0,0,1,29,48.25,8.2,8.2,0,0,1,27,48L27,48a8,8,0,0,1-3.72-2.11,8.47,8.47,0,0,1-1.1-1.37,8.29,8.29,0,0,1-1.24-3.86c0-.16,0-.32,0-.48a8,8,0,0,1,2.25-5.59v0h0l0,0v0l0,0,.05,0,0,0h0a8.1,8.1,0,0,1,6-2.27,5.65,5.65,0,0,1,.58,0,9.34,9.34,0,0,1,1.45.3,8.85,8.85,0,0,1,2.11,1A8.37,8.37,0,0,1,35.12,35a.63.63,0,0,0,.11.12,7.84,7.84,0,0,1,1.65,3.53.83.83,0,0,0,1.63-.33,9.63,9.63,0,0,0-1.93-4.18V7.19a.82.82,0,0,0-.24-.59L30,.24h0l0,0h0l-.05,0h0a.62.62,0,0,0-.22-.1h0l-.06,0h0l-.19,0H21.23a.83.83,0,1,0,0,1.66h7.34v5A1.34,1.34,0,0,0,29.91,8h5V32.47c-.22-.17-.45-.33-.68-.48a9.68,9.68,0,0,0-4.09-1.47h0v-17h0v0h0v0h0v0h0v0h0v0h0v0h0v0h0v0h0v0H30l0,0h0L23.55,6.58H8.1V1.66h9.25a.83.83,0,1,0,0-1.66H7.92A1.48,1.48,0,0,0,6.44,1.48V6.34h-5A1.48,1.48,0,0,0,0,7.82v40.4a1.42,1.42,0,0,0,1.41,1.42H26.66a10,10,0,0,0,2.3.27,9.67,9.67,0,0,0,6.28-2.29l1.3,1.26-.11.11a1.36,1.36,0,0,0,0,1.94l5.24,5.25a1.76,1.76,0,0,0,2.48,0l.81-.8A1.82,1.82,0,0,0,45,52.82Zm-14.73-50,3.52,3.52H30.23Zm-2.92,9.86H23.79V9.18ZM1.66,48V8H22.13v5a1.34,1.34,0,0,0,1.34,1.34h5v16.1a9.58,9.58,0,0,0-6.31,2.76h0l0,0-.05,0,0,.05,0,0,0,0,0,0v0a9.59,9.59,0,0,0-2.68,7.46A9.74,9.74,0,0,0,23.11,48ZM43.78,54.2,43,55a.1.1,0,0,1-.13,0L37.8,50l1-1,5,5A.13.13,0,0,1,43.78,54.2Z"/></g></g></svg>