<?xml version="1.0" encoding="utf-8"?>
<!-- Generator: Adobe Illustrator 25.3.1, SVG Export Plug-In . SVG Version: 6.00 Build 0)  -->
<svg version="1.1" id="Capa_1" xmlns="http://www.w3.org/2000/svg" xmlns:xlink="http://www.w3.org/1999/xlink" x="0px" y="0px"
	 viewBox="0 0 200 52.6" style="enable-background:new 0 0 200 52.6;" xml:space="preserve">
<style type="text/css">
	.st0{fill:#FFFFFF;}
	.st1{fill:#EA2026;}
	.st2{fill:#696A6C;}
</style>
<g>
	<polygon class="st0" points="36.1,51.3 11.8,40.3 36.1,29.5 60.4,40.3 	"/>
	<path class="st1" d="M36.1,52.6c-0.2,0-0.4,0-0.5-0.1l-24.3-11c-0.5-0.2-0.8-0.7-0.7-1.2c0-0.5,0.3-1,0.8-1.2l24.3-10.8
		c0.3-0.1,0.7-0.1,1,0l24.3,10.8c0.5,0.2,0.8,0.7,0.8,1.2c0,0.5-0.3,1-0.8,1.2l-24.3,11C36.4,52.6,36.3,52.6,36.1,52.6 M14.9,40.3
		l21.2,9.6l21.2-9.6l-21.2-9.4L14.9,40.3z"/>
	<polyline class="st0" points="19.8,3.4 19.8,31.5 31.7,31.5 36.1,39.1 40.2,31.5 52.4,31.5 52.4,3.4 	"/>
	<path class="st1" d="M36.1,40.4c-0.5,0-0.9-0.2-1.1-0.6l-4-6.9H19.8c-0.7,0-1.3-0.6-1.3-1.3V3.4c0-0.7,0.6-1.3,1.3-1.3h32.6
		c0.7,0,1.3,0.6,1.3,1.3v28.1c0,0.7-0.6,1.3-1.3,1.3H41l-3.8,6.9C37,40.1,36.6,40.3,36.1,40.4L36.1,40.4z M21,30.2h10.7
		c0.5,0,0.9,0.2,1.1,0.6l3.3,5.6l3.1-5.6c0.2-0.4,0.7-0.7,1.1-0.7h10.9V4.7H21V30.2z"/>
	<path class="st1" d="M36.1,24.7c-3.8,0-7.1-2.4-7.2-2.5c-0.3-0.2-0.5-0.6-0.5-1v-6.1c0-0.4,0.2-0.8,0.5-1c0.3-0.2,0.7-0.3,1.1-0.3
		c1.3,0.3,5,1,6.2,1c1.2,0,4.9-0.7,6.2-1c0.4-0.1,0.8,0,1.1,0.3c0.3,0.2,0.5,0.6,0.5,1v6.1c0,0.4-0.2,0.9-0.6,1.1
		C43.1,22.4,39.1,24.7,36.1,24.7 M30.9,20.5c0.9,0.6,3.1,1.7,5.2,1.7c1.6,0,3.9-1.1,5.2-1.7v-3.7c-1.6,0.3-4.1,0.8-5.2,0.8
		s-3.6-0.4-5.2-0.8V20.5z M42.6,21.2L42.6,21.2L42.6,21.2z"/>
	<polygon class="st0" points="36.1,18.9 26.1,14.4 36,9.8 46.1,14.6 	"/>
	<path class="st1" d="M36.1,20.2c-0.2,0-0.4,0-0.5-0.1l-10.1-4.5c-0.5-0.2-0.8-0.7-0.8-1.2c0-0.5,0.3-1,0.7-1.2l10-4.7
		c0.4-0.2,0.8-0.2,1.1,0l10.1,4.9c0.5,0.2,0.7,0.7,0.7,1.2c0,0.5-0.3,0.9-0.8,1.1l-10,4.3C36.5,20.2,36.3,20.2,36.1,20.2 M29.1,14.4
		l7,3.1l6.9-3l-7-3.4L29.1,14.4z"/>
	<path class="st1" d="M41.6,25.1c-0.7,0-1.3-0.6-1.3-1.3v-6.1l-4.7-2.2c-0.6-0.3-0.9-1.1-0.6-1.7c0.3-0.6,1.1-0.9,1.7-0.6l5.5,2.6
		c0.5,0.2,0.7,0.7,0.7,1.2v7C42.8,24.6,42.3,25.1,41.6,25.1"/>
	<path class="st1" d="M42.1,28.8h-1c-1.1,0-1.9-0.9-1.9-1.9v-1.5c0-1.3,1.1-2.4,2.4-2.4c1.3,0,2.4,1.1,2.4,2.4v1.5
		C44,28,43.1,28.8,42.1,28.8"/>
	<path class="st1" d="M41.6,25.5c-1.5,0-2.7-1.2-2.7-2.7c0-1.5,1.2-2.7,2.7-2.7c1.5,0,2.7,1.2,2.7,2.7
		C44.3,24.3,43.1,25.5,41.6,25.5 M41.6,22.6c-0.1,0-0.2,0.1-0.2,0.2c0,0.1,0.1,0.2,0.2,0.2c0.1,0,0.2-0.1,0.2-0.2
		C41.8,22.7,41.7,22.6,41.6,22.6"/>
	<path class="st2" d="M86.3,4.5V11c0,0.8-0.2,1.6-0.7,2.1c-0.4,0.6-1,1-1.8,1.3c-0.7,0.3-1.5,0.5-2.2,0.6c-0.7,0.1-1.5,0.2-2.4,0.2
		c-0.8,0-1.5,0-2.2-0.1c-0.7-0.1-1.4-0.3-2.2-0.6c-0.8-0.3-1.4-0.7-1.9-1.3c-0.5-0.6-0.7-1.4-0.7-2.3V4.5c0-0.8,0.2-1.4,0.5-2
		c0.3-0.6,0.8-1,1.2-1.3c0.5-0.3,1.1-0.6,1.7-0.7c0.7-0.2,1.3-0.3,1.8-0.4C78.1,0,78.7,0,79.3,0c0.6,0,1.2,0,1.7,0.1
		c0.5,0,1.2,0.2,1.8,0.4c0.7,0.2,1.3,0.4,1.8,0.7c0.5,0.3,0.9,0.7,1.2,1.3C86.2,3,86.3,3.7,86.3,4.5 M82.8,11V4.5
		c0-0.7-0.3-1.2-0.9-1.5c-0.6-0.3-1.4-0.4-2.6-0.4c-1.2,0-2,0.1-2.6,0.4c-0.6,0.3-0.9,0.8-0.9,1.5V11c0,0.4,0.1,0.7,0.3,0.9
		c0.2,0.3,0.5,0.4,0.9,0.5c0.4,0.1,0.7,0.2,1.1,0.2c0.3,0,0.8,0.1,1.3,0.1c0.5,0,0.9,0,1.3-0.1c0.3,0,0.7-0.1,1.1-0.2
		c0.4-0.1,0.6-0.3,0.8-0.5C82.7,11.7,82.8,11.4,82.8,11"/>
	<path class="st2" d="M100.4,7.5v3.6c0,1.6-0.4,2.7-1.1,3.3c-0.7,0.6-1.9,0.8-3.6,0.8c-1,0-1.8-0.1-2.3-0.3c-0.5-0.2-0.8-0.5-1-1.1
		v5.9h-3.3V4h3.2v1.1c0.2-0.5,0.6-0.8,1.2-1C94,3.9,94.8,3.8,96,3.8c0.9,0,1.7,0.1,2.3,0.2c0.6,0.2,1,0.4,1.3,0.7
		c0.3,0.3,0.5,0.7,0.6,1.1C100.3,6.3,100.4,6.8,100.4,7.5 M97,11.5V7.5c0-0.7-0.1-1.2-0.4-1.4c-0.3-0.2-0.9-0.3-2-0.3
		c-0.9,0-1.6,0.1-1.8,0.4c-0.3,0.2-0.4,0.7-0.4,1.3v4.1c0,0.7,0.1,1.1,0.4,1.3c0.3,0.2,0.9,0.3,1.9,0.3c1,0,1.6-0.1,1.9-0.3
		C96.9,12.6,97,12.2,97,11.5"/>
	<path class="st2" d="M113.2,10.4H106v1c0,0.6,0.2,1.1,0.7,1.4c0.4,0.3,1.3,0.4,2.5,0.4c1.1,0,2.3-0.2,3.7-0.5v2.1
		c-1.4,0.3-2.8,0.4-4.3,0.4c-3.9,0-5.9-1.2-5.9-3.6v-4c0-1.4,0.5-2.4,1.4-3c0.9-0.6,2.3-0.9,4.1-0.9c1.7,0,3,0.3,3.8,0.9
		c0.8,0.6,1.3,1.6,1.3,3.1V10.4z M110,8.5V6.9c0-0.4-0.1-0.6-0.4-0.8c-0.3-0.2-0.8-0.3-1.5-0.3c-0.8,0-1.4,0.1-1.6,0.3
		c-0.3,0.2-0.4,0.5-0.4,0.8v1.6H110z"/>
	<path class="st2" d="M123,6.5h-1.1c-0.9,0-1.6,0.1-2.1,0.4c-0.5,0.3-0.7,0.8-0.7,1.4V15h-3.3V4h3.2v1.9c0-0.5,0.3-1,0.9-1.5
		c0.6-0.4,1.3-0.7,1.9-0.7h1.2V6.5z"/>
	<path class="st2" d="M134.7,15h-3.3v-1c-0.2,0.4-0.6,0.8-1.1,0.9c-0.5,0.2-1.3,0.3-2.5,0.3c-1.5,0-2.5-0.2-3-0.7
		c-0.5-0.5-0.7-1.4-0.7-2.9c0-1.3,0.3-2.2,0.8-2.7c0.5-0.5,1.4-0.8,2.7-0.8h3.7V7.5c0-0.7-0.2-1.1-0.5-1.3c-0.3-0.2-1-0.3-2-0.3
		c-0.9,0-2.2,0.1-3.9,0.3V4c1.3-0.2,2.7-0.2,4.2-0.2c2,0,3.5,0.2,4.2,0.7c0.8,0.5,1.2,1.5,1.2,2.9V15z M131.4,12.2v-2.1h-2.3
		c-0.7,0-1.2,0.1-1.4,0.3c-0.2,0.2-0.3,0.6-0.3,1.3c0,0.7,0.1,1.1,0.3,1.3c0.2,0.2,0.7,0.2,1.4,0.2c0.4,0,0.7,0,0.8,0
		c0.2,0,0.4,0,0.6-0.1c0.2,0,0.4-0.1,0.4-0.1c0.1-0.1,0.2-0.2,0.2-0.3C131.4,12.6,131.4,12.4,131.4,12.2"/>
	<path class="st2" d="M145,15.2c-0.6,0.1-1.3,0.1-1.8,0.1c-0.5,0-1,0-1.4-0.1c-0.4,0-0.8-0.1-1.2-0.3c-0.4-0.1-0.8-0.3-1-0.6
		c-0.3-0.2-0.5-0.6-0.7-1c-0.2-0.4-0.3-0.9-0.3-1.5V6h-2.2V4h2.2V0.8h3.3V4h3V6h-3v5.2c0,0.8,0.1,1.3,0.3,1.5
		c0.2,0.3,0.7,0.4,1.5,0.4c0.3,0,0.7,0,1.2-0.1V15.2z"/>
	<path class="st2" d="M150.4,2.7H147V0h3.3V2.7z M150.4,15H147V4h3.3V15z"/>
	<path class="st2" d="M164.3,8v3.3c0,0.7-0.1,1.3-0.3,1.8c-0.2,0.5-0.5,0.9-0.8,1.2c-0.3,0.3-0.8,0.5-1.3,0.7
		c-0.5,0.2-1,0.2-1.5,0.3c-0.4,0-1,0.1-1.6,0.1c-0.6,0-1.2,0-1.6-0.1c-0.4,0-0.9-0.1-1.5-0.3c-0.5-0.2-1-0.4-1.3-0.7
		c-0.3-0.3-0.6-0.7-0.8-1.2c-0.2-0.5-0.3-1.1-0.3-1.8V8c0-0.8,0.1-1.4,0.4-2c0.2-0.5,0.5-1,0.9-1.2c0.3-0.3,0.8-0.5,1.3-0.7
		c0.5-0.2,1-0.3,1.5-0.3c0.4,0,1-0.1,1.6-0.1c0.6,0,1.2,0,1.6,0.1c0.4,0,0.9,0.1,1.5,0.3c0.5,0.2,1,0.4,1.3,0.7
		c0.3,0.3,0.6,0.7,0.9,1.2C164.2,6.6,164.3,7.2,164.3,8 M161,11.6V7.5c0-0.6-0.2-1-0.5-1.3c-0.3-0.3-0.9-0.4-1.8-0.4
		c-0.9,0-1.5,0.1-1.8,0.4c-0.3,0.3-0.5,0.7-0.5,1.3v4.2c0,0.6,0.1,1,0.4,1.2c0.3,0.2,0.9,0.3,1.8,0.3c0.9,0,1.5-0.1,1.8-0.3
		C160.8,12.6,161,12.2,161,11.6"/>
	<path class="st2" d="M177.6,15h-3.3V7.4c0-0.6-0.1-1-0.3-1.2c-0.2-0.2-0.7-0.3-1.5-0.3c-1,0-1.6,0.1-1.8,0.3
		c-0.3,0.2-0.4,0.6-0.4,1.2V15h-3.3V4h3.3v1.3c0.3-1.1,1.4-1.6,3.5-1.6c1.5,0,2.5,0.3,3,0.8s0.8,1.3,0.8,2.4V15z"/>
	<path class="st2" d="M190,10.7v1.4c0,0.5-0.1,1-0.3,1.4c-0.2,0.4-0.5,0.7-0.8,0.9c-0.3,0.2-0.7,0.4-1.2,0.5c-0.5,0.1-1,0.2-1.4,0.2
		c-0.5,0-1,0.1-1.6,0.1c-1.2,0-2.7-0.1-4.4-0.3v-2.2c2.1,0.3,3.6,0.5,4.4,0.5c0.7,0,1.2-0.1,1.5-0.2c0.4-0.1,0.5-0.4,0.5-0.8v-0.7
		c0-0.4-0.1-0.6-0.3-0.8c-0.2-0.2-0.6-0.3-1.3-0.3h-1.4c-1.2,0-2.1-0.2-2.7-0.7c-0.6-0.5-1-1.1-1-2V6.4c0-1,0.5-1.7,1.4-2.1
		c1-0.4,2.3-0.6,4.1-0.6c0.7,0,2,0.1,3.9,0.2v2.1c-2.4-0.2-3.7-0.3-4-0.3c-0.9,0-1.5,0.1-1.8,0.2c-0.2,0.1-0.4,0.4-0.4,0.7v0.6
		c0,0.2,0.1,0.3,0.3,0.5c0.2,0.2,0.5,0.2,0.9,0.2h1.5C188.6,8.1,190,9,190,10.7"/>
	<path class="st2" d="M81.9,32.3v0.8c0,0.7-0.1,1.4-0.4,1.9c-0.3,0.5-0.7,0.9-1.2,1.2c-0.5,0.3-1.1,0.4-1.7,0.6
		c-0.6,0.1-1.4,0.2-2.2,0.2c-1.2,0-2.7-0.1-4.4-0.3v-2.3c2.1,0.3,3.6,0.5,4.5,0.5c1.7,0,2.5-0.4,2.5-1.3v-0.8c0-0.4-0.1-0.7-0.3-0.9
		c-0.2-0.2-0.7-0.4-1.3-0.4h-1.5c-2.7,0-4.1-1.1-4.1-3.3v-0.9c0-1.1,0.5-1.9,1.4-2.4c0.9-0.5,2.3-0.8,4.3-0.8c1,0,2.3,0.1,3.9,0.2
		v2.2c-1.9-0.2-3.3-0.3-4-0.3c-1,0-1.7,0.1-2,0.3c-0.4,0.2-0.6,0.4-0.6,0.8v0.9c0,0.7,0.6,1,1.7,1h1.5c1.5,0,2.5,0.3,3.1,0.8
		C81.6,30.4,81.9,31.2,81.9,32.3"/>
	<path class="st2" d="M91.6,36.5c-1.1,0.2-2.2,0.3-3.2,0.3c-0.5,0-0.9,0-1.1,0c-0.3,0-0.6,0-1.1-0.1c-0.4-0.1-0.8-0.2-1-0.3
		c-0.3-0.1-0.5-0.3-0.8-0.5c-0.3-0.2-0.5-0.5-0.6-0.9c-0.1-0.4-0.2-0.8-0.2-1.3v-3.1c0-0.5,0.1-0.9,0.2-1.2c0.1-0.4,0.2-0.6,0.4-0.9
		c0.2-0.2,0.4-0.4,0.7-0.6c0.3-0.2,0.6-0.3,0.8-0.4c0.2-0.1,0.6-0.1,1-0.2c0.4-0.1,0.7-0.1,1-0.1c0.3,0,0.6,0,1,0
		c0.7,0,1.6,0.1,2.8,0.3v1.8c-1.3-0.3-2.3-0.5-3-0.5c-1.3,0-1.9,0.4-1.9,1.3v3.4c0,1,0.7,1.5,2.1,1.5c0.7,0,1.7-0.1,3-0.4V36.5z"/>
	<path class="st2" d="M102.1,36.7h-2.8v-6.5c0-0.5-0.1-0.9-0.3-1c-0.2-0.2-0.6-0.3-1.2-0.3c-0.8,0-1.3,0.1-1.5,0.2
		c-0.2,0.2-0.3,0.5-0.3,1v6.5h-2.8V23.2h2.8v5.3c0.2-0.9,1.2-1.3,2.9-1.3c1.2,0,2.1,0.2,2.5,0.7c0.5,0.4,0.7,1.1,0.7,2V36.7z"/>
	<path class="st2" d="M113.8,30.7v2.7c0,0.6-0.1,1.1-0.3,1.5c-0.2,0.4-0.4,0.8-0.7,1c-0.3,0.2-0.7,0.4-1.1,0.5
		c-0.5,0.1-0.9,0.2-1.2,0.2c-0.4,0-0.8,0-1.4,0c-0.5,0-1,0-1.4,0c-0.4,0-0.8-0.1-1.2-0.2c-0.5-0.1-0.8-0.3-1.1-0.5
		c-0.3-0.2-0.5-0.6-0.7-1c-0.2-0.4-0.3-0.9-0.3-1.5v-2.7c0-0.6,0.1-1.2,0.3-1.6c0.2-0.5,0.4-0.8,0.7-1c0.3-0.2,0.7-0.4,1.1-0.6
		c0.5-0.1,0.9-0.2,1.2-0.3c0.4,0,0.8,0,1.3,0c0.5,0,1,0,1.3,0c0.4,0,0.8,0.1,1.2,0.3c0.5,0.1,0.8,0.3,1.1,0.6c0.3,0.2,0.5,0.6,0.7,1
		C113.7,29.5,113.8,30.1,113.8,30.7 M111,33.8v-3.5c0-0.5-0.1-0.9-0.4-1.1c-0.3-0.2-0.8-0.3-1.5-0.3s-1.3,0.1-1.5,0.3
		c-0.3,0.2-0.4,0.6-0.4,1.1v3.5c0,0.5,0.1,0.8,0.4,1c0.3,0.2,0.8,0.3,1.5,0.3c0.8,0,1.3-0.1,1.5-0.3C110.8,34.6,111,34.3,111,33.8"
		/>
	<path class="st2" d="M125.1,30.7v2.7c0,0.6-0.1,1.1-0.3,1.5c-0.2,0.4-0.4,0.8-0.7,1c-0.3,0.2-0.7,0.4-1.1,0.5
		c-0.5,0.1-0.9,0.2-1.2,0.2c-0.4,0-0.8,0-1.4,0c-0.5,0-1,0-1.4,0c-0.4,0-0.8-0.1-1.2-0.2c-0.5-0.1-0.8-0.3-1.1-0.5
		c-0.3-0.2-0.5-0.6-0.7-1c-0.2-0.4-0.3-0.9-0.3-1.5v-2.7c0-0.6,0.1-1.2,0.3-1.6c0.2-0.5,0.4-0.8,0.7-1c0.3-0.2,0.7-0.4,1.1-0.6
		c0.5-0.1,0.9-0.2,1.2-0.3c0.4,0,0.8,0,1.3,0c0.5,0,1,0,1.3,0c0.4,0,0.8,0.1,1.2,0.3c0.5,0.1,0.8,0.3,1.1,0.6c0.3,0.2,0.5,0.6,0.7,1
		C125,29.5,125.1,30.1,125.1,30.7 M122.3,33.8v-3.5c0-0.5-0.1-0.9-0.4-1.1c-0.3-0.2-0.8-0.3-1.5-0.3s-1.3,0.1-1.5,0.3
		c-0.3,0.2-0.4,0.6-0.4,1.1v3.5c0,0.5,0.1,0.8,0.4,1c0.3,0.2,0.8,0.3,1.5,0.3c0.8,0,1.3-0.1,1.5-0.3
		C122.2,34.6,122.3,34.3,122.3,33.8"/>
	<rect x="127.4" y="23.2" class="st2" width="2.8" height="13.5"/>
</g>
</svg>
