<?xml version="1.0" encoding="utf-8"?>
<!-- Generator: Adobe Illustrator 25.3.1, SVG Export Plug-In . SVG Version: 6.00 Build 0)  -->
<svg version="1.1" id="Capa_1" xmlns="http://www.w3.org/2000/svg" xmlns:xlink="http://www.w3.org/1999/xlink" x="0px" y="0px"
	 viewBox="0 0 175.3 79.5" style="enable-background:new 0 0 175.3 79.5;" xml:space="preserve">
<style type="text/css">
	.st0{fill:#EC1C2E;}
	.st1{fill-rule:evenodd;clip-rule:evenodd;fill:#EC1C2E;}
	.st2{fill:#696A6C;}
	.st3{fill:none;stroke:#696A6C;stroke-width:0.1487;stroke-miterlimit:10;}
</style>
<g>
	<polygon class="st0" points="74.8,5.6 77.9,12 81.1,5.6 85.8,5.6 85.8,18.5 81.1,18.5 81.1,12 77.9,18.5 74.8,12 74.8,18.5 
		70.1,18.5 70.1,5.6 	"/>
	<path class="st0" d="M87.3,18.5L91,5.6h8.4l3.7,12.8h-4.7l-0.6-2.1h-5.1l-0.6,2.1H87.3z M95.2,7.5l-1.9,6.7h3.9L95.2,7.5z"/>
	<path class="st1" d="M113.5,5.6c2.1,0,3.7,1.7,3.7,3.7s-1.7,3.7-3.7,3.7h-4.1v5.4h-4.7V5.6H113.5z M110.5,7.1
		c1.1,0,2.1,0.6,2.1,1.7c0,1.2-0.9,2.1-2.1,2.1h-1V7.1H110.5z"/>
	<polygon class="st0" points="118.9,5.6 131.5,5.6 131.5,7.7 123.6,7.7 123.6,11 131.5,11 131.5,13.1 123.6,13.1 123.6,18.5 
		118.9,18.5 	"/>
	<polygon class="st0" points="152.3,16.4 160.2,16.4 160.2,18.5 147.6,18.5 147.6,5.6 160.2,5.6 160.2,7.7 152.3,7.7 152.3,11 
		160.2,11 160.2,13.1 152.3,13.1 	"/>
	<path class="st1" d="M145.8,15.3v3.2h-3.2l-1.5,0v-3.1c0,0,0-0.1,0-0.1c0-1.2-0.9-2.1-2.1-2.1h-1v5.3h-4.8V12V5.6h5.3h4.1
		c1.8,0,3.2,1.4,3.2,3.2c0,1.8-1.4,3.2-3.2,3.2c1.7,0,3.2,1.4,3.2,3.1C145.8,15.2,145.8,15.2,145.8,15.3 M145.8,15.1v0.1
		C145.8,15.2,145.8,15.2,145.8,15.1 M139,7.1c1,0,2.1,0.6,2.1,1.7c0,1.2-0.9,2.1-2.1,2.1h-1V7.1H139z"/>
	<path class="st2" d="M78.1,36.3c-1.5,0.3-2.9,0.4-4.2,0.4c-0.5,0-1,0-1.5-0.1c-0.5,0-1-0.1-1.6-0.3c-0.6-0.2-1.1-0.4-1.5-0.6
		c-0.4-0.3-0.7-0.6-1-1.1c-0.3-0.5-0.4-1-0.4-1.7v-5.7c0-2.6,2-3.9,6-3.9c1,0,2.4,0.1,4.1,0.4v2.3c-1.6-0.4-2.9-0.6-4.1-0.6
		c-0.5,0-0.8,0-1.1,0c-0.3,0-0.6,0.1-0.9,0.2c-0.3,0.1-0.5,0.3-0.7,0.5c-0.2,0.2-0.2,0.5-0.2,0.9v5.5c0,1.2,1.1,1.8,3.2,1.8
		c0.9,0,2.2-0.2,3.9-0.6V36.3z"/>
	<path class="st2" d="M89.6,30.3v2.9c0,0.6-0.1,1.2-0.3,1.6c-0.2,0.4-0.4,0.8-0.7,1c-0.3,0.2-0.7,0.4-1.1,0.6
		c-0.5,0.1-0.9,0.2-1.3,0.2c-0.4,0-0.9,0-1.4,0c-0.6,0-1,0-1.4,0c-0.4,0-0.8-0.1-1.3-0.2c-0.5-0.1-0.9-0.3-1.2-0.6
		c-0.3-0.2-0.5-0.6-0.7-1c-0.2-0.4-0.3-1-0.3-1.6v-2.9c0-0.7,0.1-1.2,0.3-1.7c0.2-0.5,0.5-0.8,0.8-1.1c0.3-0.3,0.7-0.5,1.2-0.6
		c0.5-0.1,0.9-0.2,1.3-0.3c0.4,0,0.8,0,1.4,0c0.5,0,1,0,1.4,0c0.4,0,0.8,0.1,1.3,0.3c0.5,0.1,0.9,0.3,1.2,0.6
		c0.3,0.3,0.6,0.6,0.8,1.1C89.5,29.1,89.6,29.7,89.6,30.3 M86.7,33.5v-3.7c0-0.5-0.1-0.9-0.4-1.1c-0.3-0.2-0.8-0.3-1.6-0.3
		c-0.8,0-1.3,0.1-1.6,0.3c-0.3,0.2-0.4,0.6-0.4,1.1v3.7c0,0.5,0.1,0.9,0.4,1.1c0.3,0.2,0.8,0.3,1.6,0.3c0.8,0,1.3-0.1,1.6-0.3
		C86.5,34.4,86.7,34,86.7,33.5"/>
	<path class="st2" d="M98.2,29.1h-1c-0.8,0-1.4,0.1-1.8,0.4c-0.4,0.2-0.6,0.7-0.6,1.3v5.8h-2.9v-9.7h2.8v1.7c0-0.5,0.3-0.9,0.8-1.3
		c0.5-0.4,1.1-0.6,1.7-0.6h1V29.1z"/>
	<path class="st2" d="M109.7,29.9v3.2c0,1.4-0.3,2.4-1,2.9c-0.6,0.5-1.7,0.7-3.1,0.7c-0.9,0-1.6-0.1-2-0.2c-0.4-0.1-0.7-0.5-0.9-1
		v5.1h-2.9V26.8h2.8v1c0.2-0.4,0.5-0.7,1-0.9c0.5-0.2,1.3-0.3,2.2-0.3c0.8,0,1.5,0.1,2,0.2c0.5,0.1,0.9,0.4,1.2,0.7
		c0.3,0.3,0.4,0.6,0.5,1C109.7,28.8,109.7,29.3,109.7,29.9 M106.8,33.5v-3.6c0-0.6-0.1-1-0.3-1.2c-0.2-0.2-0.8-0.2-1.7-0.2
		c-0.8,0-1.4,0.1-1.6,0.3c-0.2,0.2-0.4,0.6-0.4,1.1v3.6c0,0.6,0.1,1,0.4,1.1c0.2,0.2,0.8,0.3,1.6,0.3c0.9,0,1.4-0.1,1.7-0.3
		C106.6,34.4,106.8,34,106.8,33.5"/>
	<path class="st2" d="M121.5,30.3v2.9c0,0.6-0.1,1.2-0.3,1.6c-0.2,0.4-0.4,0.8-0.7,1c-0.3,0.2-0.7,0.4-1.2,0.6
		c-0.5,0.1-0.9,0.2-1.3,0.2c-0.4,0-0.9,0-1.4,0c-0.6,0-1,0-1.4,0c-0.4,0-0.8-0.1-1.3-0.2c-0.5-0.1-0.9-0.3-1.2-0.6
		c-0.3-0.2-0.5-0.6-0.7-1c-0.2-0.4-0.3-1-0.3-1.6v-2.9c0-0.7,0.1-1.2,0.3-1.7c0.2-0.5,0.5-0.8,0.8-1.1c0.3-0.3,0.7-0.5,1.2-0.6
		c0.5-0.1,0.9-0.2,1.3-0.3c0.4,0,0.8,0,1.4,0c0.5,0,1,0,1.4,0c0.4,0,0.8,0.1,1.3,0.3c0.5,0.1,0.9,0.3,1.2,0.6
		c0.3,0.3,0.6,0.6,0.8,1.1C121.4,29.1,121.5,29.7,121.5,30.3 M118.6,33.5v-3.7c0-0.5-0.1-0.9-0.4-1.1c-0.3-0.2-0.8-0.3-1.6-0.3
		c-0.8,0-1.3,0.1-1.6,0.3c-0.3,0.2-0.4,0.6-0.4,1.1v3.7c0,0.5,0.1,0.9,0.4,1.1c0.3,0.2,0.8,0.3,1.6,0.3c0.8,0,1.3-0.1,1.6-0.3
		C118.5,34.4,118.6,34,118.6,33.5"/>
	<path class="st2" d="M130.2,29.1h-1c-0.8,0-1.4,0.1-1.8,0.4c-0.4,0.2-0.6,0.7-0.6,1.3v5.8h-2.9v-9.7h2.8v1.7c0-0.5,0.3-0.9,0.8-1.3
		c0.5-0.4,1.1-0.6,1.7-0.6h1V29.1z"/>
	<path class="st2" d="M140.5,36.5h-2.9v-0.9c-0.2,0.4-0.5,0.7-0.9,0.8c-0.4,0.2-1.1,0.2-2.2,0.2c-1.3,0-2.2-0.2-2.6-0.6
		c-0.4-0.4-0.6-1.2-0.6-2.5c0-1.1,0.2-1.9,0.7-2.4c0.4-0.4,1.2-0.7,2.4-0.7h3.3v-0.7c0-0.6-0.1-1-0.4-1.2c-0.3-0.2-0.8-0.3-1.7-0.3
		c-0.8,0-2,0.1-3.4,0.2v-1.8c1.1-0.1,2.3-0.2,3.7-0.2c1.8,0,3,0.2,3.7,0.6c0.7,0.4,1,1.3,1,2.6V36.5z M137.6,34v-1.9h-2
		c-0.6,0-1,0.1-1.2,0.2s-0.2,0.5-0.2,1.2c0,0.6,0.1,1,0.2,1.1c0.2,0.1,0.6,0.2,1.3,0.2c0.3,0,0.6,0,0.7,0s0.3,0,0.5,0
		c0.2,0,0.3-0.1,0.4-0.1c0.1-0.1,0.1-0.1,0.2-0.2C137.5,34.4,137.6,34.2,137.6,34"/>
	<path class="st2" d="M149.5,36.6c-0.6,0.1-1.1,0.1-1.6,0.1c-0.5,0-0.8,0-1.2-0.1c-0.3,0-0.7-0.1-1.1-0.2c-0.4-0.1-0.7-0.3-0.9-0.5
		c-0.2-0.2-0.4-0.5-0.6-0.9c-0.2-0.4-0.2-0.8-0.2-1.4v-5.1h-2v-1.8h2V24h2.9v2.8h2.7v1.8h-2.7v4.6c0,0.7,0.1,1.1,0.3,1.3
		c0.2,0.2,0.6,0.4,1.3,0.4c0.2,0,0.6,0,1-0.1V36.6z"/>
	<path class="st2" d="M160.1,32.5h-6.3v0.9c0,0.5,0.2,0.9,0.6,1.2c0.4,0.2,1.1,0.4,2.2,0.4c1,0,2-0.1,3.2-0.4v1.9
		c-1.2,0.3-2.5,0.4-3.8,0.4c-3.4,0-5.1-1-5.1-3.1v-3.5c0-1.2,0.4-2.1,1.2-2.7c0.8-0.5,2-0.8,3.6-0.8c1.5,0,2.6,0.3,3.3,0.8
		c0.7,0.5,1.1,1.4,1.1,2.7V32.5z M157.3,30.8v-1.4c0-0.3-0.1-0.5-0.4-0.7c-0.2-0.2-0.7-0.2-1.3-0.2c-0.7,0-1.2,0.1-1.4,0.2
		c-0.2,0.2-0.4,0.4-0.4,0.7v1.4H157.3z"/>
	<path class="st2" d="M77.3,41.7v9.4c0,2.5-1.9,3.8-5.6,3.8c-3.7,0-5.6-1.3-5.6-3.8v-9.4h3.1v9.4c0,0.6,0.2,1,0.6,1.2
		c0.4,0.2,1,0.3,2,0.3c0.9,0,1.5-0.1,1.9-0.3c0.4-0.2,0.6-0.6,0.6-1.2v-9.4H77.3z"/>
	<path class="st2" d="M89.2,54.6h-2.9v-6.7c0-0.5-0.1-0.9-0.3-1.1c-0.2-0.2-0.6-0.3-1.3-0.3c-0.8,0-1.4,0.1-1.6,0.3
		c-0.2,0.2-0.3,0.5-0.3,1.1v6.7h-2.9V45h2.9v1.2c0.2-0.9,1.3-1.4,3.1-1.4c1.3,0,2.2,0.2,2.6,0.7c0.5,0.5,0.7,1.2,0.7,2.1V54.6z"/>
	<path class="st2" d="M94.8,43.8h-2.9v-2.4h2.9V43.8z M94.8,54.6h-2.9V45h2.9V54.6z"/>
	<polygon class="st2" points="106.3,45 102.8,54.6 99.8,54.6 96.2,45 99.2,45 101.4,51.7 103.4,45 	"/>
	<path class="st2" d="M116.4,50.6h-6.3v0.9c0,0.5,0.2,0.9,0.6,1.2c0.4,0.2,1.1,0.4,2.2,0.4c1,0,2-0.1,3.2-0.4v1.9
		c-1.2,0.3-2.5,0.4-3.8,0.4c-3.4,0-5.1-1-5.1-3.1v-3.5c0-1.2,0.4-2.1,1.2-2.7c0.8-0.5,2-0.8,3.6-0.8c1.5,0,2.6,0.3,3.3,0.8
		c0.7,0.5,1.1,1.4,1.1,2.7V50.6z M113.6,48.9v-1.4c0-0.3-0.1-0.5-0.4-0.7c-0.2-0.2-0.7-0.2-1.3-0.2c-0.7,0-1.2,0.1-1.4,0.2
		c-0.2,0.2-0.4,0.4-0.4,0.7v1.4H113.6z"/>
	<path class="st2" d="M124.9,47.2h-1c-0.8,0-1.4,0.1-1.8,0.4c-0.4,0.2-0.6,0.7-0.6,1.3v5.8h-2.9V45h2.8v1.7c0-0.5,0.3-0.9,0.8-1.3
		c0.5-0.4,1.1-0.6,1.7-0.6h1V47.2z"/>
	<path class="st2" d="M134.9,50.9v1.2c0,0.5-0.1,0.9-0.3,1.2c-0.2,0.3-0.4,0.6-0.7,0.8c-0.3,0.2-0.6,0.3-1.1,0.4
		c-0.4,0.1-0.9,0.2-1.3,0.2c-0.4,0-0.9,0-1.4,0c-1.1,0-2.3-0.1-3.8-0.3v-1.9c1.9,0.3,3.1,0.4,3.9,0.4c0.6,0,1-0.1,1.3-0.2
		c0.3-0.1,0.5-0.3,0.5-0.7v-0.6c0-0.3-0.1-0.5-0.3-0.7c-0.2-0.2-0.5-0.2-1.1-0.2h-1.3c-1,0-1.8-0.2-2.4-0.6c-0.6-0.4-0.8-1-0.8-1.8
		v-1.2c0-0.9,0.4-1.5,1.3-1.8c0.8-0.3,2-0.5,3.6-0.5c0.6,0,1.8,0.1,3.4,0.2v1.9c-2.1-0.2-3.3-0.2-3.5-0.2c-0.8,0-1.3,0.1-1.5,0.2
		c-0.2,0.1-0.3,0.3-0.3,0.6v0.5c0,0.2,0.1,0.3,0.2,0.4c0.2,0.1,0.4,0.2,0.8,0.2h1.3C133.7,48.5,134.9,49.3,134.9,50.9"/>
	<path class="st2" d="M140,43.8h-2.9v-2.4h2.9V43.8z M140,54.6h-2.9V45h2.9V54.6z"/>
	<path class="st2" d="M149.1,54.7c-0.6,0.1-1.1,0.1-1.6,0.1c-0.5,0-0.8,0-1.2-0.1c-0.3,0-0.7-0.1-1.1-0.2c-0.4-0.1-0.7-0.3-0.9-0.5
		c-0.2-0.2-0.4-0.5-0.6-0.9c-0.2-0.4-0.2-0.8-0.2-1.4v-5.1h-2V45h2v-2.8h2.9V45h2.7v1.8h-2.7v4.6c0,0.7,0.1,1.1,0.3,1.3
		c0.2,0.2,0.6,0.4,1.3,0.4c0.2,0,0.6,0,1-0.1V54.7z"/>
	<polygon class="st2" points="160.1,45 154.8,58.8 151.8,58.8 153.6,54.6 149.7,45 152.9,45 155.1,51.8 157,45 	"/>
	<path class="st2" d="M62.1,17.8c-0.3,0-0.7-0.2-0.8-0.5c-3.4-5.3-8.7-9-14.9-10.4c-0.5-0.1-0.9-0.7-0.8-1.2
		c0.1-0.5,0.7-0.9,1.2-0.8c6.7,1.5,12.5,5.5,16.2,11.2c0.3,0.5,0.2,1.1-0.3,1.4C62.4,17.8,62.3,17.8,62.1,17.8"/>
	<path class="st2" d="M54.6,9.8c-2.5-0.8-5.2-0.3-6.4,2.3c-0.9,2-0.5,4.4,1.6,5.4c0.4,0.2,0.8,0.1,1.2-0.2c0.6-0.5,1.3-1,1.9-1.5
		l-1.7-0.7c0.2,2-1.1,3.9-3,4.3c-0.4,0.1-0.8,0.6-0.7,1c0.3,2.4,0.3,0.7-0.8,2.4c-0.4,0.7-0.5,1.7-0.5,2.5c0,0.9,1.1,1.2,1.7,0.7
		c2.8-2.3,3.8,0.1,6.5,0.4c0.7,0.1,1-0.7,1-1.3c-0.1-1,0-2.1-0.2-3.1c-0.6,0.3-1.1,0.6-1.7,1c0.8,0.8,1.7,1.9,2.8,2.4
		c0.4,0.2,2.7,0.4,2.7,0.4c0.6,0.9-3.9,0.9-4.6,0.9c-4,0.1-8.8,0.5-10.7,4.6c-1,2.1-1.3,4.5,0.5,6.2c1.8,1.7,7.3,0.5,8,2.6
		c0.7,2-2.7,5.9-3.3,7.8c-0.7,2.2-0.3,3.9,1.6,5.2c1.1,0.7,2.1-1,1-1.7C48,49,55.5,42.5,54,38.9c-0.6-1.5-2.1-2-3.6-2.1
		c-1.3-0.1-3.2,0.4-4.3-0.5c-1.9-1.3-0.9-4.1,0.3-5.4c2.6-3.1,7.6-2,11.1-2.4c2.3-0.2,4.2-1.2,3.5-3.8c-0.1-0.5-0.5-0.7-1-0.7
		c-2.5-0.3-3.2-0.6-5-2.4c-0.8-0.8-1.8,0-1.7,1c0.1,1,0,2.1,0.2,3.1c0.3-0.4,0.6-0.8,1-1.3c-1.5-0.2-2.2-1.7-3.7-1.8
		c-1.7-0.2-3,1.1-4.2,2.1c0.6,0.2,1.1,0.5,1.7,0.7c0-0.3,0-1.5,0.2-1.5c0.4,0,0.9-0.3,1-0.7c0.1-0.4,0.2-1.8,0.3-1.9
		c0.4-0.4,1.3-0.4,1.7-0.9c1.2-1.3,1.9-3.4,1.8-5.1c-0.1-0.9-1-1.3-1.7-0.7c-0.6,0.5-1.2,1-1.9,1.5c0.4-0.1,0.8-0.1,1.2-0.2
		c-1.3-0.6-1.3-1.9-0.6-3c0.9-1.5,2.3-1.5,3.9-1C55.3,12.1,55.9,10.2,54.6,9.8"/>
	<path class="st2" d="M29.1,8.8c0.1,0.3,0.7,2.2,0.5,2.4c-0.3,0.2-0.2-0.1-0.6-0.1c-0.4,0-0.8-0.5-1.2-0.6c-1.1-0.2-2.7,0.6-3.6,1.2
		c-3,1.8-1.1,4.3-0.5,7c0.2,0.8,1.3,0.9,1.7,0.2c0.6-1.1,1.2-2.2,1.8-3.2l-1.3,0.3c2.1,1.1,3.9,2.3,5.6,3.9c0.1-0.5,0.1-1,0.2-1.4
		c-2.3,1.4-5.1,2.1-7.1,3.9c-2.3,1.9-2.9,4.6-3.2,7.4l1.7-0.5c-0.4-0.9-0.8-1.7-1.3-2.6c-0.2-0.3-0.7-0.6-1-0.4
		c-2.3,0.8-5.4,4.4-3.4,6.9c0.4,0.5,0.8,0.5,1.4,0.8c0.9,0.5,0.3,0,1.1,0.6c1.7,1.3,3.1,2.6,5.1,3.5c2.3,1.1,4.7,1.9,7.2,2.8
		c1.1,0.4,2.3,0.8,3.4,1.2c1.7,0.6,2.6,0.5,2.1,2.3c-0.5,1.9-2.4,2.9-3.3,4.5c-1.1,1.9-0.8,4-0.4,6l1.1-1.1c-3-0.7-5.3-4.3-6.7-6.7
		c-1.5-2.4-3.6-6-3.1-8.9c0.2-1.2-1.6-1.7-1.8-0.5c-0.7,3.5,1.5,7.4,3.3,10.3c1.8,2.9,4.3,6.7,7.8,7.5c0.7,0.2,1.3-0.4,1.1-1.1
		c-0.7-3.5,0.4-4.7,2.4-7.2c1.2-1.5,1.6-3,1.8-4.9c0-0.3-0.2-0.7-0.5-0.8c-2.9-1.4-5.9-2.2-8.9-3.2c-3.2-1.1-8.2-2.5-9.8-5.8
		c-0.2-0.4-0.7-0.5-1-0.4c-1.1,0.2-0.7-2.4-0.2-2.8c1-0.9,1.3-0.3,1.9,1c0.4,0.9,1.6,0.4,1.7-0.5c0.6-6.3,4.9-6.9,9.4-9.7
		c0.5-0.3,0.6-1,0.2-1.4c-1.9-1.7-3.8-3-6-4.2c-0.4-0.2-1-0.1-1.3,0.3c-0.6,1.1-1.2,2.2-1.8,3.2c0.6,0.1,1.1,0.1,1.7,0.2
		c-0.6-2.7-2.2-4,1-5.5c0.3-0.1,0.9-0.4,1.3-0.4c0.7,0-1-0.1-0.3,0.1c0.5,0.2,0.8,0.5,1.3,0.7c3.3,1.1,2.6-2.7,2.1-4.7
		C30.5,7.1,28.8,7.6,29.1,8.8"/>
	<path class="st2" d="M41.1,56.4C35,56.4,28.9,54.2,24,50c-10.8-9.4-11.9-25.9-2.5-36.7C31,2.5,47.4,1.4,58.2,10.8
		c0.4,0.4,0.5,1,0.1,1.4c-0.4,0.4-1,0.5-1.4,0.1c-10-8.7-25.1-7.7-33.8,2.3c-8.7,10-7.7,25.1,2.3,33.8c10,8.7,25.1,7.7,33.8-2.3
		c0.4-0.4,1-0.5,1.4-0.1c0.4,0.4,0.5,1,0.1,1.4C55.6,53.3,48.3,56.4,41.1,56.4"/>
	<path class="st2" d="M52.8,61.9c-0.2,0.2-0.2,0.4-0.4,0.7c0,0.1-0.2,0.2-0.3,0.3c-0.2,0.1-0.2,0.3-0.3,0.4c0,0.2-0.3,0.3-0.3,0.4
		c-0.2,0.1-0.2,0.3-0.3,0.3c0,0.1,0,0.1,0,0.1c-0.1,0-0.1,0.1-0.2,0.2c0,0.1-0.1,0.1-0.1,0.3c-0.1,0.1-0.2,0.2-0.3,0.4
		c-0.1,0.1-0.2,0.3-0.2,0.4c-0.2,0.1-0.3,0.4-0.4,0.5c0,0.2-0.2,0.3-0.3,0.5c-0.1,0-0.1,0.2-0.2,0.3c0,0.1-0.1,0.2-0.1,0.3
		c-0.1,0.1-0.1,0.2-0.2,0.3c-0.2,0.3-0.3,0.6-0.6,0.8c-0.2,0.3-0.3,0.5-0.6,0.8C48,68.9,48,69,48,69.1c-0.1,0.2-0.3,0.4-0.4,0.6
		c-0.3,0.3-0.4,0.7-0.7,1c-0.1,0.2-0.3,0.3-0.3,0.5c-0.1,0.1-0.1,0.3-0.3,0.4c0,0,0,0.1,0,0.1C46.3,71.8,46.2,72,46,72
		c0,0.1-0.1,0.1-0.1,0.1c0,0.1-0.1,0.2-0.1,0.3c-0.1,0-0.2,0-0.2,0.1c0,0.1-0.1,0-0.2,0.1c-0.1,0-0.1,0.1-0.1,0.1
		c-0.1,0-0.2-0.1-0.2-0.2c0-0.1,0-0.1,0-0.1c0.1-0.1,0-0.3,0.1-0.4c0.1-0.1,0.1-0.1,0.1-0.2c0.1-0.2,0.2-0.3,0.3-0.5
		c0.1-0.1,0.2-0.2,0.2-0.3c0.1-0.1,0.1-0.2,0.2-0.3c0.1,0,0.1-0.1,0.1-0.2c0.1-0.1,0.1-0.2,0.3-0.2c0.1-0.2,0.2-0.3,0.3-0.5
		c0-0.1,0.1-0.1,0.1-0.2c0.2-0.2,0.2-0.5,0.5-0.6c0-0.1,0.2-0.1,0.1-0.2c0-0.1,0.1-0.1,0.2-0.2c0-0.1,0.2-0.2,0.2-0.3
		c0-0.1,0.1-0.1,0.2-0.2c0.2-0.1,0.2-0.3,0.4-0.5c0,0,0-0.1,0.1-0.1c0.1-0.1,0.2-0.2,0.2-0.3c0-0.1,0-0.1,0-0.1
		c0.2-0.1,0.3-0.3,0.3-0.5c0.2-0.2,0.3-0.4,0.5-0.7c0-0.2,0.3-0.3,0.3-0.6c0.1-0.1,0.2-0.2,0.3-0.3c0-0.1,0-0.1,0-0.2
		c0.1-0.2,0.2-0.4,0.4-0.6c0.1-0.1,0.1-0.2,0.2-0.3c0-0.2,0.1-0.3,0.2-0.5C51,63.2,51,63.1,51,63c0,0-0.1,0-0.1,0
		c-0.1,0.1-0.3,0.1-0.4,0.2c-0.1,0.1-0.3,0.2-0.4,0.3c-0.1,0-0.2,0-0.2,0.1c-0.3,0.1-0.4,0.3-0.7,0.4c-0.1,0.2-0.3,0.2-0.4,0.4
		c-0.1,0-0.1,0.1-0.2,0.1c0,0.1,0,0.2-0.1,0.2c-0.1,0-0.2,0.1-0.4,0.1c0,0.1-0.1,0-0.1,0.1c0,0.1,0,0.1,0,0.1c0,0-0.1,0-0.1,0.1
		c-0.1,0-0.2,0.2-0.3,0.1h-0.1c-0.1,0.2-0.2,0.3-0.3,0.3c-0.1,0.1-0.3,0-0.3,0.2c-0.1,0-0.2,0-0.2,0c-0.1,0.2-0.3,0.1-0.3,0.3
		c-0.1,0.1-0.3,0-0.3,0.1c0,0,0,0.1-0.1,0.1c-0.2,0-0.3,0.1-0.4,0.1c-0.2,0-0.3-0.1-0.4-0.2c-0.2-0.2,0-0.4-0.2-0.6
		c0-0.1,0-0.3,0-0.5c0-0.1,0-0.2-0.1-0.4c0.1-0.3,0-0.5,0-0.7c0-0.3,0-0.6,0-0.8c0-0.2,0-0.4,0-0.6c0-0.1,0.1-0.1,0.1-0.2
		c0.1,0,0.3,0,0.4,0.1l0.1,0.2c0,0.1,0,0.3,0,0.4h0c0,0,0,0.1,0,0.1c0,0.2,0,0.4,0,0.6c0,0.2-0.1,0.3,0,0.4c0,0.2,0.1,0.4,0,0.6
		c0,0.2,0,0.3,0,0.4c0,0.1,0.1,0.2,0.1,0.3c0,0,0.1,0.1,0.1,0.1c0.2,0,0.2-0.2,0.4-0.3c0.2-0.3,0.5-0.3,0.8-0.5
		c0.1-0.1,0.2-0.1,0.4-0.2c0.2-0.1,0.3-0.2,0.4-0.3c0.1-0.1,0.2-0.1,0.3-0.2c0.2-0.1,0.4-0.3,0.6-0.4c0.1-0.1,0.3-0.2,0.5-0.3
		c0.2-0.1,0.4-0.2,0.6-0.4c0.1-0.1,0.2-0.2,0.4-0.2c0.1-0.1,0.1-0.1,0.2-0.1c0.1-0.2,0.3-0.3,0.5-0.4c0.1-0.2,0.3-0.2,0.5-0.4
		c0.1,0,0.1-0.1,0.2-0.1c0.2-0.1,0.4-0.2,0.6-0.4c0.3-0.2,0.7-0.4,1-0.6c0.1,0,0.2,0,0.2,0.1c0.1,0.1,0.1,0.1,0.1,0.3
		C53,61.5,52.9,61.7,52.8,61.9"/>
	<path class="st3" d="M52.8,61.9c-0.2,0.2-0.2,0.4-0.4,0.7c0,0.1-0.2,0.2-0.3,0.3c-0.2,0.1-0.2,0.3-0.3,0.4c0,0.2-0.3,0.3-0.3,0.4
		c-0.2,0.1-0.2,0.3-0.3,0.3c0,0.1,0,0.1,0,0.1c-0.1,0-0.1,0.1-0.2,0.2c0,0.1-0.1,0.1-0.1,0.3c-0.1,0.1-0.2,0.2-0.3,0.4
		c-0.1,0.1-0.2,0.3-0.2,0.4c-0.2,0.1-0.3,0.4-0.4,0.5c0,0.2-0.2,0.3-0.3,0.5c-0.1,0-0.1,0.2-0.2,0.3c0,0.1-0.1,0.2-0.1,0.3
		c-0.1,0.1-0.1,0.2-0.2,0.3c-0.2,0.3-0.3,0.6-0.6,0.8c-0.2,0.3-0.3,0.5-0.6,0.8C48,68.9,48,69,48,69.1c-0.1,0.2-0.3,0.4-0.4,0.6
		c-0.3,0.3-0.4,0.7-0.7,1c-0.1,0.2-0.3,0.3-0.3,0.5c-0.1,0.1-0.1,0.3-0.3,0.4c0,0,0,0.1,0,0.1C46.3,71.8,46.2,72,46,72
		c0,0.1-0.1,0.1-0.1,0.1c0,0.1-0.1,0.2-0.1,0.3c-0.1,0-0.2,0-0.2,0.1c0,0.1-0.1,0-0.2,0.1c-0.1,0-0.1,0.1-0.1,0.1
		c-0.1,0-0.2-0.1-0.2-0.2c0-0.1,0-0.1,0-0.1c0.1-0.1,0-0.3,0.1-0.4c0.1-0.1,0.1-0.1,0.1-0.2c0.1-0.2,0.2-0.3,0.3-0.5
		c0.1-0.1,0.2-0.2,0.2-0.3c0.1-0.1,0.1-0.2,0.2-0.3c0.1,0,0.1-0.1,0.1-0.2c0.1-0.1,0.1-0.2,0.3-0.2c0.1-0.2,0.2-0.3,0.3-0.5
		c0-0.1,0.1-0.1,0.1-0.2c0.2-0.2,0.2-0.5,0.5-0.6c0-0.1,0.2-0.1,0.1-0.2c0-0.1,0.1-0.1,0.2-0.2c0-0.1,0.2-0.2,0.2-0.3
		c0-0.1,0.1-0.1,0.2-0.2c0.2-0.1,0.2-0.3,0.4-0.5c0,0,0-0.1,0.1-0.1c0.1-0.1,0.2-0.2,0.2-0.3c0-0.1,0-0.1,0-0.1
		c0.2-0.1,0.3-0.3,0.3-0.5c0.2-0.2,0.3-0.4,0.5-0.7c0-0.2,0.3-0.3,0.3-0.6c0.1-0.1,0.2-0.2,0.3-0.3c0-0.1,0-0.1,0-0.2
		c0.1-0.2,0.2-0.4,0.4-0.6c0.1-0.1,0.1-0.2,0.2-0.3c0-0.2,0.1-0.3,0.2-0.5C51,63.2,51,63.1,51,63c0,0-0.1,0-0.1,0
		c-0.1,0.1-0.3,0.1-0.4,0.2c-0.1,0.1-0.3,0.2-0.4,0.3c-0.1,0-0.2,0-0.2,0.1c-0.3,0.1-0.4,0.3-0.7,0.4c-0.1,0.2-0.3,0.2-0.4,0.4
		c-0.1,0-0.1,0.1-0.2,0.1c0,0.1,0,0.2-0.1,0.2c-0.1,0-0.2,0.1-0.4,0.1c0,0.1-0.1,0-0.1,0.1c0,0.1,0,0.1,0,0.1c0,0-0.1,0-0.1,0.1
		c-0.1,0-0.2,0.2-0.3,0.1h-0.1c-0.1,0.2-0.2,0.3-0.3,0.3c-0.1,0.1-0.3,0-0.3,0.2c-0.1,0-0.2,0-0.2,0c-0.1,0.2-0.3,0.1-0.3,0.3
		c-0.1,0.1-0.3,0-0.3,0.1c0,0,0,0.1-0.1,0.1c-0.2,0-0.3,0.1-0.4,0.1c-0.2,0-0.3-0.1-0.4-0.2c-0.2-0.2,0-0.4-0.2-0.6
		c0-0.1,0-0.3,0-0.5c0-0.1,0-0.2-0.1-0.4c0.1-0.3,0-0.5,0-0.7c0-0.3,0-0.6,0-0.8c0-0.2,0-0.4,0-0.6c0-0.1,0.1-0.1,0.1-0.2
		c0.1,0,0.3,0,0.4,0.1l0.1,0.2c0,0.1,0,0.3,0,0.4h0c0,0,0,0.1,0,0.1c0,0.2,0,0.4,0,0.6c0,0.2-0.1,0.3,0,0.4c0,0.2,0.1,0.4,0,0.6
		c0,0.2,0,0.3,0,0.4c0,0.1,0.1,0.2,0.1,0.3c0,0,0.1,0.1,0.1,0.1c0.2,0,0.2-0.2,0.4-0.3c0.2-0.3,0.5-0.3,0.8-0.5
		c0.1-0.1,0.2-0.1,0.4-0.2c0.2-0.1,0.3-0.2,0.4-0.3c0.1-0.1,0.2-0.1,0.3-0.2c0.2-0.1,0.4-0.3,0.6-0.4c0.1-0.1,0.3-0.2,0.5-0.3
		c0.2-0.1,0.4-0.2,0.6-0.4c0.1-0.1,0.2-0.2,0.4-0.2c0.1-0.1,0.1-0.1,0.2-0.1c0.1-0.2,0.3-0.3,0.5-0.4c0.1-0.2,0.3-0.2,0.5-0.4
		c0.1,0,0.1-0.1,0.2-0.1c0.2-0.1,0.4-0.2,0.6-0.4c0.3-0.2,0.7-0.4,1-0.6c0.1,0,0.2,0,0.2,0.1c0.1,0.1,0.1,0.1,0.1,0.3
		C53,61.5,52.9,61.7,52.8,61.9z"/>
	<path class="st2" d="M54.1,67.7c-0.1,0.2-0.3,0.4-0.5,0.6c-0.2,0.1-0.3,0.2-0.5,0.3c-0.3,0.2-0.6,0.3-0.9,0.4c-0.3,0-0.6,0.2-0.9,0
		c-0.3-0.1-0.6-0.2-0.7-0.4c-0.3-0.2-0.2-0.5-0.3-0.7c-0.1-0.2,0.1-0.4,0-0.6c0-0.1,0-0.3,0.1-0.4c0.1-0.2,0.2-0.3,0.2-0.5
		c0.2-0.2,0.2-0.4,0.4-0.6c0-0.1,0.1-0.1,0.1-0.1c0.1-0.2,0.3-0.2,0.4-0.2c0.2-0.1,0.4-0.2,0.6-0.2c0.1-0.1,0.2,0,0.3-0.1
		c0.2,0.1,0.3-0.1,0.5,0c0.1,0,0.1,0,0.2,0.1c0.1,0,0.2,0.1,0.3,0.1c0.1,0.1,0.2,0.2,0.3,0.2c0.1,0.1,0.2,0.2,0.3,0.3
		c0.2,0,0.1,0.2,0.2,0.2c0,0.1,0.1,0.1,0.1,0.2c0,0.1,0.1,0.2,0.1,0.4C54.5,67.1,54.3,67.4,54.1,67.7 M53.6,66.3
		c0-0.1-0.1-0.1-0.2-0.2c-0.1-0.1-0.3-0.2-0.4-0.2c-0.3-0.1-0.4,0.1-0.7,0.1c-0.3,0.1-0.6,0.3-0.9,0.6c-0.1,0.1-0.1,0.2-0.2,0.3
		c-0.1,0.2-0.2,0.5-0.2,0.7c0,0.2,0.1,0.3,0.1,0.4c0.1,0.1,0.1,0.2,0.2,0.2c0.1,0.1,0.2,0.1,0.3,0.2c0.1,0,0.1,0,0.1,0
		c0.2,0.1,0.3,0,0.5,0c0.4-0.1,0.6-0.4,0.9-0.6c0-0.1,0.2-0.1,0.2-0.3c0.2-0.1,0.2-0.3,0.3-0.5c0-0.1,0.1-0.1,0.1-0.3
		C53.7,66.6,53.7,66.5,53.6,66.3"/>
	<path class="st3" d="M54.1,67.7c-0.1,0.2-0.3,0.4-0.5,0.6c-0.2,0.1-0.3,0.2-0.5,0.3c-0.3,0.2-0.6,0.3-0.9,0.4c-0.3,0-0.6,0.2-0.9,0
		c-0.3-0.1-0.6-0.2-0.7-0.4c-0.3-0.2-0.2-0.5-0.3-0.7c-0.1-0.2,0.1-0.4,0-0.6c0-0.1,0-0.3,0.1-0.4c0.1-0.2,0.2-0.3,0.2-0.5
		c0.2-0.2,0.2-0.4,0.4-0.6c0-0.1,0.1-0.1,0.1-0.1c0.1-0.2,0.3-0.2,0.4-0.2c0.2-0.1,0.4-0.2,0.6-0.2c0.1-0.1,0.2,0,0.3-0.1
		c0.2,0.1,0.3-0.1,0.5,0c0.1,0,0.1,0,0.2,0.1c0.1,0,0.2,0.1,0.3,0.1c0.1,0.1,0.2,0.2,0.3,0.2c0.1,0.1,0.2,0.2,0.3,0.3
		c0.2,0,0.1,0.2,0.2,0.2c0,0.1,0.1,0.1,0.1,0.2c0,0.1,0.1,0.2,0.1,0.4C54.5,67.1,54.3,67.4,54.1,67.7z M53.6,66.3
		c0-0.1-0.1-0.1-0.2-0.2c-0.1-0.1-0.3-0.2-0.4-0.2c-0.3-0.1-0.4,0.1-0.7,0.1c-0.3,0.1-0.6,0.3-0.9,0.6c-0.1,0.1-0.1,0.2-0.2,0.3
		c-0.1,0.2-0.2,0.5-0.2,0.7c0,0.2,0.1,0.3,0.1,0.4c0.1,0.1,0.1,0.2,0.2,0.2c0.1,0.1,0.2,0.1,0.3,0.2c0.1,0,0.1,0,0.1,0
		c0.2,0.1,0.3,0,0.5,0c0.4-0.1,0.6-0.4,0.9-0.6c0-0.1,0.2-0.1,0.2-0.3c0.2-0.1,0.2-0.3,0.3-0.5c0-0.1,0.1-0.1,0.1-0.3
		C53.7,66.6,53.7,66.5,53.6,66.3z"/>
	<path class="st2" d="M59.4,69.2c-0.1,0.1-0.2,0-0.2,0c-0.1,0-0.1,0-0.2-0.1c-0.1,0,0-0.1-0.1-0.2c-0.4-0.2-0.2-0.7-0.4-1
		c-0.1-0.1,0-0.3-0.1-0.4c0-0.2,0-0.4-0.1-0.6c0-0.1,0-0.2,0-0.3c-0.1,0-0.1,0.1-0.2,0.1c0,0.1-0.1,0.1-0.2,0.2
		c-0.2,0.1-0.2,0.2-0.3,0.3c-0.1,0.1-0.2,0.2-0.3,0.3c-0.2,0.2-0.4,0.3-0.5,0.5c-0.1,0.1-0.3,0.2-0.4,0.3c-0.2,0.1-0.3,0.3-0.5,0.4
		c-0.1,0.1-0.3,0.1-0.4,0c-0.1,0-0.3,0-0.4-0.2c-0.3-0.1-0.2-0.4-0.3-0.6c0-0.2,0-0.3,0-0.5c0.1-0.3,0.1-0.5,0.1-0.8
		c0-0.3,0.1-0.6,0.2-0.8c0-0.1,0-0.2,0.1-0.2c0-0.2,0.1-0.3,0.2-0.4c0.1,0,0.3,0.1,0.4,0.2c0,0,0.1,0,0.1,0.1c0,0.3-0.1,0.6-0.2,0.9
		c-0.1,0.4-0.2,0.8-0.2,1.2c0,0.2-0.1,0.4,0,0.7c0,0,0.1,0,0.1,0c0.2-0.2,0.4-0.5,0.7-0.7c0.1-0.1,0.2-0.3,0.4-0.4
		c0.2-0.2,0.5-0.4,0.7-0.7c0.1-0.1,0.2-0.2,0.3-0.3c0-0.2,0.3-0.2,0.3-0.4c0.1-0.1,0.2-0.2,0.3-0.2c0.1-0.1,0.1-0.3,0.2-0.3
		c0.2,0,0.4,0,0.5,0.1c0.1,0.1,0,0.2,0.1,0.3c0,0.1,0,0.2,0,0.3c0,0.1-0.1,0.2,0,0.3c0,0.1,0,0.1,0,0.1c0.1,0.3-0.1,0.7,0,1
		c0,0.3,0.1,0.5,0.1,0.7c0.1,0.1,0,0.2,0.1,0.3c-0.1,0.1,0,0.1,0,0.2C59.5,69,59.5,69.1,59.4,69.2"/>
	<path class="st3" d="M59.4,69.2c-0.1,0.1-0.2,0-0.2,0c-0.1,0-0.1,0-0.2-0.1c-0.1,0,0-0.1-0.1-0.2c-0.4-0.2-0.2-0.7-0.4-1
		c-0.1-0.1,0-0.3-0.1-0.4c0-0.2,0-0.4-0.1-0.6c0-0.1,0-0.2,0-0.3c-0.1,0-0.1,0.1-0.2,0.1c0,0.1-0.1,0.1-0.2,0.2
		c-0.2,0.1-0.2,0.2-0.3,0.3c-0.1,0.1-0.2,0.2-0.3,0.3c-0.2,0.2-0.4,0.3-0.5,0.5c-0.1,0.1-0.3,0.2-0.4,0.3c-0.2,0.1-0.3,0.3-0.5,0.4
		c-0.1,0.1-0.3,0.1-0.4,0c-0.1,0-0.3,0-0.4-0.2c-0.3-0.1-0.2-0.4-0.3-0.6c0-0.2,0-0.3,0-0.5c0.1-0.3,0.1-0.5,0.1-0.8
		c0-0.3,0.1-0.6,0.2-0.8c0-0.1,0-0.2,0.1-0.2c0-0.2,0.1-0.3,0.2-0.4c0.1,0,0.3,0.1,0.4,0.2c0,0,0.1,0,0.1,0.1c0,0.3-0.1,0.6-0.2,0.9
		c-0.1,0.4-0.2,0.8-0.2,1.2c0,0.2-0.1,0.4,0,0.7c0,0,0.1,0,0.1,0c0.2-0.2,0.4-0.5,0.7-0.7c0.1-0.1,0.2-0.3,0.4-0.4
		c0.2-0.2,0.5-0.4,0.7-0.7c0.1-0.1,0.2-0.2,0.3-0.3c0-0.2,0.3-0.2,0.3-0.4c0.1-0.1,0.2-0.2,0.3-0.2c0.1-0.1,0.1-0.3,0.2-0.3
		c0.2,0,0.4,0,0.5,0.1c0.1,0.1,0,0.2,0.1,0.3c0,0.1,0,0.2,0,0.3c0,0.1-0.1,0.2,0,0.3c0,0.1,0,0.1,0,0.1c0.1,0.3-0.1,0.7,0,1
		c0,0.3,0.1,0.5,0.1,0.7c0.1,0.1,0,0.2,0.1,0.3c-0.1,0.1,0,0.1,0,0.2C59.5,69,59.5,69.1,59.4,69.2z"/>
	<path class="st2" d="M65.1,65.1C65.1,65.1,65.1,65.2,65.1,65.1c-0.1,0-0.1-0.1-0.1,0c-0.2,0.2-0.2-0.1-0.3-0.1
		c-0.1,0.1-0.2,0.1-0.3,0.2c-0.1,0.1-0.1,0.2-0.2,0.2c-0.1,0-0.2,0.1-0.3,0.1c-0.1,0.1-0.1,0.1-0.2,0.1c0,0.1-0.2,0.2-0.3,0.3
		c0,0.2-0.2,0.1-0.3,0.3c0,0.1-0.2,0-0.2,0.2c0,0.1-0.1,0.1-0.1,0.1c-0.1,0-0.2,0.2-0.3,0.3c0,0.1,0,0.2-0.1,0.2
		c-0.2,0-0.1,0.2-0.3,0.3c-0.1,0.1-0.3,0.2-0.4,0.4c-0.1,0-0.1,0.2-0.2,0.3c-0.1,0.1-0.1,0.2-0.2,0.2c-0.1,0.1,0,0.2-0.1,0.2
		c-0.1,0-0.1,0.1-0.1,0.2c0,0.1-0.2,0.1-0.1,0.3c-0.1,0.1-0.2,0.2-0.2,0.3c0,0.2-0.1,0.2-0.2,0.3c-0.1,0.1-0.3,0-0.4,0.1
		c-0.1,0-0.2-0.1-0.2-0.1c0,0,0-0.1,0-0.1c0.1-0.1,0.1-0.2,0.1-0.3c0.2-0.3,0.3-0.7,0.4-1c0.1-0.1,0.1-0.1,0.1-0.2
		c0-0.2,0.2-0.3,0.2-0.5c0.1-0.3,0.2-0.5,0.4-0.8c0.1-0.1,0.1-0.2,0.1-0.4c0.1-0.3,0.1-0.6,0.3-0.9c0.1-0.1,0.2-0.1,0.3-0.1
		c0.1,0,0.1,0.1,0.2,0.1c0,0.1,0,0.1,0,0.2c0,0.2-0.1,0.3-0.1,0.5c-0.1,0.1,0,0.3-0.1,0.3c-0.1,0.1,0,0.3-0.2,0.4
		c0,0.2-0.2,0.4-0.2,0.6c-0.1,0.1-0.1,0.3-0.2,0.4h0c0.1-0.1,0.2-0.2,0.3-0.3c0.3-0.2,0.4-0.5,0.7-0.7c0.1-0.2,0.2-0.3,0.4-0.4
		c0,0,0.1-0.1,0.1-0.1c0.1,0,0.1-0.1,0.2-0.1c0-0.1,0.1-0.1,0.2-0.2c0.2-0.2,0.4-0.4,0.6-0.5c0.1,0,0.1-0.1,0.1-0.1
		c0.3-0.2,0.5-0.4,0.8-0.6c0.1-0.1,0.2-0.1,0.3,0c0,0.1,0.2,0.2,0.2,0.3c0,0.1,0,0.2,0.1,0.3C65.2,64.9,65.2,65,65.1,65.1"/>
	<path class="st3" d="M65.1,65.1C65.1,65.1,65.1,65.2,65.1,65.1c-0.1,0-0.1-0.1-0.1,0c-0.2,0.2-0.2-0.1-0.3-0.1
		c-0.1,0.1-0.2,0.1-0.3,0.2c-0.1,0.1-0.1,0.2-0.2,0.2c-0.1,0-0.2,0.1-0.3,0.1c-0.1,0.1-0.1,0.1-0.2,0.1c0,0.1-0.2,0.2-0.3,0.3
		c0,0.2-0.2,0.1-0.3,0.3c0,0.1-0.2,0-0.2,0.2c0,0.1-0.1,0.1-0.1,0.1c-0.1,0-0.2,0.2-0.3,0.3c0,0.1,0,0.2-0.1,0.2
		c-0.2,0-0.1,0.2-0.3,0.3c-0.1,0.1-0.3,0.2-0.4,0.4c-0.1,0-0.1,0.2-0.2,0.3c-0.1,0.1-0.1,0.2-0.2,0.2c-0.1,0.1,0,0.2-0.1,0.2
		c-0.1,0-0.1,0.1-0.1,0.2c0,0.1-0.2,0.1-0.1,0.3c-0.1,0.1-0.2,0.2-0.2,0.3c0,0.2-0.1,0.2-0.2,0.3c-0.1,0.1-0.3,0-0.4,0.1
		c-0.1,0-0.2-0.1-0.2-0.1c0,0,0-0.1,0-0.1c0.1-0.1,0.1-0.2,0.1-0.3c0.2-0.3,0.3-0.7,0.4-1c0.1-0.1,0.1-0.1,0.1-0.2
		c0-0.2,0.2-0.3,0.2-0.5c0.1-0.3,0.2-0.5,0.4-0.8c0.1-0.1,0.1-0.2,0.1-0.4c0.1-0.3,0.1-0.6,0.3-0.9c0.1-0.1,0.2-0.1,0.3-0.1
		c0.1,0,0.1,0.1,0.2,0.1c0,0.1,0,0.1,0,0.2c0,0.2-0.1,0.3-0.1,0.5c-0.1,0.1,0,0.3-0.1,0.3c-0.1,0.1,0,0.3-0.2,0.4
		c0,0.2-0.2,0.4-0.2,0.6c-0.1,0.1-0.1,0.3-0.2,0.4h0c0.1-0.1,0.2-0.2,0.3-0.3c0.3-0.2,0.4-0.5,0.7-0.7c0.1-0.2,0.2-0.3,0.4-0.4
		c0,0,0.1-0.1,0.1-0.1c0.1,0,0.1-0.1,0.2-0.1c0-0.1,0.1-0.1,0.2-0.2c0.2-0.2,0.4-0.4,0.6-0.5c0.1,0,0.1-0.1,0.1-0.1
		c0.3-0.2,0.5-0.4,0.8-0.6c0.1-0.1,0.2-0.1,0.3,0c0,0.1,0.2,0.2,0.2,0.3c0,0.1,0,0.2,0.1,0.3C65.2,64.9,65.2,65,65.1,65.1z"/>
	<path class="st2" d="M74.5,70.4c-0.2,0-0.4,0-0.5,0c-0.2,0-0.4,0.1-0.6,0.1c-0.4,0.1-0.8,0.1-1.1,0.2c-0.3,0.1-0.6,0.1-0.9,0.2
		c-0.3,0-0.6,0.1-0.9,0.2c-0.3,0-0.5,0.1-0.8,0.1c-0.1,0.1-0.3,0.1-0.4,0.1c-0.1,0-0.2,0-0.3,0c-0.2,0.1-0.5,0-0.7,0
		c-0.1-0.1-0.3-0.1-0.3-0.3c-0.1-0.1,0-0.2,0-0.3c0-0.2,0-0.4,0.1-0.7c0-0.2,0.1-0.3,0.1-0.4c0-0.2,0.1-0.5,0.2-0.7l0.1-0.1
		c0.1-0.5,0.3-1,0.5-1.5c0.1-0.3,0.2-0.6,0.3-1c0.1-0.1,0-0.1,0-0.2c0.2-0.2,0.2-0.5,0.3-0.7c0.1-0.2,0.1-0.5,0.3-0.7
		c0-0.2,0.1-0.4,0.1-0.5c0-0.1,0.1-0.2,0.1-0.3c0.1-0.1,0.1-0.2,0.2-0.3c0-0.2,0.1-0.3,0.1-0.4c0.1-0.2,0-0.5,0.2-0.7
		c0-0.1,0.1-0.2,0.1-0.3c0.1-0.2,0.1-0.5,0.3-0.7c0,0,0.1,0,0.1,0c0.1,0,0.2,0,0.3,0c0.1,0.1,0.1,0.1,0.1,0.2c0,0.2,0.1,0.3,0.1,0.4
		c-0.1,0.1-0.1,0.2-0.1,0.3c0,0.1,0,0.2,0,0.3c-0.1,0.2-0.2,0.3-0.2,0.5c-0.1,0.2-0.2,0.3-0.3,0.5c-0.1,0.1,0,0.2-0.1,0.3
		c0,0.1-0.1,0.2-0.1,0.3c0,0.2-0.1,0.3-0.2,0.5c-0.1,0.1,0,0.3-0.2,0.4c0,0.3-0.1,0.6-0.3,0.8c-0.1,0.2-0.1,0.4-0.2,0.6
		c-0.1,0.3-0.2,0.6-0.2,0.9c-0.1,0.1,0,0.3-0.1,0.3c0,0.1-0.1,0.3-0.2,0.4c0,0.2-0.1,0.3-0.1,0.5c-0.2,0.2-0.1,0.5-0.3,0.8
		c0,0.2-0.1,0.4-0.1,0.6c0,0.1,0,0.3-0.1,0.4c0,0,0,0,0,0c0.2,0.1,0.4,0,0.5-0.1c0.6-0.1,1.1-0.2,1.7-0.3c0.7,0,1.3-0.2,2-0.2
		c0.5,0,1,0,1.4,0c0.1,0,0.2,0,0.3,0c0,0.1,0,0.1,0,0.2C74.8,70.3,74.6,70.3,74.5,70.4"/>
	<path class="st3" d="M74.5,70.4c-0.2,0-0.4,0-0.5,0c-0.2,0-0.4,0.1-0.6,0.1c-0.4,0.1-0.8,0.1-1.1,0.2c-0.3,0.1-0.6,0.1-0.9,0.2
		c-0.3,0-0.6,0.1-0.9,0.2c-0.3,0-0.5,0.1-0.8,0.1c-0.1,0.1-0.3,0.1-0.4,0.1c-0.1,0-0.2,0-0.3,0c-0.2,0.1-0.5,0-0.7,0
		c-0.1-0.1-0.3-0.1-0.3-0.3c-0.1-0.1,0-0.2,0-0.3c0-0.2,0-0.4,0.1-0.7c0-0.2,0.1-0.3,0.1-0.4c0-0.2,0.1-0.5,0.2-0.7l0.1-0.1
		c0.1-0.5,0.3-1,0.5-1.5c0.1-0.3,0.2-0.6,0.3-1c0.1-0.1,0-0.1,0-0.2c0.2-0.2,0.2-0.5,0.3-0.7c0.1-0.2,0.1-0.5,0.3-0.7
		c0-0.2,0.1-0.4,0.1-0.5c0-0.1,0.1-0.2,0.1-0.3c0.1-0.1,0.1-0.2,0.2-0.3c0-0.2,0.1-0.3,0.1-0.4c0.1-0.2,0-0.5,0.2-0.7
		c0-0.1,0.1-0.2,0.1-0.3c0.1-0.2,0.1-0.5,0.3-0.7c0,0,0.1,0,0.1,0c0.1,0,0.2,0,0.3,0c0.1,0.1,0.1,0.1,0.1,0.2c0,0.2,0.1,0.3,0.1,0.4
		c-0.1,0.1-0.1,0.2-0.1,0.3c0,0.1,0,0.2,0,0.3c-0.1,0.2-0.2,0.3-0.2,0.5c-0.1,0.2-0.2,0.3-0.3,0.5c-0.1,0.1,0,0.2-0.1,0.3
		c0,0.1-0.1,0.2-0.1,0.3c0,0.2-0.1,0.3-0.2,0.5c-0.1,0.1,0,0.3-0.2,0.4c0,0.3-0.1,0.6-0.3,0.8c-0.1,0.2-0.1,0.4-0.2,0.6
		c-0.1,0.3-0.2,0.6-0.2,0.9c-0.1,0.1,0,0.3-0.1,0.3c0,0.1-0.1,0.3-0.2,0.4c0,0.2-0.1,0.3-0.1,0.5c-0.2,0.2-0.1,0.5-0.3,0.8
		c0,0.2-0.1,0.4-0.1,0.6c0,0.1,0,0.3-0.1,0.4c0,0,0,0,0,0c0.2,0.1,0.4,0,0.5-0.1c0.6-0.1,1.1-0.2,1.7-0.3c0.7,0,1.3-0.2,2-0.2
		c0.5,0,1,0,1.4,0c0.1,0,0.2,0,0.3,0c0,0.1,0,0.1,0,0.2C74.8,70.3,74.6,70.3,74.5,70.4z"/>
	<path class="st2" d="M78.3,67.9c-0.1,0.1-0.4,0.2-0.5,0.4c-0.1,0.1-0.3,0.1-0.4,0.2c-0.1,0.1-0.3,0.2-0.5,0.2
		c-0.3,0.2-0.7,0.4-1.1,0.5c-0.2,0-0.3,0.1-0.4,0c-0.3-0.1-0.6-0.2-0.7-0.5c0-0.1-0.2-0.3-0.1-0.4c0-0.2,0.1-0.5,0.2-0.7
		c0.1-0.1,0.1-0.2,0.1-0.3c0-0.2,0.3-0.3,0.3-0.5c0.1-0.1,0.2-0.3,0.4-0.4c0.1,0,0.1-0.1,0.2-0.2c0.2-0.2,0.4-0.4,0.7-0.5
		c0.3-0.2,0.6-0.3,0.9-0.4c0.2,0,0.5,0.1,0.6,0.2c0.1,0.1,0.1,0.2,0,0.3C78,65.8,78,66,77.9,66.1c-0.2,0.4-0.5,0.6-0.8,0.8
		c-0.3,0.1-0.5,0.2-0.7,0.4c-0.2,0-0.4,0.2-0.6,0.3c-0.1,0-0.3,0-0.3,0.1c0,0.2-0.1,0.5,0,0.8c0.1,0.1,0.3,0.1,0.4,0
		c0.3,0,0.5-0.2,0.8-0.3c0.1-0.1,0.2-0.1,0.3-0.1c0-0.1,0.2-0.1,0.3-0.2c0.2-0.1,0.5-0.2,0.7-0.3c0.1,0,0.2,0,0.2,0
		c0.1-0.1,0.2-0.1,0.3-0.2c0.1,0,0.2,0,0.2,0.1C78.6,67.7,78.4,67.7,78.3,67.9 M77.5,65.5c-0.1,0-0.1,0-0.2,0
		c-0.5,0.3-1,0.6-1.3,1.1c-0.1,0.1-0.2,0.2-0.3,0.3c0.2,0,0.3-0.1,0.4-0.1c0.1-0.1,0.2-0.1,0.3-0.2c0.1,0,0.2-0.2,0.3-0.2
		c0.1,0,0.1-0.2,0.3-0.2c0.1-0.1,0.1-0.2,0.3-0.2c0.1-0.2,0.3-0.3,0.2-0.5C77.6,65.6,77.6,65.6,77.5,65.5"/>
	<path class="st3" d="M78.3,67.9c-0.1,0.1-0.4,0.2-0.5,0.4c-0.1,0.1-0.3,0.1-0.4,0.2c-0.1,0.1-0.3,0.2-0.5,0.2
		c-0.3,0.2-0.7,0.4-1.1,0.5c-0.2,0-0.3,0.1-0.4,0c-0.3-0.1-0.6-0.2-0.7-0.5c0-0.1-0.2-0.3-0.1-0.4c0-0.2,0.1-0.5,0.2-0.7
		c0.1-0.1,0.1-0.2,0.1-0.3c0-0.2,0.3-0.3,0.3-0.5c0.1-0.1,0.2-0.3,0.4-0.4c0.1,0,0.1-0.1,0.2-0.2c0.2-0.2,0.4-0.4,0.7-0.5
		c0.3-0.2,0.6-0.3,0.9-0.4c0.2,0,0.5,0.1,0.6,0.2c0.1,0.1,0.1,0.2,0,0.3C78,65.8,78,66,77.9,66.1c-0.2,0.4-0.5,0.6-0.8,0.8
		c-0.3,0.1-0.5,0.2-0.7,0.4c-0.2,0-0.4,0.2-0.6,0.3c-0.1,0-0.3,0-0.3,0.1c0,0.2-0.1,0.5,0,0.8c0.1,0.1,0.3,0.1,0.4,0
		c0.3,0,0.5-0.2,0.8-0.3c0.1-0.1,0.2-0.1,0.3-0.1c0-0.1,0.2-0.1,0.3-0.2c0.2-0.1,0.5-0.2,0.7-0.3c0.1,0,0.2,0,0.2,0
		c0.1-0.1,0.2-0.1,0.3-0.2c0.1,0,0.2,0,0.2,0.1C78.6,67.7,78.4,67.7,78.3,67.9z M77.5,65.5c-0.1,0-0.1,0-0.2,0
		c-0.5,0.3-1,0.6-1.3,1.1c-0.1,0.1-0.2,0.2-0.3,0.3c0.2,0,0.3-0.1,0.4-0.1c0.1-0.1,0.2-0.1,0.3-0.2c0.1,0,0.2-0.2,0.3-0.2
		c0.1,0,0.1-0.2,0.3-0.2c0.1-0.1,0.1-0.2,0.3-0.2c0.1-0.2,0.3-0.3,0.2-0.5C77.6,65.6,77.6,65.6,77.5,65.5z"/>
	<path class="st2" d="M84.7,68.1c-0.4,0.1-0.7,0.3-1.1,0.4c-0.2,0.1-0.4,0.1-0.7,0.2c-0.3,0-0.5-0.1-0.6-0.3c0-0.1-0.1-0.2-0.2-0.3
		c-0.1-0.2-0.1-0.5-0.1-0.8c0,0-0.1,0-0.1,0c-0.1,0.2-0.3,0.3-0.5,0.5c-0.1,0.1-0.2,0.2-0.3,0.3c-0.1,0.1-0.2,0.3-0.4,0.2
		c-0.1,0.2-0.3,0.2-0.5,0.3c-0.2,0-0.3,0.1-0.5,0.2c-0.2,0-0.3,0.1-0.4,0c-0.2-0.1-0.5-0.3-0.5-0.6c-0.1-0.1,0-0.3-0.1-0.5
		c0-0.1,0.1-0.2,0.1-0.3c0.1-0.1,0.1-0.3,0.2-0.4c0.2-0.3,0.5-0.7,0.9-0.9c0.1-0.1,0.3-0.3,0.4-0.3c0.1-0.2,0.3-0.2,0.4-0.3
		c0.1-0.1,0.2-0.1,0.3-0.1c0.3-0.2,0.7-0.3,1.1-0.2c0.2,0,0.4,0.1,0.6,0.1c0,0,0.1,0.1,0.1,0.1c0,0.1,0,0.2,0,0.3
		c-0.1,0.1-0.2,0-0.3,0c-0.3,0-0.5,0-0.7,0.1c-0.3-0.1-0.4,0.2-0.6,0.2c-0.2,0.1-0.4,0.3-0.6,0.4c-0.2,0.1-0.2,0.2-0.4,0.3
		c-0.2,0.1-0.2,0.3-0.4,0.5c-0.2,0.1-0.1,0.3-0.3,0.5c0,0.1-0.1,0.3-0.1,0.4c0.1,0.2,0.3,0,0.5,0c0.4-0.1,0.7-0.4,1-0.6
		c0.3-0.2,0.5-0.5,0.7-0.7c0-0.1,0.1-0.1,0.2-0.2c0,0,0.1,0,0.1-0.1c0-0.1,0.1-0.2,0.2-0.2c0-0.1,0.1-0.1,0.2-0.1
		c0.1,0.1,0.2,0,0.2,0.1c0.1,0.2,0.1,0.4,0.1,0.6c0,0.1,0,0.2,0,0.3c-0.1,0.2,0,0.4,0,0.6c0,0.1,0,0.1,0.1,0.1
		c0.1,0,0.3-0.1,0.4-0.1c0.1-0.1,0.2-0.1,0.3-0.1c0.1-0.1,0.2-0.1,0.3-0.1c0.1,0,0.3-0.1,0.4,0c0.1-0.1,0.2,0,0.3,0
		C84.7,67.8,84.7,67.9,84.7,68.1L84.7,68.1z"/>
	<path class="st3" d="M84.7,68.1c-0.4,0.1-0.7,0.3-1.1,0.4c-0.2,0.1-0.4,0.1-0.7,0.2c-0.3,0-0.5-0.1-0.6-0.3c0-0.1-0.1-0.2-0.2-0.3
		c-0.1-0.2-0.1-0.5-0.1-0.8c0,0-0.1,0-0.1,0c-0.1,0.2-0.3,0.3-0.5,0.5c-0.1,0.1-0.2,0.2-0.3,0.3c-0.1,0.1-0.2,0.3-0.4,0.2
		c-0.1,0.2-0.3,0.2-0.5,0.3c-0.2,0-0.3,0.1-0.5,0.2c-0.2,0-0.3,0.1-0.4,0c-0.2-0.1-0.5-0.3-0.5-0.6c-0.1-0.1,0-0.3-0.1-0.5
		c0-0.1,0.1-0.2,0.1-0.3c0.1-0.1,0.1-0.3,0.2-0.4c0.2-0.3,0.5-0.7,0.9-0.9c0.1-0.1,0.3-0.3,0.4-0.3c0.1-0.2,0.3-0.2,0.4-0.3
		c0.1-0.1,0.2-0.1,0.3-0.1c0.3-0.2,0.7-0.3,1.1-0.2c0.2,0,0.4,0.1,0.6,0.1c0,0,0.1,0.1,0.1,0.1c0,0.1,0,0.2,0,0.3
		c-0.1,0.1-0.2,0-0.3,0c-0.3,0-0.5,0-0.7,0.1c-0.3-0.1-0.4,0.2-0.6,0.2c-0.2,0.1-0.4,0.3-0.6,0.4c-0.2,0.1-0.2,0.2-0.4,0.3
		c-0.2,0.1-0.2,0.3-0.4,0.5c-0.2,0.1-0.1,0.3-0.3,0.5c0,0.1-0.1,0.3-0.1,0.4c0.1,0.2,0.3,0,0.5,0c0.4-0.1,0.7-0.4,1-0.6
		c0.3-0.2,0.5-0.5,0.7-0.7c0-0.1,0.1-0.1,0.2-0.2c0,0,0.1,0,0.1-0.1c0-0.1,0.1-0.2,0.2-0.2c0-0.1,0.1-0.1,0.2-0.1
		c0.1,0.1,0.2,0,0.2,0.1c0.1,0.2,0.1,0.4,0.1,0.6c0,0.1,0,0.2,0,0.3c-0.1,0.2,0,0.4,0,0.6c0,0.1,0,0.1,0.1,0.1
		c0.1,0,0.3-0.1,0.4-0.1c0.1-0.1,0.2-0.1,0.3-0.1c0.1-0.1,0.2-0.1,0.3-0.1c0.1,0,0.3-0.1,0.4,0c0.1-0.1,0.2,0,0.3,0
		C84.7,67.8,84.7,67.9,84.7,68.1L84.7,68.1z"/>
	<path class="st2" d="M90.1,65.1C90.1,65.1,90.1,65.2,90.1,65.1c-0.1,0-0.1-0.1-0.1,0c-0.2,0.2-0.2-0.1-0.3-0.1
		c-0.1,0.1-0.2,0.1-0.3,0.2c-0.1,0.1-0.1,0.2-0.2,0.2c-0.1,0-0.2,0.1-0.3,0.1c-0.1,0.1-0.1,0.1-0.2,0.1c0,0.1-0.2,0.2-0.3,0.3
		c0,0.2-0.2,0.1-0.3,0.3c0,0.1-0.2,0-0.2,0.2c0,0.1-0.1,0.1-0.1,0.1c-0.1,0-0.2,0.2-0.3,0.3c0,0.1,0,0.2-0.1,0.2
		c-0.2,0-0.1,0.2-0.3,0.3c-0.1,0.1-0.3,0.2-0.4,0.4c-0.1,0-0.1,0.2-0.2,0.3c-0.1,0.1-0.1,0.2-0.2,0.2c-0.1,0.1,0,0.2-0.1,0.2
		c-0.1,0-0.1,0.1-0.1,0.2c0,0.1-0.2,0.1-0.1,0.3c-0.1,0.1-0.2,0.2-0.2,0.3c0,0.2-0.1,0.2-0.2,0.3c-0.1,0.1-0.3,0-0.4,0.1
		c-0.1,0-0.1-0.1-0.2-0.1c0,0,0-0.1,0-0.1c0.1-0.1,0.1-0.2,0.1-0.3c0.2-0.3,0.3-0.7,0.4-1c0.1-0.1,0.1-0.1,0.1-0.2
		c0-0.2,0.2-0.3,0.2-0.5c0.1-0.3,0.2-0.5,0.4-0.8c0.1-0.1,0.1-0.2,0.1-0.4c0.1-0.3,0.1-0.6,0.3-0.9c0.1-0.1,0.2-0.1,0.3-0.1
		c0.1,0,0.1,0.1,0.2,0.1c0,0.1,0,0.1,0,0.2c0,0.2-0.1,0.3-0.1,0.5c-0.1,0.1,0,0.3-0.1,0.3c-0.1,0.1,0,0.3-0.2,0.4
		c0,0.2-0.2,0.4-0.2,0.6c-0.1,0.1-0.1,0.3-0.2,0.4h0c0.1-0.1,0.2-0.2,0.3-0.3c0.3-0.2,0.4-0.5,0.7-0.7c0.1-0.2,0.2-0.3,0.4-0.4
		c0,0,0.1-0.1,0.1-0.1c0.1,0,0.1-0.1,0.2-0.1c0-0.1,0.1-0.1,0.2-0.2c0.2-0.2,0.4-0.4,0.6-0.5c0.1,0,0.1-0.1,0.1-0.1
		c0.3-0.2,0.5-0.4,0.8-0.6c0.1-0.1,0.2-0.1,0.3,0c0,0.1,0.2,0.2,0.2,0.3c0,0.1,0,0.2,0.1,0.3C90.1,64.9,90.2,65,90.1,65.1"/>
	<path class="st3" d="M90.1,65.1C90.1,65.1,90.1,65.2,90.1,65.1c-0.1,0-0.1-0.1-0.1,0c-0.2,0.2-0.2-0.1-0.3-0.1
		c-0.1,0.1-0.2,0.1-0.3,0.2c-0.1,0.1-0.1,0.2-0.2,0.2c-0.1,0-0.2,0.1-0.3,0.1c-0.1,0.1-0.1,0.1-0.2,0.1c0,0.1-0.2,0.2-0.3,0.3
		c0,0.2-0.2,0.1-0.3,0.3c0,0.1-0.2,0-0.2,0.2c0,0.1-0.1,0.1-0.1,0.1c-0.1,0-0.2,0.2-0.3,0.3c0,0.1,0,0.2-0.1,0.2
		c-0.2,0-0.1,0.2-0.3,0.3c-0.1,0.1-0.3,0.2-0.4,0.4c-0.1,0-0.1,0.2-0.2,0.3c-0.1,0.1-0.1,0.2-0.2,0.2c-0.1,0.1,0,0.2-0.1,0.2
		c-0.1,0-0.1,0.1-0.1,0.2c0,0.1-0.2,0.1-0.1,0.3c-0.1,0.1-0.2,0.2-0.2,0.3c0,0.2-0.1,0.2-0.2,0.3c-0.1,0.1-0.3,0-0.4,0.1
		c-0.1,0-0.1-0.1-0.2-0.1c0,0,0-0.1,0-0.1c0.1-0.1,0.1-0.2,0.1-0.3c0.2-0.3,0.3-0.7,0.4-1c0.1-0.1,0.1-0.1,0.1-0.2
		c0-0.2,0.2-0.3,0.2-0.5c0.1-0.3,0.2-0.5,0.4-0.8c0.1-0.1,0.1-0.2,0.1-0.4c0.1-0.3,0.1-0.6,0.3-0.9c0.1-0.1,0.2-0.1,0.3-0.1
		c0.1,0,0.1,0.1,0.2,0.1c0,0.1,0,0.1,0,0.2c0,0.2-0.1,0.3-0.1,0.5c-0.1,0.1,0,0.3-0.1,0.3c-0.1,0.1,0,0.3-0.2,0.4
		c0,0.2-0.2,0.4-0.2,0.6c-0.1,0.1-0.1,0.3-0.2,0.4h0c0.1-0.1,0.2-0.2,0.3-0.3c0.3-0.2,0.4-0.5,0.7-0.7c0.1-0.2,0.2-0.3,0.4-0.4
		c0,0,0.1-0.1,0.1-0.1c0.1,0,0.1-0.1,0.2-0.1c0-0.1,0.1-0.1,0.2-0.2c0.2-0.2,0.4-0.4,0.6-0.5c0.1,0,0.1-0.1,0.1-0.1
		c0.3-0.2,0.5-0.4,0.8-0.6c0.1-0.1,0.2-0.1,0.3,0c0,0.1,0.2,0.2,0.2,0.3c0,0.1,0,0.2,0.1,0.3C90.1,64.9,90.2,65,90.1,65.1z"/>
	<path class="st2" d="M95.2,69L95,69.2c-0.1,0-0.3,0.1-0.4,0c-0.2,0-0.3-0.1-0.5-0.1c-0.1-0.1-0.2-0.2-0.4-0.2
		c-0.1-0.1-0.3-0.3-0.3-0.4c-0.2-0.2,0-0.4-0.2-0.5c-0.1-0.1-0.1-0.2-0.1-0.3c-0.1-0.1-0.1-0.2-0.1-0.3c0-0.2-0.1-0.4-0.1-0.5
		c0-0.1-0.1,0-0.1,0c-0.3,0.2-0.6,0.5-0.9,0.7c-0.1,0.1-0.2,0.1-0.2,0.3c-0.4,0.2-0.7,0.5-1,0.8c-0.2,0.1-0.3,0.3-0.5,0.3
		c-0.1,0-0.1,0.1-0.2,0.1c-0.1,0.1-0.2,0.2-0.3,0.2c-0.2,0.1-0.3-0.1-0.4-0.2c0-0.1,0.1-0.2,0.1-0.3c-0.1-0.2,0.1-0.3,0.2-0.4
		c0.1-0.2,0.2-0.4,0.2-0.5c0.1-0.3,0.1-0.5,0.3-0.7c0.2-0.5,0.4-1,0.6-1.5c0.1-0.1,0.2-0.3,0.3-0.3c0.1,0,0.1,0,0.2,0
		c0.1,0.1,0.1,0.1,0.2,0.1c0.1,0.1,0,0.2,0,0.4c0,0.2-0.3,0.4-0.3,0.6c-0.1,0.1-0.1,0.3-0.1,0.4c-0.1,0.3-0.3,0.6-0.4,0.9h0
		c0.2-0.2,0.4-0.3,0.6-0.4c0.4-0.4,0.9-0.6,1.3-1c0.2-0.1,0.2-0.2,0.3-0.3c0.2,0,0.4-0.1,0.5,0.1c0.1,0.1,0.2,0.2,0.2,0.4
		c0,0.1,0.1,0.3,0.1,0.5c0,0.2,0,0.4,0.1,0.7c0.1,0.2,0.2,0.5,0.4,0.7c0.2,0.1,0.4,0.3,0.5,0.4c0.1,0,0.2,0,0.3,0
		c0.1,0,0.2,0.1,0.3,0.1c0.1,0,0.1,0.1,0.1,0.1C95.2,68.8,95.3,68.9,95.2,69"/>
	<path class="st3" d="M95.2,69L95,69.2c-0.1,0-0.3,0.1-0.4,0c-0.2,0-0.3-0.1-0.5-0.1c-0.1-0.1-0.2-0.2-0.4-0.2
		c-0.1-0.1-0.3-0.3-0.3-0.4c-0.2-0.2,0-0.4-0.2-0.5c-0.1-0.1-0.1-0.2-0.1-0.3c-0.1-0.1-0.1-0.2-0.1-0.3c0-0.2-0.1-0.4-0.1-0.5
		c0-0.1-0.1,0-0.1,0c-0.3,0.2-0.6,0.5-0.9,0.7c-0.1,0.1-0.2,0.1-0.2,0.3c-0.4,0.2-0.7,0.5-1,0.8c-0.2,0.1-0.3,0.3-0.5,0.3
		c-0.1,0-0.1,0.1-0.2,0.1c-0.1,0.1-0.2,0.2-0.3,0.2c-0.2,0.1-0.3-0.1-0.4-0.2c0-0.1,0.1-0.2,0.1-0.3c-0.1-0.2,0.1-0.3,0.2-0.4
		c0.1-0.2,0.2-0.4,0.2-0.5c0.1-0.3,0.1-0.5,0.3-0.7c0.2-0.5,0.4-1,0.6-1.5c0.1-0.1,0.2-0.3,0.3-0.3c0.1,0,0.1,0,0.2,0
		c0.1,0.1,0.1,0.1,0.2,0.1c0.1,0.1,0,0.2,0,0.4c0,0.2-0.3,0.4-0.3,0.6c-0.1,0.1-0.1,0.3-0.1,0.4c-0.1,0.3-0.3,0.6-0.4,0.9h0
		c0.2-0.2,0.4-0.3,0.6-0.4c0.4-0.4,0.9-0.6,1.3-1c0.2-0.1,0.2-0.2,0.3-0.3c0.2,0,0.4-0.1,0.5,0.1c0.1,0.1,0.2,0.2,0.2,0.4
		c0,0.1,0.1,0.3,0.1,0.5c0,0.2,0,0.4,0.1,0.7c0.1,0.2,0.2,0.5,0.4,0.7c0.2,0.1,0.4,0.3,0.5,0.4c0.1,0,0.2,0,0.3,0
		c0.1,0,0.2,0.1,0.3,0.1c0.1,0,0.1,0.1,0.1,0.1C95.2,68.8,95.3,68.9,95.2,69z"/>
	<path class="st2" d="M97.8,68.8c0,0-0.1,0.1-0.1,0.1c-0.1-0.1-0.2,0.1-0.3,0.1c-0.1,0-0.2,0.1-0.3,0.2c-0.1,0-0.1,0-0.2,0
		c-0.1,0.1-0.1,0.1-0.2,0.1h-0.3c-0.1,0-0.2-0.1-0.4-0.1c0-0.1-0.2-0.1-0.3-0.3c0-0.1,0-0.1-0.1-0.2c0.1-0.2-0.1-0.4,0-0.6
		c0-0.1,0-0.3,0.1-0.4c0,0,0-0.1,0.1-0.2c0-0.2,0-0.3,0.1-0.4c0.1-0.2,0.2-0.5,0.3-0.7c0.2-0.1,0-0.3,0.2-0.4c0-0.1,0-0.1,0.1-0.2
		c0.1-0.1,0.1-0.2,0.2-0.2l0.1-0.2c0.1-0.1,0.2,0,0.3-0.1c0.1,0.1,0.2,0,0.3,0.1c0,0.2-0.1,0.4-0.2,0.6c0,0,0.1,0.1,0,0.1
		c-0.2,0.2-0.1,0.4-0.3,0.6c-0.1,0.3-0.3,0.5-0.3,0.7c-0.1,0.2-0.1,0.4-0.2,0.5c-0.1,0.1-0.1,0.3-0.1,0.4c0,0.1-0.1,0.3,0,0.4
		c0.2,0,0.4-0.1,0.6-0.2c0.1-0.1,0.2,0.1,0.3-0.1c0.1,0,0.1,0.1,0.2-0.1c0.1-0.1,0.3,0,0.4-0.1c0.1,0,0.3,0,0.4,0.1
		c0,0.1,0.1,0.1,0.1,0.2C98.1,68.7,97.9,68.8,97.8,68.8 M98.2,63.7c0,0-0.1,0.1-0.2,0.1c-0.1,0-0.2-0.1-0.2-0.1
		c-0.1-0.1-0.3-0.2-0.2-0.4l0-0.2c0.1-0.1,0.3-0.1,0.4-0.2c0.2,0,0.3,0.1,0.4,0.2c0.1,0.1,0.2,0.2,0.2,0.4
		C98.5,63.5,98.4,63.7,98.2,63.7"/>
	<path class="st3" d="M97.8,68.8c0,0-0.1,0.1-0.1,0.1c-0.1-0.1-0.2,0.1-0.3,0.1c-0.1,0-0.2,0.1-0.3,0.2c-0.1,0-0.1,0-0.2,0
		c-0.1,0.1-0.1,0.1-0.2,0.1h-0.3c-0.1,0-0.2-0.1-0.4-0.1c0-0.1-0.2-0.1-0.3-0.3c0-0.1,0-0.1-0.1-0.2c0.1-0.2-0.1-0.4,0-0.6
		c0-0.1,0-0.3,0.1-0.4c0,0,0-0.1,0.1-0.2c0-0.2,0-0.3,0.1-0.4c0.1-0.2,0.2-0.5,0.3-0.7c0.2-0.1,0-0.3,0.2-0.4c0-0.1,0-0.1,0.1-0.2
		c0.1-0.1,0.1-0.2,0.2-0.2l0.1-0.2c0.1-0.1,0.2,0,0.3-0.1c0.1,0.1,0.2,0,0.3,0.1c0,0.2-0.1,0.4-0.2,0.6c0,0,0.1,0.1,0,0.1
		c-0.2,0.2-0.1,0.4-0.3,0.6c-0.1,0.3-0.3,0.5-0.3,0.7c-0.1,0.2-0.1,0.4-0.2,0.5c-0.1,0.1-0.1,0.3-0.1,0.4c0,0.1-0.1,0.3,0,0.4
		c0.2,0,0.4-0.1,0.6-0.2c0.1-0.1,0.2,0.1,0.3-0.1c0.1,0,0.1,0.1,0.2-0.1c0.1-0.1,0.3,0,0.4-0.1c0.1,0,0.3,0,0.4,0.1
		c0,0.1,0.1,0.1,0.1,0.2C98.1,68.7,97.9,68.8,97.8,68.8z M98.2,63.7c0,0-0.1,0.1-0.2,0.1c-0.1,0-0.2-0.1-0.2-0.1
		c-0.1-0.1-0.3-0.2-0.2-0.4l0-0.2c0.1-0.1,0.3-0.1,0.4-0.2c0.2,0,0.3,0.1,0.4,0.2c0.1,0.1,0.2,0.2,0.2,0.4
		C98.5,63.5,98.4,63.7,98.2,63.7z"/>
	<path class="st2" d="M104.3,69l-0.2,0.2c-0.1,0-0.3,0.1-0.4,0c-0.2,0-0.3-0.1-0.5-0.1c-0.1-0.1-0.2-0.2-0.4-0.2
		c-0.1-0.1-0.3-0.3-0.3-0.4c-0.2-0.2,0-0.4-0.2-0.5c-0.1-0.1-0.1-0.2-0.1-0.3c-0.1-0.1-0.1-0.2-0.1-0.3c0-0.2-0.1-0.4-0.2-0.5
		c0-0.1-0.1,0-0.1,0c-0.3,0.2-0.6,0.5-0.9,0.7c-0.1,0.1-0.2,0.1-0.2,0.3c-0.4,0.2-0.7,0.5-1,0.8c-0.2,0.1-0.3,0.3-0.5,0.3
		c-0.1,0-0.1,0.1-0.2,0.1c-0.1,0.1-0.2,0.2-0.3,0.2c-0.2,0.1-0.3-0.1-0.4-0.2c0-0.1,0.1-0.2,0.1-0.3c-0.1-0.2,0.1-0.3,0.2-0.4
		c0.1-0.2,0.2-0.4,0.2-0.5c0.1-0.3,0.1-0.5,0.3-0.7c0.2-0.5,0.4-1,0.6-1.5c0.1-0.1,0.2-0.3,0.3-0.3c0.1,0,0.1,0,0.2,0
		c0.1,0.1,0.1,0.1,0.2,0.1c0.1,0.1,0,0.2,0,0.4c0,0.2-0.3,0.4-0.3,0.6c-0.1,0.1-0.1,0.3-0.1,0.4c-0.1,0.3-0.3,0.6-0.4,0.9h0
		c0.2-0.2,0.4-0.3,0.6-0.4c0.4-0.4,0.9-0.6,1.3-1c0.2-0.1,0.2-0.2,0.3-0.3c0.2,0,0.4-0.1,0.5,0.1c0.1,0.1,0.2,0.2,0.2,0.4
		c0,0.1,0.1,0.3,0.1,0.5c0,0.2,0,0.4,0.1,0.7c0.1,0.2,0.2,0.5,0.4,0.7c0.2,0.1,0.4,0.3,0.5,0.4c0.1,0,0.2,0,0.3,0
		c0.1,0,0.2,0.1,0.3,0.1c0.1,0,0.1,0.1,0.1,0.1C104.3,68.8,104.4,68.9,104.3,69"/>
	<path class="st3" d="M104.3,69l-0.2,0.2c-0.1,0-0.3,0.1-0.4,0c-0.2,0-0.3-0.1-0.5-0.1c-0.1-0.1-0.2-0.2-0.4-0.2
		c-0.1-0.1-0.3-0.3-0.3-0.4c-0.2-0.2,0-0.4-0.2-0.5c-0.1-0.1-0.1-0.2-0.1-0.3c-0.1-0.1-0.1-0.2-0.1-0.3c0-0.2-0.1-0.4-0.2-0.5
		c0-0.1-0.1,0-0.1,0c-0.3,0.2-0.6,0.5-0.9,0.7c-0.1,0.1-0.2,0.1-0.2,0.3c-0.4,0.2-0.7,0.5-1,0.8c-0.2,0.1-0.3,0.3-0.5,0.3
		c-0.1,0-0.1,0.1-0.2,0.1c-0.1,0.1-0.2,0.2-0.3,0.2c-0.2,0.1-0.3-0.1-0.4-0.2c0-0.1,0.1-0.2,0.1-0.3c-0.1-0.2,0.1-0.3,0.2-0.4
		c0.1-0.2,0.2-0.4,0.2-0.5c0.1-0.3,0.1-0.5,0.3-0.7c0.2-0.5,0.4-1,0.6-1.5c0.1-0.1,0.2-0.3,0.3-0.3c0.1,0,0.1,0,0.2,0
		c0.1,0.1,0.1,0.1,0.2,0.1c0.1,0.1,0,0.2,0,0.4c0,0.2-0.3,0.4-0.3,0.6c-0.1,0.1-0.1,0.3-0.1,0.4c-0.1,0.3-0.3,0.6-0.4,0.9h0
		c0.2-0.2,0.4-0.3,0.6-0.4c0.4-0.4,0.9-0.6,1.3-1c0.2-0.1,0.2-0.2,0.3-0.3c0.2,0,0.4-0.1,0.5,0.1c0.1,0.1,0.2,0.2,0.2,0.4
		c0,0.1,0.1,0.3,0.1,0.5c0,0.2,0,0.4,0.1,0.7c0.1,0.2,0.2,0.5,0.4,0.7c0.2,0.1,0.4,0.3,0.5,0.4c0.1,0,0.2,0,0.3,0
		c0.1,0,0.2,0.1,0.3,0.1c0.1,0,0.1,0.1,0.1,0.1C104.3,68.8,104.4,68.9,104.3,69z"/>
	<path class="st2" d="M109,65.8c-0.2,0.2-0.3,0.5-0.4,0.7c0,0.1-0.1,0.2-0.1,0.4c0,0.1-0.1,0.3-0.2,0.4c0,0.2-0.2,0.3-0.2,0.5
		c-0.1,0.1-0.1,0.2-0.1,0.3c-0.1,0.1-0.2,0.4-0.3,0.5c0,0.3-0.3,0.4-0.3,0.7c-0.2,0.2-0.2,0.4-0.4,0.6c-0.2,0.5-0.6,0.9-0.8,1.4
		c-0.3,0.4-0.6,0.7-0.9,1.1c-0.4,0.4-0.7,0.7-1.2,0.9c-0.1,0.2-0.4,0.1-0.6,0.3h-0.2c0-0.1-0.2-0.1-0.2-0.3c0.1-0.1,0.3,0,0.4-0.2
		c0.2-0.1,0.4-0.2,0.6-0.4c0.1-0.1,0.2-0.3,0.3-0.3c0.3-0.3,0.5-0.6,0.8-0.9c0.1-0.3,0.3-0.5,0.5-0.8c0.2-0.2,0.2-0.4,0.4-0.6
		c0.1-0.3,0.3-0.5,0.4-0.7c0.1-0.2,0.2-0.4,0.3-0.5c0-0.1,0.1-0.3,0.1-0.4c0,0,0-0.1,0-0.2c0-0.1,0-0.2,0.1-0.3
		c0.1-0.3,0.3-0.5,0.4-0.8c0.1-0.2,0.1-0.4,0.2-0.6c-0.1,0-0.1,0-0.2,0.1c-0.1,0.2-0.3,0.3-0.4,0.5c-0.1,0-0.1,0.1-0.3,0.2
		c-0.1,0.1-0.2,0.2-0.3,0.3c-0.2,0.1-0.3,0.3-0.4,0.4c0,0.1-0.2,0.1-0.2,0.2c-0.2,0.1-0.4,0.3-0.6,0.4c-0.1,0.1-0.3,0.2-0.4,0.2
		c-0.1-0.1-0.3-0.1-0.3-0.2c-0.1-0.2,0-0.3,0-0.5c0-0.2,0-0.4,0.1-0.5c0-0.2,0.1-0.4,0.2-0.5c0-0.2,0.2-0.4,0.2-0.6
		c0.1-0.1,0.1-0.3,0.2-0.3c0.1-0.2,0.1-0.5,0.4-0.6c0-0.2,0.2-0.2,0.3-0.4c0.1-0.1,0.3-0.3,0.5-0.4c0.1-0.1,0.2-0.1,0.4-0.1
		c0.1,0.1,0.3,0.1,0.5,0.2c0.1,0,0.2,0.1,0.3,0.1l0,0.1c0,0.1,0.1,0.3,0,0.3c-0.1,0.1-0.2,0-0.3,0c-0.2,0-0.5-0.1-0.8,0.1
		c-0.4,0.2-0.5,0.6-0.7,0.9c-0.2,0.4-0.4,0.8-0.6,1.2c0,0.2-0.1,0.3-0.1,0.5c0,0,0,0,0,0c0.2,0,0.3-0.2,0.4-0.3
		c0.1-0.1,0.1-0.2,0.2-0.3c0.1,0,0.2-0.2,0.3-0.3c0-0.1,0.1-0.1,0.2-0.2c0.1-0.1,0.2-0.2,0.3-0.3c0.1-0.1,0.2-0.1,0.2-0.2
		c0.1-0.1,0.2-0.1,0.2-0.2c0-0.1,0.2,0,0.2-0.1c0.1-0.1,0.1-0.2,0.3-0.3c0.1-0.1,0.1-0.2,0.2-0.3c0.1-0.1,0.2,0,0.3-0.2
		c0,0,0,0,0.1,0c0.1-0.1,0.1-0.1,0.2-0.2c0,0,0-0.1,0-0.1c0.1-0.1,0.3-0.2,0.4-0.4c0.1-0.1,0.2-0.2,0.3-0.1c0.1,0.1,0.2,0.1,0.3,0.3
		C109.2,65.5,109.1,65.6,109,65.8"/>
	<path class="st3" d="M109,65.8c-0.2,0.2-0.3,0.5-0.4,0.7c0,0.1-0.1,0.2-0.1,0.4c0,0.1-0.1,0.3-0.2,0.4c0,0.2-0.2,0.3-0.2,0.5
		c-0.1,0.1-0.1,0.2-0.1,0.3c-0.1,0.1-0.2,0.4-0.3,0.5c0,0.3-0.3,0.4-0.3,0.7c-0.2,0.2-0.2,0.4-0.4,0.6c-0.2,0.5-0.6,0.9-0.8,1.4
		c-0.3,0.4-0.6,0.7-0.9,1.1c-0.4,0.4-0.7,0.7-1.2,0.9c-0.1,0.2-0.4,0.1-0.6,0.3h-0.2c0-0.1-0.2-0.1-0.2-0.3c0.1-0.1,0.3,0,0.4-0.2
		c0.2-0.1,0.4-0.2,0.6-0.4c0.1-0.1,0.2-0.3,0.3-0.3c0.3-0.3,0.5-0.6,0.8-0.9c0.1-0.3,0.3-0.5,0.5-0.8c0.2-0.2,0.2-0.4,0.4-0.6
		c0.1-0.3,0.3-0.5,0.4-0.7c0.1-0.2,0.2-0.4,0.3-0.5c0-0.1,0.1-0.3,0.1-0.4c0,0,0-0.1,0-0.2c0-0.1,0-0.2,0.1-0.3
		c0.1-0.3,0.3-0.5,0.4-0.8c0.1-0.2,0.1-0.4,0.2-0.6c-0.1,0-0.1,0-0.2,0.1c-0.1,0.2-0.3,0.3-0.4,0.5c-0.1,0-0.1,0.1-0.3,0.2
		c-0.1,0.1-0.2,0.2-0.3,0.3c-0.2,0.1-0.3,0.3-0.4,0.4c0,0.1-0.2,0.1-0.2,0.2c-0.2,0.1-0.4,0.3-0.6,0.4c-0.1,0.1-0.3,0.2-0.4,0.2
		c-0.1-0.1-0.3-0.1-0.3-0.2c-0.1-0.2,0-0.3,0-0.5c0-0.2,0-0.4,0.1-0.5c0-0.2,0.1-0.4,0.2-0.5c0-0.2,0.2-0.4,0.2-0.6
		c0.1-0.1,0.1-0.3,0.2-0.3c0.1-0.2,0.1-0.5,0.4-0.6c0-0.2,0.2-0.2,0.3-0.4c0.1-0.1,0.3-0.3,0.5-0.4c0.1-0.1,0.2-0.1,0.4-0.1
		c0.1,0.1,0.3,0.1,0.5,0.2c0.1,0,0.2,0.1,0.3,0.1l0,0.1c0,0.1,0.1,0.3,0,0.3c-0.1,0.1-0.2,0-0.3,0c-0.2,0-0.5-0.1-0.8,0.1
		c-0.4,0.2-0.5,0.6-0.7,0.9c-0.2,0.4-0.4,0.8-0.6,1.2c0,0.2-0.1,0.3-0.1,0.5c0,0,0,0,0,0c0.2,0,0.3-0.2,0.4-0.3
		c0.1-0.1,0.1-0.2,0.2-0.3c0.1,0,0.2-0.2,0.3-0.3c0-0.1,0.1-0.1,0.2-0.2c0.1-0.1,0.2-0.2,0.3-0.3c0.1-0.1,0.2-0.1,0.2-0.2
		c0.1-0.1,0.2-0.1,0.2-0.2c0-0.1,0.2,0,0.2-0.1c0.1-0.1,0.1-0.2,0.3-0.3c0.1-0.1,0.1-0.2,0.2-0.3c0.1-0.1,0.2,0,0.3-0.2
		c0,0,0,0,0.1,0c0.1-0.1,0.1-0.1,0.2-0.2c0,0,0-0.1,0-0.1c0.1-0.1,0.3-0.2,0.4-0.4c0.1-0.1,0.2-0.2,0.3-0.1c0.1,0.1,0.2,0.1,0.3,0.3
		C109.2,65.5,109.1,65.6,109,65.8z"/>
	<path class="st2" d="M121,66.6c-0.2,0-0.3,0-0.5,0c0,0.1-0.1,0.1-0.2,0.1c-0.1,0-0.1,0-0.2-0.1c-0.1,0-0.2,0.1-0.3,0
		c0,0,0-0.1,0-0.1c-0.1,0-0.2,0.1-0.3,0.1c-0.1-0.1-0.2,0-0.3,0c-0.1,0-0.2,0-0.4,0c-0.1,0-0.3,0.1-0.4,0c-0.1,0-0.1,0-0.2,0
		c-0.3,0.2-0.6,0-1,0c-0.1,0.1-0.3-0.1-0.5,0c-0.1,0.1-0.2,0-0.3,0.1c-0.1,0-0.3,0-0.4,0.1c-0.1-0.1-0.3,0-0.4,0
		c-0.1,0-0.3,0.1-0.4,0c-0.1,0-0.2,0.1-0.3,0.1c-0.2,0.1-0.1,0.3-0.2,0.4c0,0.2-0.2,0.4-0.2,0.6c0,0.1-0.1,0.1,0,0.2
		c-0.1,0.2-0.1,0.3-0.2,0.4c0,0.2-0.1,0.4-0.2,0.5c0,0.2-0.1,0.3-0.1,0.4c-0.1,0.1-0.1,0.3-0.1,0.4c0.4,0,0.8-0.1,1.3-0.1
		c0.2,0,0.4,0,0.6,0c0.1,0,0.1,0.1,0.2,0.1c0.1-0.1,0.3-0.1,0.5-0.1c0.1,0,0.1,0.1,0.1,0c0.2-0.1,0.5,0,0.7-0.1c0.1,0.1,0.1,0,0.2,0
		c0.1,0,0.2,0,0.4,0c0.1,0,0.2,0,0.3,0c0.1-0.1,0.2,0,0.3,0c0.1,0,0.3,0,0.4,0c0.3,0,0.7,0,1,0.1c0.1,0.1,0.2,0.2,0.3,0.1
		c0.1,0,0.2,0.1,0.4,0.1c0,0.1,0.1,0.1,0.1,0.2c-0.1,0.1-0.2,0.1-0.3,0.1c-0.4,0-0.7,0-1,0c-0.1-0.1-0.2,0-0.3,0
		c-0.1,0-0.3,0.1-0.5,0c-0.1,0.1-0.2,0-0.3,0c-0.2,0-0.3,0-0.5,0c-0.1,0.1-0.2,0-0.3,0.1c-0.3,0-0.6,0-0.8,0c-0.1,0.1-0.3,0.1-0.4,0
		c-0.1,0-0.1,0-0.1,0.1c-0.3,0-0.4,0.1-0.7,0.1c-0.2-0.1-0.4,0.1-0.6,0.1c-0.1,0-0.2-0.1-0.3,0c-0.2,0-0.4,0-0.5,0.1
		c-0.1,0-0.3,0.1-0.4,0c-0.1,0-0.1,0.1-0.1,0.1c-0.1,0-0.2,0.1-0.3-0.1c-0.2,0-0.1-0.2-0.1-0.3c0-0.1,0-0.3,0.1-0.4
		c0-0.2,0.1-0.3,0.1-0.5c0.1-0.1,0.1-0.3,0.1-0.4c0-0.1,0.1-0.1,0.1-0.2c0-0.1,0-0.3,0-0.4c0-0.2,0.1-0.3,0.2-0.5
		c0-0.2,0.1-0.3,0.1-0.4c0.1-0.1,0.1-0.1,0.1-0.2c0-0.1,0.1-0.2,0.1-0.3c0.1-0.1,0-0.2,0.1-0.2c0,0,0-0.1-0.1-0.1
		c-0.3,0-0.5,0.1-0.8,0c-0.1,0-0.2,0-0.3,0.1c-0.1-0.1-0.3,0-0.4-0.1c0-0.1,0-0.1,0.1-0.1c0-0.1,0-0.1,0-0.2c0-0.1,0-0.1,0-0.2
		l0.1,0c0.1,0,0.3,0,0.5,0c0.3-0.1,0.5-0.1,0.8-0.1c0.1-0.1,0.2,0,0.2-0.1c0.1,0,0.2,0,0.2-0.1c0-0.2,0.1-0.3,0.1-0.5
		c0.1-0.1,0-0.3,0.2-0.4c0-0.2,0.1-0.4,0.2-0.6c0-0.2,0.1-0.3,0.1-0.5c0.1-0.1,0.1-0.4,0.3-0.5c0,0,0-0.1,0-0.1
		c0.1-0.1,0.1-0.2,0.2-0.3c0-0.1,0.2-0.2,0.2-0.3c0.1,0,0.1-0.2,0.2-0.3c0.1-0.1,0.3-0.1,0.4-0.3c0.1-0.1,0.3-0.1,0.4-0.2
		c0.1,0,0.2,0,0.3-0.1c0.2,0,0.3-0.1,0.5,0c0.1-0.1,0.3,0,0.3-0.1c0.1,0,0.3,0,0.4,0c0.1,0,0.2,0,0.3,0c0.3,0,0.6-0.1,1-0.1
		c0,0,0.1,0.1,0.1,0.1c0,0,0.1-0.1,0.1-0.1c0,0,0,0,0.1,0c0.2,0,0.4,0,0.5,0c0.1,0,0.3,0,0.3,0.1c0,0.1,0.1,0.1,0.1,0.2
		c0,0,0.1,0.1,0.1,0.2c0,0.1-0.2,0-0.1,0.1c0,0,0,0.1-0.1,0.1c-0.1,0-0.3-0.1-0.4,0c-0.2,0-0.4,0-0.6,0c-0.1,0-0.2,0-0.2,0.1
		c-0.2,0-0.3,0.1-0.5,0c-0.1,0-0.3,0-0.4,0c-0.1,0-0.2,0-0.2,0c-0.2,0-0.3,0.1-0.4,0l-0.2,0.1H117c-0.1,0-0.3,0.2-0.4,0.2
		c-0.6,0.4-0.6,1-0.9,1.5c-0.1,0.1-0.1,0.3-0.2,0.4c-0.1,0.3-0.2,0.5-0.3,0.8c0,0.1-0.1,0.2-0.1,0.3c0.1,0.1,0.1,0,0.2,0
		c0,0,0.1,0.1,0.1,0c0,0,0.1,0,0.1,0c0.1,0.1,0.1,0,0.2,0c0.2,0,0.3,0,0.5,0c0.1,0,0.3,0,0.4,0c0.1,0,0.1,0,0.2,0c0,0,0.1,0,0.2,0
		c0.2-0.1,0.4,0,0.6,0c0.1-0.1,0.2,0,0.3,0c0.2,0,0.5-0.1,0.7,0c0.1,0,0.1,0,0.2,0c0.1,0,0.1,0,0.2,0c0.1,0,0.2,0,0.4,0.1
		c0.1,0,0.3,0,0.4,0c0,0.1,0.1,0,0.2,0.1c0.1-0.1,0.2-0.1,0.3,0c0.1,0,0.2,0.1,0.2,0c0.1,0,0.2,0.1,0.3,0.1c0.1,0,0.1,0,0.2,0
		c0.1,0.1,0,0.2,0.1,0.2C121.1,66.5,121.1,66.5,121,66.6"/>
	<path class="st3" d="M121,66.6c-0.2,0-0.3,0-0.5,0c0,0.1-0.1,0.1-0.2,0.1c-0.1,0-0.1,0-0.2-0.1c-0.1,0-0.2,0.1-0.3,0
		c0,0,0-0.1,0-0.1c-0.1,0-0.2,0.1-0.3,0.1c-0.1-0.1-0.2,0-0.3,0c-0.1,0-0.2,0-0.4,0c-0.1,0-0.3,0.1-0.4,0c-0.1,0-0.1,0-0.2,0
		c-0.3,0.2-0.6,0-1,0c-0.1,0.1-0.3-0.1-0.5,0c-0.1,0.1-0.2,0-0.3,0.1c-0.1,0-0.3,0-0.4,0.1c-0.1-0.1-0.3,0-0.4,0
		c-0.1,0-0.3,0.1-0.4,0c-0.1,0-0.2,0.1-0.3,0.1c-0.2,0.1-0.1,0.3-0.2,0.4c0,0.2-0.2,0.4-0.2,0.6c0,0.1-0.1,0.1,0,0.2
		c-0.1,0.2-0.1,0.3-0.2,0.4c0,0.2-0.1,0.4-0.2,0.5c0,0.2-0.1,0.3-0.1,0.4c-0.1,0.1-0.1,0.3-0.1,0.4c0.4,0,0.8-0.1,1.3-0.1
		c0.2,0,0.4,0,0.6,0c0.1,0,0.1,0.1,0.2,0.1c0.1-0.1,0.3-0.1,0.5-0.1c0.1,0,0.1,0.1,0.1,0c0.2-0.1,0.5,0,0.7-0.1c0.1,0.1,0.1,0,0.2,0
		c0.1,0,0.2,0,0.4,0c0.1,0,0.2,0,0.3,0c0.1-0.1,0.2,0,0.3,0c0.1,0,0.3,0,0.4,0c0.3,0,0.7,0,1,0.1c0.1,0.1,0.2,0.2,0.3,0.1
		c0.1,0,0.2,0.1,0.4,0.1c0,0.1,0.1,0.1,0.1,0.2c-0.1,0.1-0.2,0.1-0.3,0.1c-0.4,0-0.7,0-1,0c-0.1-0.1-0.2,0-0.3,0
		c-0.1,0-0.3,0.1-0.5,0c-0.1,0.1-0.2,0-0.3,0c-0.2,0-0.3,0-0.5,0c-0.1,0.1-0.2,0-0.3,0.1c-0.3,0-0.6,0-0.8,0c-0.1,0.1-0.3,0.1-0.4,0
		c-0.1,0-0.1,0-0.1,0.1c-0.3,0-0.4,0.1-0.7,0.1c-0.2-0.1-0.4,0.1-0.6,0.1c-0.1,0-0.2-0.1-0.3,0c-0.2,0-0.4,0-0.5,0.1
		c-0.1,0-0.3,0.1-0.4,0c-0.1,0-0.1,0.1-0.1,0.1c-0.1,0-0.2,0.1-0.3-0.1c-0.2,0-0.1-0.2-0.1-0.3c0-0.1,0-0.3,0.1-0.4
		c0-0.2,0.1-0.3,0.1-0.5c0.1-0.1,0.1-0.3,0.1-0.4c0-0.1,0.1-0.1,0.1-0.2c0-0.1,0-0.3,0-0.4c0-0.2,0.1-0.3,0.2-0.5
		c0-0.2,0.1-0.3,0.1-0.4c0.1-0.1,0.1-0.1,0.1-0.2c0-0.1,0.1-0.2,0.1-0.3c0.1-0.1,0-0.2,0.1-0.2c0,0,0-0.1-0.1-0.1
		c-0.3,0-0.5,0.1-0.8,0c-0.1,0-0.2,0-0.3,0.1c-0.1-0.1-0.3,0-0.4-0.1c0-0.1,0-0.1,0.1-0.1c0-0.1,0-0.1,0-0.2c0-0.1,0-0.1,0-0.2
		l0.1,0c0.1,0,0.3,0,0.5,0c0.3-0.1,0.5-0.1,0.8-0.1c0.1-0.1,0.2,0,0.2-0.1c0.1,0,0.2,0,0.2-0.1c0-0.2,0.1-0.3,0.1-0.5
		c0.1-0.1,0-0.3,0.2-0.4c0-0.2,0.1-0.4,0.2-0.6c0-0.2,0.1-0.3,0.1-0.5c0.1-0.1,0.1-0.4,0.3-0.5c0,0,0-0.1,0-0.1
		c0.1-0.1,0.1-0.2,0.2-0.3c0-0.1,0.2-0.2,0.2-0.3c0.1,0,0.1-0.2,0.2-0.3c0.1-0.1,0.3-0.1,0.4-0.3c0.1-0.1,0.3-0.1,0.4-0.2
		c0.1,0,0.2,0,0.3-0.1c0.2,0,0.3-0.1,0.5,0c0.1-0.1,0.3,0,0.3-0.1c0.1,0,0.3,0,0.4,0c0.1,0,0.2,0,0.3,0c0.3,0,0.6-0.1,1-0.1
		c0,0,0.1,0.1,0.1,0.1c0,0,0.1-0.1,0.1-0.1c0,0,0,0,0.1,0c0.2,0,0.4,0,0.5,0c0.1,0,0.3,0,0.3,0.1c0,0.1,0.1,0.1,0.1,0.2
		c0,0,0.1,0.1,0.1,0.2c0,0.1-0.2,0-0.1,0.1c0,0,0,0.1-0.1,0.1c-0.1,0-0.3-0.1-0.4,0c-0.2,0-0.4,0-0.6,0c-0.1,0-0.2,0-0.2,0.1
		c-0.2,0-0.3,0.1-0.5,0c-0.1,0-0.3,0-0.4,0c-0.1,0-0.2,0-0.2,0c-0.2,0-0.3,0.1-0.4,0l-0.2,0.1H117c-0.1,0-0.3,0.2-0.4,0.2
		c-0.6,0.4-0.6,1-0.9,1.5c-0.1,0.1-0.1,0.3-0.2,0.4c-0.1,0.3-0.2,0.5-0.3,0.8c0,0.1-0.1,0.2-0.1,0.3c0.1,0.1,0.1,0,0.2,0
		c0,0,0.1,0.1,0.1,0c0,0,0.1,0,0.1,0c0.1,0.1,0.1,0,0.2,0c0.2,0,0.3,0,0.5,0c0.1,0,0.3,0,0.4,0c0.1,0,0.1,0,0.2,0c0,0,0.1,0,0.2,0
		c0.2-0.1,0.4,0,0.6,0c0.1-0.1,0.2,0,0.3,0c0.2,0,0.5-0.1,0.7,0c0.1,0,0.1,0,0.2,0c0.1,0,0.1,0,0.2,0c0.1,0,0.2,0,0.4,0.1
		c0.1,0,0.3,0,0.4,0c0,0.1,0.1,0,0.2,0.1c0.1-0.1,0.2-0.1,0.3,0c0.1,0,0.2,0.1,0.2,0c0.1,0,0.2,0.1,0.3,0.1c0.1,0,0.1,0,0.2,0
		c0.1,0.1,0,0.2,0.1,0.2C121.1,66.5,121.1,66.5,121,66.6z"/>
	<path class="st2" d="M126.4,63.8c-0.1,0.1-0.3,0.1-0.4,0.2c-0.2,0-0.3,0.2-0.4,0.2c-0.1,0.2-0.3,0.2-0.5,0.4
		c-0.1,0.1-0.2,0.1-0.3,0.2c0,0-0.1,0.1-0.1,0.1c0,0.1-0.1,0-0.1,0.1c0,0,0,0.2-0.1,0.2c-0.1,0-0.1,0-0.1,0.1c0,0.1-0.1,0.1-0.1,0.1
		c0,0.1-0.1,0.1-0.2,0.1c0,0.1-0.2,0.1-0.2,0.3c-0.1,0-0.1,0.2-0.2,0.2c0,0.1,0,0.1,0,0.2c0,0-0.1,0-0.1,0.1c-0.1,0.4,0,0.8,0,1.1
		c0,0.2,0.1,0.4,0,0.7c0,0.2,0,0.4,0.1,0.6c0,0.1,0,0.2,0,0.4c0,0.2,0.1,0.5,0.1,0.7c0.1,0.1,0,0.3,0.1,0.4c0,0.1,0,0.2,0,0.2
		c0,0.1,0.1,0.3,0,0.4c0,0,0,0.1,0,0.1c0.1,0.1,0.1,0.3,0.1,0.4c-0.1,0.1,0.1,0.3-0.1,0.4h0c-0.1-0.1-0.1-0.3-0.3-0.4
		c0-0.1-0.1-0.2,0-0.3c-0.1-0.2,0-0.4-0.2-0.6c0-0.3,0-0.6-0.1-0.9c0-0.1-0.1-0.3-0.1-0.5c0,0,0,0,0,0c0-0.2-0.1-0.4-0.1-0.6
		c0-0.3-0.1-0.6-0.1-0.9c-0.1-0.1,0-0.1-0.1-0.2c0-0.1,0-0.2,0-0.3c0,0,0,0,0-0.1c-0.1,0-0.1,0.1-0.2,0.2c0,0.1-0.2,0.2-0.3,0.3
		c0,0.1,0,0.2-0.2,0.3c-0.1,0-0.1,0-0.1,0.1c0,0.1-0.1,0.1-0.1,0.2c-0.1,0.1-0.1,0.2-0.2,0.2c-0.1,0.1-0.1,0.2-0.2,0.3
		c-0.1,0-0.1,0-0.2,0c-0.1,0-0.1-0.1-0.1-0.1l-0.2,0c0,0,0,0,0,0c0-0.1,0.1-0.2,0.2-0.3c0.4-0.5,0.7-1.1,1.2-1.5l0.3-0.4
		c0-0.1-0.1-0.3-0.1-0.4c0-0.1,0.1-0.2,0-0.3c0-0.3-0.1-0.5,0-0.8c0-0.1,0-0.2,0.1-0.3c0.1-0.1,0.3,0,0.5,0c0.2,0.1,0.1,0.4,0.2,0.6
		c0,0.2,0,0.4,0.1,0.5c0,0,0-0.1,0.1-0.1c0.1,0,0.1-0.1,0.2-0.2c0-0.2,0.3-0.1,0.4-0.3c0.1,0.1,0.1-0.1,0.2-0.1c0,0,0-0.1,0.1-0.1
		c0.1,0,0.1,0,0.2-0.1c0-0.1,0.2,0,0.2-0.1c0-0.1,0.1-0.1,0.1-0.1c0.1-0.1,0.3-0.1,0.3-0.2c0.1-0.1,0.3-0.2,0.4-0.3
		c0.1,0,0.1-0.1,0.2-0.1c0.1-0.1,0.3-0.2,0.4-0.3c0.1,0,0.1,0.1,0.2,0.1c0.1,0,0.2,0,0.2,0.1c0,0,0.1,0.1,0,0.1
		C126.5,63.7,126.4,63.8,126.4,63.8"/>
	<path class="st3" d="M126.4,63.8c-0.1,0.1-0.3,0.1-0.4,0.2c-0.2,0-0.3,0.2-0.4,0.2c-0.1,0.2-0.3,0.2-0.5,0.4
		c-0.1,0.1-0.2,0.1-0.3,0.2c0,0-0.1,0.1-0.1,0.1c0,0.1-0.1,0-0.1,0.1c0,0,0,0.2-0.1,0.2c-0.1,0-0.1,0-0.1,0.1c0,0.1-0.1,0.1-0.1,0.1
		c0,0.1-0.1,0.1-0.2,0.1c0,0.1-0.2,0.1-0.2,0.3c-0.1,0-0.1,0.2-0.2,0.2c0,0.1,0,0.1,0,0.2c0,0-0.1,0-0.1,0.1c-0.1,0.4,0,0.8,0,1.1
		c0,0.2,0.1,0.4,0,0.7c0,0.2,0,0.4,0.1,0.6c0,0.1,0,0.2,0,0.4c0,0.2,0.1,0.5,0.1,0.7c0.1,0.1,0,0.3,0.1,0.4c0,0.1,0,0.2,0,0.2
		c0,0.1,0.1,0.3,0,0.4c0,0,0,0.1,0,0.1c0.1,0.1,0.1,0.3,0.1,0.4c-0.1,0.1,0.1,0.3-0.1,0.4h0c-0.1-0.1-0.1-0.3-0.3-0.4
		c0-0.1-0.1-0.2,0-0.3c-0.1-0.2,0-0.4-0.2-0.6c0-0.3,0-0.6-0.1-0.9c0-0.1-0.1-0.3-0.1-0.5c0,0,0,0,0,0c0-0.2-0.1-0.4-0.1-0.6
		c0-0.3-0.1-0.6-0.1-0.9c-0.1-0.1,0-0.1-0.1-0.2c0-0.1,0-0.2,0-0.3c0,0,0,0,0-0.1c-0.1,0-0.1,0.1-0.2,0.2c0,0.1-0.2,0.2-0.3,0.3
		c0,0.1,0,0.2-0.2,0.3c-0.1,0-0.1,0-0.1,0.1c0,0.1-0.1,0.1-0.1,0.2c-0.1,0.1-0.1,0.2-0.2,0.2c-0.1,0.1-0.1,0.2-0.2,0.3
		c-0.1,0-0.1,0-0.2,0c-0.1,0-0.1-0.1-0.1-0.1l-0.2,0c0,0,0,0,0,0c0-0.1,0.1-0.2,0.2-0.3c0.4-0.5,0.7-1.1,1.2-1.5l0.3-0.4
		c0-0.1-0.1-0.3-0.1-0.4c0-0.1,0.1-0.2,0-0.3c0-0.3-0.1-0.5,0-0.8c0-0.1,0-0.2,0.1-0.3c0.1-0.1,0.3,0,0.5,0c0.2,0.1,0.1,0.4,0.2,0.6
		c0,0.2,0,0.4,0.1,0.5c0,0,0-0.1,0.1-0.1c0.1,0,0.1-0.1,0.2-0.2c0-0.2,0.3-0.1,0.4-0.3c0.1,0.1,0.1-0.1,0.2-0.1c0,0,0-0.1,0.1-0.1
		c0.1,0,0.1,0,0.2-0.1c0-0.1,0.2,0,0.2-0.1c0-0.1,0.1-0.1,0.1-0.1c0.1-0.1,0.3-0.1,0.3-0.2c0.1-0.1,0.3-0.2,0.4-0.3
		c0.1,0,0.1-0.1,0.2-0.1c0.1-0.1,0.3-0.2,0.4-0.3c0.1,0,0.1,0.1,0.2,0.1c0.1,0,0.2,0,0.2,0.1c0,0,0.1,0.1,0,0.1
		C126.5,63.7,126.4,63.8,126.4,63.8z"/>
	<path class="st2" d="M129.3,67.4c-0.1,0.1-0.1,0.2-0.3,0.3c-0.1,0.1-0.2,0.2-0.3,0.3c-0.1,0.1-0.3,0.1-0.4,0.2
		c-0.1,0-0.1,0.1-0.2,0.1c-0.1,0.1-0.2,0.1-0.3,0.2c-0.2,0-0.4,0.2-0.6,0.3c-0.1,0-0.1,0.1-0.2,0.1c0,0.1-0.1,0.2-0.3,0.2
		c-0.1,0-0.1,0.1-0.2,0c-0.1-0.1-0.2-0.2-0.2-0.3c0,0-0.1-0.1-0.1-0.1c0-0.1,0.1-0.2,0.1-0.2c0-0.1,0-0.2,0.1-0.2
		c0.1-0.1,0.1-0.1,0.2-0.1c0.1-0.1,0.3-0.1,0.4-0.2c0.2-0.1,0.3-0.1,0.4-0.2c0.3-0.2,0.5-0.3,0.8-0.5c0,0,0.1,0,0.2-0.1
		c0.1-0.1,0.2-0.3,0.3-0.3c0.2-0.1,0.4-0.3,0.5-0.6c0-0.1-0.1-0.2-0.1-0.3c-0.1-0.1-0.4-0.2-0.5-0.1c-0.5,0.1-1,0.3-1.4,0.6
		c-0.2,0.1-0.4,0.2-0.6,0.4c-0.1,0.2-0.2,0.4-0.3,0.6c-0.4,0.9-0.8,1.8-1.2,2.8c-0.1,0.2-0.2,0.5-0.3,0.7c-0.3,0.7-0.6,1.5-0.8,2.2
		c-0.1,0.1-0.1,0.2-0.3,0.3c0,0.1-0.2,0.1-0.3,0.2h-0.1c0,0,0-0.1,0-0.1c0.1-0.1,0-0.3,0.1-0.4c0-0.1,0.1-0.2,0.1-0.3
		c0-0.3,0.1-0.5,0.2-0.7c0.1-0.3,0.2-0.6,0.3-0.9c0.1-0.2,0.2-0.5,0.3-0.8c0.2-0.4,0.3-0.9,0.5-1.3c0.1-0.3,0.3-0.7,0.5-1.1
		c0.3-0.5,0.4-1.1,0.7-1.6c0.1-0.4,0.3-0.7,0.5-1.1c0.1-0.2,0.2-0.4,0.2-0.6l0.2-0.2c0.1,0,0.2-0.1,0.3,0l0.1,0
		c0.1,0.1,0.1,0.3,0.1,0.4c-0.1,0.3-0.3,0.6-0.4,0.9l0,0c0.1-0.1,0.3-0.2,0.3-0.3c0.1,0,0.2,0,0.3-0.1c0.1,0,0.2-0.1,0.4-0.1
		c0.2-0.1,0.3-0.1,0.5-0.1c0.1,0,0.2-0.1,0.4,0c0.2,0,0.3,0.1,0.5,0.2c0.2,0.2,0.3,0.4,0.3,0.7c0,0.1,0,0.2,0,0.3
		C129.6,66.9,129.5,67.2,129.3,67.4"/>
	<path class="st3" d="M129.3,67.4c-0.1,0.1-0.1,0.2-0.3,0.3c-0.1,0.1-0.2,0.2-0.3,0.3c-0.1,0.1-0.3,0.1-0.4,0.2
		c-0.1,0-0.1,0.1-0.2,0.1c-0.1,0.1-0.2,0.1-0.3,0.2c-0.2,0-0.4,0.2-0.6,0.3c-0.1,0-0.1,0.1-0.2,0.1c0,0.1-0.1,0.2-0.3,0.2
		c-0.1,0-0.1,0.1-0.2,0c-0.1-0.1-0.2-0.2-0.2-0.3c0,0-0.1-0.1-0.1-0.1c0-0.1,0.1-0.2,0.1-0.2c0-0.1,0-0.2,0.1-0.2
		c0.1-0.1,0.1-0.1,0.2-0.1c0.1-0.1,0.3-0.1,0.4-0.2c0.2-0.1,0.3-0.1,0.4-0.2c0.3-0.2,0.5-0.3,0.8-0.5c0,0,0.1,0,0.2-0.1
		c0.1-0.1,0.2-0.3,0.3-0.3c0.2-0.1,0.4-0.3,0.5-0.6c0-0.1-0.1-0.2-0.1-0.3c-0.1-0.1-0.4-0.2-0.5-0.1c-0.5,0.1-1,0.3-1.4,0.6
		c-0.2,0.1-0.4,0.2-0.6,0.4c-0.1,0.2-0.2,0.4-0.3,0.6c-0.4,0.9-0.8,1.8-1.2,2.8c-0.1,0.2-0.2,0.5-0.3,0.7c-0.3,0.7-0.6,1.5-0.8,2.2
		c-0.1,0.1-0.1,0.2-0.3,0.3c0,0.1-0.2,0.1-0.3,0.2h-0.1c0,0,0-0.1,0-0.1c0.1-0.1,0-0.3,0.1-0.4c0-0.1,0.1-0.2,0.1-0.3
		c0-0.3,0.1-0.5,0.2-0.7c0.1-0.3,0.2-0.6,0.3-0.9c0.1-0.2,0.2-0.5,0.3-0.8c0.2-0.4,0.3-0.9,0.5-1.3c0.1-0.3,0.3-0.7,0.5-1.1
		c0.3-0.5,0.4-1.1,0.7-1.6c0.1-0.4,0.3-0.7,0.5-1.1c0.1-0.2,0.2-0.4,0.2-0.6l0.2-0.2c0.1,0,0.2-0.1,0.3,0l0.1,0
		c0.1,0.1,0.1,0.3,0.1,0.4c-0.1,0.3-0.3,0.6-0.4,0.9l0,0c0.1-0.1,0.3-0.2,0.3-0.3c0.1,0,0.2,0,0.3-0.1c0.1,0,0.2-0.1,0.4-0.1
		c0.2-0.1,0.3-0.1,0.5-0.1c0.1,0,0.2-0.1,0.4,0c0.2,0,0.3,0.1,0.5,0.2c0.2,0.2,0.3,0.4,0.3,0.7c0,0.1,0,0.2,0,0.3
		C129.6,66.9,129.5,67.2,129.3,67.4z"/>
	<path class="st2" d="M133.7,67.9c-0.1,0.1-0.4,0.2-0.5,0.4c-0.1,0.1-0.3,0.1-0.4,0.2c-0.1,0.1-0.3,0.2-0.5,0.2
		c-0.3,0.2-0.7,0.4-1.1,0.5c-0.2,0-0.3,0.1-0.4,0c-0.3-0.1-0.6-0.2-0.7-0.5c0-0.1-0.2-0.3-0.1-0.4c0-0.2,0.1-0.5,0.2-0.7
		c0.1-0.1,0.1-0.2,0.1-0.3c0-0.2,0.3-0.3,0.3-0.5c0.1-0.1,0.2-0.3,0.4-0.4c0.1,0,0.2-0.1,0.2-0.2c0.2-0.2,0.4-0.4,0.7-0.5
		c0.3-0.2,0.6-0.3,0.9-0.4c0.2,0,0.5,0.1,0.6,0.2c0.1,0.1,0.1,0.2,0,0.3c-0.1,0.1-0.1,0.3-0.2,0.4c-0.2,0.4-0.5,0.6-0.8,0.8
		c-0.3,0.1-0.5,0.2-0.7,0.4c-0.2,0-0.4,0.2-0.6,0.3c-0.1,0-0.3,0-0.3,0.1c0,0.2-0.1,0.5,0,0.8c0.1,0.1,0.3,0.1,0.4,0
		c0.3,0,0.5-0.2,0.8-0.3c0.1-0.1,0.2-0.1,0.3-0.1c0-0.1,0.2-0.1,0.3-0.2c0.2-0.1,0.5-0.2,0.7-0.3c0.1,0,0.1,0,0.2,0
		c0.1-0.1,0.2-0.1,0.3-0.2c0.1,0,0.2,0,0.2,0.1C134,67.7,133.8,67.7,133.7,67.9 M132.9,65.5c-0.1,0-0.1,0-0.2,0
		c-0.5,0.3-1,0.6-1.3,1.1c-0.1,0.1-0.2,0.2-0.3,0.3c0.2,0,0.3-0.1,0.4-0.1c0.1-0.1,0.2-0.1,0.3-0.2c0.1,0,0.2-0.2,0.3-0.2
		c0.1,0,0.1-0.2,0.3-0.2c0.1-0.1,0.1-0.2,0.3-0.2c0.1-0.2,0.3-0.3,0.2-0.5C133,65.6,133,65.6,132.9,65.5"/>
	<path class="st3" d="M133.7,67.9c-0.1,0.1-0.4,0.2-0.5,0.4c-0.1,0.1-0.3,0.1-0.4,0.2c-0.1,0.1-0.3,0.2-0.5,0.2
		c-0.3,0.2-0.7,0.4-1.1,0.5c-0.2,0-0.3,0.1-0.4,0c-0.3-0.1-0.6-0.2-0.7-0.5c0-0.1-0.2-0.3-0.1-0.4c0-0.2,0.1-0.5,0.2-0.7
		c0.1-0.1,0.1-0.2,0.1-0.3c0-0.2,0.3-0.3,0.3-0.5c0.1-0.1,0.2-0.3,0.4-0.4c0.1,0,0.2-0.1,0.2-0.2c0.2-0.2,0.4-0.4,0.7-0.5
		c0.3-0.2,0.6-0.3,0.9-0.4c0.2,0,0.5,0.1,0.6,0.2c0.1,0.1,0.1,0.2,0,0.3c-0.1,0.1-0.1,0.3-0.2,0.4c-0.2,0.4-0.5,0.6-0.8,0.8
		c-0.3,0.1-0.5,0.2-0.7,0.4c-0.2,0-0.4,0.2-0.6,0.3c-0.1,0-0.3,0-0.3,0.1c0,0.2-0.1,0.5,0,0.8c0.1,0.1,0.3,0.1,0.4,0
		c0.3,0,0.5-0.2,0.8-0.3c0.1-0.1,0.2-0.1,0.3-0.1c0-0.1,0.2-0.1,0.3-0.2c0.2-0.1,0.5-0.2,0.7-0.3c0.1,0,0.1,0,0.2,0
		c0.1-0.1,0.2-0.1,0.3-0.2c0.1,0,0.2,0,0.2,0.1C134,67.7,133.8,67.7,133.7,67.9z M132.9,65.5c-0.1,0-0.1,0-0.2,0
		c-0.5,0.3-1,0.6-1.3,1.1c-0.1,0.1-0.2,0.2-0.3,0.3c0.2,0,0.3-0.1,0.4-0.1c0.1-0.1,0.2-0.1,0.3-0.2c0.1,0,0.2-0.2,0.3-0.2
		c0.1,0,0.1-0.2,0.3-0.2c0.1-0.1,0.1-0.2,0.3-0.2c0.1-0.2,0.3-0.3,0.2-0.5C133,65.6,133,65.6,132.9,65.5z"/>
	<path class="st2" d="M139.6,65.1C139.5,65.1,139.5,65.2,139.6,65.1c-0.1,0-0.1-0.1-0.1,0c-0.2,0.2-0.2-0.1-0.3-0.1
		c-0.1,0.1-0.2,0.1-0.3,0.2c-0.1,0.1-0.1,0.2-0.2,0.2c-0.1,0-0.2,0.1-0.3,0.1c-0.1,0.1-0.1,0.1-0.2,0.1c0,0.1-0.2,0.2-0.3,0.3
		c0,0.2-0.2,0.1-0.3,0.3c0,0.1-0.2,0-0.2,0.2c0,0.1-0.1,0.1-0.1,0.1c-0.1,0-0.2,0.2-0.3,0.3c0,0.1,0,0.2-0.1,0.2
		c-0.2,0-0.1,0.2-0.3,0.3c-0.1,0.1-0.3,0.2-0.4,0.4c-0.1,0-0.1,0.2-0.2,0.3c-0.1,0.1-0.1,0.2-0.2,0.2c-0.1,0.1,0,0.2-0.1,0.2
		c-0.1,0-0.1,0.1-0.1,0.2c0,0.1-0.2,0.1-0.1,0.3c-0.1,0.1-0.2,0.2-0.2,0.3c0,0.2-0.1,0.2-0.2,0.3c-0.1,0.1-0.3,0-0.4,0.1
		c-0.1,0-0.1-0.1-0.2-0.1c0,0,0-0.1,0-0.1c0.1-0.1,0.1-0.2,0.1-0.3c0.2-0.3,0.3-0.7,0.4-1c0.1-0.1,0.1-0.1,0.1-0.2
		c0-0.2,0.2-0.3,0.2-0.5c0.1-0.3,0.2-0.5,0.4-0.8c0.1-0.1,0.1-0.2,0.1-0.4c0.1-0.3,0.1-0.6,0.3-0.9c0.1-0.1,0.2-0.1,0.3-0.1
		c0.1,0,0.1,0.1,0.2,0.1c0,0.1,0,0.1,0,0.2c0,0.2-0.1,0.3-0.1,0.5c-0.1,0.1,0,0.3-0.1,0.3c-0.1,0.1,0,0.3-0.2,0.4
		c0,0.2-0.2,0.4-0.2,0.6c-0.1,0.1-0.1,0.3-0.2,0.4h0c0.1-0.1,0.2-0.2,0.3-0.3c0.3-0.2,0.4-0.5,0.7-0.7c0.1-0.2,0.2-0.3,0.4-0.4
		c0,0,0.1-0.1,0.1-0.1c0.1,0,0.1-0.1,0.2-0.1c0-0.1,0.1-0.1,0.2-0.2c0.2-0.2,0.4-0.4,0.6-0.5c0.1,0,0.1-0.1,0.1-0.1
		c0.3-0.2,0.5-0.4,0.8-0.6c0.1-0.1,0.2-0.1,0.3,0c0,0.1,0.2,0.2,0.2,0.3c0,0.1,0,0.2,0.1,0.3C139.6,64.9,139.7,65,139.6,65.1"/>
	<path class="st3" d="M139.6,65.1C139.5,65.1,139.5,65.2,139.6,65.1c-0.1,0-0.1-0.1-0.1,0c-0.2,0.2-0.2-0.1-0.3-0.1
		c-0.1,0.1-0.2,0.1-0.3,0.2c-0.1,0.1-0.1,0.2-0.2,0.2c-0.1,0-0.2,0.1-0.3,0.1c-0.1,0.1-0.1,0.1-0.2,0.1c0,0.1-0.2,0.2-0.3,0.3
		c0,0.2-0.2,0.1-0.3,0.3c0,0.1-0.2,0-0.2,0.2c0,0.1-0.1,0.1-0.1,0.1c-0.1,0-0.2,0.2-0.3,0.3c0,0.1,0,0.2-0.1,0.2
		c-0.2,0-0.1,0.2-0.3,0.3c-0.1,0.1-0.3,0.2-0.4,0.4c-0.1,0-0.1,0.2-0.2,0.3c-0.1,0.1-0.1,0.2-0.2,0.2c-0.1,0.1,0,0.2-0.1,0.2
		c-0.1,0-0.1,0.1-0.1,0.2c0,0.1-0.2,0.1-0.1,0.3c-0.1,0.1-0.2,0.2-0.2,0.3c0,0.2-0.1,0.2-0.2,0.3c-0.1,0.1-0.3,0-0.4,0.1
		c-0.1,0-0.1-0.1-0.2-0.1c0,0,0-0.1,0-0.1c0.1-0.1,0.1-0.2,0.1-0.3c0.2-0.3,0.3-0.7,0.4-1c0.1-0.1,0.1-0.1,0.1-0.2
		c0-0.2,0.2-0.3,0.2-0.5c0.1-0.3,0.2-0.5,0.4-0.8c0.1-0.1,0.1-0.2,0.1-0.4c0.1-0.3,0.1-0.6,0.3-0.9c0.1-0.1,0.2-0.1,0.3-0.1
		c0.1,0,0.1,0.1,0.2,0.1c0,0.1,0,0.1,0,0.2c0,0.2-0.1,0.3-0.1,0.5c-0.1,0.1,0,0.3-0.1,0.3c-0.1,0.1,0,0.3-0.2,0.4
		c0,0.2-0.2,0.4-0.2,0.6c-0.1,0.1-0.1,0.3-0.2,0.4h0c0.1-0.1,0.2-0.2,0.3-0.3c0.3-0.2,0.4-0.5,0.7-0.7c0.1-0.2,0.2-0.3,0.4-0.4
		c0,0,0.1-0.1,0.1-0.1c0.1,0,0.1-0.1,0.2-0.1c0-0.1,0.1-0.1,0.2-0.2c0.2-0.2,0.4-0.4,0.6-0.5c0.1,0,0.1-0.1,0.1-0.1
		c0.3-0.2,0.5-0.4,0.8-0.6c0.1-0.1,0.2-0.1,0.3,0c0,0.1,0.2,0.2,0.2,0.3c0,0.1,0,0.2,0.1,0.3C139.6,64.9,139.7,65,139.6,65.1z"/>
	<path class="st2" d="M141.1,68.8c0,0-0.1,0.1-0.2,0.1c-0.1-0.1-0.2,0.1-0.3,0.1c-0.1,0-0.2,0.1-0.3,0.2c-0.1,0-0.1,0-0.2,0
		c-0.1,0.1-0.1,0.1-0.2,0.1h-0.3c-0.1,0-0.2-0.1-0.4-0.1c0-0.1-0.2-0.1-0.3-0.3c0-0.1,0-0.1-0.1-0.2c0.1-0.2-0.1-0.4,0-0.6
		c0-0.1,0-0.3,0.1-0.4c0,0,0-0.1,0.1-0.2c0-0.2,0-0.3,0.1-0.4c0.1-0.2,0.2-0.5,0.3-0.7c0.2-0.1,0-0.3,0.2-0.4c0-0.1,0-0.1,0.1-0.2
		c0.1-0.1,0.1-0.2,0.2-0.2l0.1-0.2c0.1-0.1,0.2,0,0.3-0.1c0.1,0.1,0.2,0,0.3,0.1c0,0.2-0.1,0.4-0.2,0.6c0,0,0.1,0.1,0,0.1
		c-0.2,0.2-0.1,0.4-0.3,0.6c-0.1,0.3-0.3,0.5-0.3,0.7c-0.1,0.2-0.1,0.4-0.2,0.5c-0.1,0.1-0.1,0.3-0.1,0.4c0,0.1-0.1,0.3,0,0.4
		c0.2,0,0.4-0.1,0.6-0.2c0.1-0.1,0.2,0.1,0.3-0.1c0.1,0,0.1,0.1,0.2-0.1c0.1-0.1,0.3,0,0.4-0.1c0.1,0,0.3,0,0.4,0.1
		c0,0.1,0.1,0.1,0.1,0.2C141.3,68.7,141.2,68.8,141.1,68.8 M141.5,63.7c0,0-0.1,0.1-0.2,0.1c-0.1,0-0.2-0.1-0.2-0.1
		c-0.2-0.1-0.3-0.2-0.2-0.4l0-0.2c0.1-0.1,0.3-0.1,0.4-0.2c0.2,0,0.3,0.1,0.4,0.2c0.1,0.1,0.2,0.2,0.2,0.4
		C141.8,63.5,141.7,63.7,141.5,63.7"/>
	<path class="st3" d="M141.1,68.8c0,0-0.1,0.1-0.2,0.1c-0.1-0.1-0.2,0.1-0.3,0.1c-0.1,0-0.2,0.1-0.3,0.2c-0.1,0-0.1,0-0.2,0
		c-0.1,0.1-0.1,0.1-0.2,0.1h-0.3c-0.1,0-0.2-0.1-0.4-0.1c0-0.1-0.2-0.1-0.3-0.3c0-0.1,0-0.1-0.1-0.2c0.1-0.2-0.1-0.4,0-0.6
		c0-0.1,0-0.3,0.1-0.4c0,0,0-0.1,0.1-0.2c0-0.2,0-0.3,0.1-0.4c0.1-0.2,0.2-0.5,0.3-0.7c0.2-0.1,0-0.3,0.2-0.4c0-0.1,0-0.1,0.1-0.2
		c0.1-0.1,0.1-0.2,0.2-0.2l0.1-0.2c0.1-0.1,0.2,0,0.3-0.1c0.1,0.1,0.2,0,0.3,0.1c0,0.2-0.1,0.4-0.2,0.6c0,0,0.1,0.1,0,0.1
		c-0.2,0.2-0.1,0.4-0.3,0.6c-0.1,0.3-0.3,0.5-0.3,0.7c-0.1,0.2-0.1,0.4-0.2,0.5c-0.1,0.1-0.1,0.3-0.1,0.4c0,0.1-0.1,0.3,0,0.4
		c0.2,0,0.4-0.1,0.6-0.2c0.1-0.1,0.2,0.1,0.3-0.1c0.1,0,0.1,0.1,0.2-0.1c0.1-0.1,0.3,0,0.4-0.1c0.1,0,0.3,0,0.4,0.1
		c0,0.1,0.1,0.1,0.1,0.2C141.3,68.7,141.2,68.8,141.1,68.8z M141.5,63.7c0,0-0.1,0.1-0.2,0.1c-0.1,0-0.2-0.1-0.2-0.1
		c-0.2-0.1-0.3-0.2-0.2-0.4l0-0.2c0.1-0.1,0.3-0.1,0.4-0.2c0.2,0,0.3,0.1,0.4,0.2c0.1,0.1,0.2,0.2,0.2,0.4
		C141.8,63.5,141.7,63.7,141.5,63.7z"/>
	<path class="st2" d="M145.3,67.9c-0.1,0.1-0.4,0.2-0.5,0.4c-0.1,0.1-0.3,0.1-0.4,0.2c-0.1,0.1-0.3,0.2-0.5,0.2
		c-0.3,0.2-0.7,0.4-1.1,0.5c-0.2,0-0.3,0.1-0.4,0c-0.3-0.1-0.6-0.2-0.7-0.5c0-0.1-0.2-0.3-0.1-0.4c0-0.2,0.1-0.5,0.2-0.7
		c0.1-0.1,0.1-0.2,0.1-0.3c0-0.2,0.3-0.3,0.3-0.5c0.1-0.1,0.2-0.3,0.4-0.4c0.1,0,0.2-0.1,0.2-0.2c0.2-0.2,0.4-0.4,0.7-0.5
		c0.3-0.2,0.6-0.3,0.9-0.4c0.2,0,0.5,0.1,0.6,0.2c0.1,0.1,0.1,0.2,0,0.3c-0.1,0.1-0.1,0.3-0.2,0.4c-0.2,0.4-0.5,0.6-0.8,0.8
		c-0.3,0.1-0.5,0.2-0.7,0.4c-0.2,0-0.4,0.2-0.6,0.3c-0.1,0-0.3,0-0.3,0.1c0,0.2-0.1,0.5,0,0.8c0.1,0.1,0.3,0.1,0.4,0
		c0.3,0,0.5-0.2,0.8-0.3c0.1-0.1,0.2-0.1,0.3-0.1c0-0.1,0.1-0.1,0.3-0.2c0.2-0.1,0.5-0.2,0.7-0.3c0.1,0,0.2,0,0.2,0
		c0.1-0.1,0.2-0.1,0.3-0.2c0.1,0,0.2,0,0.2,0.1C145.7,67.7,145.4,67.7,145.3,67.9 M144.6,65.5c-0.1,0-0.1,0-0.2,0
		c-0.5,0.3-1,0.6-1.3,1.1c-0.1,0.1-0.2,0.2-0.3,0.3c0.2,0,0.3-0.1,0.4-0.1c0.1-0.1,0.2-0.1,0.3-0.2c0.1,0,0.2-0.2,0.3-0.2
		c0.1,0,0.1-0.2,0.3-0.2c0.1-0.1,0.1-0.2,0.3-0.2c0.1-0.2,0.3-0.3,0.2-0.5C144.7,65.6,144.6,65.6,144.6,65.5"/>
	<path class="st3" d="M145.3,67.9c-0.1,0.1-0.4,0.2-0.5,0.4c-0.1,0.1-0.3,0.1-0.4,0.2c-0.1,0.1-0.3,0.2-0.5,0.2
		c-0.3,0.2-0.7,0.4-1.1,0.5c-0.2,0-0.3,0.1-0.4,0c-0.3-0.1-0.6-0.2-0.7-0.5c0-0.1-0.2-0.3-0.1-0.4c0-0.2,0.1-0.5,0.2-0.7
		c0.1-0.1,0.1-0.2,0.1-0.3c0-0.2,0.3-0.3,0.3-0.5c0.1-0.1,0.2-0.3,0.4-0.4c0.1,0,0.2-0.1,0.2-0.2c0.2-0.2,0.4-0.4,0.7-0.5
		c0.3-0.2,0.6-0.3,0.9-0.4c0.2,0,0.5,0.1,0.6,0.2c0.1,0.1,0.1,0.2,0,0.3c-0.1,0.1-0.1,0.3-0.2,0.4c-0.2,0.4-0.5,0.6-0.8,0.8
		c-0.3,0.1-0.5,0.2-0.7,0.4c-0.2,0-0.4,0.2-0.6,0.3c-0.1,0-0.3,0-0.3,0.1c0,0.2-0.1,0.5,0,0.8c0.1,0.1,0.3,0.1,0.4,0
		c0.3,0,0.5-0.2,0.8-0.3c0.1-0.1,0.2-0.1,0.3-0.1c0-0.1,0.1-0.1,0.3-0.2c0.2-0.1,0.5-0.2,0.7-0.3c0.1,0,0.2,0,0.2,0
		c0.1-0.1,0.2-0.1,0.3-0.2c0.1,0,0.2,0,0.2,0.1C145.7,67.7,145.4,67.7,145.3,67.9z M144.6,65.5c-0.1,0-0.1,0-0.2,0
		c-0.5,0.3-1,0.6-1.3,1.1c-0.1,0.1-0.2,0.2-0.3,0.3c0.2,0,0.3-0.1,0.4-0.1c0.1-0.1,0.2-0.1,0.3-0.2c0.1,0,0.2-0.2,0.3-0.2
		c0.1,0,0.1-0.2,0.3-0.2c0.1-0.1,0.1-0.2,0.3-0.2c0.1-0.2,0.3-0.3,0.2-0.5C144.7,65.6,144.6,65.6,144.6,65.5z"/>
	<path class="st2" d="M151.6,69l-0.2,0.2c-0.1,0-0.3,0.1-0.4,0c-0.2,0-0.3-0.1-0.5-0.1c-0.1-0.1-0.2-0.2-0.4-0.2
		c-0.1-0.1-0.3-0.3-0.3-0.4c-0.2-0.2,0-0.4-0.2-0.5c-0.1-0.1-0.1-0.2-0.1-0.3c-0.1-0.1-0.1-0.2-0.1-0.3c0-0.2-0.1-0.4-0.1-0.5
		c0-0.1-0.1,0-0.1,0c-0.3,0.2-0.6,0.5-0.9,0.7c-0.1,0.1-0.2,0.1-0.2,0.3c-0.4,0.2-0.7,0.5-1,0.8c-0.2,0.1-0.3,0.3-0.5,0.3
		c-0.1,0-0.1,0.1-0.2,0.1c-0.1,0.1-0.2,0.2-0.3,0.2c-0.2,0.1-0.3-0.1-0.4-0.2c0-0.1,0.1-0.2,0.1-0.3c-0.1-0.2,0.1-0.3,0.2-0.4
		c0.1-0.2,0.2-0.4,0.2-0.5c0.1-0.3,0.1-0.5,0.3-0.7c0.2-0.5,0.4-1,0.6-1.5c0.1-0.1,0.2-0.3,0.3-0.3c0.1,0,0.1,0,0.2,0
		c0.1,0.1,0.1,0.1,0.2,0.1c0.1,0.1,0,0.2,0,0.4c0,0.2-0.3,0.4-0.3,0.6c-0.1,0.1-0.1,0.3-0.1,0.4c-0.1,0.3-0.3,0.6-0.4,0.9h0
		c0.2-0.2,0.4-0.3,0.6-0.4c0.4-0.4,0.9-0.6,1.3-1c0.2-0.1,0.2-0.2,0.3-0.3c0.2,0,0.4-0.1,0.5,0.1c0.1,0.1,0.2,0.2,0.2,0.4
		c0,0.1,0.1,0.3,0.1,0.5c0,0.2,0,0.4,0.1,0.7c0.1,0.2,0.2,0.5,0.4,0.7c0.2,0.1,0.4,0.3,0.5,0.4c0.1,0,0.2,0,0.3,0
		c0.1,0,0.2,0.1,0.3,0.1c0.1,0,0.1,0.1,0.1,0.1C151.5,68.8,151.6,68.9,151.6,69"/>
	<path class="st3" d="M151.6,69l-0.2,0.2c-0.1,0-0.3,0.1-0.4,0c-0.2,0-0.3-0.1-0.5-0.1c-0.1-0.1-0.2-0.2-0.4-0.2
		c-0.1-0.1-0.3-0.3-0.3-0.4c-0.2-0.2,0-0.4-0.2-0.5c-0.1-0.1-0.1-0.2-0.1-0.3c-0.1-0.1-0.1-0.2-0.1-0.3c0-0.2-0.1-0.4-0.1-0.5
		c0-0.1-0.1,0-0.1,0c-0.3,0.2-0.6,0.5-0.9,0.7c-0.1,0.1-0.2,0.1-0.2,0.3c-0.4,0.2-0.7,0.5-1,0.8c-0.2,0.1-0.3,0.3-0.5,0.3
		c-0.1,0-0.1,0.1-0.2,0.1c-0.1,0.1-0.2,0.2-0.3,0.2c-0.2,0.1-0.3-0.1-0.4-0.2c0-0.1,0.1-0.2,0.1-0.3c-0.1-0.2,0.1-0.3,0.2-0.4
		c0.1-0.2,0.2-0.4,0.2-0.5c0.1-0.3,0.1-0.5,0.3-0.7c0.2-0.5,0.4-1,0.6-1.5c0.1-0.1,0.2-0.3,0.3-0.3c0.1,0,0.1,0,0.2,0
		c0.1,0.1,0.1,0.1,0.2,0.1c0.1,0.1,0,0.2,0,0.4c0,0.2-0.3,0.4-0.3,0.6c-0.1,0.1-0.1,0.3-0.1,0.4c-0.1,0.3-0.3,0.6-0.4,0.9h0
		c0.2-0.2,0.4-0.3,0.6-0.4c0.4-0.4,0.9-0.6,1.3-1c0.2-0.1,0.2-0.2,0.3-0.3c0.2,0,0.4-0.1,0.5,0.1c0.1,0.1,0.2,0.2,0.2,0.4
		c0,0.1,0.1,0.3,0.1,0.5c0,0.2,0,0.4,0.1,0.7c0.1,0.2,0.2,0.5,0.4,0.7c0.2,0.1,0.4,0.3,0.5,0.4c0.1,0,0.2,0,0.3,0
		c0.1,0,0.2,0.1,0.3,0.1c0.1,0,0.1,0.1,0.1,0.1C151.5,68.8,151.6,68.9,151.6,69z"/>
	<path class="st2" d="M155.7,65.8c-0.1,0.1-0.3,0.1-0.5,0.1c-0.1-0.1-0.1-0.4-0.3-0.4c-0.3,0-0.6,0.2-0.8,0.4
		c-0.4,0.4-0.8,0.7-1.2,1.1c-0.1,0.2-0.2,0.3-0.2,0.5c-0.2,0.1-0.1,0.4-0.2,0.6c0,0.1,0,0.3,0.1,0.4c0.2,0,0.5,0,0.6,0
		c0.2-0.1,0.4-0.2,0.7-0.3c0.1,0,0.1,0.1,0.1,0c0.1-0.1,0.2-0.1,0.4-0.2c0.2-0.1,0.4-0.1,0.5-0.3c0.1,0,0.2,0,0.3,0
		c0.1-0.1,0.3-0.2,0.5-0.1c0.1,0,0.1,0.1,0.1,0.1c-0.1,0.2-0.3,0.2-0.4,0.4c-0.1,0.1-0.3,0.2-0.4,0.3c-0.1,0.1-0.3,0.1-0.4,0.1
		c-0.3,0.3-0.7,0.3-1,0.5c-0.3,0.1-0.5,0.2-0.8,0.2c-0.3,0.1-0.5-0.1-0.7-0.2c-0.3-0.1-0.3-0.4-0.4-0.7c0.1-0.4,0.1-0.7,0.4-1
		c0.1-0.2,0.1-0.3,0.3-0.4c0.2-0.3,0.5-0.5,0.7-0.8c0.3-0.3,0.6-0.5,0.9-0.8c0.3-0.1,0.4-0.3,0.7-0.3c0.2-0.1,0.4-0.2,0.6-0.1
		c0.1,0.1,0.2,0.1,0.3,0.1c0.2,0.1,0.3,0.2,0.4,0.4C155.8,65.5,155.9,65.7,155.7,65.8"/>
	<path class="st3" d="M155.7,65.8c-0.1,0.1-0.3,0.1-0.5,0.1c-0.1-0.1-0.1-0.4-0.3-0.4c-0.3,0-0.6,0.2-0.8,0.4
		c-0.4,0.4-0.8,0.7-1.2,1.1c-0.1,0.2-0.2,0.3-0.2,0.5c-0.2,0.1-0.1,0.4-0.2,0.6c0,0.1,0,0.3,0.1,0.4c0.2,0,0.5,0,0.6,0
		c0.2-0.1,0.4-0.2,0.7-0.3c0.1,0,0.1,0.1,0.1,0c0.1-0.1,0.2-0.1,0.4-0.2c0.2-0.1,0.4-0.1,0.5-0.3c0.1,0,0.2,0,0.3,0
		c0.1-0.1,0.3-0.2,0.5-0.1c0.1,0,0.1,0.1,0.1,0.1c-0.1,0.2-0.3,0.2-0.4,0.4c-0.1,0.1-0.3,0.2-0.4,0.3c-0.1,0.1-0.3,0.1-0.4,0.1
		c-0.3,0.3-0.7,0.3-1,0.5c-0.3,0.1-0.5,0.2-0.8,0.2c-0.3,0.1-0.5-0.1-0.7-0.2c-0.3-0.1-0.3-0.4-0.4-0.7c0.1-0.4,0.1-0.7,0.4-1
		c0.1-0.2,0.1-0.3,0.3-0.4c0.2-0.3,0.5-0.5,0.7-0.8c0.3-0.3,0.6-0.5,0.9-0.8c0.3-0.1,0.4-0.3,0.7-0.3c0.2-0.1,0.4-0.2,0.6-0.1
		c0.1,0.1,0.2,0.1,0.3,0.1c0.2,0.1,0.3,0.2,0.4,0.4C155.8,65.5,155.9,65.7,155.7,65.8z"/>
	<path class="st2" d="M159.8,67.9c-0.1,0.1-0.4,0.2-0.5,0.4c-0.1,0.1-0.3,0.1-0.4,0.2c-0.1,0.1-0.3,0.2-0.5,0.2
		c-0.3,0.2-0.7,0.4-1.1,0.5c-0.2,0-0.3,0.1-0.4,0c-0.3-0.1-0.6-0.2-0.7-0.5c0-0.1-0.2-0.3-0.1-0.4c0-0.2,0.1-0.5,0.2-0.7
		c0.1-0.1,0.1-0.2,0.1-0.3c0-0.2,0.3-0.3,0.3-0.5c0.1-0.1,0.2-0.3,0.4-0.4c0.1,0,0.1-0.1,0.2-0.2c0.2-0.2,0.4-0.4,0.7-0.5
		c0.3-0.2,0.6-0.3,0.9-0.4c0.2,0,0.5,0.1,0.6,0.2c0.1,0.1,0.1,0.2,0,0.3c-0.1,0.1-0.1,0.3-0.2,0.4c-0.2,0.4-0.5,0.6-0.8,0.8
		c-0.3,0.1-0.5,0.2-0.7,0.4c-0.2,0-0.4,0.2-0.6,0.3c-0.1,0-0.3,0-0.3,0.1c0,0.2-0.1,0.5,0,0.8c0.1,0.1,0.3,0.1,0.4,0
		c0.3,0,0.5-0.2,0.8-0.3c0.1-0.1,0.2-0.1,0.3-0.1c0-0.1,0.2-0.1,0.3-0.2c0.2-0.1,0.5-0.2,0.7-0.3c0.1,0,0.2,0,0.2,0
		c0.1-0.1,0.2-0.1,0.3-0.2c0.1,0,0.2,0,0.2,0.1C160.1,67.7,159.8,67.7,159.8,67.9 M159,65.5c-0.1,0-0.1,0-0.2,0
		c-0.5,0.3-1,0.6-1.3,1.1c-0.1,0.1-0.2,0.2-0.3,0.3c0.2,0,0.3-0.1,0.4-0.1c0.1-0.1,0.2-0.1,0.3-0.2c0.1,0,0.2-0.2,0.3-0.2
		c0.1,0,0.1-0.2,0.3-0.2c0.1-0.1,0.1-0.2,0.3-0.2c0.1-0.2,0.3-0.3,0.2-0.5C159.1,65.6,159.1,65.6,159,65.5"/>
	<path class="st3" d="M159.8,67.9c-0.1,0.1-0.4,0.2-0.5,0.4c-0.1,0.1-0.3,0.1-0.4,0.2c-0.1,0.1-0.3,0.2-0.5,0.2
		c-0.3,0.2-0.7,0.4-1.1,0.5c-0.2,0-0.3,0.1-0.4,0c-0.3-0.1-0.6-0.2-0.7-0.5c0-0.1-0.2-0.3-0.1-0.4c0-0.2,0.1-0.5,0.2-0.7
		c0.1-0.1,0.1-0.2,0.1-0.3c0-0.2,0.3-0.3,0.3-0.5c0.1-0.1,0.2-0.3,0.4-0.4c0.1,0,0.1-0.1,0.2-0.2c0.2-0.2,0.4-0.4,0.7-0.5
		c0.3-0.2,0.6-0.3,0.9-0.4c0.2,0,0.5,0.1,0.6,0.2c0.1,0.1,0.1,0.2,0,0.3c-0.1,0.1-0.1,0.3-0.2,0.4c-0.2,0.4-0.5,0.6-0.8,0.8
		c-0.3,0.1-0.5,0.2-0.7,0.4c-0.2,0-0.4,0.2-0.6,0.3c-0.1,0-0.3,0-0.3,0.1c0,0.2-0.1,0.5,0,0.8c0.1,0.1,0.3,0.1,0.4,0
		c0.3,0,0.5-0.2,0.8-0.3c0.1-0.1,0.2-0.1,0.3-0.1c0-0.1,0.2-0.1,0.3-0.2c0.2-0.1,0.5-0.2,0.7-0.3c0.1,0,0.2,0,0.2,0
		c0.1-0.1,0.2-0.1,0.3-0.2c0.1,0,0.2,0,0.2,0.1C160.1,67.7,159.8,67.7,159.8,67.9z M159,65.5c-0.1,0-0.1,0-0.2,0
		c-0.5,0.3-1,0.6-1.3,1.1c-0.1,0.1-0.2,0.2-0.3,0.3c0.2,0,0.3-0.1,0.4-0.1c0.1-0.1,0.2-0.1,0.3-0.2c0.1,0,0.2-0.2,0.3-0.2
		c0.1,0,0.1-0.2,0.3-0.2c0.1-0.1,0.1-0.2,0.3-0.2c0.1-0.2,0.3-0.3,0.2-0.5C159.1,65.6,159.1,65.6,159,65.5z"/>
</g>
</svg>
